<svg xmlns="http://www.w3.org/2000/svg" viewBox="0 0 323.04 55.94"><defs><style>.cls-1{fill:#231f20;}</style></defs><title>1</title><g id="Layer_2" data-name="Layer 2"><g id="Layer_1-2" data-name="Layer 1"><path class="cls-1" d="M.6,18.89A2.09,2.09,0,0,1,1,20.09c0,.14,0,.37,0,.7s-.05.59-.05.75a.6.6,0,0,1-.2.05,6.58,6.58,0,0,1-.05-.85,2.13,2.13,0,0,1-.3.33l-.3.27a2.78,2.78,0,0,0,.15-1.05A2.64,2.64,0,0,1,.6,18.89Zm4.9,27c0,.77,0,2.2-.15,4.3a3.36,3.36,0,0,0,.07.58q.07.33,0,.42a1.82,1.82,0,0,1-.37.35l-.17-.37-.23-.48c0,.17-.07.39-.1.65s0,.42,0,.45a.32.32,0,0,1-.15.05s-.23-.35-.6-1a1.06,1.06,0,0,1-.3.25A17.07,17.07,0,0,1,3.1,48a8.87,8.87,0,0,1,.1-1.4,9.12,9.12,0,0,0,0-.92c0-.32,0-.78-.08-1.4s-.07-1.06-.07-1.33V40.19a8.66,8.66,0,0,0-.05-.95,1.18,1.18,0,0,0-.2-.65v13s-.05-.06-.15-.1a1.18,1.18,0,0,1-.25-.1,1.23,1.23,0,0,0-.05.35.4.4,0,0,1,0,.25,5.12,5.12,0,0,0-.75-.6q.1-1.09.15-1.5l-.3.2-.1.1c-.1-.93-.15-1.41-.15-1.45,0-.4.1-1,.2-1.75s.15-1.2.15-1.3a.58.58,0,0,0-.1-.42,1,1,0,0,1-.15-.38,8.48,8.48,0,0,0,.08-1,4.77,4.77,0,0,1,.17-1.25,2,2,0,0,1,.6-.9l-.3-.07-.2,0a1.72,1.72,0,0,0-.18-.47c-.11-.25-.09-.43.08-.53s0-.18-.15-.35a.8.8,0,0,1-.1-1.2,3.17,3.17,0,0,0,.15-.85c-.23,0-.37-.09-.4-.17a.38.38,0,0,1,.08-.33.7.7,0,0,0,.12-.25c0-.5-.12-.73-.45-.7l.35-.7a1.86,1.86,0,0,0-.08-.9,1.4,1.4,0,0,0-.62-.5c.07,0,.14-.25.22-.67a.66.66,0,0,1,.78-.58l-.55-1c.47-.36.52-.73.15-1.1,0,.14,0,.4-.05.8a4.5,4.5,0,0,1-.15-.55,1,1,0,0,0-.25.25c0-.1-.07-.27-.13-.52s-.09-.43-.12-.53c.1.14.28.06.53-.22s.44-.23.57.17c-.1-1.43-.15-2.95-.15-4.55,0-2,.1-4.66.3-8a.6.6,0,0,0,.2,0c0,.1.1.45.2,1s.17,1,.2,1.27a2.7,2.7,0,0,0,.1-.65c0-.36.07-.68.1-.95a3.45,3.45,0,0,1,.3,1.45,8.58,8.58,0,0,1-.13,1.25,10.15,10.15,0,0,0-.12,1.25,1.75,1.75,0,0,0,0,.4c0,.37,0,.79,0,1.25,0,.27,0,.69,0,1.25s0,1,0,1.3v.7c.13,1.8.25,3.17.35,4.1h.4v-3.1s0,0,.15,0q.11,1.75.15,2.25h.2V19.84H4.4v6.7h.2c0-.43.07-1.81.2-4.15H5q0,.75.3,9.05c2.33-.36,4-.63,4.9-.8a4.1,4.1,0,0,0-.5.55l2.3-.4a.19.19,0,0,1,.05-.1l-1-.1c.27,0,.7-.1,1.3-.22s1-.19,1.35-.23c.17-1.6.27-3.31.3-5.15v-.35c.37-.26.55-.88.55-1.85a8.49,8.49,0,0,1,2.05-5.15c.07.2.21.55.42,1s.4.87.53,1.17a1.19,1.19,0,0,1,.5-1.12c.4-.35.62-.59.65-.73.33.67.57,1.12.7,1.35.07-.06.13-.13.2-.2a4.4,4.4,0,0,1,.8,2.45,5.75,5.75,0,0,1-.2,1.45,4.14,4.14,0,0,0-.25,1.5,5.36,5.36,0,0,0,.05.7,1.21,1.21,0,0,1-.13.45,1.48,1.48,0,0,0-.12.4c0,.27-.2,1.52-.5,3.75l-.3-.1c-.1,1-.15,1.6-.15,1.7a1.57,1.57,0,0,0,.13.5c.08.24.14.4.17.5s0,.23,0,.48,0,.44,0,.57a3.23,3.23,0,0,1,0,.35c0,.17,0,.29,0,.35a9.19,9.19,0,0,0,.1,1.6,7,7,0,0,1,.07-.82c.06-.38.1-.69.13-.93l.15.05c0,.67-.05,1.12-.05,1.35a5.24,5.24,0,0,0,.3,1.85c0-.33.07-.65.1-.95a1,1,0,0,0,.1.35,1,1,0,0,1,.08.45c0,.14-.15.25-.38.35-.07,0-.14.25-.23.65a2.53,2.53,0,0,1-.22.75c-.07-.33-.13-.5-.2-.5v1.2h-.15v-.3h-.2c0,.7,0,1.35,0,2A23.65,23.65,0,0,0,19.05,46c.27-.3.47-.41.6-.35a1.9,1.9,0,0,1,.5.85q.11-.39.3-.45l.45,1.25a.35.35,0,0,1-.1.08.18.18,0,0,1-.1,0,.78.78,0,0,0-.1-.3l-.15-.3h-.1v2.75l-.6.05c-.17.47-.4.54-.7.2l-.15-.15a5.51,5.51,0,0,1-.35.9,7.63,7.63,0,0,1-.5-.7s-.15.12-.35.35a2.35,2.35,0,0,1-.1-.22,3,3,0,0,0-.13-.3l-.12-.28c-.17.57-.27.94-.3,1.1s-.33.08-.6.13l-.7.12c-.43-1.4-.67-2.13-.7-2.2v-.2a1.61,1.61,0,0,1-.3-1q0-.15,0-.45c0-.2,0-.35,0-.45V46a14,14,0,0,0-.52-1.65,5.48,5.48,0,0,1-.43-1.85,3,3,0,0,1,.1-.75.36.36,0,0,0,0-.3.7.7,0,0,1-.1-.25v-.7c-.27-.06-.4-.78-.4-2.15a3.34,3.34,0,0,1,.3-1.7c.1.47.24,1.11.43,1.93s.3,1.36.37,1.62a3.7,3.7,0,0,0,.2-1.65,5.39,5.39,0,0,0-.3-2.4c0,.07,0,.17,0,.3a2.44,2.44,0,0,0,0,.3,6.55,6.55,0,0,0-1-.55l-1.3.1v.2a1.31,1.31,0,0,0,.4.1l-.2.15c-1.13.14-2.2.25-3.2.35L8.85,37c.33-.13.7-.26,1.1-.4a1.18,1.18,0,0,0-.65-.2,3.3,3.3,0,0,0-.6.1,2.6,2.6,0,0,1-.6.1,1.06,1.06,0,0,1-.55-.15,1.61,1.61,0,0,1-.1.25h0c-.17,0-.42.08-.75.13L6,37c0-.13-.07-.26-.1-.4-.07,0-.14.18-.22.43s-.26.32-.53.22c-.2.64-.3,1-.3,1a8.69,8.69,0,0,0,.35,1.7V39H5.4v5.7h.25v-1.2a2,2,0,0,1,.2,1.6,1,1,0,0,0,.1.65,1.77,1.77,0,0,1,.5.95,1.9,1.9,0,0,1-.4,1c.27.14.41.25.42.35a.55.55,0,0,1-.17.4,1.24,1.24,0,0,0-.25.5c0,.07,0,.34,0,.8H5.75V45.89Zm-4.4.8c-.07.37-.17.86-.3,1.48s-.22,1-.25,1.22a.11.11,0,0,1,.08,0s0,0,.07,0a2.16,2.16,0,0,1,.1-.5L1,49a4.78,4.78,0,0,1,0,.5A5.19,5.19,0,0,1,.8,50c-.3-.13-.45-.45-.45-.95a8.18,8.18,0,0,1,.55-2.4ZM.7,23.84c.07.6.13,1.45.2,2.55a.5.5,0,0,0-.15-.05,5.35,5.35,0,0,1-.18-.65,4.29,4.29,0,0,1-.12-.9A1.9,1.9,0,0,1,.7,23.84Zm.45,18.65v2.3a.46.46,0,0,1-.4-.5A9,9,0,0,1,1.15,42.49Zm3.4-14.2-.2.05c0,.2.07.53.12,1s.1.79.13,1a.54.54,0,0,1,.3-.05c0-.16-.08-.38-.12-.65s-.1-.5-.13-.72S4.58,28.49,4.55,28.29Zm.4-8.1h.2c-.1.6-.22,1.27-.35,2a.21.21,0,0,0-.15-.05h-.1Zm.6,17.25a2.59,2.59,0,0,0,.5-.07l.58-.13a1.6,1.6,0,0,0,.44-.17.75.75,0,0,0,.33-.33A3.84,3.84,0,0,1,8.75,37a10.63,10.63,0,0,1-2.85.7H5.6A.62.62,0,0,0,5.55,37.44Zm11-9.25V31a.21.21,0,0,1,.15.05V28.19Zm.6-5.75c0,.34-.1.89-.2,1.65s-.18,1.35-.25,1.75l.2.05c.13-1.1.27-2.23.4-3.4Zm2.1,18c.07.6.18,1.65.35,3.15-.37-.13-.57-.24-.6-.32a1.53,1.53,0,0,1,.05-.63,16.13,16.13,0,0,0-.1-2.15h.15A.17.17,0,0,0,19.2,40.44Z"/><path class="cls-1" d="M29.2,40a4.48,4.48,0,0,1,.12,1.23c0,.68.1,1,.23,1.07a1.16,1.16,0,0,0,1.1-.45,7.8,7.8,0,0,0,1-.5,2.3,2.3,0,0,1,1.75-.5c-.27.17-.36.25-.28.25a2.44,2.44,0,0,0,.35,0,.51.51,0,0,1,.3,0c.05,0,0,.1,0,.2l-.4.25h.1c.86-.23,1.23-.11,1.1.35a.2.2,0,0,0,0,.15c.37,0,.58,0,.65.15a2,2,0,0,1,.1.8c-.3.27-.37.41-.2.43a1.39,1.39,0,0,0,.6-.1c.23-.08.36-.08.4,0a.41.41,0,0,1-.08.35c-.08.14-.07.2,0,.2.26,0,.42,0,.47,0s0,.17-.22.3a4.13,4.13,0,0,1-.93.43c-.41.15-1.1.42-2.07.82a2.64,2.64,0,0,1-1.23,1,3.74,3.74,0,0,0-1.22.83,11.11,11.11,0,0,1-1,1,7.62,7.62,0,0,0-.95,1,2.44,2.44,0,0,1-1.08.68,2.51,2.51,0,0,0-1.17.82,1.06,1.06,0,0,1-.93.5q-.57,0-.87-.75c-.87,0-1-.48-.5-1.35l-.5-.2c-.8-.26-1.07-.55-.8-.85a5.22,5.22,0,0,1,.1-.72c.07-.38,0-.58-.2-.58,0-.23.32-.61,1-1.15s.83-1.08.53-1.65c0-.33,0-.65,0-1a5,5,0,0,0-.25-1.7,2.32,2.32,0,0,1-.2-1,3.35,3.35,0,0,1,.25-1.2,3.73,3.73,0,0,0,.25-1.85c-.47-.26-.63-.5-.5-.7s.35-.23.65-.1A4.1,4.1,0,0,1,24.87,38a9.86,9.86,0,0,0,.13,1.3v-.4c0-.4,0-1-.05-1.95v-.35a6.16,6.16,0,0,1,.2-2.1,3.52,3.52,0,0,0-.25-1.75,2.12,2.12,0,0,0,.07.35,4.39,4.39,0,0,1,0,1.18c0,.58-.22.71-.52.37a5.11,5.11,0,0,0,.05-.75,14.47,14.47,0,0,0-.15-1.9c-.1-1.16-.16-1.95-.18-2.35a13.5,13.5,0,0,1,.13-1.82,2.6,2.6,0,0,0-.1-1.58c.13-.33.25-.28.35.15a3.49,3.49,0,0,0,.55-2.25A7.65,7.65,0,0,0,25,23a8.21,8.21,0,0,0-.08-1.55,2.61,2.61,0,0,1,.13-1.55c.33,1.27.46,1.49.4.65-.2-.36-.27-.55-.2-.55s.21.1.42.28.34.72.38,1.6a18.47,18.47,0,0,0,.17,2.1,41,41,0,0,1,.18,4.32v1.6q0,2.81-.15,5.85c0,.57.12,2,.35,4.25a10.18,10.18,0,0,0-.15,1.85v.75c.06,1,.1,1.67.1,2l.3-16a3.71,3.71,0,0,1,.25,1.6l0,1.45c0-1.93.05-3.5.05-4.7a23.14,23.14,0,0,0-.1-2.8,13,13,0,0,1-.1-1.6v-.8c.07-.8.1-1.33.1-1.6.3-.06.48.19.55.75a7.51,7.51,0,0,1,.05,1.35,8.15,8.15,0,0,1,.07,2.13c-.05,1.08.08,1.74.38,2l.2.5a1,1,0,0,0-.08-.92,4.21,4.21,0,0,0-.37-.68,11.55,11.55,0,0,0,.1-1.5,10.17,10.17,0,0,0-.25-2.2c.13-.7.28-.71.45-.05a7.13,7.13,0,0,1,.12.85c0,.24.05.64.08,1.2a11.43,11.43,0,0,0,.3,2.65,3.87,3.87,0,0,0-.2,1.5c0,.37,0,.8.05,1.3.1,1.17.15,2,.15,2.5l-.2,1.8c0,.7.05,1.62.15,2.75.2,2.47.3,3.9.3,4.3v.4Zm-5.15-6.9.05.15c.1.44.12.68.07.73s-.11,0-.2-.28A.6.6,0,0,1,24.05,33.09Zm.8-6.15,0,2a4.28,4.28,0,0,1,0,1.3L25,31a.71.71,0,0,0,.1-.2,8.06,8.06,0,0,1,.1-2.15,12.92,12.92,0,0,0,.1-1.4,6.82,6.82,0,0,0-.05-.85s-.08.14-.15.4S24.92,27.14,24.85,26.94Zm1.85-4a2.86,2.86,0,0,1,.2,1.2c0,.3,0,.65,0,1.05-.14-.06-.21-.37-.23-.92A6.33,6.33,0,0,1,26.7,22.94ZM27.9,27v2.25l.15-1.15A3,3,0,0,0,27.9,27Zm1.8,8.45v3.45a11.94,11.94,0,0,1-.3-2.3A1.65,1.65,0,0,1,29.7,35.49Zm.85,10.3-.25.05-.25,0-.4.3C29.82,46.29,30.12,46.16,30.55,45.79Zm1.9-1.1c-.57.3-.87.47-.9.5l.8-.4Zm1.2.7a1.58,1.58,0,0,1,.72-.32,2.13,2.13,0,0,0,.53-.13.85.85,0,0,1,1.1-.4c.53.14.51.35,0,.65l-.5.25c-1,.5-1.55.54-1.55.1a.64.64,0,0,1-.35.15C33.45,45.69,33.48,45.59,33.65,45.39Z"/><path class="cls-1" d="M56.45,46.09a15.41,15.41,0,0,1-1.55-1.45l.1-.12c0-.05.06-.08.1-.08s.21.2.45.4q-.06-1.05-.15-2.85h-.2a4.07,4.07,0,0,1-.1.85c-.07-.33-.15-.73-.25-1.2-.34.17-1.25.54-2.75,1.1a11.58,11.58,0,0,0-3.25,1.7l-.2-.2L48.4,44c0,.17-.1.43-.2.78s-.19.62-.25.8a4.88,4.88,0,0,1-.3.62,1.82,1.82,0,0,1-.45.55c-.3.3-.44.55-.43.73s.21.39.58.62q.8.4.3.9l-.45.25c0-.3-.05-.48-.05-.55l.05-.3-.33-.17L46.55,48c.07.6.1.92.1,1,0,.24-.07.39-.2.45a2.14,2.14,0,0,0-.65,1.43,5.19,5.19,0,0,1-.35,1.37c-.1.2-.62.3-1.55.3q-.4-.39-.45-.45l-.6-.15c-.07.34-.29.43-.68.28a1.17,1.17,0,0,0-.77-.13c-.37-.56-.53-.86-.5-.9s0-.33.1-.8a9.57,9.57,0,0,0,.1-1c0-.4-.09-.63-.25-.7a1,1,0,0,0,0-.47,1.49,1.49,0,0,1,0-.5.57.57,0,0,1,.23-.38.46.46,0,0,0,0-.2,2.12,2.12,0,0,0,0-.32.45.45,0,0,1,0-.33s0-.33.1-.9l-.45.15-.45.15a1.37,1.37,0,0,0,.07-.55q0-.24-.42-.3a3.67,3.67,0,0,0-.3-1,.92.92,0,0,0,.12-.2.94.94,0,0,1,.18-.25,4,4,0,0,0-.65.1,8,8,0,0,1-.28-1.25,3.83,3.83,0,0,0-.52-1.5,1.47,1.47,0,0,1,1-.7A13.53,13.53,0,0,0,42.1,39a8.65,8.65,0,0,1,.6-.85,2.94,2.94,0,0,1,.2.55,3.18,3.18,0,0,1,.07-.47,1.52,1.52,0,0,1,.18-.53,1,1,0,0,1,.4-.3c.16-.06.21-.2.15-.4a1.75,1.75,0,0,1-.05-.4,1.93,1.93,0,0,1,.12-.67c.09-.22.19-.47.33-.75a4.62,4.62,0,0,1,.3-.58,6.33,6.33,0,0,1,.55-1l.25-.1c.06-.86.1-1.33.1-1.4s.22-.5.47-1a5.43,5.43,0,0,0,.48-1.38,4.89,4.89,0,0,1-.75,0c.56-1.53.9-2.41,1-2.65a22.53,22.53,0,0,1,.8-4.65,5.67,5.67,0,0,1,1.7-2.9l-.2-.25c.5-1.06.9-1.88,1.2-2.45a3,3,0,0,1,.7-1.1,3.51,3.51,0,0,1,1.95-.75l.3.35v-.7c.13.17.33.4.6.7l.75-.45c.33-.2.6-.35.8-.45,0,0,0,.32.1.85a1.87,1.87,0,0,0,.32-.05,2.12,2.12,0,0,0,.43-.1.38.38,0,0,1-.08-.17c0-.08,0-.14,0-.18a3.91,3.91,0,0,1,1.4,1.93,14,14,0,0,1,.5,2.82,1.65,1.65,0,0,1-.45-.35q.2,2.05.85,5.7a3.45,3.45,0,0,0,.25.6h.15a5.19,5.19,0,0,1,.1,1c0,.27,0,.65,0,1.15h.2c0-.1,0-.26,0-.5a4.45,4.45,0,0,1,.08-.55h.25c.1,1.14.15,1.75.15,1.85a2.68,2.68,0,0,1-.13.75,3,3,0,0,0-.12.6,1.12,1.12,0,0,0,.3.75,3,3,0,0,0-.3,1.75,1,1,0,0,0,.1.35,2.48,2.48,0,0,1,.12.38,1.28,1.28,0,0,1,0,.42v.7h.25v-1.3l.25-.05.15.6a1.84,1.84,0,0,0,.1,1,1.89,1.89,0,0,0,1,.4,6.4,6.4,0,0,1-.8.85c.2,0,.45,0,.75-.07a3.4,3.4,0,0,0,.65-.08.11.11,0,0,0,.05.1l-.48.3a4,4,0,0,1-.52.3l.9.2a5.15,5.15,0,0,1-.63.4c-.28.17-.49.29-.62.35.33-.06.78-.14,1.35-.22l1.25-.18a.92.92,0,0,0,0,.2,2.6,2.6,0,0,1-.63.2l-.62.15.4.55.65-.1a7.71,7.71,0,0,0-1.8,1.35c-.7.67-1.1,1-1.2,1.1l-.15-.25,0,.3c-.27.14-.3.3-.1.5a2,2,0,0,1,.1.65v0l0,0c0,.14,0,.35,0,.65s0,.52,0,.65a6.09,6.09,0,0,0,0,.9c.13.9.33,1.94.6,3.1a7.73,7.73,0,0,0,.37,1.08,5.46,5.46,0,0,1,.33,1c.46,1.57.88,3.14,1.25,4.7a1.38,1.38,0,0,0,.22.38.5.5,0,0,1,.08.57,3,3,0,0,1-.2.4.73.73,0,0,1-.25-.15,1.77,1.77,0,0,1-.3-.25c0,.1-.1.4-.2.9-.27-.3-.5-.56-.7-.8a1.64,1.64,0,0,0-.08.35,1.54,1.54,0,0,1-.07.35c-.07-.16-.22-.5-.45-1,0,.24-.08.53-.13.88a5.86,5.86,0,0,1-.12.67c-.47-.33-.77-.26-.9.2l-.45-1.1s-.12.37-.35,1a2.62,2.62,0,0,1-1.1-2,4.36,4.36,0,0,0-.8-2.5,2.54,2.54,0,0,1-.28-.5c-.08-.2-.16-.43-.25-.7l-.17-.55.25-.15.55.25A12.18,12.18,0,0,1,57.3,52a.3.3,0,0,0,.12,0l.13,0a3.48,3.48,0,0,0-.8-2.25,1.07,1.07,0,0,1-.3-.8,5.62,5.62,0,0,1,.1-.85,5.49,5.49,0,0,0,.1-.85c0-.5-.14-.63-.4-.4l-.3-.1A.9.9,0,0,1,56.45,46.09ZM40.8,48.69c-.13.7-.27,1.39-.4,2.05l0-.05V48.24c.13,0,.2.1.2.28S40.63,48.76,40.8,48.69Zm.05,0h0ZM47.8,23.54a3.89,3.89,0,0,0-.6,2,3.6,3.6,0,0,0,.2,1.2c.1-.3.26-.75.47-1.35l.48-1.3C48.28,24,48.1,23.84,47.8,23.54Zm4.55,6.35-.33.9c-.15.4-.26.7-.32.9a14.67,14.67,0,0,0-.3,1.45c.23,0,.35.1.35.2a2.07,2.07,0,0,1-.35.7,2.44,2.44,0,0,0,0-.3,1,1,0,0,0-.07-.3,18,18,0,0,0-1,2.9q-.19.75.6.3l.7-.35h.15a3.15,3.15,0,0,0,1.32-.42,8.26,8.26,0,0,1,1.18-.53,1.45,1.45,0,0,0,.9-.8v-1.3a1.3,1.3,0,0,1-.18.35,1.36,1.36,0,0,1-.17.25h-.15c-.14-1.16-.3-2.8-.5-4.9l0,.1-.55-1.45c-.24-.43-.29-.75-.15-.95l0-.35H53.2C52.7,28.39,52.42,29.59,52.35,29.89ZM54,24v3.2c.17-.06.4-.16.7-.3V25.34C54.67,25.28,54.43,24.83,54,24Zm1,3.65h-.2c.06,1.2.12,2.1.15,2.7a1.78,1.78,0,0,0,.45-1.15A8.37,8.37,0,0,0,55,27.64Zm1.7-5.45H56.4a9.63,9.63,0,0,0-.1,1.7c0,.3.12.85.25,1.63a12,12,0,0,1,.2,1.82c0,.34,0,.7,0,1.1,0,.64,0,1.55,0,2.73s-.07,1.92-.1,2.22c0,.07,0,.27.05.6H57c.13-2.46.2-4.08.2-4.85a25.66,25.66,0,0,0-.2-3.3c0,.07.15.29.35.65a3.08,3.08,0,0,0-.1-.85l-.3-.3c0-.23,0-.72-.1-1.47S56.71,22.56,56.65,22.19Zm.55.8-.13,0A.3.3,0,0,1,57,23c.06.57.17,1.44.3,2.6a6.73,6.73,0,0,0,.15-1.3A4.35,4.35,0,0,0,57.2,23Zm0,20.55a.46.46,0,0,0-.2.05q.09.36.75,2.7l.2,0c-.07-.33-.19-.81-.38-1.45S57.26,43.74,57.2,43.54Zm1.2,4.25h-.15c.26,1,.55,2.19.85,3.45a.18.18,0,0,0,.1,0,.17.17,0,0,1,.1,0C58.9,49.66,58.6,48.53,58.4,47.79Zm.1-25a7.88,7.88,0,0,0,.22.88,3.25,3.25,0,0,1,.18.92,1.61,1.61,0,0,1-.3.9h-.15q-.15-2.25-.15-2.7h.2Zm1,18.65.2,0c.06.3.18.92.35,1.85l-.2.05c0-.1-.09-.38-.18-.85S59.58,41.66,59.55,41.39Z"/><path class="cls-1" d="M65.2,27.34a1.56,1.56,0,0,1,.47.65,3.14,3.14,0,0,1,.15,1c0,.44,0,.7,0,.8a.91.91,0,0,1-.95-1.05,6,6,0,0,1,.1-1,16.42,16.42,0,0,0,.3,1.7l.15-.05c0-.23-.08-.57-.13-1S65.23,27.58,65.2,27.34Zm7.1-8.45A2.16,2.16,0,0,1,74,20a.5.5,0,0,0,0-.15v-.3l.1-.1a1.46,1.46,0,0,0,.9.6.5.5,0,0,0,.32,0c.15,0,.23,0,.23,0a1.43,1.43,0,0,0,1.4.5s.08,0,.15.1l.37.43.88,1a4.23,4.23,0,0,1,1.15,1.8,48.26,48.26,0,0,1,.55,5.8,3.85,3.85,0,0,1,0,.93,8.32,8.32,0,0,0-.07.87,4.78,4.78,0,0,0,.07.68,5.31,5.31,0,0,1,.08.72c0,.2-.11.5-.23.9a9.19,9.19,0,0,0-.22.9,5.49,5.49,0,0,1,.4-.45l0,0c-.1.34-.29.89-.55,1.65a2.42,2.42,0,0,1-.13-.5c0-.26-.09-.5-.12-.7-.17.64-.39,1.47-.65,2.5a4.29,4.29,0,0,1-.25.8,2.19,2.19,0,0,0-.4,1.5,19.41,19.41,0,0,0,1.25-2.65c-.17.67-.65,2.12-1.45,4.35a2,2,0,0,0-.1.5,17.84,17.84,0,0,0,1.32-2.85c.39-1,.78-2.18,1.18-3.45s.73-2.25,1-2.95a40.23,40.23,0,0,1-2.9,10,.58.58,0,0,1,.25.1,1.4,1.4,0,0,0,.17-.3,1.75,1.75,0,0,1,.23-.35H79c-.24.8-.35,1.22-.35,1.25-.9,1.44-2.14,3.34-3.7,5.7a2.88,2.88,0,0,1-.4.55l-.45.55a8.24,8.24,0,0,1-1.85,2l-1.2.7c0-.1,0-.43.1-1l-.5.33-.6.37c.06-.4.13-.75.2-1a5,5,0,0,1-.55,0c.66-.76,1.06-1.23,1.2-1.4,0,0-.07,0-.1-.1l-2.1,1.8a1,1,0,0,0-.4-.25,1,1,0,0,1-.5-.42,1,1,0,0,1,0-.78c-.2.1-.3.34-.3.7s-.39.72-1,.75c0,0-.1,0-.2,0a5,5,0,0,0-.35-.67,1.09,1.09,0,0,1-.15-.93c.06,0,.08-.22,0-.57s0-.56,0-.63a.45.45,0,0,1,.15-.4,2,2,0,0,0,.4-1.45q-.15-1.55-.45-7.85c0-.06,0-.24,0-.52a4.8,4.8,0,0,1,0-.68,1,1,0,0,0,.12-.32,1.84,1.84,0,0,0,.08-.48,3,3,0,0,0-.15.45h-.1a4.77,4.77,0,0,1-.15-.9,1.12,1.12,0,0,0,.22.1.48.48,0,0,0,.18,0c0-.43-.1-1.2-.2-2.32s-.17-2-.2-2.58h.35a1.77,1.77,0,0,1,.1.38,3.8,3.8,0,0,0,.1.47c0,.14.07.27.1.4h.15l-.15-1.75h.2a3.18,3.18,0,0,0,.15.78,3.19,3.19,0,0,1,.15.82,1.53,1.53,0,0,1-.35,1c-.1.17,0,.55.2,1.15a7.08,7.08,0,0,0,.1-.9h.15q.3,2.8.5,6L66.9,40v7.05h0q0-.15.15-.6l.1.15a5.68,5.68,0,0,1,.32-.47l.45-.6a2.37,2.37,0,0,0,.33-.6,1.87,1.87,0,0,0,.15-.68v-.55c0-2.76-.19-6.08-.55-10l-.05-.1V31a2.41,2.41,0,0,1,.3.83c.06.35.11.67.15,1s.06.67.07,1.15,0,.81,0,1q.34,4.65.55,7.85l.1,1.4a11.57,11.57,0,0,0,.15-2c0-.33,0-.85,0-1.55s-.05-1.23-.05-1.6,0-.83.05-1.2l.15.38a3.91,3.91,0,0,1,.15.45,1.62,1.62,0,0,1,0,.4.35.35,0,0,1-.15.32,2,2,0,0,0,0,.75c.1,1.14.16,2,.2,2.65l.9-.72,1-.83v1.2a2.06,2.06,0,0,0-.4.4c.1,0,.21,0,.35.2s.27.14.4-.1c.07-.06.26-.26.6-.6a6.41,6.41,0,0,0,.7-.8l.6-1.3v0a19.69,19.69,0,0,0,1.2-1.7,12.33,12.33,0,0,0,.95-2.6,1.74,1.74,0,0,0-.1-1c-.1,0-.14-.3-.13-.82s0-.81,0-.88c0-.23-.09-.7-.15-1.42s-.12-1.28-.15-1.68v-.45a4,4,0,0,0-.35-1.9c0-.13-.08-.38-.15-.75a2.46,2.46,0,0,0-.3-.85l.2-.65c0,.07.33.49.9,1.25q.15-1.65.15-2a1.05,1.05,0,0,1-.58-.17,3.34,3.34,0,0,1-.6-.53l-.47-.5c.13-.46.2-.71.2-.75a.41.41,0,0,0-.2-.27.89.89,0,0,0-.4-.08.73.73,0,0,1-.35-.05l-.25.45-.5-.45c-.1-.43-.51-.74-1.23-.92a3.24,3.24,0,0,1-1.32-.53q-.55-.64-.9-.45a.84.84,0,0,1-.75,0,2,2,0,0,0-.65-.2,2,2,0,0,1,.35-.2c-.17-.06-.45-.18-.85-.35l.32-.15a1.91,1.91,0,0,0,.38-.2c-.24-.1-.42-.18-.55-.25a1.33,1.33,0,0,0,.4.05,7,7,0,0,0,.87-.07A7.78,7.78,0,0,1,69.6,19a5.62,5.62,0,0,1,.7.05,28.55,28.55,0,0,0,2.9.6,1.4,1.4,0,0,1-.35-.27Zm-5.9,27.8h-.1c0,.17.07.5.12,1s.09.89.13,1.15h.3A3.9,3.9,0,0,1,67.1,48q.2-.52.3-.78a.41.41,0,0,1-.2-.1l-.3.6c-.07-.16-.16-.36-.28-.6ZM67.2,21v.85a5.62,5.62,0,0,0,0,.7,12,12,0,0,0,.4,2.55c0,.07,0,.6,0,1.6s.28,1.87.35,2.4a1.11,1.11,0,0,1,0,.55,6.51,6.51,0,0,1-.7-2.6V27c-.1-.3,0-.4.25-.3v-.35a1.3,1.3,0,0,1-.35-.57A2.64,2.64,0,0,1,67,25a2.64,2.64,0,0,0,0-.63,14.64,14.64,0,0,1-.15-2.6A1.12,1.12,0,0,1,67.2,21Zm5.65,26.45c-.47.54-.82,1-1,1.25C72.7,48.29,73.05,47.88,72.85,47.44Zm1-5.95c-.47.64-.93,1.29-1.4,1.95a.19.19,0,0,1,.1.05l0,0,.72-1,.68-.9s0,0-.08-.07S73.85,41.53,73.85,41.49Zm-.15-1.35-.28-.25a2.93,2.93,0,0,1-.22-.2l.45-.42c.23-.22.43-.39.6-.53A10,10,0,0,1,73.7,40.14Zm1.45,4-.7,1.13c-.3.48-.52.84-.65,1.07a.36.36,0,0,0,.15.1,5.68,5.68,0,0,1,.37-.47,3.64,3.64,0,0,0,.4-.53,3.06,3.06,0,0,0,.28-.55A1.86,1.86,0,0,0,75.15,44.19Zm1.5-2.35c-.73,1.14-1.22,1.92-1.45,2.35a4.14,4.14,0,0,1,.55-.2A5.12,5.12,0,0,0,76.65,41.84Zm.4-17.2a1.18,1.18,0,0,1-.25.1q.56,1.46.6,1.5a4.15,4.15,0,0,1,.7,2.25,6.42,6.42,0,0,1-.1,1.05,3.82,3.82,0,0,1-.25-1.4,2.2,2.2,0,0,0-.45-1.4c.07,1.07.16,2.69.3,4.85a22.56,22.56,0,0,0,.75-3.5,3.54,3.54,0,0,0-.6-2c-.2.07-.32-.05-.35-.35v-.25A6.17,6.17,0,0,1,77.05,24.64Zm.8,15a15.82,15.82,0,0,0-1,2.1.92.92,0,0,0,.45-.45,5.72,5.72,0,0,0,.4-1C77.78,39.9,77.85,39.68,77.85,39.64Zm2-.8q.3.3.3.45a4.77,4.77,0,0,1-1,1.45c.06-.2.17-.5.32-.92S79.78,39.08,79.85,38.84Zm.5-1.5a1.06,1.06,0,0,0,.1.3,3.7,3.7,0,0,1,.12.35.65.65,0,0,1,0,.28.44.44,0,0,1-.15.3.75.75,0,0,1-.42.17c0-.16.09-.41.17-.75S80.31,37.44,80.35,37.34Z"/><path class="cls-1" d="M92.1,14.69a1.8,1.8,0,0,1,.75-.25,1.31,1.31,0,0,1,.65,0,5.06,5.06,0,0,1,.75.27l.7.2a6.62,6.62,0,0,0,.62.33,2.67,2.67,0,0,1,.58.35l.45.42a1.47,1.47,0,0,1,.35,1.1c-.2.67-.4.64-.6-.1-.1-.23-.17-.35-.2-.35a6,6,0,0,1,0,.75,7.06,7.06,0,0,1-1.55,3.9,3.26,3.26,0,0,0-1.05,1.53,18.19,18.19,0,0,0-.45,1.8c-.14.65-.22,1-.25,1.12a1.87,1.87,0,0,1-.53,1.63c-.48.62-.67,1.09-.57,1.42.46-.7.71-.71.75-.05a2.32,2.32,0,0,1-.15,1.05,12.64,12.64,0,0,1-.78,3.73c-.48,1.38-.76,2.21-.82,2.47a4.55,4.55,0,0,0,2.1-.3c1.23-.43,1.88-.66,1.95-.7-.2,0-.25-.1-.15-.2q.45-.3.45,0t.42.15q.38-.09.33,0a1.2,1.2,0,0,1-.33.35c-.18.15-.21.22-.1.2l.43-.08a3.74,3.74,0,0,0,.6-2,4.45,4.45,0,0,0-.1-.85,8.68,8.68,0,0,1-.2-1.8,3.36,3.36,0,0,1,.1-.85,1.93,1.93,0,0,1,.42,1.6,11,11,0,0,0,0,1.7l.15,1.9a2.61,2.61,0,0,1,.15-.75q.09,0,.3.93a2.52,2.52,0,0,0,.4,1.12,1.31,1.31,0,0,0-.1.5,1.13,1.13,0,0,1-.45.85c.66-.16,1,0,.92.48s-.36.74-.92.77q.34.51.72.18a2.67,2.67,0,0,0,.58-.7c.13-.25.26-.23.4.07v3.1a18,18,0,0,0,.1,2.45,6.58,6.58,0,0,1,.07,1.8,7.91,7.91,0,0,0,0,1.75c.16-.33.28-.31.35,0s.11.58.12.63.09.25.2.6a8.46,8.46,0,0,1,.25.85l.18.77a1.51,1.51,0,0,1-.45,1.35.75.75,0,0,1-1.1.15,1.24,1.24,0,0,1-.6-1.25l0-.6a2.43,2.43,0,0,0,0,.8c.23.7,0,1.14-.6,1.3s-1-.15-1.1-.95c-.3.77-.42.55-.35-.65a38,38,0,0,0,.7-4.25c-.17.17-.25.1-.25-.2a2,2,0,0,1,.25-1.37c.2-.22.31-.24.35-.08a3.12,3.12,0,0,1,0,.55c.16,0,.23-.11.2-.45s-.08-.6-.13-.82-.09-.43-.12-.65a2.74,2.74,0,0,1,0-.48c-.1.47-.24.49-.4.05a1.61,1.61,0,0,1-.1-1.1,2.34,2.34,0,0,0-.3-1.37c-.24-.38-.67-.46-1.3-.23a1.16,1.16,0,0,0-.6-.15,5.31,5.31,0,0,0-2.1.6,2.91,2.91,0,0,1-1.53.93,3.75,3.75,0,0,0-1.47.72.52.52,0,0,0-.7.25,2.84,2.84,0,0,0-.25,1.1,9,9,0,0,0-.6,2.63,5.6,5.6,0,0,1-1,2.77,10.55,10.55,0,0,1,.2-1.8c.13-.76.21-1.26.25-1.5l-.15,0a7.81,7.81,0,0,1-.25,1.2c-.27-.1-.29-.64-.08-1.62a4.59,4.59,0,0,0,.18-1.93q-.21-.45-.45-.45c-.24,0-.45.52-.65,1.55a3.64,3.64,0,0,0-.1.45c-.3-.1-.39-.35-.25-.75a3.67,3.67,0,0,0,.25-1.1c0-.46-.22-.7-.65-.7h-.25c-.6.34-.92.27-1-.2a1,1,0,0,1,.75-1L85,41s-.18-.06-.53-.1a.75.75,0,0,1-.67-.35c-.5.24-.74.21-.7-.07s.26-.49.7-.63c-.34,0-.5-.11-.5-.25s.46-.45,1.4-.85a3.49,3.49,0,0,1,.6-.2c.43-.4.41-.6,0-.6l-1.15-.1A2.64,2.64,0,0,0,85.85,37a1.81,1.81,0,0,0,.57-1.55A2.18,2.18,0,0,1,86.67,34c.25-.43.34-.73.28-.9.33-1.06.76-2.62,1.3-4.67s.9-3.39,1.1-4a4.35,4.35,0,0,0,.27-1.07A.76.76,0,0,0,89.4,23a.77.77,0,0,1-.25-.4c-.27.6-.4.8-.4.6a25.47,25.47,0,0,1,1.1-5.6c.06-.13.21-.4.45-.8a6.71,6.71,0,0,1,.55-.85c.13-.16.31-.39.55-.67A2.68,2.68,0,0,1,92.1,14.69ZM84,48.74a.78.78,0,0,1,.12.75c-.08.3-.14.44-.17.4-.2,0-.25-.21-.15-.55A4.75,4.75,0,0,1,84,48.74Zm1-2.65c.23,0,.35.09.35.25-.54,3.54-.89,5.3-1,5.3q-.66,0-.3-1a13.21,13.21,0,0,0,.52-2.32A12.53,12.53,0,0,1,85,46.09Zm1.15,3.1a1.28,1.28,0,0,1,.07.75c0,.27-.11.4-.17.4s-.25-.17-.15-.52A1.86,1.86,0,0,1,86.15,49.19Zm.6.3a7.72,7.72,0,0,1,0,1.18c0,.35-.09.51-.15.47s-.26-.32-.18-.77A1.83,1.83,0,0,1,86.75,49.49Zm1.85-16-.85,3.05V37q.34-1.4.6-1.35c-.14.44-.15.68,0,.73s.23-.08.4-.38a.94.94,0,0,0,0-1,56.15,56.15,0,0,1,1.5-5.5,51.93,51.93,0,0,0,1.5-5.7c-.24.77-.63,2-1.18,3.78S89.66,30.46,89.5,31s-.34,1.1-.5,1.68S88.7,33.54,88.6,33.54Zm0-9.75a3.3,3.3,0,0,1-.1,1.38c-.14.42-.25.62-.35.62s-.27-.35-.1-.95S88.35,23.89,88.55,23.79Zm.1,1.5a2.13,2.13,0,0,1-.2,1.48A8.06,8.06,0,0,0,88,27.94,9.67,9.67,0,0,1,88.65,25.29Zm2.1,8.5a4.05,4.05,0,0,0-.48,1.45c-.11.67-.19,1-.22,1.15Zm3.15,4.6c-.5.27-.82.35-1,.25l.55-.2.2,0Zm2-14.7a10.91,10.91,0,0,1,.3,2.3v.4c-.14-.06-.24-.43-.33-1.1A4.59,4.59,0,0,1,95.9,23.69Zm.2,3.1c.23.17.3.6.2,1.3l0,.45a1.1,1.1,0,0,1-.35-1A2.92,2.92,0,0,1,96.1,26.79Zm2.3,12.65a1.25,1.25,0,0,0-1.15,1.15,8.21,8.21,0,0,0,0,1,16.79,16.79,0,0,0,.1,1.75c.06.67.1,1.27.1,1.8a6.39,6.39,0,0,1-.1,1.15,3.76,3.76,0,0,0,.25,1.95c.16.37.35.14.55-.7a.52.52,0,0,0,.07.2c0,.1.08.14.08.1Q98.34,46.5,98.4,39.44Zm-.1-7.6a2.66,2.66,0,0,1,.27.9c.05.37,0,.55,0,.55-.24,0-.35-.25-.35-.65A2,2,0,0,1,98.3,31.84Zm0,3.45a2.53,2.53,0,0,1,.4,1.4,3.92,3.92,0,0,1-.15,1.05c-.17.1-.29-.08-.35-.55A5.6,5.6,0,0,1,98.35,35.29Zm.75,3.8a1.41,1.41,0,0,1,.25.65A19.25,19.25,0,0,1,99.5,42a6.81,6.81,0,0,1-.4,2.55Zm.05,6.55.1.15.1.15a2.56,2.56,0,0,1,0,.68c0,.18-.09.13-.18-.15A1.56,1.56,0,0,1,99.15,45.64Zm1.15,4c.2.14.33.24.4.3-.17.6-.29.76-.35.48A1.92,1.92,0,0,1,100.3,49.69Z"/><path class="cls-1" d="M102.75,22.64a2,2,0,0,1,.15.78c0,.28,0,.44-.13.47s-.11-.14-.1-.52A3.3,3.3,0,0,1,102.75,22.64Zm.15,5.75a.87.87,0,0,1,.37.55c0,.24,0,.4-.07.48s-.21,0-.33-.3A.72.72,0,0,1,102.9,28.39Zm.7.85h.1c.26.34.66.86,1.17,1.58s.91,1.24,1.18,1.57c.3.6.18.65-.35.15-.07-.06-.23-.23-.48-.5s-.24-.21,0,.15.31.48.15.53-.33,0-.48-.3a1.37,1.37,0,0,1-.22-.48c-.44,0-.78-.34-1-1A2.2,2.2,0,0,1,103.6,29.24Zm12.55,6.15c-.9-.43-1.35-.75-1.35-1a3,3,0,0,1-1.83-.62,3.3,3.3,0,0,0-1.62-.68c.43.34.26.64-.5.9a2.47,2.47,0,0,1-.75.15,7.3,7.3,0,0,1-4.2-2.4,8.44,8.44,0,0,1-2.1-3.9,7.09,7.09,0,0,1-.25-1.85,7.53,7.53,0,0,1,.45-2.55,3.16,3.16,0,0,0,.55-.85q.49-.84.6,0c-.07-.2.15-.67.65-1.42s.88-1.14,1.15-1.18a1.71,1.71,0,0,0-.23.7c0,.1.18-.06.48-.5a11,11,0,0,1,1.2-.92c.46-.32.7-.38.7-.18l-.4.45a4.65,4.65,0,0,0,.65-.42,3.73,3.73,0,0,1,.8-.48c.5-.13.6-.06.3.2a3,3,0,0,1,1.87-.6,13.58,13.58,0,0,0,1.55-.1c.19,0,.28,0,.28,0s-.1.12-.3.15l2.1.2c.46-.23.71-.2.75.08a.47.47,0,0,1-.4.55,1.29,1.29,0,0,1-.75,0,12.76,12.76,0,0,0-2.1-.2,4.78,4.78,0,0,0-2.25.45h-.45a3.82,3.82,0,0,0-2.7,1.45c-.37.37-.57.45-.6.23s.13-.46.5-.73c-.3,0-1,.87-2,2.6l1.15-1.25a2.43,2.43,0,0,1,1-.6,8.83,8.83,0,0,1,4.8-1.35,11.11,11.11,0,0,1,1.4.1,6.58,6.58,0,0,1,1,.25l.75.2s-.07-.08-.2-.15c.26-.23.75-.25,1.47-.07a3.52,3.52,0,0,1,1.53.7c.3.28.41.44.35.47a2.45,2.45,0,0,1-.38.15c-.18.07-.26.17-.22.3a1.08,1.08,0,0,1-1,.48c-.37-.05-.87-.14-1.5-.28a2.48,2.48,0,0,0-1.4,0,3,3,0,0,1,1.37.2,2.83,2.83,0,0,0,1.2.23c.18-.05.55.12,1.1.52a8.08,8.08,0,0,1,1.1.9l.63.68.45.5.37.52c.18.27.25.45.2.55a1.42,1.42,0,0,0-.07.55c0,.27,0,.42-.13.45a.32.32,0,0,1-.3-.05q-.18-.09-.27.15a1.09,1.09,0,0,1-.18.5.2.2,0,0,1-.27.08,1.74,1.74,0,0,1-.3-.2,2.26,2.26,0,0,1-.35-.38l-.3-.35q-1.71-2.7-3.85-2.7h-.2l-1.08,0c-.48,0-.89,0-1.22,0-.9,0-1.42-.38-1.55-1.15a1.67,1.67,0,0,0-1.5.38q-.56.52-.9.9l-.45.47a1.3,1.3,0,0,0-.43.15s0,.12.15.25a1.07,1.07,0,0,1,.23.45c-.34.24-.39.42-.15.55s.28.3.15.5c-.2-.2-.31-.23-.33-.1a1.51,1.51,0,0,0,0,.53.74.74,0,0,1,0,.5c-.07.12-.24.07-.5-.13.16.47.39.59.67.35s.34-.43.18-.6a.41.41,0,0,0,.42.15,2.44,2.44,0,0,1,.48-.05c.16.5.31.47.45-.1s.26-.86.4-.9.28.07.45.3c.13-.26.34-.3.62-.12s.48.11.58-.23a4.7,4.7,0,0,0,2.25,3.25c.23.17.3.25.2.25h-.3l-.3.05a.48.48,0,0,0,.2.2c-.14.27,0,.55.35.83s.45.44.25.47l-.5-.2a1.48,1.48,0,0,0,1.15.55,16.22,16.22,0,0,1,3.35,1.45c1,.6,1.75,1,2.15,1.2l.77.38a4.41,4.41,0,0,1,.63.37,5.21,5.21,0,0,1,.65.5,4.58,4.58,0,0,1,1,1.6c.16-.4.33-.46.5-.2a2.87,2.87,0,0,0,.07.65,3.45,3.45,0,0,0,.33-.6c.13,0,.25.1.35.4l.25.75a2.22,2.22,0,0,1,0,1.15.77.77,0,0,0-.55.78c0,.42,0,.62,0,.6a.6.6,0,0,0,.25-.23,4.57,4.57,0,0,1-.3,1.95c-.1.14-.39.5-.85,1.1a2.49,2.49,0,0,0-.68,1.48,1.39,1.39,0,0,1-.42,1,5.1,5.1,0,0,1-1.28.92,7.91,7.91,0,0,0-1.15.73,8,8,0,0,1-1.45.8,4.55,4.55,0,0,0-1.57,1.07,6.55,6.55,0,0,1-3,.55c-.44,0-.89,0-1.35,0a3.77,3.77,0,0,0-1.83-.35,6.94,6.94,0,0,1-1.92-.2,2.82,2.82,0,0,1-1.83-.45,11.59,11.59,0,0,1-1.17-.9,10.88,10.88,0,0,1-1.45-1.55c-.67-.76-.69-1.11,0-1l-.45-1a1.15,1.15,0,0,1,.1-.85c.46.17.75.12.85-.15s0-.48-.65-.45c0-.73.5-1.1,1.4-1.1a5.27,5.27,0,0,1,.65.05,3.24,3.24,0,0,0,1.3-.05,1.2,1.2,0,0,1,1.45-.62,2.39,2.39,0,0,1,1.35,1.17,2.73,2.73,0,0,0,2.1.85,5.9,5.9,0,0,0,1.75-.3,2.42,2.42,0,0,1,1.85-.22,3,3,0,0,0,1.9-.13c.16-.2.75-.31,1.75-.35h-.05c-.1-.43.23-.66,1-.7s1-.31.75-.85h.1c.83-.13,1-.41.45-.85a.7.7,0,0,1-.48.05q-.27,0-.27,0a3,3,0,0,0,.1.45c-.27.17-.42.21-.45.13a2.27,2.27,0,0,1-.1-.58c0-.3-.1-.48-.2-.55s0-.28,0-.25-.22.09-.25,0a10.57,10.57,0,0,1-1-1c-.54-.56-1-1-1.25-1.25-.17.44-.42.47-.75.1a.27.27,0,0,1-.08-.27q0-.18-.45-.45c-.32-.18-.6-.36-.85-.53s-.31-.31-.17-.45Zm-9.75-14.1a1.61,1.61,0,0,0-.75,1.35Q105.89,22.19,106.4,21.29Zm3.8,13h.2a19.55,19.55,0,0,1,4.2,1.55c.5.27.63.4.4.4a3.46,3.46,0,0,1-1.45-.4c-.37.14-.64.14-.8,0s-.2-.2-.1-.2a3.54,3.54,0,0,1,.45,0,10.19,10.19,0,0,0-1.3-.57A5.85,5.85,0,0,1,110.2,34.29Zm1.35-2.9-.2.05-.2.15a.77.77,0,0,1,.55.43c.13.25.26.39.4.42a5.77,5.77,0,0,0,2.4.7c.3-.16.66-.08,1.1.25.83.6,1.31.86,1.45.78s.06-.23-.2-.45a1.54,1.54,0,0,0-.5-.33.93.93,0,0,1,.85.35c.3.3.55.42.77.35s.2-.16,0-.3l-1-.52c-.45-.22-.81-.4-1.07-.55a6.53,6.53,0,0,0-1.08-.45c-.45-.15-1-.32-1.75-.5S111.78,31.46,111.55,31.39Zm.25-7.2a1.35,1.35,0,0,0,.45.1,2.66,2.66,0,0,1,.45.1.93.93,0,0,1,.55.55c.36-.06.56,0,.6.2s-.29.27-.65.2a2.08,2.08,0,0,1-1.48-.42C111.2,24.57,111.23,24.33,111.8,24.19Zm.55,10.1.25.05a2.13,2.13,0,0,1,.65.35C112.35,34.59,112.05,34.46,112.35,34.29Zm.6-10.85a3.33,3.33,0,0,0,1.55.25,1.81,1.81,0,0,0-.5-.1Q113.55,23.55,113,23.44Zm1.4,20.15-.2,0a1.68,1.68,0,0,0-.7.15h.6A.49.49,0,0,0,114.35,43.59Zm-.7-9c1,.1,1.4.32,1.3.65a.62.62,0,0,0-.53,0,.6.6,0,0,1-.42,0q.24-.2,0-.3A.55.55,0,0,1,113.65,34.64Zm.75-15.4h.25c.13.07.13.14,0,.2a.91.91,0,0,1-.7-.1C113.78,19.28,113.93,19.24,114.4,19.24Zm.2,11.7c2.2.6,3.43,1.27,3.7,2A10.33,10.33,0,0,1,114.6,30.94Zm.3-8.55.2.15.5.05Zm2.85-3.15c-.54,0-.84-.1-.9-.2s0-.16.12-.2a.6.6,0,0,1,.4.05,2.83,2.83,0,0,0,.55.23C118.17,19.2,118.11,19.24,117.75,19.24Zm3,5.05c.23-.66.5-.7.8-.12s.38.88.25.9-.3-.09-.5-.33-.32-.31-.35-.25.08.32.35.75c-.17.14-.38,0-.63-.37s-.51-.74-.77-1.08A.8.8,0,0,1,120.75,24.29Zm-.85,23.65a3,3,0,0,1,.5-.3h.15c.06.14,0,.25-.2.33S120,48,119.9,47.94Zm3.85-4.15-.1.25c-.24.5-.4.69-.5.55s-.1-.3.1-.5A.8.8,0,0,1,123.75,43.79Z"/><path class="cls-1" d="M147,22.79c.1,0,.2.17.3.4.26-.26.46-.48.6-.65a1,1,0,0,0-.05.35.83.83,0,0,1-.1.38,1.12,1.12,0,0,1-.3.32,2.14,2.14,0,0,0-.9,1.7,10,10,0,0,1-.5,2.2,15.55,15.55,0,0,0-.55,2c-.14.74-.35,1.8-.65,3.18s-.47,2.17-.5,2.37a22.08,22.08,0,0,0-.3,4.25v1.25a59.13,59.13,0,0,1,1.55-10.1,27.27,27.27,0,0,1,1.9-4.9,23.78,23.78,0,0,1,1.9-2.8c.13-.16.36-.42.7-.77l.87-.9a7,7,0,0,1,.78-.68,5.65,5.65,0,0,1,1-.62c.38-.18.83-.38,1.35-.58l1.13-.45c.1.1.15.17.15.2a1.59,1.59,0,0,1-.1.3c-.07.17-.12.3-.15.4a3.83,3.83,0,0,0,.45.1,4.82,4.82,0,0,0-.8,1.15,6,6,0,0,1-.75.43,3.72,3.72,0,0,0-.88.57,1.43,1.43,0,0,0-.42.85s-.05.06-.13.08l-.3.07a.65.65,0,0,0-.22.1,4.45,4.45,0,0,0-.9.85l-.18.3-.17.28a1.23,1.23,0,0,1-.2.2.73.73,0,0,1-.35.15.28.28,0,0,0-.25.25c0,.15,0,.27.25.37a.32.32,0,0,1,0,.2v.1a.34.34,0,0,0-.48.13c-.12.18-.19.27-.22.27l-.5-.35a2.58,2.58,0,0,0-.1.93c0,.48-.12.74-.35.77a3.44,3.44,0,0,1,.1.55,3.55,3.55,0,0,1-.4,1.4,8.48,8.48,0,0,0-.5,1.2,7.85,7.85,0,0,0-.35,1.95,1.88,1.88,0,0,1-.55,1.85l-.05.1a1,1,0,0,1,.1.4,2.37,2.37,0,0,1-.28.88,1.76,1.76,0,0,0-.22,1s0,0,0,.1a2.41,2.41,0,0,1,.35,1.3c0,.17,0,.44-.05.8a7.89,7.89,0,0,0,0,.85,2.5,2.5,0,0,0,.15.9,1.56,1.56,0,0,1-.15.45c-.07.37-.09.58-.05.63a4.35,4.35,0,0,0,.45.47c.3.27.31.79.05,1.55a13,13,0,0,0-.7-1.1h-.1a3.62,3.62,0,0,0,.92,1.58,7.74,7.74,0,0,1,1,1.27c.06.1.48.59,1.25,1.45l.1-.1a1.72,1.72,0,0,1-.13-.27.75.75,0,0,1-.07-.28l.57,0a4.5,4.5,0,0,0,.63,0l.1-.2a1.24,1.24,0,0,0,1,.65,5.54,5.54,0,0,0,.7-.4l-.13-.2-.12-.15c1.1-.23,2.33-.51,3.7-.85,0-.23.06-.52.1-.87s.05-.61.05-.78a.32.32,0,0,1-.08.2L156,44c-.17-1.46-.25-2.25-.25-2.35a4.59,4.59,0,0,1,.15-1.2,1.06,1.06,0,0,0-.13.18,1.12,1.12,0,0,1-.12.17h-.1c0-.46.1-1,.2-1.75a2.64,2.64,0,0,0-.55,0,2.74,2.74,0,0,1,.15-.35,1.83,1.83,0,0,0,.45.15c-.14,0-.11-.18.07-.45s.11-.4-.22-.4a1,1,0,0,0,.05-.3,2.62,2.62,0,0,1,0-.37,2.79,2.79,0,0,0,0-.33h-.15q-.11.45-.15.45-.15-.49-.18-.57a1.74,1.74,0,0,0-.15-.25.56.56,0,0,1-.12-.28,3.34,3.34,0,0,1,0-.9.6.6,0,0,1,.05-.2,1.38,1.38,0,0,1,.07-.2.28.28,0,0,0,0-.15c-.2-.23-.29-.36-.25-.4a.69.69,0,0,1,.35,0,1.92,1.92,0,0,0,0-.8,8.36,8.36,0,0,0-.27-1.07c-.14-.42-.22-.68-.25-.78a.8.8,0,0,0,.2-.15c.23.4.46.87.7,1.4,0,0,0-.21.05-.55a.7.7,0,0,1,.4-.65v-1a4.81,4.81,0,0,1,.9.4,3.92,3.92,0,0,1,.25.55,2.71,2.71,0,0,0,.25.55l.1-.32c0-.12.07-.26.12-.43a2.05,2.05,0,0,1,.13-.35,1.9,1.9,0,0,0,.35.2c.16-.43.3-.8.4-1.1q.34,1,.45,1.35l.25-.8c.33.6.6,1.1.8,1.5,0-.13.06-.29.1-.47s0-.29,0-.33a.39.39,0,0,0,.2-.05q.15,1.31.6,3.48c.3,1.45.46,2.26.5,2.42s.1.79.2,1.55.2,1.41.32,1.93a4,4,0,0,0,.53,1.32v-.5h.2v1.4l-.2.25.4.1c.16-.16.28-.15.35.05s0,.15,0,.15c-.17.14-.25.23-.25.28s.05.12.15.22.15.17.15.2v.5a3,3,0,0,0,.3-.2l.35-.25c-.14.67-.2,1-.2,1s-.24.32-.6.85v-.45a3.89,3.89,0,0,0-.23.58,1.13,1.13,0,0,0,.13.5,2.75,2.75,0,0,1,.15.42l.35.15a1.62,1.62,0,0,1,.07.4,1,1,0,0,0,.13.45,2.18,2.18,0,0,1,.2.95c0,.14,0,.35-.05.65a5.36,5.36,0,0,0-.05.7,1.86,1.86,0,0,0,.15.75l-.25,1,.15-.2.2-.3c0,.14,0,.36,0,.68s0,.57,0,.75,0,.36-.07.52a.69.69,0,0,1-.38.3c-.22.1-.49.21-.82.33a2.89,2.89,0,0,1-.6.17l-1.15-.3s-.24.16-.6.38a1.26,1.26,0,0,1-.95.22,18.55,18.55,0,0,0-1.85-.15c-.37,0-.55-.2-.55-.6q-.06-1.29-.3-4.2a3.44,3.44,0,0,0-.85.43,1.64,1.64,0,0,1-1.05.32h-.3a6.23,6.23,0,0,0-1.35.23,6.08,6.08,0,0,1-1.35.22,2.07,2.07,0,0,1-.5,0l-1.35-.3a2,2,0,0,1-.55.15,1.14,1.14,0,0,1-.48-.17,4.58,4.58,0,0,0-.47-.23v.2a2.87,2.87,0,0,1-1.65-.3c-.94-.73-1.47-1.16-1.6-1.3s-.82-.86-2-2.2a2.16,2.16,0,0,0,.35,0,5.34,5.34,0,0,1-.8-2.9,13.89,13.89,0,0,1,.2-2.15h.2c-.1-.1-.27-.25-.5-.45l-.1.3c-.14-.46-.25-.85-.35-1.15a2.41,2.41,0,0,1-.3.2l-.1-.1a2.32,2.32,0,0,0,.75-1.55,3.52,3.52,0,0,0-.1-.75,3.16,3.16,0,0,1-.2-1.15,3.6,3.6,0,0,1,.2-1.2l-.05-1.35a1.8,1.8,0,0,1,.1-.6l.15-.12c.06,0,.1-.09.1-.13a6.35,6.35,0,0,0,.12-.75,4.67,4.67,0,0,1,.18-.9,8.53,8.53,0,0,1,.55-.9.63.63,0,0,1,.07-.65,1.48,1.48,0,0,1,.68-.6c-.07.2-.16.53-.28,1s-.21.81-.27,1.07a1.69,1.69,0,0,0,.65-.57,2.56,2.56,0,0,0,.32-.65c0-.18.13-.43.23-.75s.18-.56.25-.73a9.47,9.47,0,0,0-1.15.15,7.63,7.63,0,0,1,.1-1.35,1.81,1.81,0,0,1,.22-.5,2.51,2.51,0,0,1,.23-.35c.1-.2.24-.5.42-.92s.33-.74.43-1l.4-.05C146.36,24.53,146.7,23.63,147,22.79Zm-3.85,16v1.55a2.75,2.75,0,0,0,.42-.8Q143.6,39.35,143.15,38.79Zm1.2-6.6a3,3,0,0,0-.25.55,2.24,2.24,0,0,1-.2-.5c-.07.34-.16.85-.28,1.53s-.19,1.19-.22,1.52c.13-.33.31-.84.55-1.52s.4-1.19.5-1.53A.19.19,0,0,0,144.35,32.19Zm-.85,8.4a7.35,7.35,0,0,0-.1,1.15,2.13,2.13,0,0,0,.3,1.2v-.8A8.18,8.18,0,0,0,143.5,40.59Zm11.35-19.7c.56,0,1-.06,1.3-.1V21c-.54.2-1.07.39-1.6.55a2.87,2.87,0,0,1,.15-.37A.93.93,0,0,1,154.85,20.89Zm2,28a3.77,3.77,0,0,1-.55.13,1.42,1.42,0,0,0-.6.22.69.69,0,0,0-.25.5l1.4-.3Zm5.6-10.1c.06.54.11,1,.15,1.45-.4-.7-.54-1.18-.4-1.45h.25Zm.4,1.9a4.44,4.44,0,0,1,.7,2.35h-.15V42C162.88,42,162.7,41.56,162.8,40.69Z"/><path class="cls-1" d="M169.65,46.24l.95-5v-.45a19.58,19.58,0,0,1,.15-2.15,20.44,20.44,0,0,0,.25-2.45,19.13,19.13,0,0,1,.3-2.6,13.41,13.41,0,0,0,.3-2.85c.2-.7.32-.77.37-.22a3.59,3.59,0,0,1-.07,1.32c.13.47.59.6,1.37.38s1.23-.14,1.33.22a.65.65,0,0,0,.5.2,4.28,4.28,0,0,0,2.35-1.3,3.78,3.78,0,0,1,.45-.4c.16-.56.43-.48.8.25A2.06,2.06,0,0,0,179.77,30c.22-.55.28-.83.2-.83s-.27.16-.55.48-.42.36-.42.12a1.09,1.09,0,0,1,.7-.9c.23-.33.45-.3.65.1a2.3,2.3,0,0,0-.1-.3,2.17,2.17,0,0,0,.85-1.35,5.93,5.93,0,0,1,.35-1.2,3.83,3.83,0,0,0,.4-1.7,5.65,5.65,0,0,0-.9-2.9c.16-.43.05-.7-.35-.8a5.31,5.31,0,0,0-1.45-.12,8.1,8.1,0,0,0-2.33.57,12.49,12.49,0,0,1-1.82.6c-.6,0-.5-.1.3-.4l.45-.2s-.15,0-.43,0-.46.05-.52,0,.09-.24.47-.42a.82.82,0,0,1,.93,0c.36-.06.29-.17-.23-.32s-.87-.07-1.05.25a2.21,2.21,0,0,1-.4.57.14.14,0,0,1-.22,0,2,2,0,0,1-.2-.28,1.66,1.66,0,0,0-.6-.7,12.66,12.66,0,0,0,1.25-.45,14.93,14.93,0,0,1,3.45-.9,2.4,2.4,0,0,0-1.9.2c-.07,0-.4.09-1,.25-.84.24-1.12.2-.85-.1l.7-.2-.75.05c-.9.14-1.37.16-1.4.08s.06-.19.3-.33q.6-.39.15-.45a.47.47,0,0,1,.32-.7,6.66,6.66,0,0,1,1.33-.32,2,2,0,0,0,1.05-.38c.23.34.6.4,1.1.2a3.67,3.67,0,0,1,.95-.3,3.33,3.33,0,0,1,1,.4,5.18,5.18,0,0,0-1.43.23,2.89,2.89,0,0,0-.77.27,16.19,16.19,0,0,1,2.1-.15,6.9,6.9,0,0,1,3.15.6,6.42,6.42,0,0,1,2.65,2.18,5.44,5.44,0,0,1,1.05,3.22,4.4,4.4,0,0,1,0,.65,6.26,6.26,0,0,1-.3,1.8c-.27.9-.44,1.52-.5,1.85a2.12,2.12,0,0,1-.38,1.5c-.28.34-.46.42-.52.25.26-.4.34-.6.22-.62s-.24.21-.37.67a2,2,0,0,1-.78,1.75,7.82,7.82,0,0,0-1.17,1.4c-.6.57-.54.57.2,0,0,.34-.38.82-1.13,1.45a8,8,0,0,1-2.07,1.35l4.45,7a7.21,7.21,0,0,0-.78-1.75c-.42-.73-.64-1.13-.67-1.2a2.79,2.79,0,0,1,1.32,1.4c.38.74.64,1.26.78,1.58a8.73,8.73,0,0,0,1.25,1.72c.7.84,1.13,1.39,1.3,1.65a5.19,5.19,0,0,0-.45-.9c-.4-.76-.27-1,.4-.8a5.49,5.49,0,0,0,.52.78c.28.38.49.69.63.92s.23.65,0,.85l-.3-.4a2.68,2.68,0,0,1,.1,1.15c.13.27.08.46-.15.58s-.3.24-.2.37q-.45.75-1.38,0a3.23,3.23,0,0,1-1.17-1.6,8.27,8.27,0,0,1-1.3-3.25q-2.55-4.44-3.05-5.12a8.87,8.87,0,0,1-.73-1.1,6.43,6.43,0,0,0-.42-.7c-.14-.18-.29-.36-.45-.53-.34-.3-.75-.21-1.25.25a4.18,4.18,0,0,0,.6.65c.73.77,1.1,1.3,1.1,1.6a.3.3,0,0,1-.1.2,19.32,19.32,0,0,1,3.15,4.65,44.16,44.16,0,0,0,2.87,4.85c.58.77.69,1.14.33,1.1.16.4.15.65,0,.73s-.39-.06-.62-.43a19.67,19.67,0,0,1-2.7-4,33.14,33.14,0,0,1-1.55-3,19.24,19.24,0,0,0-1.55-2.6,13.18,13.18,0,0,1-1.65-3c0-.53-.32-.63-.85-.3s-.8.39-.8.15c0-.06-.09-.06-.35,0-.77.2-1.25.19-1.45,0,.2-.23.28-.35.25-.37s-.14,0-.3.07c-.7.2-1.14.09-1.3-.35a1.36,1.36,0,0,1-.63,0c-.08,0-.17-.15-.25-.35s-.14-.33-.17-.4c-.77,6-1.15,9.39-1.15,10.15,0,.1,0,.15.05.15l.1-.35a2.92,2.92,0,0,1,.2-.75,5.6,5.6,0,0,1,.8,2.35,1,1,0,0,1-.25.7c.43-.66.66-.46.7.6a3.43,3.43,0,0,1-.05,1c-.17,0-.49.13-.95.48s-.72.31-.75-.13c-.1.4-.27.47-.5.2s-.4-.28-.5,0c-.2-.1-.35-.12-.43-.07a1.66,1.66,0,0,0-.37.47.51.51,0,0,0-.5-.15.68.68,0,0,1-.55-.1l-.15-.45a1.07,1.07,0,0,1-.55.55.88.88,0,0,1-.55-1,3.85,3.85,0,0,1,.15-1c.33-1.1.5-1.68.5-1.75.1-.5.18-.55.25-.15.1.7.18,1.05.25,1.05s.1-.06.2-.2c.06-1.13.25-2.76.55-4.9.16.1.23.61.2,1.53a10.13,10.13,0,0,0,0,2,1,1,0,0,1,.15-.65c.1-.1.18,0,.25.23a8.07,8.07,0,0,1,.15.82c.06.54.15.51.27-.07S169.45,45.71,169.65,46.24Zm.1-12.2.25,1.15a13.43,13.43,0,0,1-.7,4.45l0,1.4s0-.15,0-.35c-.1.07-.19.47-.25,1.2-.1,1.4-.22,2.1-.35,2.1s-.36-.3-.38-.8,0-.9,0-1.2a9.19,9.19,0,0,1,.38-2.05,8.44,8.44,0,0,0,.35-2c0-1,0-1.7.05-2a3.59,3.59,0,0,0,0-1.55l.37.15A2.39,2.39,0,0,0,169.75,34Zm.4-7c0,.37,0,.75,0,1.15a13.23,13.23,0,0,1-.25,2.4c-.07-.06-.1-.31-.1-.75A21.15,21.15,0,0,1,170.15,27Zm.1,4.7a5.79,5.79,0,0,1,.07,1.2c0,.44-.08.67-.2.7s-.17-.24-.15-.82S170.08,31.88,170.25,31.74Zm.35-3.7a3.08,3.08,0,0,1,.1.75l-.1.6A1.82,1.82,0,0,1,170.6,28Zm.05-8.3.2.55-.15.45C170.5,20.54,170.48,20.21,170.65,19.74Zm1,19a2.21,2.21,0,0,1,0,.95c-.08.37-.16.55-.22.55s-.23-.3-.08-.72A4.31,4.31,0,0,1,171.65,38.74ZM178,32a1.61,1.61,0,0,1-.45.2c-.67.24-1,.4-.9.5s.29.08.67-.17A3.15,3.15,0,0,0,178,32Zm.1,5.45a1.41,1.41,0,0,0,.37.78c.22.25.31.32.28.22A3.72,3.72,0,0,0,178.05,37.49Zm.15,2.95a.5.5,0,0,1,.35.3q.45.51.12.6t-.45-.27A.92.92,0,0,1,178.2,40.44Zm.7-10.4h0l.05.2c-.17.27-.36.36-.58.28s-.22-.18,0-.3A1,1,0,0,1,178.9,30Zm.5,12.2a13.33,13.33,0,0,1,2.55,4.1l.05.35a2,2,0,0,0-.35-.45,8.33,8.33,0,0,0-.9-1.2A5,5,0,0,1,179.4,42.24Zm1.2-22.6c-.17.1-.1.17.2.2.63.1,1,.1,1.1,0s0-.19-.28-.27A1.75,1.75,0,0,0,180.6,19.64Zm.55,18.55.2.1a1,1,0,0,1,.3.6c0,.17-.1.14-.28-.1A.75.75,0,0,1,181.15,38.19Zm1.9,10.05c.3.2.45.39.45.55.23.3.24.45,0,.45s-.36-.13-.42-.4A1.2,1.2,0,0,1,183.05,48.24Z"/><path class="cls-1" d="M208.1,46.09a14.4,14.4,0,0,1-1.55-1.45l.1-.12c0-.05.06-.08.1-.08a5,5,0,0,0,.45.4q-.06-1.05-.15-2.85h-.2a5,5,0,0,1-.1.85l-.25-1.2c-.34.17-1.25.54-2.75,1.1a11.58,11.58,0,0,0-3.25,1.7l-.2-.2-.25-.25c0,.17-.1.43-.2.78s-.19.62-.25.8a4.88,4.88,0,0,1-.3.62,2,2,0,0,1-.45.55c-.3.3-.45.55-.43.73s.21.39.58.62q.8.4.3.9l-.45.25a4.82,4.82,0,0,1,0-.55l0-.3-.33-.17L198.2,48c.06.6.1.92.1,1,0,.24-.07.39-.2.45a2.14,2.14,0,0,0-.65,1.43,5.65,5.65,0,0,1-.35,1.37c-.1.2-.62.3-1.55.3l-.45-.45-.6-.15c-.07.34-.3.43-.68.28a1.17,1.17,0,0,0-.77-.13c-.37-.56-.54-.86-.5-.9s0-.33.1-.8a9.57,9.57,0,0,0,.1-1c0-.4-.09-.63-.25-.7a1,1,0,0,0,0-.47,1.27,1.27,0,0,1-.05-.5.54.54,0,0,1,.23-.38.46.46,0,0,0,0-.2,2.12,2.12,0,0,0,0-.32.45.45,0,0,1,0-.33s0-.33.1-.9l-.45.15-.45.15a1.37,1.37,0,0,0,.07-.55q0-.24-.42-.3a4.12,4.12,0,0,0-.3-1,.92.92,0,0,0,.12-.2.94.94,0,0,1,.18-.25,4,4,0,0,0-.65.1,8,8,0,0,1-.28-1.25,4,4,0,0,0-.52-1.5,1.47,1.47,0,0,1,1-.7,13.53,13.53,0,0,0,2.7-1.25,8.65,8.65,0,0,1,.6-.85,2.94,2.94,0,0,1,.2.55,3.18,3.18,0,0,1,.07-.47,1.52,1.52,0,0,1,.18-.53,1,1,0,0,1,.4-.3c.16-.06.21-.2.15-.4a1.33,1.33,0,0,1,0-.4,1.93,1.93,0,0,1,.12-.67,7.24,7.24,0,0,1,.33-.75,4.62,4.62,0,0,1,.3-.58,6.33,6.33,0,0,1,.55-1l.25-.1c.06-.86.1-1.33.1-1.4s.22-.5.47-1a5.43,5.43,0,0,0,.48-1.38,4.89,4.89,0,0,1-.75,0c.56-1.53.9-2.41,1-2.65a21.88,21.88,0,0,1,.8-4.65,5.67,5.67,0,0,1,1.7-2.9l-.2-.25c.5-1.06.9-1.88,1.2-2.45a3,3,0,0,1,.7-1.1,3.51,3.51,0,0,1,2-.75l.3.35v-.7c.13.17.33.4.6.7l.75-.45c.33-.2.6-.35.8-.45,0,0,0,.32.1.85a1.87,1.87,0,0,0,.32-.05,2.3,2.3,0,0,0,.43-.1.3.3,0,0,1-.08-.17.69.69,0,0,1,0-.18,3.91,3.91,0,0,1,1.4,1.93,14,14,0,0,1,.5,2.82,1.65,1.65,0,0,1-.45-.35q.2,2.05.85,5.7a3.45,3.45,0,0,0,.25.6h.15a6,6,0,0,1,.1,1c0,.27,0,.65-.05,1.15h.2c0-.1,0-.26,0-.5a3.11,3.11,0,0,1,.08-.55h.25c.1,1.14.15,1.75.15,1.85a3.1,3.1,0,0,1-.13.75,3,3,0,0,0-.12.6,1.12,1.12,0,0,0,.3.75,3,3,0,0,0-.3,1.75,1,1,0,0,0,.1.35c.06.17.1.3.12.38a1.28,1.28,0,0,1,0,.42v.7h.25v-1.3l.25-.05.15.6a1.75,1.75,0,0,0,.1,1,1.84,1.84,0,0,0,.95.4,6.4,6.4,0,0,1-.8.85c.2,0,.45,0,.75-.07a3.52,3.52,0,0,0,.65-.08.11.11,0,0,0,.05.1l-.48.3a4.84,4.84,0,0,1-.52.3l.9.2a7.44,7.44,0,0,1-.63.4c-.28.17-.49.29-.62.35.33-.06.78-.14,1.35-.22l1.25-.18a.55.55,0,0,0,.05.2,2.76,2.76,0,0,1-.63.2l-.62.15.4.55.65-.1a7.71,7.71,0,0,0-1.8,1.35c-.7.67-1.1,1-1.2,1.1l-.15-.25,0,.3c-.27.14-.3.3-.1.5a2,2,0,0,1,.1.65v0l0,0c0,.14,0,.35,0,.65s0,.52,0,.65a6.09,6.09,0,0,0,0,.9c.13.9.33,1.94.6,3.1a7.73,7.73,0,0,0,.37,1.08,6.45,6.45,0,0,1,.33,1c.46,1.57.88,3.14,1.25,4.7a1.38,1.38,0,0,0,.22.38.5.5,0,0,1,.08.57,3,3,0,0,1-.2.4.65.65,0,0,1-.25-.15,1.77,1.77,0,0,1-.3-.25,9,9,0,0,0-.2.9c-.27-.3-.5-.56-.7-.8a1.64,1.64,0,0,0-.08.35,2.39,2.39,0,0,1-.07.35c-.07-.16-.22-.5-.45-1,0,.24-.08.53-.13.88a5.86,5.86,0,0,1-.12.67c-.47-.33-.77-.26-.9.2l-.45-1.1s-.12.37-.35,1a2.59,2.59,0,0,1-1.1-2,4.36,4.36,0,0,0-.8-2.5,2.12,2.12,0,0,1-.28-.5c-.08-.2-.17-.43-.25-.7l-.17-.55.25-.15.55.25A12.18,12.18,0,0,1,209,52a.3.3,0,0,0,.12,0l.13,0a3.48,3.48,0,0,0-.8-2.25,1.07,1.07,0,0,1-.3-.8,5.62,5.62,0,0,1,.1-.85,7.15,7.15,0,0,0,.1-.85c0-.5-.14-.63-.4-.4l-.3-.1A.9.9,0,0,1,208.1,46.09Zm-15.65,2.6c-.14.7-.27,1.39-.4,2.05l-.05-.05V48.24c.13,0,.2.1.2.28S192.28,48.76,192.45,48.69Zm.05,0h0Zm6.95-25.15a3.89,3.89,0,0,0-.6,2,3.6,3.6,0,0,0,.2,1.2c.1-.3.25-.75.47-1.35l.48-1.3ZM204,29.89l-.33.9c-.15.4-.26.7-.32.9a11.85,11.85,0,0,0-.3,1.45c.23,0,.35.1.35.2a2.07,2.07,0,0,1-.35.7,2.44,2.44,0,0,0,0-.3,1.33,1.33,0,0,0-.07-.3,18,18,0,0,0-1,2.9q-.21.75.6.3l.7-.35h.15a3.15,3.15,0,0,0,1.32-.42,8.26,8.26,0,0,1,1.18-.53,1.5,1.5,0,0,0,.9-.8v-1.3a2.35,2.35,0,0,1-.18.35,1.36,1.36,0,0,1-.17.25h-.15c-.14-1.16-.3-2.8-.5-4.9l-.05.1-.55-1.45c-.24-.43-.29-.75-.15-.95l-.05-.35h-.15C204.35,28.39,204.06,29.59,204,29.89Zm1.65-5.9v3.2c.16-.06.4-.16.7-.3V25.34C206.31,25.28,206.08,24.83,205.65,24Zm.95,3.65h-.2q.09,1.8.15,2.7a1.78,1.78,0,0,0,.45-1.15A8.37,8.37,0,0,0,206.6,27.64Zm1.7-5.45h-.25a9.63,9.63,0,0,0-.1,1.7c0,.3.11.85.25,1.63a12,12,0,0,1,.2,1.82c0,.34,0,.7,0,1.1,0,.64,0,1.55,0,2.73s-.07,1.92-.1,2.22a5.91,5.91,0,0,0,0,.6h.3c.13-2.46.2-4.08.2-4.85a25.66,25.66,0,0,0-.2-3.3c0,.07.15.29.35.65a3.08,3.08,0,0,0-.1-.85l-.3-.3c0-.23,0-.72-.1-1.47S208.36,22.56,208.3,22.19Zm.55.8-.13,0a.3.3,0,0,1-.12,0c.06.57.16,1.44.3,2.6a6.73,6.73,0,0,0,.15-1.3A4.35,4.35,0,0,0,208.85,23Zm0,20.55a.46.46,0,0,0-.2.05q.09.36.75,2.7l.2,0c-.07-.33-.2-.81-.38-1.45S208.91,43.74,208.85,43.54Zm1.2,4.25h-.15c.26,1,.55,2.19.85,3.45a.2.2,0,0,0,.1,0,.17.17,0,0,1,.1,0C210.55,49.66,210.25,48.53,210.05,47.79Zm.1-25a6.13,6.13,0,0,0,.22.88,3.25,3.25,0,0,1,.18.92,1.61,1.61,0,0,1-.3.9h-.15q-.15-2.25-.15-2.7h.2Zm1,18.65.2,0c.06.3.18.92.35,1.85l-.2.05a6,6,0,0,1-.18-.85C211.29,42,211.23,41.66,211.2,41.39Z"/><path class="cls-1" d="M219.54,18.09c.1,0,.17-.28.2-.75a1.83,1.83,0,0,1,.4.2,7.48,7.48,0,0,0,.15-.9,8.68,8.68,0,0,1,1.15.35c.07.07.37.44.9,1.1V17l.1,0c0,.14.09.64.25,1.5,1-.06,2-.13,2.9-.2l.4-.65c.2-.7.87-1.1,2-1.2a15.33,15.33,0,0,0,1.58-.3,9.11,9.11,0,0,1,1.72-.25,3.06,3.06,0,0,1,1.25.25l.6-.05c.17.24.35.49.55.75,0,0-.08.07-.25.1V17h1.95l-.9.75c.17,0,.44.1.8.2a6.62,6.62,0,0,1-.65.45.88.88,0,0,0,.38.25c.22.1.34.2.37.3a9,9,0,0,1-.9.3v.15c.57,0,1,.07,1.2.1-.1.34-.18.69-.25,1.05l-1.45.15.2-.4a6.38,6.38,0,0,0-.7-.05c.17.44,0,.62-.5.55a.66.66,0,0,1-.25.78,2.17,2.17,0,0,1-1.15.42,1,1,0,0,0-.15-.3l-.3.2h-1.45a1.67,1.67,0,0,0-.35.08.68.68,0,0,1-.42,0,.44.44,0,0,1-.28-.3l-2.65.55a1.23,1.23,0,0,0-.65.5l1.2,0c-.13.44-.51.65-1.15.65a17.46,17.46,0,0,1-1.75-.15.67.67,0,0,0,.13-.17.38.38,0,0,0,.07-.18c-.56,0-.8.27-.7.9a9.4,9.4,0,0,1,.15,2.25l-.1-.35a6.34,6.34,0,0,0-.35,1.75c0,.47.14.74.4.8-.16.27-.33.59-.5.95a2.22,2.22,0,0,0,.15.23.35.35,0,0,1,.1.22h-.35v1.65a.14.14,0,0,0,.1.05.64.64,0,0,1,.08-.25.52.52,0,0,0,.07-.2c.17.3.55.39,1.15.25.17,0,.64-.15,1.4-.37a16.7,16.7,0,0,1,1.8-.43l-.65.4a14.83,14.83,0,0,0,2.25-.42,11.2,11.2,0,0,1,2.4-.38h.55a.92.92,0,0,0,.05.2,7.88,7.88,0,0,1-1.15.45h1.85a1.18,1.18,0,0,1,.1.25c-.2.07-.9.29-2.1.65l.05.15.68-.1.52,0a.35.35,0,0,0,0,.13.3.3,0,0,1,0,.12c-2,.34-3.05.5-3.25.5a.79.79,0,0,1-.3.05,6.56,6.56,0,0,1-.8-.07,6.85,6.85,0,0,0-.85-.08h-.2c-.16,0-1.18.19-3.05.45.07.3.14.67.2,1.1a.92.92,0,0,0,.15-.17.9.9,0,0,0,.15-.23.92.92,0,0,0,.05.25.6.6,0,0,1,.05.2c.14,0,.92-.18,2.35-.55l.25,0c.3.24.84.24,1.6,0l2.6-.7a3.62,3.62,0,0,1,.9-.15,1.8,1.8,0,0,1,1.4.6,1.12,1.12,0,0,1-.25.35l-.22.23a.85.85,0,0,1-.33.15,1.31,1.31,0,0,1-.32.07l-.4,0a2.64,2.64,0,0,1-.38.05c-.36.07-.77.14-1.22.2l-1.48.25-1.25.25a1.24,1.24,0,0,1-.7-.1c-1.46.2-2.33.5-2.6.9a.35.35,0,0,0-.1-.17l-.15-.18v1.55h-.05a7.23,7.23,0,0,1-.35-1.4l-.15,0a.44.44,0,0,1-.15,0c.14,1.64.24,2.85.3,3.65h.2c0-.6,0-1.06,0-1.4h.15c.07.74.14,1.4.2,2a.44.44,0,0,0,.15,0l.15,0a7.68,7.68,0,0,0-.05-.8c0-.36,0-.63,0-.8h.15c0,.17,0,.45,0,.83s0,.72.07,1a3,3,0,0,0,.2.8,2.57,2.57,0,0,1,.15.9,4.5,4.5,0,0,1-.05.63c0,.28,0,.49,0,.62,0,1.67.09,3.92.25,6.75a.82.82,0,0,0,0,.18q0,.12,0,.12a.92.92,0,0,1-.17.15c-.08.07-.13.12-.13.15a1.53,1.53,0,0,0,.05.3,1.13,1.13,0,0,1,0,.3,5.73,5.73,0,0,1-.2.85c-.13-.26-.38-.85-.75-1.75h-.05c0,.3.05.93.13,1.88s.14,1.71.17,2.27l-.65-.45a3.86,3.86,0,0,0,0,.55l-1.55-.6c-.06.14-.18.45-.35,1a3.66,3.66,0,0,0-.3-.5l-.3.45-.52-.12a3.68,3.68,0,0,1-.48-.13.76.76,0,0,1-.1-.15,1,1,0,0,0-.15-.35,1.85,1.85,0,0,1,0,.3c0,.14,0,.22-.08.25a3.42,3.42,0,0,1-.35-1.2c0-.16-.08-.45-.15-.85s-.13-.74-.2-1a2.63,2.63,0,0,0-.3-.78,3.35,3.35,0,0,1-.35-1.6c0-.1,0-.25,0-.47s0-.38,0-.48a4.85,4.85,0,0,1,.4-2.25,1.74,1.74,0,0,1,.2,1.3c0-.1-.08-.28-.15-.55a.19.19,0,0,0-.1,0c.1.77.17,1.34.2,1.7h.2a1.91,1.91,0,0,1,0-.5h.1a4.54,4.54,0,0,0,.25,1.5c.2-1.26.32-2,.35-2.3.07-.6-.1-.85-.5-.75,0-.13,0-.51-.12-1.15a12.84,12.84,0,0,1-.13-1.45,2.92,2.92,0,0,1,0-.5,1.38,1.38,0,0,0-.22-.87,1.74,1.74,0,0,1-.28-.73c0-.13-.1-.9-.3-2.3a.14.14,0,0,1,0-.15,3.48,3.48,0,0,0,.15-1.1,8.35,8.35,0,0,0-.05-.87c0-.38-.05-.67-.05-.85a3.07,3.07,0,0,1,.05-.53,7.17,7.17,0,0,0-.05-.82c0-.35,0-.61,0-.78s.15-.78.45-2.05c.24.37.37.57.4.6h.2c-.06-.86-.1-1.51-.1-1.95h-.1c0,.14,0,.52-.1,1.15h-.15a1.41,1.41,0,0,0-.35-.5c-.23-.26-.2-.48.1-.65l-.15-.35a.25.25,0,0,1-.07.15.69.69,0,0,1-.13.15,3.19,3.19,0,0,0,0-.4,3.43,3.43,0,0,1,0-.4l.25.25c0-.26-.06-.66-.1-1.2s-.05-.93-.05-1.2l.1-.1c.2.3.44.67.7,1.1.34-.5.19-.91-.45-1.25-.33-.13-.45-.33-.35-.6,0-.06,0-.16-.07-.3a.7.7,0,0,1-.13-.3v-3.4l-.6-.12-.6-.13a2.45,2.45,0,0,1,0-.25,2.93,2.93,0,0,0,.85-.15,2.69,2.69,0,0,0,.35-.75l.45-.05c-.9-.53-1.53-.91-1.9-1.15.37-.43.74-.86,1.1-1.3a3,3,0,0,0-.4-.5l.4-.1a1.07,1.07,0,0,0,.35-.1,2,2,0,0,0,.08-.5c0-.23,0-.43.07-.6.3.54.49.85.55.95a2,2,0,0,0,.15-.3A2.21,2.21,0,0,1,219,17,11.48,11.48,0,0,0,219.54,18.09Zm-.65,7.65a18.42,18.42,0,0,0,.25-2.1c0-.76-.21-1.15-.65-1.15h-.1c0,.44.19,1.9.45,4.4l.2-.5a1.15,1.15,0,0,0-.07-.32A1.25,1.25,0,0,1,218.89,25.74Zm4,5.9a.35.35,0,0,0,0,.13.3.3,0,0,1,0,.12l2-.2v-.15Zm5.65,3.2a1.38,1.38,0,0,1,.8.25l-1.12.2c-.52.1-.91.17-1.18.2a.3.3,0,0,1-.05-.2Z"/><path class="cls-1" d="M243.65,35.49a1.86,1.86,0,0,1,.75,1.6,5,5,0,0,1-.25,1.4,5.46,5.46,0,0,1,.14,1.2,4.78,4.78,0,0,1-.1,1c-.13.74-.21,1.24-.25,1.5a1.64,1.64,0,0,1,.05.45,9.25,9.25,0,0,1-.59,3,.88.88,0,0,1-1,.95,3.18,3.18,0,0,1-1-.2,1.5,1.5,0,0,0-1.25.15,1.07,1.07,0,0,1-1-.32,2.25,2.25,0,0,1-.32-1.18,6.64,6.64,0,0,0-.2-1.27c-.11-.32-.17-.28-.21.12,0,.77-.13,1.19-.29,1.25-.34.07-.49-.18-.46-.75V44a3.54,3.54,0,0,1,1-2.55l0-.55a3.49,3.49,0,0,1-.2.7c-.2-.23-.17-.65.08-1.27a2.58,2.58,0,0,0,.28-1.33,6.41,6.41,0,0,0,.22-1.57q.08-1.23.45-1.53a1.57,1.57,0,0,0,.47-.5,4.12,4.12,0,0,0,.3-.82c.11-.35.17-.59.2-.73.24-.46.5-.43.8.1l.06.25c.13-.36.23-.45.3-.25l.09.4a2.29,2.29,0,0,0,.28-.4c.15-.23.31-.35.47-.35.07-.36.19-1.27.36-2.72s.43-3.33.8-5.65.58-3.71.64-4.18a.83.83,0,0,0-.12-.82,1,1,0,0,1-.25-.63c0-.16,0-.26-.07-.3a.27.27,0,0,0-.25.05c-.31.2-.44.1-.41-.3,0,.2,0,.84,0,1.9,0,1.47-.11,2.22-.3,2.25s-.36-.38-.16-1.25c-.06,0-.12.35-.17,1s-.09,1.09-.12,1.22c-.07.57-.16.68-.25.33a2.89,2.89,0,0,1,0-1.38,9.29,9.29,0,0,0,0-1c0-.6,0-1.36-.09-2.3-.24-.26-.29-.5-.16-.72a1.72,1.72,0,0,0,.25-.53c-.09-.66-.4-.56-.9.3a6.28,6.28,0,0,1-.3-1.8,3.67,3.67,0,0,1,.7-2.2c.14.57.3.65.5.25s.47-.66.71-.7a2.75,2.75,0,0,0,.17.4,2,2,0,0,1,.17.53c0,.18.11.29.2.32s.25,0,.46-.22a2.26,2.26,0,0,0,.34-.43,2.7,2.7,0,0,1,.36-.3,1.56,1.56,0,0,0,.64.68.92.92,0,0,1,.5.87c-.09,0,0-.13.3-.3s.57-.18.61-.05a.57.57,0,0,1-.11.45,1.47,1.47,0,0,0-.55,1.43,3.06,3.06,0,0,1-.25,1.62,3.46,3.46,0,0,1-.14-.35c-.07-.2-.16-.11-.25.25a6.46,6.46,0,0,0-.95,3.25v.35a19.17,19.17,0,0,1-.3,3,34.31,34.31,0,0,0-.56,3.65c-.1,1.14-.18,2-.25,2.6a5.62,5.62,0,0,1,.45,2.2A6.71,6.71,0,0,1,243.65,35.49Zm-2.55-7.35a3.65,3.65,0,0,1,.34,1.7,10.16,10.16,0,0,1-.09,1.3c.13,0,.19-.21.19-.55a4.07,4.07,0,0,1,.4-2v1.05q0,1-.09,2.1a5,5,0,0,1-.31,1.6,1.23,1.23,0,0,1-.44-.27c-.24-.18-.42-.26-.56-.23A19.59,19.59,0,0,0,241.1,28.14Zm.09-9.35.1.1c.11.34.1.54,0,.6s-.22,0-.3-.22A.34.34,0,0,1,241.19,18.79Zm.6,7.8a2.19,2.19,0,0,1,0,1.5Q241.15,28.35,241.79,26.59ZM244,28.94q0,.25,0,.78t0,.87a4.36,4.36,0,0,1-.36,1.55,4.43,4.43,0,0,1,0-1.37A8.8,8.8,0,0,1,244,28.94Zm.5-3.65a1.22,1.22,0,0,1,.11.45l-.16.55C244.29,26.06,244.31,25.73,244.54,25.29Zm.65-3.15c.14.4.09.67-.15.8q-.24.66-.3.3A1.17,1.17,0,0,1,245.19,22.14Z"/><path class="cls-1" d="M249.72,12.94l.82-.22.7-.18a1.49,1.49,0,0,1,.6.05,2.86,2.86,0,0,0,1.2.05,6.14,6.14,0,0,1,1.8,3.1,6.06,6.06,0,0,0-.32,1.08c-.15.62-.28.92-.38.92a.2.2,0,0,1-.2-.15,7.52,7.52,0,0,1-.35,1.63c-.2.65-.31,1.06-.35,1.22a1.68,1.68,0,0,1,.7,1.45,2.74,2.74,0,0,1-.05.55,1.58,1.58,0,0,1-1.35,1.5c-.13-.73-.25-.71-.35,0a4.12,4.12,0,0,0-.05,1c.5-.16.78-.2.83-.12a2.23,2.23,0,0,1,0,.87,4.39,4.39,0,0,1-.12,1.6,4,4,0,0,0-.05,1.78,5.68,5.68,0,0,1,0,2.1,5.64,5.64,0,0,0,0,2.12,4.84,4.84,0,0,0-.5,1.9,1.92,1.92,0,0,0,.3,1.1c0,2.77.07,4.72.1,5.85v.6a13.9,13.9,0,0,1-.25,2.7q-.3,1.6,0,1.8c0,.1,0,.53-.05,1.28s-.1,1.11-.22,1.07-.23-.15-.33-.35v-.4c0-.6,0-1.48.1-2.65,0-.63.05-1.18.05-1.65a6.84,6.84,0,0,0-.1-1.4,3,3,0,0,1-.3-1.45c0-.23,0-.5,0-.8a6.33,6.33,0,0,0,.05-.85,3.22,3.22,0,0,0-.2-1.3,12.6,12.6,0,0,1-.1-1.7c0-.6,0-1.28.05-2.05,0-.6.05-1.15.05-1.65a11.32,11.32,0,0,0-.15-2.1c0-.3-.05-.66-.05-1.1s0-1,.05-1.65,0-1.16,0-1.6a7.14,7.14,0,0,0,0-1v-.45a14,14,0,0,1,.15-1.8,10.8,10.8,0,0,0,.1-1.4,4.9,4.9,0,0,0-.05-.8c0,.2-.1.82-.2,1.85a22.16,22.16,0,0,0-.15,2.8v1.65a30,30,0,0,1-.45,4.9,28.77,28.77,0,0,0-.35,4.65c0,.77,0,1.57.1,2.4.1,1.77.15,3.19.15,4.25a11.58,11.58,0,0,1,0,1.3,8.77,8.77,0,0,0-.22,1.85,3.38,3.38,0,0,1-.38,1.75,16,16,0,0,1-.1-1.8v-.65c0-.93.05-1.56.05-1.9-.1,0-.19.35-.27,1.15a4.67,4.67,0,0,1-.28,1.45c0-.5,0-1.25,0-2.25V43.54a20.58,20.58,0,0,1,.25-3.5c.17,0,.25.13.25.48a9,9,0,0,1-.07,1.12,1.75,1.75,0,0,0,.12,1c0-.6.05-1.35.05-2.25V38c0-.93-.05-1.75-.05-2.45,0-.9,0-1.65.05-2.25-.13,1.27-.21,2.25-.25,3q-.15,2.05-.45.45c.07-1,.1-1.81.1-2.55a17.21,17.21,0,0,0-.1-2c-.1-1.13-.15-1.85-.15-2.17s0-.83.1-1.55.1-1.24.1-1.58c-.1-1.3-.15-2.28-.15-2.95a7,7,0,0,1,.05-.95,8.37,8.37,0,0,0,.1-1.5v-.9a4.33,4.33,0,0,1,.2-2.1c-.36.17-.56.09-.6-.25a2,2,0,0,1,.1-.9,1.69,1.69,0,0,1-.3-.82,3.41,3.41,0,0,0,0-.5,1.78,1.78,0,0,1,0-.5c0-.22.06-.37.08-.45l.12-.48c.07-.23.11-.37.13-.42s.07-.21.15-.48a3.06,3.06,0,0,1,.17-.47A.92.92,0,0,1,249.72,12.94Zm-.33,25a1.78,1.78,0,0,0,.15.38c.1.22.14.37.1.47.1.4.14.62.1.65C249.24,38.71,249.13,38.21,249.39,37.94Zm.55-12.45c0,.3-.06.77-.1,1.4s-.06,1.1-.1,1.4l.1-.7a4.85,4.85,0,0,0,0-.57c0-.08,0-.36.1-.83S250,25.49,249.94,25.49Zm.85.4a23.32,23.32,0,0,0-.25,3.1,8.94,8.94,0,0,0,.2,2V27.74C250.74,26.88,250.76,26.26,250.79,25.89Zm1,20.1a8.69,8.69,0,0,0,0,1.25,5.05,5.05,0,0,1,0,.75,3.79,3.79,0,0,1-.35,1.75,5.64,5.64,0,0,0,0-1.2V48A5.69,5.69,0,0,1,251.74,46Zm-.1-2.75a2.66,2.66,0,0,1,.23,1c0,.35,0,.51-.13.47s-.31-.3-.25-.7S251.61,43.34,251.64,43.24Zm1.4-6.15.25.3a2.75,2.75,0,0,1-.1.75l-.15-.25A3.57,3.57,0,0,1,253,37.09Zm12.8-20.65h.3a5,5,0,0,0,2.15,1.4c.4,0,.69.52.85,1.45.1.4.27.42.5.05a1.84,1.84,0,0,1,0,.8,1.83,1.83,0,0,1-.5.58c-.28.25-.48.42-.58.52a1.07,1.07,0,0,1-.55,1.13c-.43.28-.65.38-.65.3a1.05,1.05,0,0,1,.2-.43,2.27,2.27,0,0,0-.9,1.05l.05.05a5,5,0,0,0,.4-.45c.14.34-.05.87-.57,1.6a12,12,0,0,1-1.63,1.9,11.26,11.26,0,0,1-2.5,2.85,1.73,1.73,0,0,0-.7-.15,1.89,1.89,0,0,0-1.45.8,10.46,10.46,0,0,1-1.1,1.25c0-.46-.08-.7-.35-.7s-.9.42-1.7,1.25c-.46.34-.62.58-.47.73a1.56,1.56,0,0,0,.42.32,4.6,4.6,0,0,0,.55.23l.5.17c.24-.23.51-.18.83.15s.42.5.3.48a3,3,0,0,1-.48-.13c0,.17.26.39.88.65a9.36,9.36,0,0,0,1.57.55A12.7,12.7,0,0,1,262.59,36,7.23,7.23,0,0,0,266,38a20.59,20.59,0,0,0,2.38,1.38,15.5,15.5,0,0,1,2.42,1.47c.4.2.45.37.13.5s-.36.29-.13.45c-.36,0-.45.14-.27.4s.22.44.12.5c-.26-.06-.42-.05-.47,0s0,.19.07.32c.24.4.15.5-.25.3a.79.79,0,0,1-1.1.45c1,.44,1.07.94.2,1.5-.36.1-.51.27-.45.5a.52.52,0,0,1,0,.35,41.5,41.5,0,0,1-4.9-2.65c-.46-.16-.55-.29-.27-.37s.36-.21.22-.38c.54-.13.34-.55-.6-1.25a8.05,8.05,0,0,1-.8-.6,3.74,3.74,0,0,1-1.45-.95,2.12,2.12,0,0,0-1.75-.7c.5.1.8.3.88.6s.05.45-.1.45a.86.86,0,0,1-.38-.07l-.2-.1-.15-.08c-1.1-.63-1.65-1.16-1.65-1.6a.47.47,0,0,1,.25-.4,3.92,3.92,0,0,1-1.8-1.35,5.7,5.7,0,0,0-1.65-1.45.69.69,0,0,0-.2-.7,3.78,3.78,0,0,1-.4-.45c-.06-.1-.05-.17,0-.22a1.15,1.15,0,0,1,.52-.08c.47.17.67.09.6-.25s0-.43.25-.4c-.3-.26-.36-.51-.2-.75s.39-.23.65,0c0,0-.06,0-.1,0-.06-.3,0-.48.18-.55a.4.4,0,0,1,.47.15c.14.07.45-.22.95-.87a10.36,10.36,0,0,1,1-1.18c-.4.34-.6.39-.62.15s.17-.5.57-.8c.2-.26.3-.41.28-.45s-.26.05-.73.25c-.1-.36-.42-.25-1,.35a4.7,4.7,0,0,1-1.08,1c0-.06,0-.23.2-.5a3.76,3.76,0,0,0,1-1.75c-.23.1-.36.1-.4,0s.05-.31.23-.65.26-.5.22-.52-.1,0-.2,0c-.13-.43-.14-.73,0-.9a3.13,3.13,0,0,1,1-.65c.37-.2.5-.15.4.15l-.2.45s.12-.06.25-.2a.87.87,0,0,0,.45-.95,1.14,1.14,0,0,1,.2-1,7.74,7.74,0,0,0,2.7-3.75,16.87,16.87,0,0,1,1.45-1.6,6.35,6.35,0,0,0,1.4-1.8c0,.27,0,.4,0,.38a4.43,4.43,0,0,0,.6-.5A.94.94,0,0,1,265.84,16.44Zm-10.6,14.15-.05.2-.05.15q-.45.6-.6.45C254.38,31.23,254.61,31,255.24,30.59Zm1.9,4.75a2.74,2.74,0,0,1,.63.4,1.38,1.38,0,0,0,.47.3l-.55-.5A2.47,2.47,0,0,0,257.14,35.34Zm3.05,2.25c.74.57,1.29,1,1.65,1.3A2.87,2.87,0,0,0,260.19,37.59Zm.4,2.35,2.05,1.55c0,.6-.47.58-1.32-.07S260.23,40.28,260.59,39.94Zm1.2-4.1c.24.34.44.5.6.5Zm2.95,7,.05.2q.4.36.6.3c.14,0,.09-.11-.15-.25A4.46,4.46,0,0,0,264.74,42.89Zm.6-1.5,0,0,.55.35v0A1.93,1.93,0,0,0,265.34,41.39Zm0-3,.33.35a2.52,2.52,0,0,0,.75.55c.32.17.46.2.42.1s-.21-.45-.65-.65A7,7,0,0,0,265.34,38.44Zm1,5.75.55.3.55.25A1.6,1.6,0,0,0,266.34,44.19Z"/><path class="cls-1" d="M289.29,21.69c.3.34.57.39.8.15a4.61,4.61,0,0,1,.9.45.36.36,0,0,0,.15.2q.06-.45.15-.45c.07.44.12.8.15,1.1a1.42,1.42,0,0,0,.2-.22l.15-.18c0,.14,0,.5-.1,1.1s-.05.95.05,1.05a2.55,2.55,0,0,1,.05,1,2.56,2.56,0,0,0,0,.92,2.35,2.35,0,0,1,.2,1,7.58,7.58,0,0,1-.3,1.55,1.17,1.17,0,0,1-.12.43,2.77,2.77,0,0,0-.15.4,1.6,1.6,0,0,0,0,.47l-.25.3a2,2,0,0,1-.2-.25l-.25,1.7h-.1a1.12,1.12,0,0,1-.12-.17l-.13-.23h-.05a2.62,2.62,0,0,0-.4,1.45c0,.17.1,1,.3,2.35a11.52,11.52,0,0,1,.3,1.65,6,6,0,0,1,.3-.8h.2c0,.37,0,.91.05,1.63s.05,1.24.05,1.57a8.12,8.12,0,0,1-.45,2.85c-.16-.5-.28-.83-.35-1l-.27,0a2.33,2.33,0,0,1-.33,0v1.1h.1c.1-.43.17-.75.2-1h.2a5.26,5.26,0,0,1-.05.7c0,.3-.05.5-.05.6l-.4.08a1.18,1.18,0,0,0-.3.1,1.27,1.27,0,0,0-.2.12l-.2.23a2.37,2.37,0,0,1-.25.27.35.35,0,0,1,.08.13,1.22,1.22,0,0,0,.1.2c.05.08.09.16.12.22s.05-.09.13-.17l.22-.23v1.1c0-.06.25-.31.65-.75v1a2.66,2.66,0,0,0-.45.1V46a2.16,2.16,0,0,0-.45,1.55,1.87,1.87,0,0,0,.35,1.25c.4-1.3.69-2.21.85-2.75v.35a11.26,11.26,0,0,1-.95,3.4.4.4,0,0,1-.3.25.81.81,0,0,0-.55.18,4.84,4.84,0,0,0-.47.5l-.33.42a15.32,15.32,0,0,1-1.55,1,2.41,2.41,0,0,1-.5-.35,1.1,1.1,0,0,1-.35.33,2.09,2.09,0,0,1-.65.22,2.15,2.15,0,0,0-.5.15,2,2,0,0,1-1.1,0,3.64,3.64,0,0,0-1.05-.1H282a4.28,4.28,0,0,1-1.2-.27,4.24,4.24,0,0,0-1.2-.28,1.93,1.93,0,0,1-1.65-.8l-.3-.35c-.13-.16-.23-.3-.3-.4a3.91,3.91,0,0,1-.2-.37,1.29,1.29,0,0,1-.1-.48,1.72,1.72,0,0,1,.05-.35.19.19,0,0,1,.05-.1,2.28,2.28,0,0,1-.67-1.12,3,3,0,0,0-.58-1.13h-.05c-.16-.3-.45-.75-.85-1.35l.2.05a2.47,2.47,0,0,0,.35.1,2.76,2.76,0,0,0-.5-.4c.2-.13.31-.25.33-.37a.85.85,0,0,0-.15-.5,1.61,1.61,0,0,1-.18-.38l-.45-1.32c-.2-.58-.35-1-.45-1.33l-.12,0a.32.32,0,0,1-.13,0c.07,1,.12,1.77.15,2.3a4,4,0,0,1-.47-1,3.92,3.92,0,0,1-.2-.9q0-.35,0-1.05a4.38,4.38,0,0,0-.05-.9,1.42,1.42,0,0,0,.05-.3,1.91,1.91,0,0,1-.25-.9,5.38,5.38,0,0,1,.75-1.9,3,3,0,0,0-.07-1,4,4,0,0,0-.18-.78,2.84,2.84,0,0,1,.1-.57,1,1,0,0,0,.05-.53q0-.24-.15-2.7a1.07,1.07,0,0,1,.25-.7c.2-.3.39-.45.55-.45,0-.5.05-.95.05-1.35-.23.27-.36.44-.4.5a6.86,6.86,0,0,1-.15-1.45,25.57,25.57,0,0,1,.85-4.5,4.66,4.66,0,0,0,.13.68c.08.35.14.64.17.87l.15-.47.15-.38h.1c-.1,2.17-.15,3.39-.15,3.65s0,.58.05,1,.05.79.05,1c0,.84,0,2.07-.07,3.7s-.08,2.85-.08,3.65c0,.2.1,1.17.3,2.9a.55.55,0,0,0,.2-.05c-.1-1.43-.16-2.2-.2-2.3,0-.93.07-2.78.2-5.55a1.69,1.69,0,0,1,.13-.47A1.62,1.62,0,0,0,276,31c.07-.53.17-1.55.3-3.07s.25-2.69.35-3.53l.3-.5c.1.57.19,1.1.25,1.6a.5.5,0,0,0,.1-.37.56.56,0,0,1,.13-.4c.08-.08.24-.09.47,0v10.5h.2a2.12,2.12,0,0,0,.2-1,4.23,4.23,0,0,0,0-.45q0-.3,0-.45a3.12,3.12,0,0,1,0-.55h.2c0,.8-.05,1.57-.05,2.3a30.87,30.87,0,0,0,.4,5.15,8.88,8.88,0,0,0,.65,2.4,10.11,10.11,0,0,1,.65,1,10.09,10.09,0,0,1,.23,1,4.21,4.21,0,0,0,.3,1.05,1.88,1.88,0,0,0,.57.67,8.69,8.69,0,0,0,.78.4l.72.35a.14.14,0,0,1,.1,0c.44.27.69.19.75-.25l.35,0a6,6,0,0,0-.35-.6.16.16,0,0,0,.1,0,.07.07,0,0,0,.05-.08.36.36,0,0,0,.4.15.43.43,0,0,0,.35-.3,18.13,18.13,0,0,0,.65-2.55s0,0-.05-.1-.1-.06-.1-.1-.14-.44,0-.92a1.9,1.9,0,0,1,.47-1,2.13,2.13,0,0,0,0,.3,1.1,1.1,0,0,0,.07.3c0-.1.1-.35.2-.75s.19-.7.25-.9a5.2,5.2,0,0,1-.65-.3v-3.5c0-.16,0-.48,0-1a6.63,6.63,0,0,1,0-1,1.44,1.44,0,0,1,.08-.25c0-.13.1-.25.15-.35a.25.25,0,0,0,0-.25,2.55,2.55,0,0,1-.32-.37.71.71,0,0,1-.13-.4,1.56,1.56,0,0,1,0-.35c0-.08,0-.23.1-.43a2.12,2.12,0,0,0,.07-.35c.3-1.5.45-2.31.45-2.45a3.52,3.52,0,0,0-.15-1s-.05,0-.05-.05l-.05-.15a1.79,1.79,0,0,0,.5-1.35c0-.1,0-.26,0-.5s0-.4,0-.5a2.34,2.34,0,0,1,0-.5l.15-.1v1.1a.1.1,0,0,1,.08,0,.08.08,0,0,0,.07,0,2.66,2.66,0,0,0,.2-.82,10.73,10.73,0,0,0,.05-1.25v-1s.07-.45.2-1.25a7.18,7.18,0,0,0,.65.5l.2-.65.48.2.42.2s.07,0,.1-.1.07.14.1.2a1.11,1.11,0,0,1,.1.28,2.35,2.35,0,0,0,.1.27,1.35,1.35,0,0,1,.1-.4A7.4,7.4,0,0,0,289.29,21.69Zm-15.5,16.65-.45,1.4a5.44,5.44,0,0,1,.2.8,4.06,4.06,0,0,1,.1.65,3.08,3.08,0,0,0,.2-1.2c0-.16,0-.43,0-.8S273.79,38.54,273.79,38.34ZM286,38a6.24,6.24,0,0,0-.2.73,3.48,3.48,0,0,1-.2.72,2.12,2.12,0,0,0,.6-.77A1,1,0,0,0,286,38Zm-.05-.25a3.29,3.29,0,0,1,.1-.45c.07-.23.13-.45.18-.67a2.6,2.6,0,0,0,.07-.58c0-.23-.06-.38-.2-.45l-.15.1-.05.05v2Zm.2-15.1c0,.47,0,1.17.1,2.1l-.1,0a.16.16,0,0,1-.1,0v-2.1A.11.11,0,0,0,286.14,22.64Zm5,0a2.4,2.4,0,0,0-.45,1.55q0,.81.3.9C291,24.49,291.08,23.68,291.14,22.64Z"/><path class="cls-1" d="M304,21.79a2.17,2.17,0,0,1-.42.1l-.38.08c-.06,0-.13,0-.2-.1a1.07,1.07,0,0,1-.15-.38,1.9,1.9,0,0,0-.55-.3.4.4,0,0,0,.1-.12l.1-.13,2.55-1.2c.14.27.3.59.5,1a17.25,17.25,0,0,1,6.85-1.9c.3,0,.86,0,1.68-.05s1.46,0,1.92,0a11.84,11.84,0,0,1,3,.3,1.47,1.47,0,0,0-.1-.32,3.66,3.66,0,0,0-.2-.48,2.53,2.53,0,0,1,.3.2l.3.2.28.13a.53.53,0,0,0,.32.05.78.78,0,0,0,.3-.13,2.51,2.51,0,0,1,.23.35c.11.2.21.35.27.45a.77.77,0,0,0,.2-.15.86.86,0,0,1-.2-.45l.35.1a1.91,1.91,0,0,0,.5,1.13,2.67,2.67,0,0,1,.55.87,2.34,2.34,0,0,0,.48.8,1.84,1.84,0,0,1,.42.7,5.44,5.44,0,0,1-.15,2.1,4.75,4.75,0,0,1-.7,1.85,3.65,3.65,0,0,0-.62,1.3,5.19,5.19,0,0,1-.48,1.2c-.1.14-.26.36-.47.68a6.46,6.46,0,0,1-.53.7c-.13.15-.3.35-.5.6a5.49,5.49,0,0,1-.6.65,3.37,3.37,0,0,1-.65.47c-.33.2-.67.44-1,.7l-1.15.9c-.42.34-.74.59-1,.75a2,2,0,0,1-.55.2c-.06-.06-.1-.11-.1-.15l-.05.25a17.48,17.48,0,0,0-2.95,1.55l-.55.1c-.1.14-.33.42-.7.85.27.3.2.52-.2.65a1.51,1.51,0,0,0-.42.33,3.21,3.21,0,0,1-.43.37l-1.55.5c-.13-.5-.21-.81-.25-1l-.2,0-.32,0a1.58,1.58,0,0,1-.28,0,.65.65,0,0,1,.2-.37c.14-.15.19-.27.15-.35s-.18-.18-.45-.28a7.93,7.93,0,0,0,.8-.7c-.33,0-.83.1-1.5.2-.46-.73-.35-1.3.35-1.7q-.39-.15-.45-.3l.83-.37,1-.4c.35-.15.62-.28.82-.38a.55.55,0,0,0-.1-.25,6.59,6.59,0,0,1-.75.25,1.06,1.06,0,0,0,.1-.3q2.76-1.84,4.2-2.75a2.41,2.41,0,0,1,.5-.2,1.54,1.54,0,0,0,.5-.2c.6-.4,1.57-1.1,2.9-2.1l.33-.25a2.31,2.31,0,0,0,.32-.25l.3-.25.33-.27.25-.28a3.27,3.27,0,0,0,.25-.32l.2-.33a2.14,2.14,0,0,0,.2-.4,1.09,1.09,0,0,0,.07-.4,3.25,3.25,0,0,1,.35-.8,6.73,6.73,0,0,0,.5-.85,7.45,7.45,0,0,1,.6-.95s-.09.05-.17.05h-.23a6.35,6.35,0,0,0,.1-.9c-.16.24-.31.36-.45.38a.52.52,0,0,1-.42-.18.67.67,0,0,0-.38-.2c-.5,0-.83-.35-1-.95l1.1.1a.3.3,0,0,0,.08-.17c0-.08,0-.14,0-.18a3.46,3.46,0,0,0-1.3-.25,10.23,10.23,0,0,0-1.07.1,8.15,8.15,0,0,1-1.08.1.79.79,0,0,1-.3,0v.2a2.09,2.09,0,0,1,.25.18.51.51,0,0,0,.2.12L314,21c-.39,0-.69,0-.93.07a.93.93,0,0,0-.5.2,1.1,1.1,0,0,1-1.55.25,1.55,1.55,0,0,0-.65.1.49.49,0,0,1-.5-.05,1,1,0,0,1-.15-.65l-1.22.43a2.61,2.61,0,0,0-.33.17c-.16.1-.28.15-.35.13l-.4-.18q-.15-.09-.75.48c-.4.38-.56.62-.5.72a3,3,0,0,0,.5.55,1.42,1.42,0,0,0,.3-.05c.2,1.27.32,1.94.35,2,0,.3,0,.5-.15.58a2.12,2.12,0,0,1-.7.22l.33.5a2.91,2.91,0,0,0,.37.5l-.75.25-.6.2a.37.37,0,0,0,.05.15.47.47,0,0,0,.25-.05.39.39,0,0,1,.05.2l-.75.25.05-.5a7.62,7.62,0,0,1-1.25.3l-.35-.5-1.25-.2c-.06,0-.08-.09-.05-.27a1.23,1.23,0,0,0,0-.4c0-.08-.19,0-.53.12a6.13,6.13,0,0,0-.32-1,3.31,3.31,0,0,1-.28-1.13,1.4,1.4,0,0,1,.25-.8c.17-.1.39-.24.65-.42l.55-.38a1.19,1.19,0,0,0,0,.2c0,.1,0,.19,0,.25Zm3.7,19.45a.7.7,0,0,0,.15.3c0-.1.09-.2.15-.32s.12-.18.15-.18a1.57,1.57,0,0,0,.6.1h.8a1.55,1.55,0,0,1,.9.25l.5.23.7.32q.3.15.3.3a.94.94,0,0,0,.4.8,3.43,3.43,0,0,1,.5.5,3.82,3.82,0,0,1,.5,1.4,1.66,1.66,0,0,1-.2.8.7.7,0,0,0,.25-.1,1,1,0,0,0,.25-.1,2.57,2.57,0,0,0,.08.48,2.28,2.28,0,0,1,.07.47,1.57,1.57,0,0,1-.55,1,2.41,2.41,0,0,0-.65,1,.75.75,0,0,1-.27.33,3.38,3.38,0,0,1-.63.37l-.55.3a5,5,0,0,0-.67.5,4.15,4.15,0,0,1-.85.58,1.9,1.9,0,0,1-.83.17h-.15a4.44,4.44,0,0,0-.62,0l-.73.15-.6.15q-.24.06-.3,0l-.62-.35a5.15,5.15,0,0,1-.78-.47,1.17,1.17,0,0,1-.4-.48A5.54,5.54,0,0,0,304,49a2.2,2.2,0,0,1-.5-1,5.63,5.63,0,0,0-.22-.8,6.74,6.74,0,0,1-.23-.75,1.75,1.75,0,0,1,0-.4,2.31,2.31,0,0,1,.73-1.65,3.65,3.65,0,0,1,1.57-1,.69.69,0,0,0,.38-.25,4.4,4.4,0,0,0,.4-.57c.15-.25.24-.39.27-.43a4.29,4.29,0,0,0-.5-.07,1.18,1.18,0,0,1-.4-.08c0,.24,0,.36-.12.38a.69.69,0,0,1-.38-.08,1.29,1.29,0,0,0-.35-.1c.17-.1.42-.26.75-.5l.75-.5a.14.14,0,0,1,.05.1.26.26,0,0,1-.05.15.36.36,0,0,1-.1.15.76.76,0,0,0,.1.15c.34-.2.64-.38.9-.55A6.09,6.09,0,0,0,307.69,41.24Zm4.8-10.7-1.75,1.33c-.76.58-1.33,1-1.7,1.27a8.92,8.92,0,0,0,2.4-1,2.28,2.28,0,0,0,.4-.37,4.6,4.6,0,0,0,.43-.55,3.56,3.56,0,0,1,.37-.48s-.06,0-.07-.07S312.53,30.54,312.49,30.54Zm4.8-.75L314,32l-3.1,2.1s.1,0,.2.15l3.23-2.15c1.41-.93,2.46-1.63,3.12-2.1A1,1,0,0,0,317.29,29.79Zm-5.55-12.55h2.6a1.24,1.24,0,0,1-.1.2h-2.5Zm3.83.75a2.1,2.1,0,0,0,1,.23,5.39,5.39,0,0,1,.85.07c-.63.07-1,.1-1.1.1a1.83,1.83,0,0,1-1.4-.6,2.2,2.2,0,0,0-.65-.35,2.32,2.32,0,0,0,.45-.05,3.54,3.54,0,0,1,.45-.05A.83.83,0,0,0,315.57,18Zm-.38-.65.85,0c.37,0,.64,0,.8,0v.25A2.21,2.21,0,0,1,315.19,17.34Zm4.45,12.75c-.86.7-1.53,1.24-2,1.6l.15.15c.1-.06.77-.6,2-1.6Zm1.45-2.2c-.36.4-.93,1.07-1.7,2C320.23,29.76,320.79,29.09,321.09,27.89Z"/><path class="cls-1" d="M104.26.71A3.88,3.88,0,0,0,102.38,0a3.75,3.75,0,0,0-1.91.24,2.68,2.68,0,0,0-.18.28,2,2,0,0,0-.21.61,2.23,2.23,0,0,0-.55.6.67.67,0,0,0,.16.92,3.06,3.06,0,0,0-.34.54,2,2,0,0,0-.25,1.13,14.68,14.68,0,0,0-.89,1.24A20.94,20.94,0,0,1,96.89,7.3a7.7,7.7,0,0,0-1,1.42,1.47,1.47,0,0,0-.09.17,4,4,0,0,1-1.51,1.42c-.17.17-.26.2-.29.09a.27.27,0,0,0,0-.19,1.84,1.84,0,0,0-.6.74,1,1,0,0,1-.82.62.43.43,0,0,0-.14.2c0,.07.14.1.46.07s.34-.05.28-.09c-.11.15-.07.32.14.51s.32.33.3.43a1.4,1.4,0,0,0,.33-.07,2.27,2.27,0,0,1,.41-.16c.21-.07.35-.08.4,0s.07.1,0,.2a.45.45,0,0,0,0,.28c0,.1,0,.17,0,.23a1,1,0,0,0,.69-.19c.25-.18.35-.11.31.19a2.32,2.32,0,0,0,1.1-1,1.68,1.68,0,0,0,.19-.92c-.56.33-.79.33-.7,0a.81.81,0,0,1,.3-.22c.16-.08.19-.2.08-.38.21-.47.39-.85.55-1.14A2.55,2.55,0,0,1,97.63,9,1.15,1.15,0,0,0,98,8.33c0-.19-.08-.15-.26.12a3.65,3.65,0,0,0-.42.57c-.21.33-.35.48-.42.46.39-.37.46-.57.2-.6s-.4.32-.79,1l-.47.89q.15-.27-.24-.21c-.13,0-.2,0-.23,0s0-.09,0-.17,0-.2,0-.36a.3.3,0,0,1,.15-.4c.16-.22.68-.87,1.55-1.93s1.57-1.95,2.06-2.63l1-1.28a.79.79,0,0,0,.48-.08c.18-.09.28-.14.29-.17l-.06.22c0,.11.13.08.34-.08l-.08.14c.12.31.32.37.61.18l.35-.33a2.6,2.6,0,0,1,.42-.34,1.85,1.85,0,0,1,.49-.16c.22,0,.46-.27.73-.66a3.42,3.42,0,0,1,.59-.73.59.59,0,0,1,.21-.34C104.35,1.22,104.3,1,104.26.71Z"/><path class="cls-1" d="M100.93,4.31a.81.81,0,0,0-.27-.22s-.25.24-.59.75a6.91,6.91,0,0,0-.65,1,2.46,2.46,0,0,0-.22.52q.28-.09.78-.93c.09-.16.18-.23.29-.21a6,6,0,0,0-.4.64,1.53,1.53,0,0,0-.23.87,10.94,10.94,0,0,1,1.64-2.2A.72.72,0,0,1,100.93,4.31Z"/><path class="cls-1" d="M111.48,12a2,2,0,0,0-.08-1.09,4.21,4.21,0,0,1-.17-1.11,1.67,1.67,0,0,0-.32-.94,2.87,2.87,0,0,0-.25-1.23,1.44,1.44,0,0,1-.21-.82.55.55,0,0,0-.2-.52,17.76,17.76,0,0,0,.73,4C111.24,11.14,111.4,11.72,111.48,12Z"/><path class="cls-1" d="M108.84,7.34a3.6,3.6,0,0,0,.07,1c.08.43.13.73.16.9.63,2.43,1,3.86,1,4.28s.12.88.19,1.4c0,.13,0,.25,0,.35s.29.12.44.18a7.5,7.5,0,0,0,1.39.3l.38,0c.73.05,1.51-.71,2.2-1.47a3.85,3.85,0,0,1,.38-.8c0-.13,0-.22-.23-.27a5.44,5.44,0,0,0,.42-1.07,2.63,2.63,0,0,1,.5-1c.08,0,.1.16.08.33s0,.15-.09.11a.11.11,0,0,1-.07.06.83.83,0,0,0-.3.35.42.42,0,0,0,.07.53c.16.18.27.12.35-.19a4,4,0,0,0,.27-.75q.1-.44,0-.51c-.08.12-.12.14-.12,0s-.07-.18-.23-.08a1.93,1.93,0,0,0,.08-.6.71.71,0,0,1,.15-.51c.1.33.31.19.61-.42.21-.41.45-.89.73-1.42a17.42,17.42,0,0,0,.88-2c-.3.41-.56.61-.76.61s-.12-.13,0-.46a2.6,2.6,0,0,0,.8-1.49V4.23c0-.15.15-.21.38-.19l.34-.8-.09.23a1.53,1.53,0,0,0-.13.49c0,.21.08.25.31.12l.46-.73c.17-.3.08-.45-.27-.42-.13-.1-.14-.18,0-.23s0-.05-.12-.08-.09,0-.19-.11-.18-.07-.23.19-.22.24-.27.1a1.49,1.49,0,0,0-.25-.43c-.11-.14-.24-.12-.4.06l-.11-.23a.35.35,0,0,1-.31.12c-.28-.08-.43,0-.46.34-.15.67-.32.79-.5.39-.15.35-.44,1-.88,1.82a12.82,12.82,0,0,0-.88,2.05,5.33,5.33,0,0,0,.46-.66l.08,0a5.3,5.3,0,0,1-.41,1.63,10.82,10.82,0,0,0-.51,1.4,4.62,4.62,0,0,1-.58,1.26c0,.26,0,.4-.15.43s-.09-.06-.12-.23a.24.24,0,0,0-.19.36c.05.12.11.15.17.1a.69.69,0,0,0-.07.19c0,.15-.07.22-.08.21a1.9,1.9,0,0,1-.06-.29.75.75,0,0,1-.26.33.42.42,0,0,0-.2.36c0,.1,0,.11,0,0a.26.26,0,0,0-.1-.17s-.11,0-.19.13a.47.47,0,0,0,.11-.31c0-.23-.09-.32-.26-.26,0-.34-.09-.38-.19-.12s-.06.31.07.38l0,.81a4.48,4.48,0,0,1-.11-.62c-.06-.33-.15-.31-.27,0a2.65,2.65,0,0,0-.23.44c-.13.27-.21.21-.23-.17-.13-.71-.42-2-.87-3.77s-.74-3.2-.9-4.2a3,3,0,0,0,0,.46,4.22,4.22,0,0,0,.11.92c.08.61.15,1.12.21,1.51s.26,1.22.58,2.48.53,2.18.63,2.79a1.6,1.6,0,0,1,.11.58,1.28,1.28,0,0,1-.19.69c0,.25,0,.39-.07.42s-.13-.26-.16-.77a2.78,2.78,0,0,0-.11-.65c0-.15-.12-.22-.19-.19a2.09,2.09,0,0,0-.08-.77A23.48,23.48,0,0,0,109.49,8c-.13.1-.22.09-.27,0a2.59,2.59,0,0,1-.12-.6A3,3,0,0,0,109,6.8q-.06-.19-.21-.9a9.57,9.57,0,0,0-.35-1.25,3.81,3.81,0,0,1,.42,1.08c0,.2.06.37.08.51s0,.27.08.37.06.24.11.42.12.23.19.15a38,38,0,0,0-1.11-4.29,12.59,12.59,0,0,0,.14,1.92A15.22,15.22,0,0,0,108.84,7.34Zm6.84,1.49A6.79,6.79,0,0,0,116,8,6,6,0,0,1,115.68,9c-.2.46-.32.73-.37.81A4.21,4.21,0,0,1,115.68,8.83Zm-1.19,3.05c.16-.42.27-.73.32-.92a1.49,1.49,0,0,1,.31-.56c-.31.72-.61,1.55-.92,2.49A4.13,4.13,0,0,1,114.49,11.88Z"/><path class="cls-1" d="M109,10l.12.08c.07.15.09.25.05.28s-.07,0-.11-.09A.74.74,0,0,1,109,10Z"/><path class="cls-1" d="M113.93,13.54a1.84,1.84,0,0,0-.19.37c0,.14-.06.2,0,.17S113.88,13.85,113.93,13.54Z"/><path class="cls-1" d="M114.39,8.45l0,.07c0,.21-.09.31-.19.31s-.12-.06,0-.17A.57.57,0,0,1,114.39,8.45Z"/><path class="cls-1" d="M115.7,5.84a1.66,1.66,0,0,0-.27.69A3.88,3.88,0,0,0,115.7,5.84Z"/><path class="cls-1" d="M116.69,6.57l-.11.23a2,2,0,0,0-.16.46s.08-.16.16-.33A1.05,1.05,0,0,0,116.69,6.57Z"/><path class="cls-1" d="M118,4.16l-.16.3h0A.48.48,0,0,0,118,4.16Z"/></g></g></svg>