<?xml version="1.0" encoding="utf-8"?>
<!-- Generator: Adobe Illustrator 22.0.1, SVG Export Plug-In . SVG Version: 6.00 Build 0)  -->
<svg version="1.1" id="Layer_1" xmlns="http://www.w3.org/2000/svg" xmlns:xlink="http://www.w3.org/1999/xlink" x="0px" y="0px"
	 viewBox="0 0 323 55.9" style="enable-background:new 0 0 323 55.9;" xml:space="preserve">
<title>1</title>
<g id="Layer_2_1_">
	<g id="Layer_1-2">
		<path d="M0.6,18.9C0.9,19.2,1,19.7,1,20.1c0,0.1,0,0.4,0,0.7s-0.1,0.6-0.1,0.8c-0.1,0-0.1,0-0.2,0c0-0.3-0.1-0.6-0.1-0.9
			c-0.1,0.1-0.2,0.2-0.3,0.3l-0.3,0.3c0.1-0.3,0.2-0.7,0.2-1C0.2,19.8,0.4,19.3,0.6,18.9z M5.5,45.9c0,0.8,0,2.2-0.2,4.3
			c0,0.2,0,0.4,0.1,0.6c0,0.2,0,0.4,0,0.4c-0.1,0.1-0.2,0.3-0.4,0.3l-0.2-0.4l-0.2-0.5c0,0.2-0.1,0.4-0.1,0.7s0,0.4,0,0.5
			c0,0-0.1,0-0.2,0c0,0-0.2-0.3-0.6-1c-0.1,0.1-0.2,0.2-0.3,0.3c-0.2-1-0.4-2-0.4-3.1c0-0.5,0-0.9,0.1-1.4c0-0.3,0-0.6,0-0.9
			c0-0.3,0-0.8-0.1-1.4S3,43.2,3,42.9v-2.8c0-0.3,0-0.6,0-1c0-0.2-0.1-0.5-0.2-0.7v13c0,0,0-0.1-0.2-0.1c-0.1,0-0.2-0.1-0.3-0.1
			c0,0.1-0.1,0.2,0,0.3c0,0.1,0,0.2,0,0.3c-0.2-0.2-0.5-0.4-0.8-0.6c0.1-0.7,0.1-1.2,0.1-1.5l-0.3,0.2l-0.1,0.1
			c-0.1-0.9-0.1-1.4-0.1-1.5c0-0.4,0.1-1,0.2-1.8s0.1-1.2,0.1-1.3c0-0.1,0-0.3-0.1-0.4c-0.1-0.1-0.1-0.2-0.1-0.4
			c0-0.3,0.1-0.7,0.1-1c0-0.4,0.1-0.8,0.2-1.3c0.1-0.3,0.3-0.7,0.6-0.9l-0.3-0.1H1.6c0-0.2-0.1-0.3-0.2-0.5
			c-0.1-0.3-0.1-0.4,0.1-0.5s0-0.2-0.1-0.3C1,40.1,1,39.6,1.2,39.2c0,0,0-0.1,0.1-0.1c0.1-0.3,0.1-0.6,0.1-0.8
			c-0.2,0-0.4-0.1-0.4-0.2c0-0.1,0-0.2,0.1-0.3c0.1-0.1,0.1-0.2,0.1-0.3c0-0.5-0.1-0.7-0.4-0.7l0.3-0.7c0-0.3,0-0.6-0.1-0.9
			c-0.2-0.2-0.4-0.4-0.6-0.5c0.1,0,0.1-0.3,0.2-0.7c0-0.4,0.4-0.6,0.7-0.6c0,0,0,0,0.1,0l-0.6-1c0.5-0.4,0.5-0.7,0.2-1.1
			c0,0.1,0,0.4-0.1,0.8c-0.1-0.2-0.1-0.4-0.2-0.5c-0.1,0.1-0.2,0.2-0.3,0.3c0-0.1-0.1-0.3-0.1-0.5s-0.1-0.4-0.1-0.5
			c0.1,0.1,0.3,0.1,0.5-0.2s0.4-0.2,0.6,0.2c-0.1-1.4-0.1-3-0.1-4.6c0-2,0.1-4.7,0.3-8c0.1,0,0.1,0,0.2,0c0,0.1,0.1,0.5,0.2,1
			c0.1,0.5,0.2,1,0.2,1.3c0.1-0.2,0.1-0.4,0.1-0.6c0-0.4,0.1-0.7,0.1-1c0.2,0.5,0.3,1,0.3,1.5c0,0.4-0.1,0.8-0.1,1.3
			c-0.1,0.4-0.1,0.8-0.1,1.3c0,0.1,0,0.3,0,0.4c0,0.4,0,0.8,0,1.3c0,0.3,0,0.7,0,1.3s0,1,0,1.3v0.7c0.1,1.8,0.3,3.2,0.3,4.1h0.4
			v-3.1c0,0,0,0,0.2,0c0.1,1.2,0.1,1.9,0.2,2.3h0.2V19.8h0.7v6.7h0.2c0-0.4,0.1-1.8,0.2-4.1H5c0,0.5,0.1,3.5,0.3,9.1
			c2.3-0.4,4-0.6,4.9-0.8C10,30.8,9.8,31,9.7,31.2l2.3-0.4c0,0,0-0.1,0.1-0.1l-1-0.1c0.3,0,0.7-0.1,1.3-0.2s1-0.2,1.4-0.2
			c0.2-1.6,0.3-3.3,0.3-5.1v-0.4c0.4-0.3,0.6-0.9,0.6-1.9c0.1-1.9,0.8-3.7,2.1-5.1c0.1,0.2,0.2,0.5,0.4,1s0.4,0.9,0.5,1.2
			c-0.1-0.4,0.1-0.9,0.5-1.1c0.4-0.4,0.6-0.6,0.6-0.7c0.3,0.7,0.6,1.1,0.7,1.4c0.1-0.1,0.1-0.1,0.2-0.2c0.5,0.7,0.8,1.6,0.8,2.5
			c0,0.5-0.1,1-0.2,1.5c-0.2,0.5-0.3,1-0.3,1.5c0,0.2,0,0.5,0,0.7c0,0.2-0.1,0.3-0.1,0.5c-0.1,0.1-0.1,0.3-0.1,0.4
			c0,0.3-0.2,1.5-0.5,3.8L19,29.7c-0.1,1-0.1,1.6-0.1,1.7c0,0.2,0.1,0.3,0.1,0.5c0.1,0.2,0.1,0.4,0.2,0.5s0,0.2,0,0.5s0,0.4,0,0.6
			c0,0.1,0,0.2,0,0.3c0,0.2,0,0.3,0,0.3c0,0.5,0,1.1,0.1,1.6c0-0.3,0-0.5,0.1-0.8c0.1-0.4,0.1-0.7,0.1-0.9l0.1,0c0,0.7,0,1.1,0,1.3
			c0,0.6,0.1,1.3,0.3,1.8c0-0.3,0.1-0.7,0.1-1c0,0.1,0,0.2,0.1,0.3c0.1,0.1,0.1,0.3,0.1,0.5c0,0.1-0.1,0.3-0.4,0.3
			c-0.1,0-0.1,0.3-0.2,0.7c0,0.3-0.1,0.5-0.2,0.8c-0.1-0.3-0.1-0.5-0.2-0.5v1.2h-0.1v-0.3h-0.2c0,0.7,0,1.3,0,2
			c0,1.6,0.1,3.2,0.3,4.7c0.3-0.3,0.5-0.4,0.6-0.3c0.2,0.2,0.4,0.5,0.5,0.8c0.1-0.3,0.2-0.4,0.3-0.5l0.5,1.3c0,0-0.1,0.1-0.1,0.1
			c0,0-0.1,0-0.1,0c0-0.1,0-0.2-0.1-0.3l-0.1-0.3h-0.1v2.8l-0.6,0c-0.2,0.5-0.4,0.5-0.7,0.2l-0.1-0.2c-0.1,0.3-0.2,0.6-0.4,0.9
			c-0.2-0.2-0.3-0.5-0.5-0.7c0,0-0.1,0.1-0.4,0.3c0-0.1-0.1-0.1-0.1-0.2c0-0.1-0.1-0.2-0.1-0.3l-0.1-0.3c-0.2,0.6-0.3,0.9-0.3,1.1
			s-0.3,0.1-0.6,0.1l-0.7,0.1c-0.4-1.4-0.7-2.1-0.7-2.2v-0.2c-0.2-0.3-0.3-0.6-0.3-1c0-0.1,0-0.3,0-0.5s0-0.3,0-0.5V46
			c-0.1-0.6-0.3-1.1-0.5-1.7c-0.2-0.6-0.4-1.2-0.4-1.8c0-0.3,0-0.5,0.1-0.8c0-0.1,0-0.2,0-0.3c0-0.1-0.1-0.2-0.1-0.3v-0.7
			c-0.3-0.1-0.4-0.8-0.4-2.2c-0.1-0.6,0.1-1.2,0.3-1.7c0.1,0.5,0.2,1.1,0.4,1.9s0.3,1.4,0.4,1.6c0.2-0.5,0.3-1.1,0.2-1.7
			c0.1-0.8,0-1.6-0.3-2.4c0,0.1,0,0.2,0,0.3c0,0.1,0,0.2,0,0.3c-0.3-0.2-0.7-0.4-1-0.5l-1.3,0.1v0.2c0.1,0.1,0.3,0.1,0.4,0.1
			l-0.2,0.2c-1.1,0.1-2.2,0.3-3.2,0.3L8.9,37c0.3-0.1,0.7-0.3,1.1-0.4c-0.2-0.1-0.4-0.2-0.6-0.2c-0.2,0-0.4,0-0.6,0.1
			c-0.2,0.1-0.4,0.1-0.6,0.1c-0.2,0-0.4-0.1-0.6-0.2c0,0.1-0.1,0.2-0.1,0.3l0,0c-0.2,0-0.4,0.1-0.8,0.1L6,37c0-0.1-0.1-0.3-0.1-0.4
			c-0.1,0-0.1,0.2-0.2,0.4s-0.3,0.3-0.5,0.2c-0.2,0.6-0.3,1-0.3,1c0.1,0.6,0.2,1.1,0.3,1.7v-1h0.2v5.7h0.3v-1.2
			C5.9,44,6,44.6,5.8,45.1c0,0.2,0,0.5,0.1,0.7c0.3,0.3,0.4,0.6,0.5,1c0,0.4-0.2,0.7-0.4,1c0.3,0.1,0.4,0.3,0.4,0.3
			c0,0.2-0.1,0.3-0.2,0.4c-0.1,0.1-0.2,0.3-0.3,0.5c0,0.1,0,0.3,0,0.8H5.8v-3.9H5.5z M1.1,46.7c-0.1,0.4-0.2,0.9-0.3,1.5
			s-0.2,1-0.3,1.2c0,0,0.1,0,0.1,0c0,0,0,0,0.1,0c0-0.2,0-0.3,0.1-0.5L1,49c0,0.2,0,0.3,0,0.5c-0.1,0.2-0.1,0.3-0.2,0.5
			c-0.3-0.1-0.4-0.5-0.4-1c0.1-0.8,0.2-1.6,0.6-2.4L1.1,46.7z M0.7,23.8c0.1,0.6,0.1,1.5,0.2,2.5c0,0-0.1,0-0.1,0
			c-0.1-0.2-0.1-0.4-0.2-0.6c-0.1-0.3-0.1-0.6-0.1-0.9C0.4,24.5,0.5,24.1,0.7,23.8z M1.1,42.5v2.3c-0.2,0-0.4-0.3-0.4-0.5
			C0.8,43.7,1,43.1,1.1,42.5z M4.6,28.3l-0.2,0c0,0.2,0.1,0.5,0.1,1s0.1,0.8,0.1,1c0.1,0,0.2-0.1,0.3,0c0-0.2-0.1-0.4-0.1-0.6
			s-0.1-0.5-0.1-0.7S4.6,28.5,4.6,28.3z M5,20.2h0.2c-0.1,0.6-0.2,1.3-0.3,2c0,0-0.1-0.1-0.2,0H4.6L5,20.2z M5.6,37.4
			c0.2,0,0.3,0,0.5-0.1l0.6-0.1c0.2,0,0.3-0.1,0.4-0.2c0.1-0.1,0.3-0.2,0.3-0.3c0.5,0,0.9,0.1,1.3,0.3c-0.9,0.4-1.9,0.6-2.8,0.7H5.6
			C5.6,37.6,5.6,37.5,5.6,37.4z M16.5,28.2V31c0.1,0,0.1,0,0.1,0v-2.9L16.5,28.2z M17.1,22.4c0,0.3-0.1,0.9-0.2,1.6
			s-0.2,1.4-0.3,1.8l0.2,0c0.1-1.1,0.3-2.2,0.4-3.4L17.1,22.4z M19.3,40.4c0.1,0.6,0.2,1.7,0.4,3.2c-0.4-0.1-0.6-0.2-0.6-0.3
			c0-0.2,0-0.4,0-0.6c0-0.7,0-1.4-0.1-2.2h0.1C19.1,40.5,19.2,40.5,19.3,40.4L19.3,40.4z"/>
		<path d="M29.2,40c0.1,0.4,0.1,0.8,0.1,1.2c0,0.7,0.1,1,0.2,1.1c0.4,0.1,0.8-0.1,1.1-0.5c0.3-0.1,0.7-0.3,1-0.5
			c0.5-0.4,1.1-0.6,1.8-0.5c-0.3,0.2-0.4,0.3-0.3,0.3c0.1,0,0.2,0,0.3,0c0.1,0,0.2,0,0.3,0c0,0,0,0.1,0,0.2l-0.4,0.3h0.1
			c0.9-0.2,1.2-0.1,1.1,0.3c0,0,0,0.1,0,0.2c0.4,0,0.6,0,0.7,0.2c0.1,0.3,0.1,0.5,0.1,0.8c-0.3,0.3-0.4,0.4-0.2,0.4
			c0.2,0,0.4,0,0.6-0.1c0.2-0.1,0.4-0.1,0.4,0c0,0.1,0,0.3-0.1,0.3c-0.1,0.1-0.1,0.2,0,0.2c0.3,0,0.4,0,0.5,0s0,0.2-0.2,0.3
			c-0.3,0.2-0.6,0.3-0.9,0.4c-0.4,0.2-1.1,0.4-2.1,0.8c-0.3,0.5-0.7,0.8-1.2,1c-0.5,0.2-0.9,0.5-1.2,0.8c-0.3,0.4-0.6,0.7-1,1
			c-0.3,0.3-0.7,0.6-1,1c-0.3,0.3-0.7,0.6-1.1,0.7c-0.5,0.2-0.9,0.4-1.2,0.8c-0.2,0.3-0.6,0.5-0.9,0.5c-0.4,0-0.7-0.3-0.9-0.8
			c-0.9,0-1-0.5-0.5-1.3L23.8,49c-0.8-0.3-1.1-0.5-0.8-0.8c0-0.2,0-0.5,0.1-0.7c0.1-0.4,0-0.6-0.2-0.6c0-0.2,0.3-0.6,1-1.2
			s0.8-1.1,0.5-1.7c0-0.3,0-0.7,0-1c0-0.6-0.1-1.2-0.3-1.7c-0.1-0.3-0.2-0.7-0.2-1c0-0.4,0.1-0.8,0.3-1.2c0.2-0.6,0.3-1.2,0.3-1.8
			C24,37,23.9,36.8,24,36.6s0.4-0.2,0.6-0.1c0.2,0.5,0.2,1,0.2,1.5c0,0.4,0.1,0.9,0.1,1.3v-0.4c0-0.4,0-1,0-2v-0.3
			c-0.1-0.7,0-1.4,0.2-2.1c0.1-0.6,0-1.2-0.3-1.8c0,0.1,0,0.2,0.1,0.3c0.1,0.4,0.1,0.8,0,1.2c0,0.6-0.2,0.7-0.5,0.4
			c0-0.2,0.1-0.5,0-0.8c0-0.6-0.1-1.3-0.1-1.9c-0.1-1.2-0.2-2-0.2-2.4c0-0.6,0-1.2,0.1-1.8c0.1-0.5,0.1-1.1-0.1-1.6
			c0.1-0.3,0.3-0.3,0.4,0.1c0.4-0.7,0.6-1.5,0.5-2.3c0-0.4,0-0.8-0.1-1.1c0-0.5,0-1-0.1-1.5c-0.1-0.5-0.1-1.1,0.1-1.5
			c0.3,1.3,0.5,1.5,0.4,0.6c-0.2-0.4-0.3-0.5-0.2-0.5s0.2,0.1,0.4,0.3S26,21,26,21.9c0,0.7,0.1,1.4,0.2,2.1c0.1,1.4,0.2,2.9,0.2,4.3
			v1.6c0,1.9,0,3.8-0.1,5.8c0,0.6,0.1,2,0.4,4.3c-0.1,0.6-0.2,1.2-0.1,1.8v0.8c0.1,1,0.1,1.7,0.1,2l0.3-16c0.2,0.5,0.3,1.1,0.3,1.6
			v1.5c0-1.9,0-3.5,0-4.7c0-0.9,0-1.9-0.1-2.8c-0.1-0.5-0.1-1.1-0.1-1.6v-0.8c0.1-0.8,0.1-1.3,0.1-1.6c0.3-0.1,0.5,0.2,0.5,0.8
			c0.1,0.4,0.1,0.9,0,1.4c0.1,0.7,0.1,1.4,0.1,2.1c0,1.1,0.1,1.7,0.4,2l0.2,0.5c0.1-0.3,0.1-0.6-0.1-0.9c-0.1-0.2-0.2-0.5-0.4-0.7
			c0.1-0.5,0.1-1,0.1-1.5c0-0.7-0.1-1.5-0.3-2.2c0.1-0.7,0.3-0.7,0.5,0c0.1,0.3,0.1,0.6,0.1,0.9c0,0.2,0,0.6,0.1,1.2
			c0,0.9,0.1,1.8,0.3,2.6c-0.2,0.5-0.2,1-0.2,1.5c0,0.4,0,0.8,0,1.3c0.1,1.2,0.1,2,0.1,2.5l-0.2,1.8c0,0.7,0,1.6,0.1,2.8
			c0.2,2.5,0.3,3.9,0.3,4.3v0.4L29.2,40z M24.1,33.1l0,0.2c0.1,0.4,0.1,0.7,0.1,0.7s-0.1,0-0.2-0.3C23.9,33.5,23.9,33.3,24.1,33.1
			L24.1,33.1z M24.9,26.9v2c0.1,0.4,0.1,0.9,0,1.3L25,31c0-0.1,0.1-0.1,0.1-0.2c-0.1-0.7,0-1.4,0.1-2.1c0.1-0.5,0.1-0.9,0.1-1.4
			c0-0.3,0-0.6,0-0.9c0,0-0.1,0.1-0.1,0.4S24.9,27.1,24.9,26.9L24.9,26.9z M26.7,22.9c0.2,0.4,0.2,0.8,0.2,1.2c0,0.3,0,0.6,0,1
			c-0.1-0.1-0.2-0.4-0.2-0.9C26.6,23.8,26.6,23.4,26.7,22.9L26.7,22.9z M27.9,27v2.3l0.1-1.1C28.1,27.7,28,27.4,27.9,27z M29.7,35.4
			v3.5c-0.2-0.8-0.3-1.5-0.3-2.3C29.4,36.2,29.5,35.8,29.7,35.4L29.7,35.4z M30.5,45.7l-0.3,0H30l-0.4,0.3
			C29.8,46.3,30.1,46.2,30.5,45.7L30.5,45.7z M32.5,44.6c-0.6,0.3-0.9,0.5-0.9,0.5L32.5,44.6L32.5,44.6z M33.7,45.3
			c0.2-0.2,0.5-0.3,0.7-0.3c0.2,0,0.4-0.1,0.5-0.1c0.2-0.4,0.7-0.6,1.1-0.4c0.5,0.1,0.5,0.3,0,0.7l-0.5,0.3c-1,0.5-1.5,0.5-1.5,0.1
			c-0.1,0.1-0.2,0.1-0.3,0.2C33.5,45.7,33.5,45.6,33.7,45.3L33.7,45.3z"/>
		<path d="M56.5,46.1c-0.5-0.4-1.1-0.9-1.5-1.5l0.1-0.1c0,0,0.1-0.1,0.1-0.1s0.2,0.2,0.5,0.4c0-0.7-0.1-1.6-0.2-2.8h-0.2
			c0,0.3,0,0.6-0.1,0.8c-0.1-0.3-0.2-0.7-0.3-1.2c-0.3,0.2-1.3,0.5-2.8,1.1c-1.2,0.4-2.3,1-3.3,1.7l-0.2-0.2L48.4,44
			c0,0.2-0.1,0.4-0.2,0.8S48,45.4,48,45.6c-0.1,0.2-0.2,0.4-0.3,0.6c-0.1,0.2-0.3,0.4-0.5,0.5c-0.3,0.3-0.4,0.5-0.4,0.7
			s0.2,0.4,0.6,0.6c0.5,0.3,0.6,0.6,0.3,0.9l-0.5,0.3c0-0.3,0-0.5,0-0.5l0-0.3l-0.3-0.2L46.5,48c0.1,0.6,0.1,0.9,0.1,1
			c0,0.2-0.1,0.4-0.2,0.5c-0.4,0.4-0.6,0.9-0.7,1.4c-0.1,0.5-0.2,0.9-0.3,1.4c-0.1,0.2-0.6,0.3-1.5,0.3c-0.3-0.3-0.4-0.4-0.5-0.5
			l-0.6-0.2c-0.1,0.3-0.3,0.4-0.7,0.3c-0.2-0.1-0.5-0.2-0.8-0.1c-0.4-0.6-0.5-0.9-0.5-0.9s0-0.3,0.1-0.8c0.1-0.3,0.1-0.7,0.1-1
			c0-0.4-0.1-0.6-0.3-0.7c0-0.2,0-0.3,0-0.5c0-0.2,0-0.3,0-0.5c0-0.2,0.1-0.3,0.2-0.4c0-0.1,0-0.1,0-0.2c0-0.1,0-0.2,0-0.3
			c0-0.1,0-0.2,0-0.3c0,0,0-0.3,0.1-0.9l-0.5,0.2l-0.5,0.2c0.1-0.2,0.1-0.4,0.1-0.5c0-0.2-0.1-0.3-0.4-0.3c-0.1-0.3-0.2-0.7-0.3-1
			c0-0.1,0.1-0.1,0.1-0.2c0-0.1,0.1-0.2,0.2-0.3c-0.2,0-0.4,0-0.7,0.1c-0.1-0.4-0.2-0.8-0.3-1.3c-0.1-0.5-0.2-1-0.5-1.5
			c0.2-0.4,0.6-0.6,1-0.7c0.9-0.3,1.8-0.7,2.6-1.2c0.2-0.3,0.4-0.6,0.6-0.8c0.1,0.2,0.2,0.4,0.2,0.5c0-0.2,0-0.3,0.1-0.5
			c0-0.2,0.1-0.4,0.2-0.5c0.1-0.1,0.2-0.2,0.4-0.3c0.2-0.1,0.2-0.2,0.2-0.4c0-0.1,0-0.3,0-0.4c0-0.2,0-0.5,0.1-0.7
			c0.1-0.2,0.2-0.5,0.3-0.8c0.1-0.2,0.2-0.4,0.3-0.6c0.2-0.3,0.3-0.7,0.5-1l0.3-0.1c0.1-0.9,0.1-1.3,0.1-1.4s0.2-0.5,0.5-1
			c0.2-0.4,0.4-0.9,0.5-1.4c-0.2,0-0.5,0-0.8,0c0.6-1.5,0.9-2.4,1-2.6c0.1-1.6,0.4-3.1,0.8-4.6c0.3-1.1,0.9-2.1,1.7-2.9l-0.2-0.3
			c0.5-1.1,0.9-1.9,1.2-2.5c0.1-0.4,0.4-0.8,0.7-1.1c0.6-0.4,1.2-0.7,2-0.8l0.3,0.4v-0.7c0.1,0.2,0.3,0.4,0.6,0.7l0.8-0.4
			c0.3-0.2,0.6-0.4,0.8-0.4c0,0,0,0.3,0.1,0.9c0.1,0,0.2,0,0.3-0.1c0.1,0,0.3-0.1,0.4-0.1c0,0-0.1-0.1-0.1-0.2c0-0.1,0-0.1,0-0.2
			c0.7,0.5,1.1,1.2,1.4,1.9c0.3,0.9,0.4,1.9,0.5,2.8c-0.2-0.1-0.3-0.2-0.5-0.4c0.1,1.4,0.4,3.3,0.8,5.7c0.1,0.2,0.1,0.4,0.3,0.6h0.2
			c0.1,0.3,0.1,0.7,0.1,1c0,0.3,0,0.6,0,1.1h0.2c0-0.1,0-0.3,0-0.5c0-0.2,0-0.4,0.1-0.5h0.3c0.1,1.1,0.2,1.8,0.2,1.9
			c0,0.3-0.1,0.5-0.1,0.8c-0.1,0.2-0.1,0.4-0.1,0.6c0,0.3,0.1,0.5,0.3,0.8c-0.3,0.5-0.4,1.1-0.3,1.7c0,0.1,0,0.2,0.1,0.3
			c0.1,0.1,0.1,0.3,0.1,0.4c0,0.1,0,0.3,0,0.4v0.7h0.3v-1.3l0.3,0l0.2,0.6c-0.1,0.3,0,0.7,0.1,1c0.3,0.2,0.6,0.4,1,0.4
			c-0.2,0.3-0.5,0.6-0.8,0.8c0.2,0,0.5,0,0.8-0.1c0.2,0,0.4,0,0.7-0.1c0,0,0,0.1,0,0.1l-0.5,0.3c-0.2,0.1-0.3,0.2-0.5,0.3l0.9,0.2
			c-0.2,0.1-0.4,0.3-0.6,0.4c-0.3,0.2-0.5,0.3-0.6,0.3c0.3-0.1,0.8-0.1,1.3-0.2l1.3-0.2c0,0.1,0,0.1,0,0.2c-0.2,0.1-0.4,0.2-0.6,0.2
			l-0.6,0.2l0.4,0.5l0.7-0.1c-0.7,0.4-1.3,0.8-1.8,1.3c-0.7,0.7-1.1,1-1.2,1.1l-0.2-0.3v0.3c-0.3,0.1-0.3,0.3-0.1,0.5
			c0.1,0.2,0.1,0.4,0.1,0.7l0,0l0,0c0,0.1,0,0.3,0,0.7s0,0.5,0,0.7c0,0.3,0,0.6,0,0.9c0.1,0.9,0.3,1.9,0.6,3.1
			c0.1,0.4,0.2,0.7,0.4,1.1c0.1,0.3,0.3,0.7,0.3,1c0.5,1.6,0.9,3.1,1.3,4.7c0.1,0.1,0.1,0.3,0.2,0.4c0.1,0.2,0.2,0.4,0.1,0.6
			c-0.1,0.1-0.1,0.3-0.2,0.4c-0.1,0-0.2-0.1-0.3-0.2c-0.1-0.1-0.2-0.2-0.3-0.3c0,0.1-0.1,0.4-0.2,0.9c-0.3-0.3-0.5-0.6-0.7-0.8
			c0,0.1-0.1,0.2-0.1,0.3c0,0.1,0,0.2-0.1,0.3c-0.1-0.2-0.2-0.5-0.5-1c0,0.2-0.1,0.5-0.1,0.9c0,0.2-0.1,0.4-0.1,0.7
			c-0.5-0.3-0.8-0.3-0.9,0.2l-0.5-1.1c0,0-0.1,0.4-0.3,1c-0.7-0.5-1.1-1.2-1.1-2c0-0.9-0.3-1.8-0.8-2.5c-0.1-0.2-0.2-0.3-0.3-0.5
			c-0.1-0.2-0.2-0.4-0.3-0.7l-0.2-0.5l0.3-0.2l0.5,0.3c0.4,0.7,0.6,1.5,0.8,2.3c0,0,0.1,0,0.1,0h0.1c0-0.8-0.3-1.6-0.8-2.3
			c-0.2-0.2-0.3-0.5-0.3-0.8c0-0.3,0-0.6,0.1-0.8c0.1-0.3,0.1-0.6,0.1-0.8c0-0.5-0.1-0.6-0.4-0.4l-0.3-0.1
			C56,46.5,56.2,46.2,56.5,46.1z M40.8,48.7c-0.1,0.7-0.3,1.4-0.4,2v0v-2.4c0.1,0,0.2,0.1,0.2,0.3S40.6,48.8,40.8,48.7z M40.8,48.7
			L40.8,48.7z M47.8,23.5c-0.4,0.6-0.6,1.3-0.6,2c0,0.4,0.1,0.8,0.2,1.2c0.1-0.3,0.3-0.8,0.5-1.4l0.5-1.3
			C48.3,24,48.1,23.8,47.8,23.5z M52.3,29.9L52,30.8c-0.2,0.4-0.3,0.7-0.3,0.9c-0.1,0.5-0.2,1-0.3,1.4c0.2,0,0.3,0.1,0.3,0.2
			c-0.1,0.3-0.2,0.5-0.3,0.7c0-0.1,0-0.2,0-0.3c0-0.1,0-0.2-0.1-0.3c-0.4,0.9-0.7,1.9-1,2.9c-0.1,0.5,0.1,0.6,0.6,0.3l0.7-0.3h0.2
			c0.5,0,0.9-0.2,1.3-0.4c0.4-0.2,0.8-0.4,1.2-0.5c0.4-0.1,0.7-0.4,0.9-0.8v-1.3c0,0.1-0.1,0.2-0.2,0.3c0,0.1-0.1,0.2-0.2,0.3h-0.2
			c-0.1-1.2-0.3-2.8-0.5-4.9V29l-0.5-1.5c-0.2-0.4-0.3-0.8-0.2-1v-0.4h-0.3C52.7,28.4,52.4,29.6,52.3,29.9z M54,24v3.2
			c0.2-0.1,0.4-0.2,0.7-0.3v-1.6C54.7,25.3,54.4,24.8,54,24z M55,27.6h-0.2c0.1,1.2,0.1,2.1,0.2,2.7c0.3-0.3,0.4-0.7,0.5-1.1
			C55.3,28.7,55.2,28.1,55,27.6L55,27.6z M56.7,22.2h-0.3c-0.1,0.6-0.1,1.1-0.1,1.7c0,0.3,0.1,0.9,0.3,1.6c0.1,0.6,0.2,1.2,0.2,1.8
			c0,0.3,0,0.7,0,1.1c0,0.6,0,1.5,0,2.7c0,1.2-0.1,1.9-0.1,2.2c0,0.1,0,0.3,0,0.6H57c0.1-2.5,0.2-4.1,0.2-4.8c0-1.1-0.1-2.2-0.2-3.3
			c0,0.1,0.2,0.3,0.3,0.6c0-0.3,0-0.6-0.1-0.9L57,25.3c0-0.2,0-0.7-0.1-1.5S56.7,22.6,56.7,22.2L56.7,22.2z M57.3,23h-0.1
			c0,0-0.1,0-0.1,0c0.1,0.6,0.2,1.4,0.3,2.6c0.1-0.4,0.1-0.9,0.2-1.3C57.4,23.9,57.3,23.4,57.3,23L57.3,23z M57.3,43.5
			c-0.1,0-0.1,0-0.2,0c0.1,0.2,0.3,1.1,0.8,2.7H58c-0.1-0.3-0.2-0.8-0.4-1.5S57.3,43.7,57.3,43.5L57.3,43.5z M58.5,47.8h-0.2
			c0.3,1,0.5,2.2,0.8,3.5c0,0,0.1,0,0.1,0c0,0,0.1,0,0.1,0C58.9,49.7,58.6,48.5,58.5,47.8L58.5,47.8z M58.5,22.8
			c0.1,0.3,0.1,0.6,0.2,0.9c0.1,0.3,0.2,0.6,0.2,0.9c0,0.3-0.1,0.6-0.3,0.9h-0.2c-0.1-1.5-0.2-2.4-0.2-2.7
			C58.3,22.8,58.5,22.8,58.5,22.8z M59.5,41.4h0.2c0.1,0.3,0.2,0.9,0.3,1.8l-0.2,0c0-0.1-0.1-0.4-0.2-0.8S59.6,41.7,59.5,41.4
			L59.5,41.4z"/>
		<path d="M65.2,27.3c0.2,0.2,0.4,0.4,0.5,0.6c0.1,0.3,0.2,0.7,0.2,1c0,0.4,0,0.7,0,0.8c-0.5,0-0.9-0.4-1-0.9c0-0.1,0-0.1,0-0.2
			c0-0.3,0-0.7,0.1-1c0.1,0.6,0.2,1.1,0.3,1.7l0.2,0c0-0.2-0.1-0.6-0.1-1S65.2,27.6,65.2,27.3z M72.3,18.9C73,19,73.7,19.4,74,20
			c0,0,0-0.1,0-0.1v-0.3l0.1-0.1c0.2,0.3,0.5,0.5,0.9,0.6c0.1,0,0.2,0,0.3,0c0.2,0,0.2,0,0.2,0c0.3,0.4,0.9,0.6,1.4,0.5
			c0,0,0.1,0,0.2,0.1l0.4,0.4l0.9,1c0.5,0.5,0.9,1.1,1.2,1.8c0.3,1.9,0.5,3.9,0.6,5.8c0,0.3,0,0.6,0,0.9c0,0.3-0.1,0.6-0.1,0.9
			c0,0.2,0,0.5,0.1,0.7c0,0.2,0.1,0.5,0.1,0.7c0,0.2-0.1,0.5-0.2,0.9c-0.1,0.3-0.2,0.6-0.2,0.9c0.1-0.2,0.3-0.3,0.4-0.5l0,0
			c-0.1,0.3-0.3,0.9-0.6,1.7c-0.1-0.2-0.1-0.3-0.1-0.5c0-0.3-0.1-0.5-0.1-0.7c-0.2,0.6-0.4,1.5-0.7,2.5c-0.1,0.3-0.1,0.5-0.3,0.8
			c-0.3,0.4-0.5,1-0.4,1.5c0.5-0.9,0.9-1.7,1.3-2.7c-0.2,0.7-0.7,2.1-1.4,4.3c-0.1,0.2-0.1,0.3-0.1,0.5c0.5-0.9,1-1.9,1.3-2.8
			c0.4-1,0.8-2.2,1.2-3.5s0.7-2.3,1-3c-0.5,3.4-1.5,6.8-2.9,10c0.1,0,0.2,0,0.3,0.1c0.1-0.1,0.1-0.2,0.2-0.3
			c0.1-0.1,0.1-0.2,0.2-0.3H79c-0.2,0.8-0.3,1.2-0.3,1.3c-0.9,1.4-2.1,3.3-3.7,5.7c-0.1,0.2-0.2,0.4-0.4,0.5l-0.4,0.5
			c-0.5,0.8-1.1,1.4-1.8,2l-1.2,0.7c0-0.1,0-0.4,0.1-1L70.7,52l-0.6,0.4c0.1-0.4,0.1-0.8,0.2-1c-0.2,0-0.4,0-0.6,0
			c0.7-0.8,1.1-1.2,1.2-1.4c0,0-0.1,0-0.1-0.1l-2.1,1.8c-0.1-0.1-0.2-0.2-0.4-0.3c-0.2-0.1-0.4-0.2-0.5-0.4c-0.1-0.2-0.1-0.5,0-0.8
			c-0.2,0.1-0.3,0.3-0.3,0.7s-0.4,0.7-1,0.8c0,0-0.1,0-0.2,0c-0.1-0.2-0.2-0.5-0.3-0.7c-0.2-0.3-0.2-0.6-0.2-0.9
			c0.1,0,0.1-0.2,0-0.6s0-0.6,0-0.6c0-0.2,0-0.3,0.2-0.4c0.3-0.4,0.5-0.9,0.4-1.5c-0.1-1-0.3-3.6-0.4-7.8c0-0.1,0-0.2,0-0.5
			c0-0.2,0-0.5,0-0.7c0.1-0.1,0.1-0.2,0.1-0.3c0-0.2,0.1-0.3,0.1-0.5C66,37.3,66,37.4,66,37.6h-0.1c-0.1-0.3-0.1-0.6-0.2-0.9
			c0.1,0,0.1,0.1,0.2,0.1c0.1,0,0.1,0,0.2,0c0-0.4-0.1-1.2-0.2-2.3s-0.2-2-0.2-2.6h0.3c0,0.1,0.1,0.3,0.1,0.4c0,0.2,0.1,0.3,0.1,0.5
			c0,0.1,0.1,0.3,0.1,0.4h0.2l-0.2-1.7h0.2c0,0.3,0.1,0.5,0.2,0.8c0.1,0.3,0.1,0.5,0.2,0.8c0,0.4-0.1,0.7-0.3,1
			c-0.1,0.2,0,0.5,0.2,1.2c0.1-0.3,0.1-0.6,0.1-0.9H67c0.2,1.9,0.4,3.9,0.5,6L66.9,40v7l0,0c0-0.1,0.1-0.3,0.2-0.6l0.1,0.2
			c0.1-0.2,0.2-0.3,0.3-0.5l0.4-0.6c0.1-0.2,0.2-0.4,0.3-0.6c0.1-0.2,0.1-0.4,0.2-0.7v-0.5c0-2.8-0.2-6.1-0.6-10l-0.1-0.1V31
			c0.2,0.3,0.3,0.5,0.3,0.8c0.1,0.3,0.1,0.7,0.2,1s0.1,0.7,0.1,1.2s0,0.8,0,1c0.2,3.1,0.4,5.7,0.6,7.8l0.1,1.4
			c0.1-0.7,0.2-1.3,0.2-2c0-0.3,0-0.8,0-1.5s-0.1-1.2-0.1-1.6s0-0.8,0.1-1.2l0.2,0.4c0.1,0.1,0.1,0.3,0.2,0.5c0,0.1,0,0.3,0,0.4
			c0,0.1,0,0.2-0.2,0.3c0,0.2,0,0.5,0,0.8c0.1,1.1,0.2,2,0.2,2.7l0.9-0.7l1-0.8v1.2c-0.2,0.1-0.3,0.2-0.4,0.4c0.1,0,0.2,0,0.3,0.2
			s0.3,0.1,0.4-0.1c0.1-0.1,0.3-0.3,0.6-0.6c0.3-0.2,0.5-0.5,0.7-0.8l0.6-1.3l0,0c0.4-0.5,0.8-1.1,1.2-1.7c0.4-0.8,0.7-1.7,0.9-2.6
			c0.1-0.3,0-0.7-0.1-1c-0.1,0-0.1-0.3-0.1-0.8s0-0.8,0-0.9c0-0.2-0.1-0.7-0.2-1.4c-0.1-0.7-0.1-1.3-0.2-1.7v-0.5
			c0-0.7-0.1-1.3-0.3-1.9c0-0.1-0.1-0.4-0.2-0.8c0-0.3-0.1-0.6-0.3-0.9l0.2-0.6c0,0.1,0.3,0.5,0.9,1.3c0.1-1.1,0.2-1.8,0.2-2
			c-0.2,0-0.4-0.1-0.6-0.2c-0.2-0.2-0.4-0.3-0.6-0.5L74,23.6c0.1-0.5,0.2-0.7,0.2-0.8c0-0.1-0.1-0.2-0.2-0.3
			c-0.1-0.1-0.3-0.1-0.4-0.1c-0.1,0-0.2,0-0.3,0L73,22.9l-0.5-0.5c-0.1-0.4-0.5-0.7-1.2-0.9c-0.5-0.1-0.9-0.3-1.3-0.5
			c-0.4-0.4-0.7-0.6-0.9-0.5c-0.2,0.1-0.5,0.1-0.8,0c-0.2-0.1-0.4-0.2-0.7-0.2c0.1-0.1,0.2-0.1,0.3-0.2c-0.2-0.1-0.4-0.2-0.8-0.4
			l0.3-0.1c0.1-0.1,0.3-0.1,0.4-0.2c-0.2-0.1-0.4-0.2-0.6-0.3c0.1,0,0.3,0.1,0.4,0c0.3,0,0.6,0,0.9-0.1c0.3-0.1,0.7-0.2,1-0.2
			c0.2,0,0.5,0,0.7,0c1,0.3,1.9,0.5,2.9,0.6c-0.1-0.1-0.2-0.2-0.3-0.3L72.3,18.9z M66.4,46.7L66.4,46.7c-0.1,0.2,0,0.5,0,1
			s0.1,0.9,0.1,1.2h0.3c0.1-0.3,0.1-0.6,0.3-0.8c0.1-0.3,0.2-0.6,0.3-0.8c-0.1,0-0.1,0-0.2-0.1l-0.3,0.6c-0.1-0.2-0.2-0.4-0.3-0.6
			L66.4,46.7z M67.2,21v0.9c0,0.2,0,0.5,0,0.7c0,0.9,0.2,1.7,0.4,2.5c0,0.1,0,0.6,0,1.6s0.3,1.9,0.3,2.4c0,0.2,0,0.4,0,0.5
			c-0.4-0.8-0.7-1.7-0.7-2.6v0c-0.1-0.3,0-0.4,0.3-0.3v-0.4c-0.2-0.2-0.3-0.4-0.3-0.6C67.1,25.5,67,25.3,67,25c0-0.2,0-0.4,0-0.6
			c-0.1-0.9-0.2-1.7-0.2-2.6C66.9,21.5,67,21.2,67.2,21z M72.8,47.4c-0.5,0.5-0.8,1-1,1.3C72.7,48.3,73.1,47.9,72.8,47.4L72.8,47.4z
			 M73.8,41.5c-0.5,0.6-0.9,1.3-1.4,2c0,0,0.1,0,0.1,0l0,0l0.7-1L73.8,41.5C73.9,41.6,73.9,41.6,73.8,41.5
			C73.8,41.5,73.8,41.5,73.8,41.5L73.8,41.5z M73.7,40.1l-0.3-0.3c-0.1-0.1-0.2-0.1-0.2-0.2l0.4-0.4c0.2-0.2,0.4-0.4,0.6-0.5
			C74.1,39.2,73.9,39.7,73.7,40.1L73.7,40.1z M75.1,44.1l-0.7,1.1c-0.3,0.5-0.5,0.8-0.7,1.1c0,0,0.1,0.1,0.2,0.1
			c0.1-0.2,0.2-0.3,0.4-0.5c0.1-0.2,0.3-0.3,0.4-0.5c0.1-0.2,0.2-0.4,0.3-0.5C75.1,44.7,75.1,44.4,75.1,44.1L75.1,44.1z M76.6,41.8
			c-0.7,1.1-1.2,1.9-1.4,2.3c0.2-0.1,0.4-0.1,0.6-0.2C76.2,43.3,76.5,42.6,76.6,41.8L76.6,41.8z M77,24.6c-0.1,0-0.2,0.1-0.3,0.1
			c0.4,1,0.6,1.5,0.6,1.5c0.4,0.7,0.7,1.4,0.7,2.3c0,0.4,0,0.7-0.1,1c-0.2-0.4-0.3-0.9-0.3-1.4c0-0.5-0.1-1-0.4-1.4
			c0.1,1.1,0.2,2.7,0.3,4.9c0.3-1.1,0.6-2.3,0.8-3.5c0-0.7-0.2-1.4-0.6-2c-0.2,0.1-0.3,0-0.3-0.4v-0.3C77.3,25.2,77.1,24.9,77,24.6
			L77,24.6z M77.8,39.6c-0.4,0.7-0.7,1.4-1,2.1c0.2-0.1,0.4-0.3,0.4-0.5c0.2-0.3,0.3-0.7,0.4-1C77.8,39.9,77.8,39.7,77.8,39.6
			L77.8,39.6z M79.8,38.8c0.2,0.2,0.3,0.4,0.3,0.5c-0.2,0.5-0.6,1-1,1.5c0.1-0.2,0.2-0.5,0.3-0.9S79.8,39.1,79.8,38.8L79.8,38.8z
			 M80.3,37.3c0,0.1,0.1,0.2,0.1,0.3c0,0.1,0.1,0.2,0.1,0.3c0,0.1,0,0.2,0,0.3c0,0.1-0.1,0.2-0.2,0.3c-0.1,0.1-0.3,0.2-0.4,0.2
			c0-0.2,0.1-0.4,0.2-0.8S80.3,37.4,80.3,37.3L80.3,37.3z"/>
		<path d="M92.1,14.7c0.2-0.1,0.5-0.2,0.8-0.3c0.2-0.1,0.4-0.1,0.7,0c0.3,0.1,0.5,0.2,0.8,0.3l0.7,0.2c0.2,0.1,0.4,0.2,0.6,0.3
			c0.2,0.1,0.4,0.2,0.6,0.4l0.4,0.4c0.3,0.3,0.4,0.7,0.3,1.1c-0.2,0.7-0.4,0.6-0.6-0.1c-0.1-0.2-0.2-0.4-0.2-0.4c0,0.2,0,0.5,0,0.8
			c-0.1,1.4-0.6,2.8-1.6,3.9c-0.5,0.4-0.9,0.9-1.1,1.5c-0.2,0.6-0.3,1.2-0.4,1.8c-0.1,0.6-0.2,1-0.3,1.1c0.1,0.6-0.1,1.2-0.5,1.6
			c-0.5,0.6-0.7,1.1-0.6,1.4c0.5-0.7,0.7-0.7,0.8,0c0,0.4,0,0.7-0.2,1c-0.1,1.3-0.3,2.5-0.8,3.7c-0.5,1.4-0.8,2.2-0.8,2.5
			c0.7,0.1,1.4,0,2.1-0.3c1.2-0.4,1.9-0.7,1.9-0.7c-0.2,0-0.3-0.1-0.2-0.2c0.3-0.2,0.5-0.2,0.4,0c0,0.2,0.1,0.3,0.4,0.2
			c0.3-0.1,0.4-0.1,0.3,0c-0.1,0.1-0.2,0.3-0.3,0.3c-0.2,0.2-0.2,0.2-0.1,0.2l0.4-0.1c0.4-0.6,0.6-1.3,0.6-2c0-0.3,0-0.6-0.1-0.8
			c-0.1-0.6-0.2-1.2-0.2-1.8c0-0.3,0-0.6,0.1-0.9c0.4,0.4,0.5,1,0.4,1.6c0,0.6,0,1.1,0,1.7l0.2,1.9c0-0.3,0.1-0.5,0.2-0.8
			c0.1,0,0.2,0.3,0.3,0.9c0,0.4,0.2,0.8,0.4,1.1c-0.1,0.2-0.1,0.3-0.1,0.5c0,0.3-0.2,0.6-0.4,0.8c0.7-0.2,1,0,0.9,0.5
			S97.7,39,97.1,39c0.2,0.3,0.5,0.4,0.7,0.2c0.2-0.2,0.4-0.4,0.6-0.7c0.1-0.3,0.3-0.2,0.4,0.1v3.1c0,0.8,0,1.6,0.1,2.5
			c0.1,0.6,0.1,1.2,0.1,1.8c-0.1,0.6-0.1,1.2,0,1.8c0.2-0.3,0.3-0.3,0.3,0s0.1,0.6,0.1,0.6s0.1,0.3,0.2,0.6c0.1,0.3,0.2,0.6,0.3,0.8
			l0.2,0.8c0.1,0.5-0.1,1-0.4,1.3c-0.2,0.3-0.7,0.4-1,0.2c0,0,0,0-0.1,0c-0.4-0.3-0.7-0.7-0.6-1.3v-0.6c0,0.3,0,0.5,0,0.8
			c0.2,0.7,0,1.1-0.6,1.3s-1-0.2-1.1-1c-0.3,0.8-0.4,0.5-0.3-0.7c0.3-1.4,0.5-2.8,0.7-4.3c-0.2,0.2-0.3,0.1-0.3-0.2
			c-0.1-0.5,0-1,0.3-1.4c0.2-0.2,0.3-0.2,0.3-0.1c0,0.2,0,0.4,0,0.5c0.2,0,0.2-0.1,0.2-0.5s-0.1-0.6-0.1-0.8s-0.1-0.4-0.1-0.7
			c0-0.2,0-0.3,0-0.5c-0.1,0.5-0.2,0.5-0.4,0c-0.2-0.3-0.2-0.7-0.1-1.1c0-0.5-0.1-1-0.3-1.4c-0.2-0.4-0.7-0.5-1.3-0.2
			c-0.2-0.1-0.4-0.2-0.6-0.2c-0.7,0.1-1.4,0.3-2.1,0.6c-0.4,0.5-0.9,0.8-1.5,0.9c-0.5,0.1-1,0.4-1.5,0.7c-0.3-0.1-0.6,0-0.7,0.2
			c0,0,0,0,0,0c-0.2,0.3-0.2,0.7-0.3,1.1c-0.3,0.8-0.5,1.7-0.6,2.6c-0.1,1-0.4,2-1,2.8c0-0.6,0.1-1.2,0.2-1.8
			c0.1-0.8,0.2-1.3,0.3-1.5h-0.2c-0.1,0.4-0.1,0.8-0.3,1.2c-0.3-0.1-0.3-0.6-0.1-1.6c0.2-0.6,0.3-1.3,0.2-1.9
			c-0.1-0.3-0.3-0.5-0.4-0.5c-0.2,0-0.4,0.5-0.7,1.5c0,0.1-0.1,0.3-0.1,0.5c-0.3-0.1-0.4-0.3-0.3-0.8c0.1-0.4,0.2-0.7,0.3-1.1
			c0-0.5-0.2-0.7-0.7-0.7h-0.3c-0.6,0.3-0.9,0.3-1-0.2c0-0.5,0.3-0.9,0.8-1L85,41c0,0-0.2-0.1-0.5-0.1c-0.3,0-0.5-0.1-0.7-0.3
			c-0.5,0.2-0.7,0.2-0.7-0.1s0.3-0.5,0.7-0.6c-0.3,0-0.5-0.1-0.5-0.3s0.5-0.5,1.4-0.8c0.2-0.1,0.4-0.2,0.6-0.2
			c0.4-0.4,0.4-0.6,0-0.6l-1.2-0.1c0.7-0.1,1.3-0.4,1.7-0.9c0.4-0.4,0.6-1,0.6-1.5c-0.1-0.5,0-1,0.3-1.5c0.3-0.4,0.3-0.7,0.3-0.9
			c0.3-1.1,0.8-2.6,1.3-4.7s0.9-3.4,1.1-4c0.1-0.3,0.2-0.7,0.3-1.1c0-0.1-0.1-0.3-0.2-0.4c-0.1-0.1-0.2-0.2-0.3-0.4
			c-0.3,0.6-0.4,0.8-0.4,0.6c0.2-1.9,0.5-3.8,1.1-5.6c0.1-0.1,0.2-0.4,0.4-0.8c0.2-0.3,0.3-0.6,0.6-0.9c0.1-0.2,0.3-0.4,0.6-0.7
			C91.6,15,91.8,14.8,92.1,14.7z M84,48.7c0.2,0.2,0.2,0.5,0.1,0.8C84,49.8,84,49.9,84,49.9c-0.2,0-0.3-0.2-0.2-0.5
			C83.9,49.1,83.9,48.9,84,48.7z M85,46.1c0.2,0,0.3,0.1,0.3,0.3c-0.5,3.5-0.9,5.3-1,5.3c-0.4,0-0.5-0.3-0.3-1
			c0.2-0.8,0.4-1.5,0.5-2.3C84.6,47.6,84.8,46.8,85,46.1z M86.2,49.2c0.1,0.2,0.1,0.5,0.1,0.8c0,0.3-0.1,0.4-0.2,0.4
			s-0.3-0.2-0.2-0.5C85.9,49.6,86,49.4,86.2,49.2z M86.8,49.5c0,0.4,0,0.8,0,1.2c0,0.3-0.1,0.5-0.2,0.5s-0.3-0.3-0.2-0.8
			C86.5,50.1,86.6,49.7,86.8,49.5z M88.6,33.5l-0.8,3V37c0.2-0.9,0.4-1.4,0.6-1.3c-0.1,0.4-0.2,0.7,0,0.7s0.2-0.1,0.4-0.4
			c0.2-0.3,0.2-0.7,0-1c0.4-1.9,0.9-3.7,1.5-5.5c0.6-1.9,1.1-3.8,1.5-5.7c-0.2,0.8-0.6,2-1.2,3.8s-0.9,2.9-1.1,3.4s-0.3,1.1-0.5,1.7
			S88.7,33.5,88.6,33.5L88.6,33.5z M88.6,23.7c0.1,0.5,0,0.9-0.1,1.4c-0.1,0.4-0.3,0.6-0.3,0.6s-0.3-0.4-0.1-1S88.3,23.9,88.6,23.7
			L88.6,23.7z M88.7,25.2c0.1,0.5,0,1-0.2,1.5c-0.2,0.4-0.4,0.8-0.5,1.2C88.1,27,88.3,26.1,88.7,25.2L88.7,25.2z M90.8,33.7
			c-0.3,0.4-0.4,0.9-0.5,1.5c-0.1,0.7-0.2,1-0.2,1.2L90.8,33.7z M93.9,38.3c-0.5,0.3-0.8,0.3-1,0.3l0.6-0.2h0.2L93.9,38.3z
			 M95.9,23.6c0.2,0.8,0.3,1.5,0.3,2.3v0.4c-0.1-0.1-0.2-0.4-0.3-1.1C95.8,24.7,95.8,24.2,95.9,23.6L95.9,23.6z M96.1,26.7
			c0.2,0.2,0.3,0.6,0.2,1.3v0.5c-0.3-0.3-0.4-0.6-0.3-1C96,27.3,96,27,96.1,26.7L96.1,26.7z M98.4,39.4c-0.6,0-1.1,0.5-1.2,1.2
			c0,0.3,0,0.7,0,1c0,0.6,0,1.2,0.1,1.8c0.1,0.7,0.1,1.3,0.1,1.8c0,0.4,0,0.8-0.1,1.2c-0.1,0.7,0,1.3,0.3,2c0.2,0.4,0.3,0.1,0.6-0.7
			c0,0.1,0,0.1,0.1,0.2c0,0.1,0.1,0.1,0.1,0.1C98.3,46.9,98.4,44.1,98.4,39.4L98.4,39.4z M98.3,31.8c0.1,0.3,0.2,0.6,0.3,0.9
			c0.1,0.4,0,0.5,0,0.5c-0.2,0-0.3-0.3-0.3-0.7C98.2,32.3,98.2,32.1,98.3,31.8L98.3,31.8z M98.3,35.2c0.3,0.4,0.4,0.9,0.4,1.4
			c0,0.4-0.1,0.7-0.2,1c-0.2,0.1-0.3-0.1-0.3-0.5C98.2,36.5,98.2,35.9,98.3,35.2L98.3,35.2z M99.1,39c0.1,0.2,0.2,0.4,0.3,0.7
			c0.1,0.8,0.1,1.5,0.2,2.3c0,0.9-0.1,1.7-0.4,2.5V39z M99.2,45.6l0.1,0.2l0.1,0.2c0,0.2,0,0.5,0,0.7c0,0.2-0.1,0.1-0.2-0.2
			C99.1,46.2,99.1,45.9,99.2,45.6L99.2,45.6z M100.3,49.6c0.2,0.1,0.3,0.2,0.4,0.3c-0.2,0.6-0.3,0.8-0.3,0.5
			c-0.1-0.2-0.1-0.5-0.1-0.7V49.6z"/>
		<path d="M102.8,22.6c0.1,0.2,0.2,0.5,0.2,0.8c0,0.3,0,0.4-0.1,0.5s-0.1-0.1-0.1-0.5C102.7,23.1,102.7,22.9,102.8,22.6z
			 M102.9,28.4c0.2,0.1,0.3,0.3,0.4,0.5c0,0.2,0,0.4-0.1,0.5s-0.2,0-0.3-0.3C102.7,28.9,102.8,28.6,102.9,28.4z M103.6,29.2
			L103.6,29.2c0.4,0.3,0.8,0.9,1.3,1.6s0.9,1.2,1.2,1.6c0.3,0.6,0.2,0.7-0.3,0.2c-0.1-0.1-0.2-0.2-0.5-0.5c-0.3-0.3-0.2-0.2,0,0.2
			c0.2,0.4,0.3,0.5,0.2,0.5s-0.3,0-0.5-0.3c-0.1-0.1-0.2-0.3-0.2-0.5c-0.4,0-0.8-0.3-1-1C103.4,30.4,103.4,29.8,103.6,29.2z
			 M116.2,35.4c-0.9-0.4-1.3-0.8-1.3-1c-0.7,0-1.3-0.2-1.8-0.6c-0.5-0.4-1-0.6-1.6-0.7c0.4,0.3,0.3,0.6-0.5,0.9
			c-0.2,0.1-0.5,0.1-0.8,0.2c-1.6-0.3-3.1-1.1-4.2-2.4c-1-1.1-1.8-2.4-2.1-3.9c-0.2-0.6-0.2-1.2-0.3-1.9c0-0.9,0.2-1.7,0.4-2.5
			c0.2-0.3,0.4-0.5,0.6-0.9c0.3-0.6,0.5-0.6,0.6,0c-0.1-0.2,0.2-0.7,0.7-1.4s0.9-1.1,1.2-1.2c-0.1,0.2-0.2,0.5-0.2,0.7
			c0,0.1,0.2-0.1,0.5-0.5c0.4-0.3,0.8-0.6,1.2-0.9c0.5-0.3,0.7-0.4,0.7-0.2l-0.4,0.5c0.2-0.1,0.4-0.3,0.7-0.4
			c0.2-0.2,0.5-0.4,0.8-0.5c0.5-0.1,0.6-0.1,0.3,0.2c0.5-0.4,1.2-0.6,1.9-0.6c0.5,0,1,0,1.6-0.1c0.2,0,0.3,0,0.3,0s-0.1,0.1-0.3,0.1
			l2.1,0.2c0.5-0.2,0.7-0.2,0.8,0.1c0,0.3-0.1,0.5-0.4,0.5c0,0,0,0,0,0c-0.2,0.1-0.5,0.1-0.8,0c-0.7-0.1-1.4-0.2-2.1-0.2
			c-0.8,0-1.5,0.1-2.3,0.5h-0.4c-1.1,0.1-2,0.6-2.7,1.5c-0.4,0.4-0.6,0.5-0.6,0.2s0.1-0.5,0.5-0.7c-0.3,0-1,0.9-2,2.6l1.2-1.3
			c0.3-0.3,0.6-0.5,1-0.6c1.4-0.9,3.1-1.4,4.8-1.4c0.5,0,0.9,0,1.4,0.1c0.3,0.1,0.7,0.1,1,0.3l0.8,0.2c0,0-0.1-0.1-0.2-0.1
			c0.3-0.2,0.8-0.3,1.5-0.1c0.6,0.1,1.1,0.3,1.5,0.7c0.3,0.3,0.4,0.4,0.3,0.5c-0.1,0.1-0.2,0.1-0.4,0.1c-0.2,0.1-0.3,0.2-0.2,0.3
			c-0.2,0.3-0.6,0.5-1,0.5c-0.4,0-0.9-0.1-1.5-0.3c-0.5-0.1-0.9-0.1-1.4,0c0.5,0,0.9,0,1.4,0.2c0.4,0.2,0.8,0.2,1.2,0.2
			c0.2,0,0.6,0.1,1.1,0.5c0.4,0.3,0.8,0.6,1.1,0.9l0.6,0.7l0.4,0.5l0.4,0.5c0.2,0.3,0.3,0.5,0.2,0.5c-0.1,0.2-0.1,0.4-0.1,0.5
			c0,0.3,0,0.4-0.1,0.5c-0.1,0-0.2,0-0.3,0c-0.1-0.1-0.2,0-0.3,0.1c0,0.2-0.1,0.4-0.2,0.5c-0.1,0.1-0.2,0.1-0.3,0.1
			c-0.1-0.1-0.2-0.1-0.3-0.2c-0.1-0.1-0.2-0.2-0.3-0.4l-0.3-0.4c-1.1-1.8-2.4-2.7-3.8-2.7h-0.2h-1.1c-0.5,0-0.9,0-1.2,0
			c-0.9,0-1.4-0.4-1.6-1.1c-0.5-0.1-1.1,0-1.5,0.4c-0.4,0.3-0.7,0.6-0.9,0.9l-0.4,0.5c-0.2,0-0.3,0.1-0.4,0.1c0,0,0,0.1,0.2,0.3
			c0.1,0.1,0.2,0.3,0.2,0.5c-0.3,0.2-0.4,0.4-0.2,0.5s0.3,0.3,0.2,0.5c-0.2-0.2-0.3-0.2-0.3-0.1c0,0.2,0,0.4,0,0.5
			c0.1,0.2,0.1,0.3,0,0.5c-0.1,0.1-0.2,0.1-0.5-0.1c0.2,0.5,0.4,0.6,0.7,0.4s0.3-0.4,0.2-0.6c0.1,0.1,0.3,0.2,0.4,0.1
			c0.2,0,0.3,0,0.5,0c0.2,0.5,0.3,0.5,0.4-0.1s0.3-0.9,0.4-0.9s0.3,0.1,0.4,0.3c0.1-0.3,0.3-0.3,0.6-0.1s0.5,0.1,0.6-0.2
			c0.2,1.4,1.1,2.6,2.3,3.3c0.2,0.2,0.3,0.3,0.2,0.3h-0.3l-0.3,0c0,0.1,0.1,0.2,0.2,0.2c-0.1,0.3,0,0.5,0.3,0.8s0.4,0.4,0.3,0.5
			l-0.5-0.2c0.3,0.3,0.7,0.5,1.2,0.5c1.2,0.4,2.3,0.8,3.3,1.4c1,0.6,1.8,1,2.2,1.2l0.8,0.4c0.2,0.1,0.4,0.2,0.6,0.4
			c0.2,0.1,0.4,0.3,0.7,0.5c0.4,0.5,0.8,1,1,1.6c0.2-0.4,0.3-0.5,0.5-0.2c0,0.2,0,0.4,0.1,0.7c0.1-0.2,0.2-0.4,0.3-0.6
			c0.1,0,0.3,0.1,0.3,0.4l0.3,0.8c0.1,0.4,0.1,0.8,0,1.2c-0.3,0.1-0.6,0.4-0.6,0.8c0,0.4,0,0.6,0,0.6c0.1-0.1,0.2-0.1,0.3-0.2
			c0,0.7-0.1,1.3-0.3,2c-0.1,0.1-0.4,0.5-0.8,1.1c-0.4,0.4-0.6,0.9-0.7,1.5c0,0.4-0.2,0.7-0.4,1c-0.4,0.4-0.8,0.7-1.3,0.9
			c-0.4,0.2-0.8,0.5-1.2,0.7c-0.5,0.3-0.9,0.6-1.4,0.8c-0.6,0.2-1.1,0.6-1.6,1.1c-0.9,0.4-2,0.6-3,0.5c-0.4,0-0.9,0-1.3,0
			c-0.6-0.3-1.2-0.4-1.8-0.3c-0.6,0-1.3,0-1.9-0.2c-0.6,0.1-1.3-0.1-1.8-0.5c-0.4-0.3-0.8-0.6-1.2-0.9c-0.5-0.5-1-1-1.4-1.5
			c-0.7-0.8-0.7-1.1,0-1l-0.4-1c-0.1-0.3,0-0.6,0.1-0.8c0.5,0.2,0.8,0.1,0.8-0.2s0-0.5-0.7-0.5c0-0.7,0.5-1.1,1.4-1.1
			c0.2,0,0.4,0,0.7,0c0.4,0.1,0.9,0.1,1.3,0c0.3-0.5,0.9-0.8,1.4-0.6c0.6,0.2,1.1,0.6,1.3,1.2c0.5,0.6,1.3,0.9,2.1,0.8
			c0.6,0,1.2-0.1,1.8-0.3c0.6-0.3,1.2-0.4,1.8-0.2c0.6,0.2,1.3,0.1,1.9-0.1c0.2-0.2,0.8-0.3,1.8-0.3h-0.1c-0.1-0.4,0.2-0.7,1-0.7
			s1-0.3,0.8-0.8h0.1c0.8-0.1,1-0.4,0.4-0.8c-0.1,0.1-0.3,0.1-0.5,0c-0.2,0-0.3,0-0.3,0c0,0.2,0.1,0.3,0.1,0.5
			c-0.3,0.2-0.4,0.2-0.4,0.1c-0.1-0.2-0.1-0.4-0.1-0.6c0-0.3-0.1-0.5-0.2-0.5s0-0.3,0-0.3s-0.2,0.1-0.3,0c-0.4-0.3-0.7-0.6-1-1
			c-0.5-0.6-1-1-1.3-1.3c-0.2,0.4-0.4,0.5-0.8,0.1c-0.1-0.1-0.1-0.2-0.1-0.3c0-0.1-0.2-0.3-0.4-0.5c-0.3-0.2-0.6-0.4-0.8-0.5
			s-0.3-0.3-0.2-0.5L116.2,35.4z M106.4,21.3c-0.5,0.3-0.7,0.8-0.8,1.4C105.8,22.3,106.1,21.9,106.4,21.3z M110.2,34.3h0.2
			c1.5,0.4,2.9,0.9,4.2,1.5c0.5,0.3,0.6,0.4,0.4,0.4c-0.5,0-1-0.2-1.4-0.4c-0.4,0.1-0.6,0.1-0.8,0s-0.2-0.2-0.1-0.2
			c0.1,0,0.3,0,0.4,0c-0.4-0.2-0.9-0.4-1.3-0.6C111.2,34.9,110.7,34.6,110.2,34.3z M111.6,31.4l-0.2,0l-0.2,0.1
			c0.2,0,0.4,0.2,0.6,0.4c0.1,0.3,0.3,0.4,0.4,0.4c0.7,0.4,1.6,0.6,2.4,0.7c0.3-0.2,0.7-0.1,1.1,0.3c0.8,0.6,1.3,0.9,1.4,0.8
			s0.1-0.2-0.2-0.5c-0.1-0.1-0.3-0.3-0.5-0.3c0.3,0,0.6,0.1,0.8,0.3c0.3,0.3,0.6,0.4,0.8,0.3s0.2-0.2,0-0.3l-1-0.5
			c-0.4-0.2-0.8-0.4-1.1-0.5c-0.3-0.2-0.7-0.3-1.1-0.5c-0.4-0.2-1-0.3-1.8-0.5S111.8,31.5,111.6,31.4z M111.8,24.2
			c0.1,0.1,0.3,0.1,0.4,0.1c0.2,0,0.3,0.1,0.4,0.1c0.3,0.1,0.5,0.3,0.6,0.5c0.4-0.1,0.6,0,0.6,0.2s-0.3,0.3-0.7,0.2
			c-0.5,0.1-1.1-0.1-1.5-0.4C111.2,24.6,111.2,24.3,111.8,24.2z M112.4,34.3l0.3,0c0.2,0.1,0.5,0.2,0.7,0.3
			C112.3,34.6,112.1,34.5,112.4,34.3z M113,23.4c0.5,0.2,1,0.3,1.6,0.3c-0.2-0.1-0.3-0.1-0.5-0.1C113.7,23.6,113.4,23.5,113,23.4
			L113,23.4z M114.4,43.6h-0.2c-0.2,0-0.5,0.1-0.7,0.2h0.6C114.2,43.7,114.3,43.7,114.4,43.6z M113.7,34.6c1,0.1,1.4,0.3,1.3,0.7
			c-0.2-0.1-0.4-0.1-0.5,0c-0.1,0.1-0.3,0.1-0.4,0c0.2-0.1,0.2-0.2,0-0.3C113.8,34.9,113.7,34.8,113.7,34.6L113.7,34.6z M114.4,19.2
			h0.3c0.1,0.1,0.1,0.1,0,0.2c-0.2,0.1-0.5,0-0.7-0.1C113.8,19.3,113.9,19.2,114.4,19.2L114.4,19.2z M114.6,30.9
			c2.2,0.6,3.4,1.3,3.7,2C116.9,32.5,115.7,31.8,114.6,30.9L114.6,30.9z M114.9,22.3l0.2,0.1l0.5,0L114.9,22.3z M117.8,19.2
			c-0.5,0-0.8-0.1-0.9-0.2s0-0.2,0.1-0.2c0.1,0,0.3,0,0.4,0c0.2,0.1,0.4,0.2,0.6,0.2C118.2,19.2,118.1,19.2,117.8,19.2L117.8,19.2z
			 M120.8,24.2c0.2-0.7,0.5-0.7,0.8-0.1s0.4,0.9,0.3,0.9s-0.3-0.1-0.5-0.3s-0.3-0.3-0.3-0.3s0.1,0.3,0.3,0.8c-0.2,0.1-0.4,0-0.6-0.4
			s-0.5-0.7-0.8-1.1C120.3,23.7,120.6,23.9,120.8,24.2L120.8,24.2z M119.9,47.9c0.2-0.1,0.3-0.2,0.5-0.3h0.2c0.1,0.1,0,0.3-0.2,0.3
			S120,48,119.9,47.9L119.9,47.9z M123.8,43.7l-0.1,0.3c-0.2,0.5-0.4,0.7-0.5,0.5s-0.1-0.3,0.1-0.5
			C123.4,43.9,123.6,43.8,123.8,43.7L123.8,43.7z"/>
		<path d="M147,22.8c0.1,0,0.2,0.2,0.3,0.4c0.3-0.3,0.5-0.5,0.6-0.6c0,0.1-0.1,0.2-0.1,0.4c0,0.1,0,0.3-0.1,0.4
			c-0.1,0.1-0.2,0.2-0.3,0.3c-0.6,0.4-0.9,1-0.9,1.7c-0.1,0.7-0.3,1.5-0.5,2.2c-0.2,0.7-0.4,1.3-0.6,2c-0.1,0.7-0.4,1.8-0.6,3.2
			c-0.3,1.4-0.5,2.2-0.5,2.4c-0.2,1.4-0.3,2.8-0.3,4.3v1.3c0.2-3.4,0.7-6.8,1.6-10.1c0.5-1.7,1.1-3.3,1.9-4.9c0.6-1,1.2-1.9,1.9-2.8
			c0.1-0.2,0.4-0.4,0.7-0.8l0.9-0.9c0.2-0.2,0.5-0.5,0.8-0.7c0.3-0.2,0.6-0.4,1-0.6c0.4-0.2,0.8-0.4,1.4-0.6l1.1-0.5
			c0.1,0.1,0.1,0.2,0.1,0.2c0,0.1-0.1,0.2-0.1,0.3c-0.1,0.2-0.1,0.3-0.1,0.4c0.1,0,0.3,0.1,0.4,0.1c-0.3,0.3-0.6,0.7-0.8,1.1
			c-0.2,0.2-0.5,0.3-0.8,0.4c-0.3,0.1-0.6,0.3-0.9,0.6c-0.2,0.2-0.4,0.5-0.4,0.9c0,0-0.1,0.1-0.1,0.1l-0.3,0.1
			c-0.1,0-0.2,0.1-0.2,0.1c-0.3,0.2-0.6,0.5-0.9,0.9l-0.2,0.3l-0.2,0.3c-0.1,0.1-0.1,0.1-0.2,0.2c-0.1,0.1-0.2,0.1-0.4,0.1
			c-0.1,0-0.2,0.1-0.3,0.3c0,0.1,0,0.3,0.3,0.4c0,0.1,0,0.1,0,0.2v0.1c-0.2-0.1-0.4-0.1-0.5,0.1c0,0,0,0,0,0
			c-0.1,0.2-0.2,0.3-0.2,0.3l-0.5-0.4c-0.1,0.3-0.1,0.6-0.1,0.9c0,0.5-0.1,0.7-0.4,0.8c0,0.2,0.1,0.4,0.1,0.5c0,0.5-0.2,1-0.4,1.4
			c-0.2,0.4-0.4,0.8-0.5,1.2c-0.2,0.6-0.3,1.3-0.4,1.9c0.2,0.7,0,1.4-0.6,1.8l-0.1,0.1c0.1,0.1,0.1,0.3,0.1,0.4
			c0,0.3-0.1,0.6-0.3,0.9c-0.2,0.3-0.2,0.7-0.2,1c0,0,0,0,0,0.1c0.2,0.4,0.4,0.8,0.4,1.3c0,0.2,0,0.4-0.1,0.8c0,0.3,0,0.6,0,0.8
			c0,0.3,0,0.6,0.1,0.9c0,0.2-0.1,0.3-0.1,0.5c-0.1,0.4-0.1,0.6-0.1,0.6c0.1,0.2,0.3,0.3,0.4,0.5c0.3,0.3,0.3,0.8,0.1,1.5
			c-0.2-0.4-0.4-0.7-0.7-1.1h-0.1c0.2,0.6,0.5,1.1,0.9,1.6c0.4,0.4,0.7,0.8,1,1.3c0.1,0.1,0.5,0.6,1.3,1.5l0.1-0.1
			c-0.1-0.1-0.1-0.2-0.1-0.3c0-0.1-0.1-0.2-0.1-0.3h0.6c0.2,0,0.4,0,0.6,0l0.1-0.2c0.2,0.4,0.6,0.6,1,0.7c0.2-0.1,0.5-0.2,0.7-0.4
			l-0.1-0.2l-0.1-0.2c1.1-0.2,2.3-0.5,3.7-0.8c0-0.2,0.1-0.5,0.1-0.9s0.1-0.6,0.1-0.8c0,0.1,0,0.1-0.1,0.2l0,0.2
			c-0.2-1.5-0.3-2.3-0.3-2.3c0-0.4,0-0.8,0.1-1.2c0,0.1-0.1,0.1-0.1,0.2c0,0.1-0.1,0.1-0.1,0.2h-0.1c0-0.5,0.1-1,0.2-1.8
			c-0.2,0-0.4,0-0.6,0c0-0.1,0.1-0.2,0.1-0.3c0.1,0.1,0.3,0.1,0.4,0.2c-0.1,0-0.1-0.2,0.1-0.5s0.1-0.4-0.2-0.4c0-0.1,0-0.2,0.1-0.3
			c0-0.1,0-0.2,0-0.4c0-0.1,0-0.2,0-0.3h-0.1c-0.1,0.3-0.1,0.5-0.1,0.5c-0.1-0.3-0.2-0.5-0.2-0.6c0-0.1-0.1-0.2-0.1-0.3
			c-0.1-0.1-0.1-0.2-0.1-0.3c0-0.3,0-0.6,0-0.9c0-0.1,0-0.1,0.1-0.2c0-0.1,0-0.1,0.1-0.2c0,0,0-0.1,0-0.2c-0.2-0.2-0.3-0.4-0.3-0.4
			c0.1,0,0.2,0,0.4,0c0.1-0.3,0.1-0.5,0-0.8c-0.1-0.4-0.2-0.7-0.3-1.1c-0.1-0.4-0.2-0.7-0.3-0.8c0.1,0,0.1-0.1,0.2-0.1
			c0.2,0.4,0.5,0.9,0.7,1.4c0,0,0-0.2,0.1-0.5c0-0.3,0.1-0.5,0.4-0.6v-1c0.3,0.1,0.6,0.2,0.9,0.4c0.1,0.2,0.2,0.4,0.3,0.5
			c0.1,0.2,0.1,0.4,0.3,0.5l0.1-0.3c0-0.1,0.1-0.3,0.1-0.4c0-0.1,0.1-0.2,0.1-0.4c0.1,0.1,0.2,0.1,0.4,0.2c0.2-0.4,0.3-0.8,0.4-1.1
			c0.2,0.7,0.4,1.1,0.4,1.4l0.3-0.8c0.3,0.6,0.6,1.1,0.8,1.5c0-0.1,0.1-0.3,0.1-0.5c0-0.2,0-0.3,0-0.3c0.1,0,0.1,0,0.2,0
			c0.1,0.9,0.3,2,0.6,3.5c0.3,1.5,0.5,2.3,0.5,2.4s0.1,0.8,0.2,1.5s0.2,1.4,0.3,1.9c0.1,0.5,0.3,0.9,0.5,1.3v-0.5h0.2v1.4l-0.2,0.3
			l0.4,0.1c0.2-0.2,0.3-0.2,0.4,0s0,0.2,0,0.2C163,43.9,163,44,163,44s0.1,0.1,0.1,0.2s0.1,0.2,0.1,0.2v0.5c0.1-0.1,0.2-0.1,0.3-0.2
			l0.4-0.3c-0.1,0.7-0.2,1-0.2,1s-0.2,0.3-0.6,0.8v-0.5c-0.1,0.2-0.2,0.4-0.2,0.6c0,0.2,0,0.3,0.1,0.5c0.1,0.1,0.1,0.3,0.1,0.4
			l0.4,0.2c0,0.1,0.1,0.3,0.1,0.4c0,0.2,0.1,0.3,0.1,0.5c0.1,0.3,0.2,0.6,0.2,1c0,0.1,0,0.3-0.1,0.7c0,0.2,0,0.5-0.1,0.7
			c0,0.3,0,0.5,0.1,0.8l-0.3,1l0.1-0.2l0.2-0.3c0,0.1,0,0.4,0,0.7s0,0.6,0,0.8s0,0.4-0.1,0.5c-0.1,0.1-0.2,0.2-0.4,0.3
			c-0.2,0.1-0.5,0.2-0.8,0.3c-0.2,0.1-0.4,0.1-0.6,0.2l-1.1-0.3c0,0-0.2,0.2-0.6,0.4c-0.3,0.2-0.6,0.3-0.9,0.2
			c-0.6-0.1-1.2-0.1-1.9-0.2c-0.4,0-0.6-0.2-0.6-0.6c0-0.9-0.1-2.3-0.3-4.2c-0.3,0.1-0.6,0.2-0.9,0.4c-0.3,0.2-0.7,0.3-1.1,0.3h-0.3
			c-0.5,0-0.9,0.1-1.4,0.2c-0.4,0.1-0.9,0.2-1.4,0.2c-0.2,0-0.3,0-0.5,0l-1.4-0.3c-0.2,0.1-0.4,0.1-0.6,0.2c-0.2,0-0.3-0.1-0.5-0.2
			c-0.2-0.1-0.3-0.2-0.5-0.2v0.2c-0.6,0.1-1.1,0-1.6-0.3c-0.9-0.7-1.5-1.2-1.6-1.3s-0.8-0.9-2-2.2c0.1,0,0.2,0,0.4,0
			c-0.5-0.9-0.8-1.9-0.8-2.9c0-0.7,0.1-1.4,0.2-2.2h0.2c-0.1-0.1-0.3-0.3-0.5-0.5l-0.1,0.3c-0.1-0.5-0.3-0.8-0.4-1.2
			c-0.1,0.1-0.2,0.1-0.3,0.2l-0.1-0.1c0.4-0.4,0.7-1,0.8-1.5c0-0.3,0-0.5-0.1-0.8c-0.1-0.4-0.2-0.8-0.2-1.2c0-0.4,0.1-0.8,0.2-1.2
			l-0.1-1.3c0-0.2,0-0.4,0.1-0.6l0.1-0.1c0.1,0,0.1-0.1,0.1-0.1c0.1-0.2,0.1-0.5,0.1-0.8c0-0.3,0.1-0.6,0.2-0.9
			c0.2-0.3,0.3-0.6,0.6-0.9c-0.1-0.2-0.1-0.5,0.1-0.6c0.2-0.3,0.4-0.5,0.7-0.6c-0.1,0.2-0.2,0.5-0.3,1s-0.2,0.8-0.3,1.1
			c0.3-0.1,0.5-0.3,0.6-0.6c0.1-0.2,0.2-0.4,0.3-0.6c0-0.2,0.1-0.4,0.2-0.8s0.2-0.6,0.3-0.7c-0.4,0-0.8,0.1-1.1,0.1
			c0-0.5,0-0.9,0.1-1.4c0-0.2,0.1-0.3,0.2-0.5c0.1-0.1,0.1-0.2,0.2-0.4c0.1-0.2,0.2-0.5,0.4-0.9s0.3-0.7,0.4-1l0.4,0
			C146.4,24.5,146.7,23.6,147,22.8z M143.1,38.8v1.5c0.2-0.2,0.3-0.5,0.4-0.8C143.6,39.4,143.4,39.2,143.1,38.8z M144.3,32.2
			c-0.1,0.2-0.2,0.4-0.3,0.5c-0.1-0.2-0.2-0.3-0.2-0.5c-0.1,0.3-0.2,0.8-0.3,1.5s-0.2,1.2-0.2,1.5c0.1-0.3,0.3-0.8,0.6-1.5
			s0.4-1.2,0.5-1.5C144.4,32.2,144.4,32.2,144.3,32.2L144.3,32.2z M143.5,40.6c-0.1,0.4-0.1,0.8-0.1,1.2c0,0.4,0.1,0.8,0.3,1.2v-0.8
			C143.7,41.6,143.6,41.1,143.5,40.6L143.5,40.6z M154.8,20.9c0.6,0,1-0.1,1.3-0.1V21c-0.5,0.2-1.1,0.4-1.6,0.5
			c0-0.1,0.1-0.3,0.1-0.4C154.7,21.1,154.8,21,154.8,20.9L154.8,20.9z M156.8,48.9c-0.2,0.1-0.4,0.1-0.6,0.1c-0.2,0-0.4,0.1-0.6,0.2
			c-0.2,0.1-0.2,0.3-0.3,0.5l1.4-0.3L156.8,48.9z M162.4,38.8c0.1,0.5,0.1,1,0.1,1.5c-0.4-0.7-0.5-1.2-0.4-1.5H162.4z M162.8,40.7
			c0.4,0.7,0.7,1.5,0.7,2.3h-0.1v-1C162.9,42,162.7,41.6,162.8,40.7L162.8,40.7z"/>
		<path d="M169.6,46.2l0.9-5v-0.5c0-0.7,0.1-1.4,0.1-2.2c0.1-0.8,0.2-1.6,0.3-2.5c0-0.9,0.1-1.7,0.3-2.6c0.2-0.9,0.3-1.9,0.3-2.8
			c0.2-0.7,0.3-0.8,0.4-0.2c0.1,0.4,0,0.9-0.1,1.3c0.1,0.5,0.6,0.6,1.4,0.4c0.8-0.2,1.2-0.1,1.3,0.2c0.1,0.1,0.3,0.2,0.5,0.2
			c0.9-0.2,1.7-0.6,2.4-1.3c0.1-0.1,0.3-0.3,0.4-0.4c0.2-0.6,0.4-0.5,0.8,0.3c0.5-0.2,0.9-0.7,1.1-1.2c0.2-0.5,0.3-0.8,0.2-0.8
			s-0.3,0.2-0.6,0.5S179,30,179,29.8c0-0.4,0.3-0.8,0.7-0.9c0.2-0.3,0.4-0.3,0.6,0.1c0-0.1-0.1-0.2-0.1-0.3c0.4-0.3,0.7-0.8,0.9-1.4
			c0.1-0.4,0.2-0.8,0.4-1.2c0.3-0.5,0.4-1.1,0.4-1.7c0-1-0.3-2-0.9-2.9c0.2-0.4,0.1-0.7-0.4-0.8c-0.5-0.1-1-0.1-1.4-0.1
			c-0.8,0.1-1.6,0.3-2.3,0.6c-0.6,0.2-1.2,0.4-1.8,0.6c-0.6,0-0.5-0.1,0.3-0.4l0.4-0.2c0,0-0.1,0-0.4,0s-0.5,0-0.5,0
			s0.1-0.2,0.5-0.4c0.3-0.2,0.6-0.2,0.9,0c0.4-0.1,0.3-0.2-0.2-0.3s-0.9-0.1-1.1,0.3c-0.1,0.2-0.2,0.4-0.4,0.6c0,0.1-0.1,0.1-0.2,0
			c0,0,0,0,0,0c-0.1-0.1-0.1-0.2-0.2-0.3c-0.1-0.3-0.3-0.5-0.6-0.7c0.4-0.1,0.8-0.3,1.3-0.5c1.1-0.4,2.3-0.7,3.4-0.9
			c-0.6-0.2-1.3-0.1-1.9,0.2c-0.1,0-0.4,0.1-1,0.3c-0.8,0.2-1.1,0.2-0.9-0.1l0.7-0.2l-0.8,0c-0.9,0.1-1.4,0.2-1.4,0.1
			s0.1-0.2,0.3-0.3c0.4-0.3,0.5-0.4,0.1-0.5c-0.1-0.2-0.1-0.5,0.2-0.6c0,0,0.1,0,0.2-0.1c0.4-0.2,0.9-0.3,1.3-0.3
			c0.4,0,0.7-0.2,1.1-0.4c0.2,0.3,0.6,0.4,1.1,0.2c0.3-0.1,0.6-0.2,0.9-0.3c0.4,0.1,0.7,0.2,1,0.4c-0.5,0-1,0.1-1.4,0.2
			c-0.3,0.1-0.5,0.1-0.8,0.3c0.7-0.1,1.4-0.1,2.1-0.1c1.1-0.1,2.2,0.2,3.1,0.6c1.1,0.5,2,1.2,2.6,2.2c0.7,0.9,1.1,2.1,1.1,3.2
			c0,0.2,0,0.4,0,0.6c0,0.6-0.1,1.2-0.3,1.8c-0.3,0.9-0.4,1.5-0.5,1.9c0.1,0.5-0.1,1.1-0.4,1.5c-0.3,0.3-0.5,0.4-0.5,0.3
			c0.3-0.4,0.3-0.6,0.2-0.6s-0.2,0.2-0.4,0.7c0.1,0.7-0.2,1.3-0.8,1.8c-0.4,0.4-0.8,0.9-1.2,1.4c-0.6,0.6-0.5,0.6,0.2,0
			c0,0.3-0.4,0.8-1.1,1.5c-0.6,0.6-1.3,1-2.1,1.3l4.4,7c-0.2-0.6-0.4-1.2-0.8-1.8c-0.4-0.7-0.6-1.1-0.7-1.2c0.6,0.3,1.1,0.8,1.3,1.4
			c0.4,0.7,0.6,1.3,0.8,1.6c0.3,0.6,0.8,1.2,1.3,1.7c0.7,0.8,1.1,1.4,1.3,1.7c-0.1-0.3-0.3-0.6-0.4-0.9c-0.4-0.8-0.3-1,0.4-0.8
			c0.2,0.3,0.3,0.5,0.5,0.8c0.3,0.4,0.5,0.7,0.6,0.9s0.2,0.7,0,0.8l-0.3-0.4c0.1,0.4,0.2,0.8,0.1,1.2c0.1,0.3,0.1,0.5-0.1,0.6
			s-0.3,0.2-0.2,0.4c-0.3,0.5-0.8,0.5-1.4,0c-0.5-0.4-1-1-1.2-1.6c-0.7-1-1.1-2.1-1.3-3.3c-1.7-3-2.7-4.7-3.1-5.1
			c-0.3-0.3-0.5-0.7-0.7-1.1c-0.1-0.2-0.3-0.5-0.4-0.7c-0.1-0.2-0.3-0.4-0.4-0.5c-0.3-0.3-0.8-0.2-1.3,0.3c0.2,0.2,0.4,0.5,0.6,0.7
			c0.7,0.8,1.1,1.3,1.1,1.6c0,0.1,0,0.1-0.1,0.2c1.3,1.4,2.3,3,3.1,4.7c0.9,1.7,1.8,3.3,2.9,4.8c0.6,0.8,0.7,1.1,0.3,1.1
			c0.2,0.4,0.1,0.7,0,0.7s-0.4-0.1-0.6-0.4c-1.1-1.2-2-2.6-2.7-4c-0.6-1-1.1-2-1.6-3c-0.4-0.9-1-1.8-1.6-2.6c-0.7-0.9-1.2-1.9-1.6-3
			c0-0.5-0.3-0.6-0.9-0.3s-0.8,0.4-0.8,0.2c0-0.1-0.1-0.1-0.4,0c-0.8,0.2-1.3,0.2-1.4,0c0.2-0.2,0.3-0.3,0.3-0.4s-0.1,0-0.3,0.1
			c-0.7,0.2-1.1,0.1-1.3-0.3c-0.2,0-0.4,0-0.6,0c-0.1,0-0.2-0.2-0.3-0.3s-0.1-0.3-0.2-0.4c-0.8,6-1.1,9.4-1.1,10.2
			c0,0.1,0,0.2,0.1,0.2l0.1-0.3c0-0.3,0.1-0.5,0.2-0.8c0.4,0.7,0.7,1.5,0.8,2.3c0,0.3-0.1,0.5-0.3,0.7c0.4-0.7,0.7-0.5,0.7,0.6
			c0,0.3,0,0.7-0.1,1c-0.2,0-0.5,0.1-0.9,0.5s-0.7,0.3-0.8-0.1c-0.1,0.4-0.3,0.5-0.5,0.2s-0.4-0.3-0.5,0c-0.2-0.1-0.4-0.1-0.4-0.1
			c-0.2,0.1-0.3,0.3-0.4,0.5c-0.1-0.1-0.3-0.2-0.5-0.2c-0.2,0-0.4,0-0.6-0.1l-0.1-0.5c-0.1,0.2-0.3,0.4-0.6,0.5
			c-0.4-0.2-0.6-0.6-0.6-1c0-0.3,0.1-0.7,0.1-1c0.3-1.1,0.5-1.7,0.5-1.8c0.1-0.5,0.2-0.5,0.3-0.2c0.1,0.7,0.2,1,0.3,1
			s0.1-0.1,0.2-0.2c0.1-1.1,0.3-2.8,0.6-4.9c0.2,0.1,0.2,0.6,0.2,1.5c-0.1,0.7-0.1,1.3,0,2c0-0.2,0-0.5,0.1-0.7
			c0.1-0.1,0.2,0,0.3,0.2c0.1,0.3,0.1,0.5,0.1,0.8c0.1,0.5,0.1,0.5,0.3-0.1S169.4,45.7,169.6,46.2z M169.8,34l0.3,1.2
			c0,1.5-0.2,3-0.7,4.5V41c0,0,0-0.2,0-0.3c-0.1,0.1-0.2,0.5-0.3,1.2c-0.1,1.4-0.2,2.1-0.4,2.1s-0.4-0.3-0.4-0.8s0-0.9,0-1.2
			c0-0.7,0.2-1.4,0.4-2c0.2-0.7,0.3-1.3,0.4-2c0-1,0-1.7,0.1-2c0.1-0.5,0.1-1,0-1.5l0.4,0.2C169.6,34.4,169.7,34.2,169.8,34
			L169.8,34z M170.1,27c0,0.4,0,0.8,0,1.1c0,0.8-0.1,1.6-0.3,2.4c-0.1-0.1-0.1-0.3-0.1-0.8C169.9,28.9,170,27.9,170.1,27L170.1,27z
			 M170.3,31.7c0.1,0.4,0.1,0.8,0.1,1.2c0,0.4-0.1,0.7-0.2,0.7s-0.2-0.2-0.1-0.8S170.1,31.9,170.3,31.7z M170.6,28
			c0.1,0.2,0.1,0.5,0.1,0.8l-0.1,0.6C170.4,28.9,170.4,28.4,170.6,28L170.6,28z M170.7,19.7l0.2,0.5l-0.1,0.5
			C170.5,20.5,170.5,20.2,170.7,19.7L170.7,19.7z M171.7,38.7c0.1,0.3,0.1,0.6,0,1c-0.1,0.4-0.2,0.5-0.2,0.5s-0.2-0.3-0.1-0.7
			C171.4,39.3,171.5,39,171.7,38.7L171.7,38.7z M178,32c-0.1,0.1-0.3,0.2-0.4,0.2c-0.7,0.2-1,0.4-0.9,0.5s0.3,0.1,0.7-0.2
			C177.6,32.4,177.8,32.2,178,32z M178.1,37.4c0,0.3,0.2,0.6,0.4,0.8c0.2,0.3,0.3,0.3,0.3,0.2C178.6,38.1,178.3,37.8,178.1,37.4
			L178.1,37.4z M178.3,40.4c0.2,0,0.3,0.1,0.4,0.3c0.3,0.3,0.3,0.5,0.1,0.6c-0.2,0.1-0.4,0-0.4-0.3
			C178.2,40.8,178.2,40.6,178.3,40.4L178.3,40.4z M178.9,30L178.9,30l0.1,0.2c-0.2,0.3-0.4,0.4-0.6,0.3s-0.2-0.2,0-0.3
			C178.6,30.1,178.7,30,178.9,30L178.9,30z M179.4,42.2c1.1,1.2,2,2.6,2.6,4.1l0.1,0.3c-0.1-0.2-0.2-0.3-0.4-0.5
			c-0.3-0.4-0.6-0.8-0.9-1.2C180.1,44.3,179.6,43.3,179.4,42.2L179.4,42.2z M180.6,19.6c-0.2,0.1-0.1,0.2,0.2,0.2
			c0.6,0.1,1,0.1,1.1,0s0-0.2-0.3-0.3C181.3,19.5,180.9,19.5,180.6,19.6L180.6,19.6z M181.2,38.1l0.2,0.1c0.2,0.2,0.3,0.4,0.3,0.6
			c0,0.2-0.1,0.1-0.3-0.1C181.3,38.6,181.2,38.4,181.2,38.1L181.2,38.1z M183.1,48.2c0.3,0.2,0.4,0.4,0.4,0.5c0.2,0.3,0.2,0.5,0,0.5
			s-0.4-0.1-0.4-0.4C183.1,48.6,183,48.4,183.1,48.2L183.1,48.2z"/>
		<path d="M208.1,46.1c-0.6-0.4-1.1-0.9-1.6-1.5l0.1-0.1c0,0,0.1-0.1,0.1-0.1c0.1,0.1,0.3,0.3,0.4,0.4c0-0.7-0.1-1.6-0.1-2.8h-0.2
			c0,0.3,0,0.6-0.1,0.8l-0.3-1.2c-0.3,0.2-1.3,0.5-2.8,1.1c-1.2,0.4-2.3,1-3.3,1.7l-0.2-0.2l-0.3-0.3c0,0.2-0.1,0.4-0.2,0.8
			s-0.2,0.6-0.3,0.8c-0.1,0.2-0.2,0.4-0.3,0.6c-0.1,0.2-0.3,0.4-0.4,0.5c-0.3,0.3-0.4,0.5-0.4,0.7s0.2,0.4,0.6,0.6
			c0.5,0.3,0.6,0.6,0.3,0.9l-0.4,0.3c0-0.2,0-0.4,0-0.5v-0.3l-0.3-0.2l-0.3-0.2c0.1,0.6,0.1,0.9,0.1,1c0,0.2-0.1,0.4-0.2,0.5
			c-0.4,0.4-0.6,0.9-0.6,1.4c-0.1,0.5-0.2,0.9-0.4,1.4c-0.1,0.2-0.6,0.3-1.6,0.3l-0.4-0.5l-0.6-0.2c-0.1,0.3-0.3,0.4-0.7,0.3
			c-0.2-0.1-0.5-0.2-0.8-0.1c-0.4-0.6-0.5-0.9-0.5-0.9s0-0.3,0.1-0.8c0.1-0.3,0.1-0.7,0.1-1c0-0.4-0.1-0.6-0.3-0.7
			c0-0.2,0-0.3,0-0.5c0-0.2-0.1-0.3-0.1-0.5c0-0.2,0.1-0.3,0.2-0.4c0-0.1,0-0.1,0-0.2c0-0.1,0-0.2,0-0.3c0-0.1,0-0.2,0-0.3
			c0,0,0-0.3,0.1-0.9l-0.4,0.2l-0.4,0.2c0.1-0.2,0.1-0.4,0.1-0.5c0-0.2-0.1-0.3-0.4-0.3c-0.1-0.3-0.2-0.7-0.3-1
			c0-0.1,0.1-0.1,0.1-0.2c0-0.1,0.1-0.2,0.2-0.3c-0.2,0-0.4,0-0.6,0.1c-0.1-0.4-0.2-0.8-0.3-1.3c-0.1-0.5-0.2-1-0.5-1.5
			c0.2-0.4,0.6-0.6,1-0.7c0.9-0.3,1.8-0.7,2.7-1.3c0.2-0.3,0.4-0.6,0.6-0.8c0.1,0.2,0.2,0.4,0.2,0.5c0-0.2,0-0.3,0.1-0.5
			c0-0.2,0.1-0.4,0.2-0.5c0.1-0.1,0.2-0.2,0.4-0.3c0.2-0.1,0.2-0.2,0.1-0.4c0-0.1,0-0.3,0-0.4c0-0.2,0-0.5,0.1-0.7
			c0.1-0.3,0.2-0.5,0.3-0.8c0.1-0.2,0.2-0.4,0.3-0.6c0.2-0.3,0.3-0.7,0.6-1l0.3-0.1c0.1-0.9,0.1-1.3,0.1-1.4s0.2-0.5,0.5-1
			c0.2-0.4,0.4-0.9,0.5-1.4c-0.2,0-0.5,0-0.8,0c0.6-1.5,0.9-2.4,1-2.6c0.1-1.6,0.4-3.1,0.8-4.6c0.3-1.1,0.9-2.1,1.7-2.9l-0.2-0.3
			c0.5-1.1,0.9-1.9,1.2-2.5c0.1-0.4,0.4-0.8,0.7-1.1c0.6-0.5,1.3-0.7,2-0.8l0.3,0.4v-0.7c0.1,0.2,0.3,0.4,0.6,0.7l0.8-0.4
			c0.3-0.2,0.6-0.4,0.8-0.4c0,0,0,0.3,0.1,0.9c0.1,0,0.2,0,0.3-0.1c0.1,0,0.3-0.1,0.4-0.1c0,0-0.1-0.1-0.1-0.2c0-0.1,0-0.1,0-0.2
			c0.7,0.5,1.1,1.2,1.4,1.9c0.3,0.9,0.4,1.9,0.5,2.8c-0.2-0.1-0.3-0.2-0.4-0.4c0.1,1.4,0.4,3.3,0.9,5.7c0.1,0.2,0.1,0.4,0.3,0.6h0.1
			c0.1,0.3,0.1,0.7,0.1,1c0,0.3,0,0.6-0.1,1.1h0.2c0-0.1,0-0.3,0-0.5c0-0.2,0-0.4,0.1-0.5h0.3c0.1,1.1,0.1,1.8,0.1,1.9
			c0,0.3-0.1,0.5-0.1,0.8c-0.1,0.2-0.1,0.4-0.1,0.6c0,0.3,0.1,0.5,0.3,0.8c-0.3,0.5-0.4,1.1-0.3,1.7c0,0.1,0,0.2,0.1,0.3
			c0.1,0.2,0.1,0.3,0.1,0.4c0,0.1,0,0.3,0,0.4v0.7h0.3v-1.3l0.3,0l0.1,0.6c-0.1,0.3,0,0.7,0.1,1c0.3,0.2,0.6,0.4,0.9,0.4
			c-0.2,0.3-0.5,0.6-0.8,0.8c0.2,0,0.4,0,0.8-0.1c0.2,0,0.4,0,0.6-0.1c0,0,0,0.1,0.1,0.1l-0.5,0.3c-0.2,0.1-0.3,0.2-0.5,0.3l0.9,0.2
			c-0.2,0.1-0.4,0.3-0.6,0.4c-0.3,0.2-0.5,0.3-0.6,0.3c0.3-0.1,0.8-0.1,1.4-0.2l1.3-0.2c0,0.1,0,0.1,0.1,0.2
			c-0.2,0.1-0.4,0.2-0.6,0.2l-0.6,0.2l0.4,0.5l0.6-0.1c-0.7,0.4-1.3,0.8-1.8,1.3c-0.7,0.7-1.1,1-1.2,1.1l-0.1-0.3v0.3
			c-0.3,0.1-0.3,0.3-0.1,0.5c0.1,0.2,0.1,0.4,0.1,0.7l0,0l0,0c0,0.1,0,0.3,0,0.7s0,0.5,0,0.7c0,0.3,0,0.6,0,0.9
			c0.1,0.9,0.3,1.9,0.6,3.1c0.1,0.4,0.2,0.7,0.4,1.1c0.1,0.3,0.2,0.7,0.3,1c0.5,1.6,0.9,3.1,1.3,4.7c0.1,0.1,0.1,0.3,0.2,0.4
			c0.1,0.2,0.2,0.4,0.1,0.6c-0.1,0.1-0.1,0.3-0.2,0.4c-0.1,0-0.2-0.1-0.3-0.2c-0.1-0.1-0.2-0.2-0.3-0.3c-0.1,0.3-0.1,0.6-0.2,0.9
			c-0.3-0.3-0.5-0.6-0.7-0.8c0,0.1-0.1,0.2-0.1,0.3c0,0.1,0,0.2-0.1,0.3c-0.1-0.2-0.2-0.5-0.4-1c0,0.2-0.1,0.5-0.1,0.9
			c0,0.2-0.1,0.4-0.1,0.7c-0.5-0.3-0.8-0.3-0.9,0.2l-0.4-1.1c0,0-0.1,0.4-0.4,1c-0.7-0.5-1.1-1.2-1.1-2c0-0.9-0.3-1.8-0.8-2.5
			c-0.1-0.2-0.2-0.3-0.3-0.5c-0.1-0.2-0.2-0.4-0.3-0.7l-0.2-0.5l0.3-0.2l0.6,0.3c0.3,0.7,0.6,1.5,0.8,2.3c0,0,0.1,0,0.1,0h0.1
			c0-0.8-0.3-1.6-0.8-2.3c-0.2-0.2-0.3-0.5-0.3-0.8c0-0.3,0-0.6,0.1-0.8c0.1-0.3,0.1-0.6,0.1-0.8c0-0.5-0.1-0.6-0.4-0.4l-0.3-0.1
			C207.7,46.5,207.9,46.2,208.1,46.1z M192.5,48.7c-0.1,0.7-0.3,1.4-0.4,2l-0.1,0v-2.4c0.1,0,0.2,0.1,0.2,0.3S192.3,48.8,192.5,48.7
			L192.5,48.7z M192.5,48.7L192.5,48.7z M199.5,23.5c-0.4,0.6-0.6,1.3-0.6,2c0,0.4,0.1,0.8,0.2,1.2c0.1-0.3,0.3-0.8,0.5-1.4l0.5-1.3
			L199.5,23.5z M204,29.9l-0.3,0.9c-0.1,0.4-0.3,0.7-0.3,0.9c-0.1,0.5-0.2,1-0.3,1.4c0.2,0,0.4,0.1,0.4,0.2
			c-0.1,0.3-0.2,0.5-0.4,0.7c0-0.1,0-0.2,0-0.3c0-0.1,0-0.2-0.1-0.3c-0.4,0.9-0.7,1.9-1,2.9c-0.1,0.5,0.1,0.6,0.6,0.3l0.7-0.3h0.1
			c0.5,0,0.9-0.2,1.3-0.4c0.4-0.2,0.8-0.4,1.2-0.5c0.4-0.1,0.7-0.4,0.9-0.8v-1.3c-0.1,0.1-0.1,0.2-0.2,0.3c0,0.1-0.1,0.2-0.2,0.3
			h-0.1c-0.1-1.2-0.3-2.8-0.5-4.9l-0.1,0.1l-0.6-1.5c-0.2-0.4-0.3-0.8-0.1-1l-0.1-0.4h-0.1C204.4,28.4,204.1,29.6,204,29.9z
			 M205.6,24v3.2c0.2-0.1,0.4-0.2,0.7-0.3v-1.6C206.3,25.3,206.1,24.8,205.6,24L205.6,24z M206.6,27.6h-0.2c0.1,1.2,0.1,2.1,0.1,2.7
			c0.3-0.3,0.4-0.7,0.4-1.1C206.9,28.7,206.8,28.1,206.6,27.6L206.6,27.6z M208.3,22.2H208c-0.1,0.6-0.1,1.1-0.1,1.7
			c0,0.3,0.1,0.9,0.3,1.6c0.1,0.6,0.2,1.2,0.2,1.8c0,0.3,0,0.7,0,1.1c0,0.6,0,1.5,0,2.7c0,1.2-0.1,1.9-0.1,2.2c0,0.2,0,0.4,0,0.6
			h0.3c0.1-2.5,0.2-4.1,0.2-4.8c0-1.1-0.1-2.2-0.2-3.3c0,0.1,0.1,0.3,0.4,0.6c0-0.3,0-0.6-0.1-0.9l-0.3-0.3c0-0.2,0-0.7-0.1-1.5
			S208.4,22.6,208.3,22.2L208.3,22.2z M208.8,23h-0.1c0,0-0.1,0-0.1,0c0.1,0.6,0.2,1.4,0.3,2.6c0.1-0.4,0.1-0.9,0.1-1.3
			C209,23.9,209,23.4,208.8,23L208.8,23z M208.8,43.5c-0.1,0-0.1,0-0.2,0c0.1,0.2,0.3,1.1,0.8,2.7h0.2c-0.1-0.3-0.2-0.8-0.4-1.5
			S208.9,43.7,208.8,43.5L208.8,43.5z M210,47.8h-0.1c0.3,1,0.6,2.2,0.9,3.5c0,0,0.1,0,0.1,0c0,0,0.1,0,0.1,0
			C210.6,49.7,210.3,48.5,210,47.8L210,47.8z M210.1,22.8c0.1,0.3,0.1,0.6,0.2,0.9c0.1,0.3,0.2,0.6,0.2,0.9c0,0.3-0.1,0.6-0.3,0.9
			h-0.1c-0.1-1.5-0.1-2.4-0.1-2.7C209.9,22.8,210.1,22.8,210.1,22.8z M211.1,41.4h0.2c0.1,0.3,0.2,0.9,0.4,1.8l-0.2,0
			c-0.1-0.3-0.1-0.6-0.2-0.8C211.3,42,211.2,41.7,211.1,41.4L211.1,41.4z"/>
		<path d="M219.5,18.1c0.1,0,0.2-0.3,0.2-0.8c0.1,0.1,0.3,0.1,0.4,0.2c0.1-0.3,0.1-0.6,0.1-0.9c0.4,0.1,0.8,0.2,1.1,0.4
			c0.1,0.1,0.4,0.4,0.9,1.1V17h0.1c0,0.1,0.1,0.6,0.3,1.5c1-0.1,2-0.1,2.9-0.2l0.4-0.6c0.2-0.7,0.9-1.1,2-1.2
			c0.5-0.1,1.1-0.2,1.6-0.3c0.6-0.1,1.1-0.2,1.7-0.3c0.4,0,0.9,0.1,1.3,0.3l0.6,0c0.2,0.2,0.4,0.5,0.6,0.8c0,0-0.1,0.1-0.3,0.1v0
			h1.9l-0.9,0.8c0.2,0,0.4,0.1,0.8,0.2c-0.2,0.2-0.4,0.3-0.6,0.5c0.1,0.1,0.2,0.2,0.4,0.3c0.2,0.1,0.3,0.2,0.4,0.3
			c-0.3,0.1-0.6,0.2-0.9,0.3v0.1c0.6,0,1,0.1,1.2,0.1c-0.1,0.3-0.2,0.7-0.3,1l-1.4,0.1l0.2-0.4c-0.2,0-0.5,0-0.7,0
			c0.2,0.4,0,0.6-0.5,0.5c0.1,0.3,0,0.6-0.3,0.8c-0.3,0.2-0.7,0.4-1.1,0.4c0-0.1-0.1-0.2-0.1-0.3l-0.3,0.2h-1.4
			c-0.1,0-0.2,0-0.4,0.1c-0.1,0-0.3,0-0.4,0c-0.1,0-0.2-0.2-0.3-0.3l-2.6,0.5c-0.3,0.1-0.5,0.3-0.6,0.5h1.2
			c-0.1,0.4-0.5,0.6-1.1,0.6c-0.6,0-1.2-0.1-1.8-0.1c0.1,0,0.1-0.1,0.1-0.2c0-0.1,0.1-0.1,0.1-0.2c-0.6,0-0.8,0.3-0.7,0.9
			c0.1,0.7,0.2,1.5,0.1,2.3l-0.1-0.4c-0.2,0.6-0.3,1.2-0.4,1.8c0,0.5,0.1,0.7,0.4,0.8c-0.2,0.3-0.3,0.6-0.5,1c0,0.1,0.1,0.2,0.1,0.2
			c0.1,0.1,0.1,0.1,0.1,0.2h-0.4v1.6c0,0,0.1,0,0.1,0c0-0.1,0-0.2,0.1-0.3c0-0.1,0.1-0.1,0.1-0.2c0.2,0.3,0.6,0.4,1.1,0.3
			c0.2,0,0.6-0.1,1.4-0.4c0.6-0.2,1.2-0.3,1.8-0.4l-0.6,0.4c0.8-0.1,1.5-0.2,2.3-0.4c0.8-0.2,1.6-0.3,2.4-0.4h0.6
			c0,0.1,0,0.1,0.1,0.2c-0.4,0.2-0.8,0.3-1.1,0.5h1.9c0,0.1,0.1,0.2,0.1,0.3c-0.2,0.1-0.9,0.3-2.1,0.6l0.1,0.1l0.7-0.1h0.5
			c0,0,0,0.1,0,0.1c0,0,0,0.1,0,0.1c-2,0.3-3.1,0.5-3.3,0.5c-0.1,0-0.2,0.1-0.3,0c-0.3,0-0.5,0-0.8-0.1c-0.3,0-0.6-0.1-0.9-0.1h-0.2
			c-0.2,0-1.2,0.2-3.1,0.5c0.1,0.3,0.1,0.7,0.2,1.1c0.1-0.1,0.1-0.1,0.1-0.2c0.1-0.1,0.1-0.1,0.1-0.2c0,0.1,0,0.2,0.1,0.3
			c0,0.1,0,0.1,0.1,0.2c0.1,0,0.9-0.2,2.4-0.5h0.3c0.3,0.2,0.8,0.2,1.6,0l2.6-0.7c0.3-0.1,0.6-0.1,0.9-0.2c0.5,0,1,0.2,1.4,0.6
			c-0.1,0.1-0.1,0.3-0.3,0.3l-0.2,0.2c-0.1,0.1-0.2,0.1-0.3,0.2c-0.1,0-0.2,0.1-0.3,0.1h-0.4c-0.1,0-0.3,0-0.4,0
			c-0.4,0.1-0.8,0.1-1.2,0.2l-1.5,0.3l-1.3,0.3c-0.2,0-0.5,0-0.7-0.1c-1.5,0.2-2.3,0.5-2.6,0.9c0-0.1-0.1-0.1-0.1-0.2l-0.1-0.2v1.5
			h-0.1c-0.2-0.5-0.3-0.9-0.4-1.4h-0.1c0,0-0.1,0-0.1,0c0.1,1.6,0.2,2.8,0.3,3.7h0.2c0-0.6,0-1.1,0-1.4h0.1c0.1,0.7,0.1,1.4,0.2,2
			c0,0,0.1,0,0.1,0h0.1c0-0.3,0-0.5-0.1-0.8c0-0.4,0-0.6,0-0.8h0.1c0,0.2,0,0.5,0,0.8s0,0.7,0.1,1c0,0.3,0.1,0.5,0.2,0.8
			c0.1,0.3,0.2,0.6,0.1,0.9c0,0.2,0,0.4-0.1,0.6c0,0.3,0,0.5,0,0.6c0,1.7,0.1,3.9,0.3,6.8c0,0.1,0,0.1,0,0.2c0,0.1,0,0.1,0,0.1
			c-0.1,0.1-0.1,0.1-0.2,0.2c-0.1,0.1-0.1,0.1-0.1,0.2c0,0.1,0,0.2,0.1,0.3c0,0.1,0,0.2,0,0.3c0,0.3-0.1,0.6-0.2,0.8
			c-0.1-0.3-0.4-0.8-0.8-1.8h-0.1c0,0.3,0.1,0.9,0.1,1.9s0.1,1.7,0.2,2.3l-0.6-0.5c0,0.2,0,0.4,0,0.5l-1.6-0.6
			c-0.1,0.1-0.2,0.5-0.4,1c-0.1-0.2-0.2-0.3-0.3-0.5l-0.3,0.5l-0.5-0.1c-0.2,0-0.3-0.1-0.5-0.1c0,0-0.1-0.1-0.1-0.2
			c0-0.1-0.1-0.2-0.1-0.3c0,0.1,0,0.2,0,0.3c0,0.1,0,0.2-0.1,0.3c-0.2-0.4-0.3-0.8-0.4-1.2c0-0.2-0.1-0.5-0.1-0.8s-0.1-0.7-0.2-1
			c-0.1-0.3-0.2-0.5-0.3-0.8c-0.2-0.5-0.4-1-0.4-1.6c0-0.1,0-0.3,0-0.5s0-0.4,0-0.5c0-0.8,0.1-1.5,0.4-2.3c0.2,0.4,0.3,0.9,0.2,1.3
			c0-0.1-0.1-0.3-0.1-0.5c0,0-0.1,0-0.1,0c0.1,0.8,0.2,1.3,0.2,1.7h0.2c0-0.2,0-0.3,0-0.5h0.1c0,0.5,0.1,1,0.3,1.5
			c0.2-1.3,0.3-2,0.4-2.3c0.1-0.6-0.1-0.8-0.5-0.8c0-0.1,0-0.5-0.1-1.2c-0.1-0.5-0.1-1-0.1-1.5c0-0.2,0-0.3,0-0.5
			c0-0.3-0.1-0.6-0.2-0.9c-0.1-0.2-0.2-0.5-0.3-0.7c0-0.1-0.1-0.9-0.3-2.3c0,0,0-0.1,0-0.2c0.1-0.4,0.2-0.7,0.1-1.1
			c0-0.3,0-0.6-0.1-0.9c0-0.4-0.1-0.7-0.1-0.8c0-0.2,0-0.4,0.1-0.5c0-0.3,0-0.5-0.1-0.8c0-0.3,0-0.6,0-0.8s0.1-0.8,0.4-2
			c0.2,0.4,0.4,0.6,0.4,0.6h0.2c-0.1-0.9-0.1-1.5-0.1-1.9h-0.1c0,0.1,0,0.5-0.1,1.1h-0.1c-0.1-0.2-0.2-0.4-0.4-0.5
			c-0.2-0.3-0.2-0.5,0.1-0.6l-0.1-0.4c0,0.1,0,0.1-0.1,0.1c0,0.1-0.1,0.1-0.1,0.1c0-0.1,0-0.3,0-0.4c0-0.1,0-0.3,0-0.4l0.3,0.3
			c0-0.3-0.1-0.7-0.1-1.2s-0.1-0.9-0.1-1.2l0.1-0.1c0.2,0.3,0.4,0.7,0.7,1.1c0.3-0.5,0.2-0.9-0.4-1.3c-0.3-0.1-0.4-0.3-0.4-0.6
			c0-0.1,0-0.2-0.1-0.3c-0.1-0.1-0.1-0.2-0.1-0.3v-3.4l-0.6-0.1l-0.6-0.1c0-0.1,0-0.2,0-0.3c0.3,0,0.6-0.1,0.9-0.1
			c0.2-0.2,0.3-0.5,0.4-0.8l0.4,0c-0.9-0.5-1.5-0.9-1.9-1.1c0.4-0.4,0.7-0.9,1.1-1.3c-0.1-0.2-0.2-0.3-0.4-0.5l0.4-0.1
			c0.1,0,0.2,0,0.4-0.1c0-0.2,0.1-0.3,0.1-0.5c0-0.2,0-0.4,0.1-0.6c0.3,0.5,0.5,0.9,0.6,1c0.1-0.1,0.1-0.2,0.1-0.3
			c0.1-0.1,0.2-0.3,0.3-0.4C219.2,17.4,219.3,17.7,219.5,18.1z M218.9,25.7c0.1-0.7,0.2-1.4,0.3-2.1c0-0.8-0.2-1.1-0.6-1.1h-0.1
			c0,0.4,0.2,1.9,0.4,4.4l0.2-0.5c0-0.1,0-0.2-0.1-0.3C218.9,26,218.9,25.9,218.9,25.7z M222.9,31.6c0,0,0,0.1,0,0.1
			c0,0,0,0.1,0,0.1l2-0.2v-0.1L222.9,31.6z M228.5,34.8c0.3,0,0.6,0.1,0.8,0.3l-1.1,0.2c-0.5,0.1-0.9,0.2-1.2,0.2
			c0-0.1-0.1-0.1-0.1-0.2L228.5,34.8z"/>
		<path d="M243.6,35.5c0.5,0.4,0.8,1,0.8,1.6c0,0.5-0.1,0.9-0.3,1.4c0.1,0.4,0.1,0.8,0.1,1.2c0,0.3,0,0.7-0.1,1
			c-0.1,0.7-0.2,1.2-0.3,1.5c0,0.1,0.1,0.3,0.1,0.5c0,1-0.2,2-0.6,3c0,0.5-0.3,0.9-0.8,1c-0.1,0-0.1,0-0.2,0c-0.3,0-0.7-0.1-1-0.2
			c-0.4-0.1-0.9-0.1-1.3,0.2c-0.4,0.1-0.7,0-1-0.3c-0.2-0.4-0.3-0.8-0.3-1.2c0-0.4-0.1-0.9-0.2-1.3c-0.1-0.3-0.2-0.3-0.2,0.1
			c0,0.8-0.1,1.2-0.3,1.3c-0.3,0.1-0.5-0.2-0.5-0.8V44c0-0.9,0.3-1.9,1-2.5v-0.5c0,0.2-0.1,0.5-0.2,0.7c-0.2-0.2-0.2-0.7,0.1-1.3
			c0.2-0.4,0.3-0.9,0.3-1.3c0.1-0.5,0.2-1,0.2-1.6c0.1-0.8,0.2-1.3,0.4-1.5c0.2-0.1,0.4-0.3,0.5-0.5c0.1-0.3,0.2-0.5,0.3-0.8
			c0.1-0.3,0.2-0.6,0.2-0.7c0.2-0.5,0.5-0.4,0.8,0.1l0.1,0.3c0.1-0.4,0.2-0.5,0.3-0.3l0.1,0.4c0.1-0.1,0.2-0.3,0.3-0.4
			c0.1-0.2,0.3-0.3,0.5-0.3c0.1-0.4,0.2-1.3,0.4-2.7c0.2-1.4,0.4-3.3,0.8-5.6s0.6-3.7,0.6-4.2c0.1-0.3,0.1-0.6-0.1-0.8
			c-0.2-0.2-0.2-0.4-0.3-0.6c0-0.2,0-0.3-0.1-0.3c-0.1,0-0.2,0-0.3,0c-0.3,0.2-0.4,0.1-0.4-0.3c0,0.2,0,0.8,0,1.9
			c0,1.5-0.1,2.2-0.3,2.3s-0.4-0.4-0.2-1.3c-0.1,0-0.1,0.4-0.2,1s-0.1,1.1-0.1,1.2c-0.1,0.6-0.2,0.7-0.3,0.3c-0.1-0.5-0.1-0.9,0-1.4
			c0-0.3,0-0.7,0-1c0-0.6,0-1.4-0.1-2.3c-0.2-0.3-0.3-0.5-0.2-0.7c0.1-0.2,0.2-0.3,0.3-0.5c-0.1-0.7-0.4-0.6-0.9,0.3
			c-0.2-0.6-0.3-1.2-0.3-1.8c0-0.8,0.2-1.6,0.7-2.2c0.1,0.6,0.3,0.6,0.5,0.3s0.5-0.7,0.7-0.7c0,0.1,0.1,0.3,0.2,0.4
			c0.1,0.2,0.1,0.3,0.2,0.5c0,0.2,0.1,0.3,0.2,0.3s0.3,0,0.5-0.2c0.1-0.1,0.2-0.3,0.3-0.4c0.1-0.1,0.2-0.2,0.4-0.3
			c0.1,0.3,0.4,0.5,0.6,0.7c0.3,0.2,0.5,0.5,0.5,0.9c-0.1,0,0-0.1,0.3-0.3c0.3-0.2,0.6-0.2,0.6-0.1c0,0.2,0,0.3-0.1,0.5
			c-0.4,0.3-0.6,0.9-0.6,1.4c0.1,0.6,0,1.1-0.3,1.6c-0.1-0.1-0.1-0.2-0.1-0.4c-0.1-0.2-0.2-0.1-0.3,0.3c-0.6,1-0.9,2.1-0.9,3.3v0.4
			c0,1-0.1,2-0.3,3c-0.3,1.2-0.4,2.4-0.6,3.6c-0.1,1.1-0.2,2-0.3,2.6c0.3,0.7,0.4,1.4,0.4,2.2C243.7,34.7,243.7,35.1,243.6,35.5z
			 M241.1,28.1c0.2,0.5,0.4,1.1,0.3,1.7c0,0.4,0,0.9-0.1,1.3c0.1,0,0.2-0.2,0.2-0.5c0-0.7,0.1-1.4,0.4-2v1c0,0.7,0,1.4-0.1,2.1
			c0,0.5-0.1,1.1-0.3,1.6c-0.2-0.1-0.3-0.1-0.4-0.3c-0.2-0.2-0.4-0.3-0.6-0.2C240.9,31.3,241.1,29.7,241.1,28.1L241.1,28.1z
			 M241.2,18.8l0.1,0.1c0.1,0.3,0.1,0.5,0,0.6s-0.2,0-0.3-0.2C240.9,19.1,241,18.9,241.2,18.8C241.2,18.8,241.2,18.8,241.2,18.8
			L241.2,18.8z M241.8,26.6c0.2,0.5,0.2,1,0,1.5C241.4,28.3,241.4,27.8,241.8,26.6z M244,28.9c0,0.2,0,0.4,0,0.8s0,0.6,0,0.9
			c0,0.5-0.1,1.1-0.4,1.5c-0.1-0.5-0.1-0.9,0-1.4C243.7,30.1,243.8,29.5,244,28.9z M244.5,25.3c0.1,0.1,0.1,0.3,0.1,0.5l-0.2,0.5
			C244.3,26.1,244.3,25.7,244.5,25.3L244.5,25.3z M245.1,22.1c0.1,0.4,0.1,0.7-0.1,0.8c-0.2,0.4-0.3,0.5-0.3,0.3
			C244.6,22.8,244.8,22.4,245.1,22.1L245.1,22.1z"/>
		<path d="M249.7,12.9l0.8-0.2l0.7-0.2c0.2,0,0.4,0,0.6,0.1c0.4,0.1,0.8,0.1,1.2,0.1c0.9,0.8,1.5,1.9,1.8,3.1
			c-0.1,0.3-0.2,0.7-0.3,1.1c-0.1,0.6-0.3,0.9-0.4,0.9c-0.1,0-0.2-0.1-0.2-0.1c-0.1,0.6-0.2,1.1-0.4,1.6c-0.2,0.6-0.3,1.1-0.4,1.2
			c0.5,0.3,0.7,0.9,0.7,1.5c0,0.2,0,0.4-0.1,0.5c0,0.8-0.6,1.4-1.4,1.5c-0.1-0.7-0.3-0.7-0.4,0c-0.1,0.3-0.1,0.7-0.1,1
			c0.5-0.2,0.8-0.2,0.8-0.1c0.1,0.3,0.1,0.6,0,0.9c0.1,0.5,0,1.1-0.1,1.6c-0.2,0.6-0.2,1.2-0.1,1.8c0.1,0.7,0.1,1.4,0,2.1
			c-0.1,0.7-0.1,1.4,0,2.1c-0.3,0.6-0.5,1.2-0.5,1.9c0,0.4,0.1,0.8,0.3,1.1c0,2.8,0.1,4.7,0.1,5.8v0.6c0,0.9-0.1,1.8-0.3,2.7
			c-0.2,1.1-0.2,1.7,0,1.8c0,0.1,0,0.5-0.1,1.3s-0.1,1.1-0.2,1.1s-0.2-0.2-0.3-0.3v-0.4c0-0.6,0-1.5,0.1-2.7c0-0.6,0.1-1.2,0.1-1.7
			c0-0.5,0-0.9-0.1-1.4c-0.2-0.5-0.3-0.9-0.3-1.5c0-0.2,0-0.5,0-0.8c0-0.3,0.1-0.6,0.1-0.8c0-0.4,0-0.9-0.2-1.3
			c-0.1-0.6-0.1-1.1-0.1-1.7c0-0.6,0-1.3,0.1-2c0-0.6,0.1-1.2,0.1-1.7c0-0.7,0-1.4-0.1-2.1c0-0.3-0.1-0.7-0.1-1.1s0-1,0.1-1.6
			s0-1.2,0-1.6c0-0.3,0-0.7,0-1v-0.5c0-0.6,0.1-1.2,0.1-1.8c0.1-0.5,0.1-0.9,0.1-1.4c0-0.3,0-0.5-0.1-0.8c0,0.2-0.1,0.8-0.2,1.9
			c-0.1,0.9-0.2,1.9-0.1,2.8v1.6c0,1.6-0.2,3.3-0.4,4.9c-0.2,1.5-0.4,3.1-0.4,4.7c0,0.8,0,1.6,0.1,2.4c0.1,1.8,0.1,3.2,0.1,4.3
			c0,0.4,0,0.9,0,1.3c-0.1,0.6-0.2,1.2-0.2,1.8c0,0.6-0.1,1.2-0.4,1.8c-0.1-0.6-0.1-1.2-0.1-1.8v-0.7c0-0.9,0.1-1.6,0.1-1.9
			c-0.1,0-0.2,0.3-0.3,1.2c0,0.5-0.1,1-0.3,1.5c0-0.5,0-1.3,0-2.3v-1.3c0-1.2,0.1-2.3,0.3-3.5c0.2,0,0.3,0.1,0.3,0.5
			c0,0.4,0,0.7-0.1,1.1c-0.1,0.3,0,0.7,0.1,1c0-0.6,0.1-1.3,0.1-2.3V38c0-0.9-0.1-1.8-0.1-2.5c0-0.9,0-1.7,0.1-2.3
			c-0.1,1.3-0.2,2.3-0.3,3c-0.1,1.4-0.2,1.5-0.4,0.5c0.1-1,0.1-1.8,0.1-2.5c0-0.7,0-1.3-0.1-2c-0.1-1.1-0.1-1.8-0.1-2.2
			s0-0.8,0.1-1.5s0.1-1.2,0.1-1.6c-0.1-1.3-0.1-2.3-0.1-3c0-0.3,0-0.6,0.1-1c0.1-0.5,0.1-1,0.1-1.5v-0.9c-0.1-0.7,0-1.4,0.2-2.1
			c-0.4,0.2-0.6,0.1-0.6-0.3c0-0.3,0-0.6,0.1-0.9c-0.2-0.2-0.3-0.5-0.3-0.8c0-0.2,0-0.3,0-0.5c0-0.2,0-0.3,0-0.5
			c0-0.2,0.1-0.4,0.1-0.4l0.1-0.5c0.1-0.2,0.1-0.4,0.1-0.4s0.1-0.2,0.1-0.5c0-0.2,0.1-0.3,0.2-0.5C249.5,13.1,249.6,13,249.7,12.9z
			 M249.4,37.9c0,0.1,0.1,0.3,0.1,0.4c0.1,0.2,0.1,0.4,0.1,0.5c0.1,0.4,0.1,0.6,0.1,0.7C249.2,38.7,249.1,38.2,249.4,37.9z
			 M249.9,25.5c0,0.3-0.1,0.8-0.1,1.4s-0.1,1.1-0.1,1.4l0.1-0.7c0-0.2,0-0.4,0-0.6c0-0.1,0-0.4,0.1-0.8S250,25.5,249.9,25.5z
			 M250.8,25.9c-0.2,1-0.2,2.1-0.3,3.1c0,0.7,0.1,1.3,0.2,2v-3.2C250.7,26.9,250.8,26.3,250.8,25.9L250.8,25.9z M251.8,46
			c0,0.4,0,0.8,0,1.3c0,0.2,0,0.5,0,0.8c0,0.6-0.1,1.2-0.4,1.8c0-0.4,0-0.8,0-1.2V48C251.4,47.3,251.5,46.6,251.8,46L251.8,46z
			 M251.7,43.2c0.1,0.3,0.2,0.7,0.2,1c0,0.3,0,0.5-0.1,0.5s-0.3-0.3-0.3-0.7S251.6,43.3,251.7,43.2L251.7,43.2z M253.1,37.1l0.3,0.3
			c0,0.3,0,0.5-0.1,0.8l-0.1-0.3C253,37.6,253,37.4,253.1,37.1L253.1,37.1z M265.9,16.4h0.3c0.6,0.6,1.3,1.1,2.1,1.4
			c0.4,0,0.7,0.5,0.9,1.5c0.1,0.4,0.3,0.4,0.5,0c0.1,0.3,0.1,0.5,0,0.8c-0.1,0.2-0.3,0.4-0.5,0.6c-0.3,0.3-0.5,0.4-0.6,0.5
			c0.1,0.5-0.1,0.9-0.5,1.1c-0.4,0.3-0.6,0.4-0.6,0.3c0-0.2,0.1-0.3,0.2-0.4c-0.4,0.2-0.7,0.6-0.9,1l0,0c0.1-0.1,0.3-0.3,0.4-0.5
			c0.1,0.3,0,0.9-0.6,1.6c-0.5,0.7-1,1.3-1.6,1.9c-0.7,1.1-1.5,2-2.5,2.9c-0.2-0.1-0.5-0.1-0.7-0.1c-0.6,0-1.1,0.3-1.5,0.8
			c-0.3,0.4-0.7,0.9-1.1,1.3c0-0.5-0.1-0.7-0.4-0.7s-0.9,0.4-1.7,1.3c-0.5,0.3-0.6,0.6-0.5,0.7c0.1,0.1,0.3,0.2,0.4,0.3
			c0.2,0.1,0.4,0.2,0.5,0.2l0.5,0.2c0.2-0.2,0.5-0.2,0.8,0.2s0.4,0.5,0.3,0.5c-0.2,0-0.3-0.1-0.5-0.1c0,0.2,0.3,0.4,0.9,0.7
			c0.5,0.2,1,0.4,1.6,0.5c0.5,0.4,0.9,0.7,1.3,1.2c0.9,1,2.1,1.7,3.4,2c0.8,0.5,1.6,1,2.4,1.4c0.8,0.4,1.7,0.9,2.4,1.5
			c0.4,0.2,0.5,0.4,0.1,0.5s-0.4,0.3-0.1,0.5c-0.4,0-0.5,0.1-0.3,0.4s0.2,0.4,0.1,0.5c-0.3-0.1-0.4,0-0.5,0s0,0.2,0.1,0.3
			c0.2,0.4,0.1,0.5-0.3,0.3c-0.1,0.4-0.6,0.6-1,0.5c0,0-0.1,0-0.1,0c1,0.4,1.1,0.9,0.2,1.5c-0.4,0.1-0.5,0.3-0.5,0.5
			c0,0.1,0,0.2,0,0.3c-1.7-0.8-3.3-1.7-4.9-2.7c-0.5-0.2-0.5-0.3-0.3-0.4s0.4-0.2,0.2-0.4c0.5-0.1,0.3-0.5-0.6-1.3
			c-0.3-0.2-0.5-0.4-0.8-0.6c-0.6-0.2-1-0.5-1.5-1c-0.4-0.5-1.1-0.8-1.8-0.7c0.5,0.1,0.8,0.3,0.9,0.6s0,0.5-0.1,0.5
			c-0.1,0-0.3,0-0.4-0.1l-0.2-0.1l-0.1-0.1c-1.1-0.6-1.6-1.2-1.6-1.6c0-0.2,0.1-0.3,0.3-0.4c-0.7-0.3-1.3-0.7-1.8-1.3
			c-0.5-0.6-1-1.1-1.6-1.5c0.1-0.3,0-0.5-0.2-0.7c-0.1-0.1-0.3-0.3-0.4-0.5c-0.1-0.1-0.1-0.2,0-0.2c0.2-0.1,0.3-0.1,0.5-0.1
			c0.5,0.2,0.7,0.1,0.6-0.3s0-0.4,0.3-0.4c-0.3-0.3-0.4-0.5-0.2-0.8s0.4-0.2,0.6,0c0,0-0.1,0-0.1,0c-0.1-0.3,0-0.5,0.2-0.5
			c0.2-0.1,0.4,0,0.5,0.1c0.1,0.1,0.5-0.2,1-0.9c0.3-0.4,0.6-0.8,1-1.2c-0.4,0.3-0.6,0.4-0.6,0.1s0.2-0.5,0.6-0.8
			c0.2-0.3,0.3-0.4,0.3-0.5s-0.3,0-0.7,0.3c-0.1-0.4-0.4-0.3-1,0.4c-0.3,0.4-0.7,0.7-1.1,1c0-0.1,0-0.2,0.2-0.5
			c0.5-0.5,0.8-1.1,1-1.8c-0.2,0.1-0.4,0.1-0.4,0s0-0.3,0.2-0.6s0.3-0.5,0.2-0.5s-0.1,0-0.2,0c-0.1-0.4-0.1-0.7,0-0.9
			c0.3-0.3,0.6-0.5,1-0.6c0.4-0.2,0.5-0.1,0.4,0.1l-0.2,0.5c0,0,0.1-0.1,0.3-0.2c0.3-0.2,0.5-0.6,0.5-1c-0.1-0.3,0-0.7,0.2-1
			c1.3-0.9,2.2-2.3,2.7-3.8c0.4-0.6,0.9-1.1,1.5-1.6c0.6-0.5,1-1.1,1.4-1.8c0,0.3,0,0.4,0,0.4c0.2-0.1,0.4-0.3,0.6-0.5
			C265,16.3,265.5,16.3,265.9,16.4L265.9,16.4z M255.3,30.6l-0.1,0.2l-0.1,0.1c-0.3,0.4-0.5,0.6-0.6,0.5
			C254.4,31.2,254.6,31,255.3,30.6L255.3,30.6z M257.2,35.3c0.2,0.1,0.4,0.2,0.6,0.4c0.1,0.1,0.3,0.2,0.5,0.3l-0.5-0.5
			C257.5,35.4,257.3,35.4,257.2,35.3L257.2,35.3z M260.2,37.6c0.7,0.6,1.3,1,1.6,1.3C261.5,38.3,260.9,37.8,260.2,37.6L260.2,37.6z
			 M260.6,39.9l2,1.5c0,0.6-0.5,0.6-1.3-0.1S260.2,40.3,260.6,39.9L260.6,39.9z M261.8,35.8c0.2,0.3,0.4,0.5,0.6,0.5L261.8,35.8z
			 M264.8,42.8l0,0.2c0.3,0.2,0.5,0.3,0.6,0.3c0.1,0,0.1-0.1-0.1-0.3C265.1,43,264.9,42.9,264.8,42.8L264.8,42.8z M265.4,41.3
			L265.4,41.3l0.5,0.3l0,0C265.8,41.6,265.6,41.5,265.4,41.3L265.4,41.3z M265.4,38.3l0.3,0.3c0.2,0.2,0.5,0.4,0.8,0.5
			c0.3,0.2,0.5,0.2,0.4,0.1s-0.2-0.5-0.6-0.7c-0.3-0.1-0.6-0.2-0.9-0.2L265.4,38.3z M266.4,44.1l0.5,0.3l0.5,0.3
			c-0.3-0.3-0.7-0.5-1.1-0.4L266.4,44.1z"/>
		<path d="M289.3,21.7c0.3,0.3,0.6,0.4,0.8,0.1c0.3,0.1,0.6,0.3,0.9,0.5c0,0.1,0.1,0.2,0.1,0.2c0-0.3,0.1-0.5,0.1-0.5
			c0.1,0.4,0.1,0.8,0.1,1.1c0.1-0.1,0.1-0.1,0.2-0.2l0.1-0.2c0,0.1,0,0.5-0.1,1.1s0,1,0,1c0.1,0.3,0.1,0.7,0,1
			c-0.1,0.3-0.1,0.6,0,0.9c0.1,0.3,0.2,0.7,0.2,1c0,0.5-0.1,1-0.3,1.5c0,0.1-0.1,0.3-0.1,0.4c-0.1,0.1-0.1,0.3-0.1,0.4
			c0,0.2,0,0.3,0,0.5l-0.3,0.3c-0.1-0.1-0.1-0.2-0.2-0.3l-0.3,1.7h-0.1c0-0.1-0.1-0.1-0.1-0.2l-0.1-0.2h0c-0.3,0.4-0.4,0.9-0.4,1.5
			c0,0.2,0.1,1,0.3,2.3c0.1,0.5,0.2,1.1,0.3,1.7c0.1-0.3,0.2-0.5,0.3-0.8h0.2c0,0.4,0,0.9,0,1.6s0,1.2,0,1.6c0,1-0.1,1.9-0.5,2.8
			c-0.2-0.5-0.3-0.8-0.4-1H290c-0.1,0-0.2,0-0.3,0v1.1h0.1c0.1-0.4,0.2-0.8,0.2-1h0.2c0,0.2,0,0.5,0,0.7c0,0.3,0,0.5,0,0.6l-0.4,0.1
			c-0.1,0-0.2,0.1-0.3,0.1c-0.1,0-0.1,0.1-0.2,0.1l-0.2,0.2c-0.1,0.1-0.2,0.2-0.3,0.3c0,0,0.1,0.1,0.1,0.1c0,0.1,0.1,0.1,0.1,0.2
			c0,0.1,0.1,0.2,0.1,0.2s0-0.1,0.1-0.2l0.2-0.2v1.1c0-0.1,0.3-0.3,0.6-0.8v1c-0.2,0-0.3,0.1-0.5,0.1V46c-0.3,0.4-0.5,1-0.5,1.5
			c0,0.4,0.1,0.9,0.4,1.3c0.4-1.3,0.7-2.2,0.9-2.8v0.3c-0.1,1.2-0.5,2.3-1,3.4c0,0.1-0.2,0.2-0.3,0.3c-0.2,0-0.4,0.1-0.5,0.2
			c-0.2,0.2-0.3,0.3-0.5,0.5l-0.3,0.4c-0.5,0.4-1,0.7-1.5,1c-0.2-0.1-0.3-0.2-0.5-0.3c-0.1,0.1-0.2,0.2-0.4,0.3
			c-0.2,0.1-0.4,0.2-0.6,0.2c-0.2,0-0.3,0.1-0.5,0.2c-0.4,0.1-0.7,0.1-1.1,0c-0.3-0.1-0.7-0.1-1-0.1H282c-0.4,0-0.8-0.1-1.2-0.3
			c-0.4-0.2-0.8-0.2-1.2-0.3c-0.6,0-1.3-0.3-1.6-0.8l-0.3-0.3c-0.1-0.2-0.2-0.3-0.3-0.4c-0.1-0.1-0.1-0.2-0.2-0.4
			c-0.1-0.2-0.1-0.3-0.1-0.5c0-0.1,0-0.2,0-0.3c0,0,0-0.1,0-0.1c-0.3-0.3-0.6-0.7-0.7-1.1c-0.1-0.4-0.3-0.8-0.6-1.1h0
			c-0.2-0.3-0.5-0.8-0.9-1.3l0.2,0c0.1,0,0.2,0.1,0.4,0.1c-0.2-0.2-0.3-0.3-0.5-0.4c0.2-0.1,0.3-0.3,0.3-0.4c0-0.2,0-0.4-0.1-0.5
			c-0.1-0.1-0.1-0.2-0.2-0.4l-0.5-1.3c-0.2-0.6-0.4-1-0.5-1.3H274c0,0-0.1,0-0.1,0c0.1,1,0.1,1.8,0.1,2.3c-0.2-0.3-0.4-0.6-0.5-1
			c-0.1-0.3-0.2-0.6-0.2-0.9c0-0.2,0-0.6,0-1c0-0.3,0-0.6,0-0.9c0-0.1,0-0.2,0-0.3c-0.2-0.3-0.2-0.6-0.3-0.9
			c0.1-0.7,0.4-1.3,0.8-1.9c0-0.3,0-0.7-0.1-1c0-0.3-0.1-0.5-0.2-0.8c0-0.2,0-0.4,0.1-0.6c0.1-0.2,0.1-0.4,0-0.5
			c0-0.2,0-1.1-0.1-2.7c0-0.3,0.1-0.5,0.3-0.7c0.2-0.3,0.4-0.5,0.5-0.5c0-0.5,0-1,0-1.4c-0.2,0.3-0.4,0.4-0.4,0.5
			c-0.1-0.5-0.2-1-0.1-1.5c0.1-1.5,0.4-3,0.9-4.5c0,0.2,0.1,0.5,0.1,0.7c0.1,0.4,0.1,0.6,0.2,0.9l0.1-0.5l0.1-0.4h0.1
			c-0.1,2.2-0.1,3.4-0.1,3.6s0,0.6,0,1s0,0.8,0,1c0,0.8,0,2.1-0.1,3.7s-0.1,2.8-0.1,3.7c0,0.2,0.1,1.2,0.3,2.9c0.1,0,0.1,0,0.2,0
			c-0.1-1.4-0.2-2.2-0.2-2.3c0-0.9,0.1-2.8,0.2-5.5c0-0.2,0.1-0.3,0.1-0.5c0-0.1,0.1-0.2,0.1-0.3c0.1-0.5,0.2-1.5,0.3-3.1
			s0.3-2.7,0.4-3.5l0.3-0.5c0.1,0.6,0.2,1.1,0.3,1.6c0.1-0.1,0.1-0.2,0.1-0.4c0-0.1,0-0.3,0.1-0.4c0.1-0.1,0.2-0.1,0.5,0v10.5h0.2
			c0.1-0.3,0.2-0.7,0.2-1c0-0.1,0-0.3,0-0.5c0-0.2,0-0.4,0-0.5c0-0.2,0-0.4,0-0.5h0.2c0,0.8,0,1.6,0,2.3c0,1.7,0.1,3.4,0.4,5.2
			c0.1,0.8,0.3,1.6,0.6,2.4c0.2,0.3,0.5,0.7,0.6,1c0.1,0.3,0.2,0.7,0.2,1c0.1,0.4,0.2,0.7,0.3,1c0.1,0.3,0.3,0.5,0.6,0.7
			c0.3,0.1,0.5,0.3,0.8,0.4l0.7,0.3c0,0,0.1,0,0.1,0c0.4,0.3,0.7,0.2,0.8-0.3h0.4c-0.1-0.2-0.2-0.4-0.4-0.6c0,0,0.1,0,0.1,0
			c0,0,0.1,0,0-0.1c0.1,0.1,0.2,0.2,0.4,0.2c0.2,0,0.3-0.1,0.4-0.3c0.3-0.8,0.5-1.7,0.6-2.5c0,0,0,0,0-0.1s-0.1-0.1-0.1-0.1
			s-0.1-0.4,0-0.9c0.1-0.4,0.2-0.7,0.5-1c0,0.1,0,0.2,0,0.3c0,0.1,0,0.2,0.1,0.3c0-0.1,0.1-0.3,0.2-0.8s0.2-0.7,0.3-0.9
			c-0.2-0.1-0.4-0.2-0.6-0.3v-3.5c0-0.2,0-0.5,0-1c0-0.3,0-0.7,0-1c0-0.1,0-0.2,0.1-0.3c0-0.1,0.1-0.3,0.1-0.3c0-0.1,0-0.2,0-0.3
			c-0.1-0.1-0.2-0.2-0.3-0.4c-0.1-0.1-0.1-0.3-0.1-0.4c0-0.1,0-0.2,0-0.3c0-0.1,0-0.2,0.1-0.4c0-0.1,0.1-0.2,0.1-0.3
			c0.3-1.5,0.5-2.3,0.5-2.5c0-0.3-0.1-0.7-0.1-1c0,0,0,0,0,0l0-0.1c0.3-0.4,0.5-0.8,0.5-1.4c0-0.1,0-0.3,0-0.5s0-0.4,0-0.5
			c0-0.2,0-0.3,0-0.5l0.1-0.1v1.1c0,0,0.1,0,0.1,0c0,0,0,0,0.1,0c0.1-0.3,0.2-0.5,0.2-0.8c0-0.4,0.1-0.8,0-1.3v-1
			c0,0,0.1-0.5,0.2-1.3c0.2,0.2,0.4,0.3,0.6,0.5l0.2-0.6l0.5,0.2l0.4,0.2c0,0,0.1,0,0.1-0.1s0.1,0.1,0.1,0.2c0,0.1,0.1,0.2,0.1,0.3
			c0,0.1,0.1,0.2,0.1,0.3c0-0.1,0-0.3,0.1-0.4C289.1,22.2,289.2,21.9,289.3,21.7z M273.8,38.3l-0.5,1.4c0.1,0.3,0.2,0.5,0.2,0.8
			c0.1,0.2,0.1,0.4,0.1,0.7c0.1-0.4,0.2-0.8,0.2-1.2c0-0.2,0-0.4,0-0.8S273.8,38.5,273.8,38.3z M286,38c-0.1,0.2-0.1,0.5-0.2,0.7
			c0,0.2-0.1,0.5-0.2,0.7c0.3-0.2,0.5-0.5,0.6-0.8C286.2,38.4,286.1,38.2,286,38z M286,37.7c0-0.2,0.1-0.3,0.1-0.5
			c0.1-0.2,0.1-0.5,0.2-0.7c0-0.2,0.1-0.4,0.1-0.6c0-0.2-0.1-0.4-0.2-0.5l-0.1,0.1l0,0L286,37.7L286,37.7z M286.2,22.6
			c0,0.5,0,1.2,0.1,2.1h-0.1c0,0-0.1,0-0.1,0v-2.1C286.1,22.7,286.1,22.7,286.2,22.6L286.2,22.6z M291.2,22.6
			c-0.3,0.4-0.5,1-0.5,1.5c0,0.5,0.1,0.8,0.3,0.9C291,24.5,291.1,23.7,291.2,22.6L291.2,22.6z"/>
		<path d="M304,21.8c-0.1,0-0.3,0.1-0.4,0.1l-0.4,0.1c-0.1,0-0.1,0-0.2-0.1c-0.1-0.1-0.1-0.2-0.1-0.4c-0.2-0.1-0.4-0.2-0.5-0.3
			c0,0,0.1-0.1,0.1-0.1l0.1-0.1l2.5-1.2c0.1,0.3,0.3,0.6,0.5,1c2.1-1.1,4.5-1.7,6.9-1.9c0.3,0,0.9,0,1.7,0s1.5,0,1.9,0
			c1,0,2,0.1,3,0.3c0-0.1-0.1-0.2-0.1-0.3c-0.1-0.2-0.1-0.3-0.2-0.5c0.1,0.1,0.2,0.1,0.3,0.2l0.3,0.2l0.3,0.1c0.1,0,0.2,0.1,0.3,0
			c0.1,0,0.2-0.1,0.3-0.1c0.1,0.1,0.2,0.2,0.2,0.4c0.1,0.2,0.2,0.4,0.3,0.5c0.1,0,0.1-0.1,0.2-0.1c-0.1-0.1-0.2-0.3-0.2-0.5L321,19
			c0,0.4,0.2,0.8,0.5,1.1c0.2,0.3,0.4,0.5,0.5,0.9c0.1,0.3,0.3,0.6,0.5,0.8c0.2,0.2,0.3,0.4,0.4,0.7c0.1,0.7,0,1.4-0.1,2.1
			c-0.1,0.7-0.3,1.3-0.7,1.9c-0.3,0.4-0.5,0.8-0.6,1.3c-0.1,0.4-0.3,0.8-0.5,1.2c-0.1,0.1-0.3,0.4-0.5,0.7c-0.2,0.2-0.3,0.5-0.5,0.7
			c-0.1,0.1-0.3,0.4-0.5,0.6c-0.2,0.2-0.4,0.4-0.6,0.6c-0.2,0.2-0.4,0.3-0.6,0.5c-0.3,0.2-0.7,0.4-1,0.7l-1.1,0.9
			c-0.4,0.3-0.7,0.6-1,0.8c-0.2,0.1-0.4,0.2-0.5,0.2c-0.1-0.1-0.1-0.1-0.1-0.2l0,0.3c-1,0.4-2,0.9-3,1.5l-0.5,0.1
			c-0.1,0.1-0.3,0.4-0.7,0.8c0.3,0.3,0.2,0.5-0.2,0.7c-0.2,0.1-0.3,0.2-0.4,0.3c-0.1,0.1-0.3,0.3-0.4,0.4l-1.5,0.5
			c-0.1-0.5-0.2-0.8-0.3-1h-0.2h-0.3c-0.1,0-0.2,0-0.3,0c0-0.1,0.1-0.3,0.2-0.4c0.1-0.2,0.2-0.3,0.1-0.3s-0.2-0.2-0.5-0.3
			c0.3-0.2,0.5-0.4,0.8-0.7c-0.3,0-0.8,0.1-1.5,0.2c-0.5-0.7-0.4-1.3,0.4-1.7c-0.3-0.1-0.4-0.2-0.5-0.3l0.8-0.4l1-0.4
			c0.4-0.2,0.6-0.3,0.8-0.4c0-0.1,0-0.2-0.1-0.3c-0.2,0.1-0.5,0.2-0.8,0.3c0-0.1,0.1-0.2,0.1-0.3c1.8-1.2,3.2-2.1,4.2-2.7
			c0.2-0.1,0.3-0.2,0.5-0.2c0.2,0,0.3-0.1,0.5-0.2c0.6-0.4,1.6-1.1,2.9-2.1l0.3-0.3c0.1-0.1,0.2-0.2,0.3-0.3l0.3-0.3l0.3-0.3
			l0.3-0.3c0.1-0.1,0.2-0.2,0.3-0.3l0.2-0.3c0.1-0.1,0.1-0.3,0.2-0.4c0-0.1,0.1-0.3,0.1-0.4c0.1-0.3,0.2-0.6,0.4-0.8
			c0.2-0.3,0.4-0.6,0.5-0.9c0.2-0.3,0.4-0.6,0.6-1c0,0-0.1,0-0.2,0H319c0.1-0.3,0.1-0.6,0.1-0.9c-0.2,0.2-0.3,0.4-0.5,0.4
			c-0.2,0-0.3-0.1-0.4-0.2c-0.1-0.1-0.2-0.2-0.4-0.2c-0.5,0-0.8-0.4-1-1l1.1,0.1c0,0,0.1-0.1,0.1-0.2c0-0.1,0-0.1,0-0.2
			c-0.4-0.2-0.9-0.3-1.3-0.3c-0.4,0-0.7,0-1.1,0.1c-0.4,0.1-0.7,0.1-1.1,0.1c-0.1,0-0.2,0-0.3,0v0.2c0.1,0.1,0.2,0.1,0.3,0.2
			c0.1,0.1,0.1,0.1,0.2,0.1L314,21c-0.4,0-0.7,0-0.9,0.1c-0.2,0-0.4,0.1-0.5,0.2c-0.4,0.5-1,0.6-1.5,0.3c0,0,0,0,0,0
			c-0.2,0-0.4,0-0.6,0.1c-0.2,0.1-0.4,0.1-0.5,0c-0.1-0.2-0.2-0.4-0.1-0.6l-1.2,0.4c-0.1,0-0.2,0.1-0.3,0.2
			c-0.2,0.1-0.3,0.1-0.4,0.1l-0.4-0.2c-0.1-0.1-0.4,0.1-0.8,0.5s-0.6,0.6-0.5,0.7c0.1,0.2,0.3,0.4,0.5,0.5c0.1,0,0.2,0,0.3,0
			c0.2,1.3,0.3,1.9,0.4,2c0,0.3,0,0.5-0.1,0.6c-0.2,0.1-0.5,0.2-0.7,0.2l0.3,0.5c0.1,0.2,0.2,0.3,0.4,0.5l-0.8,0.3l-0.6,0.2
			c0,0.1,0,0.1,0,0.1c0.1,0,0.2,0,0.3,0c0,0.1,0.1,0.1,0,0.2l-0.8,0.3l0-0.5c-0.4,0.1-0.8,0.2-1.3,0.3l-0.4-0.5l-1.3-0.2
			c-0.1,0-0.1-0.1,0-0.3c0-0.1,0-0.3,0-0.4c0-0.1-0.2,0-0.5,0.1c-0.1-0.3-0.2-0.7-0.3-1c-0.2-0.4-0.3-0.7-0.3-1.1
			c0-0.3,0.1-0.6,0.3-0.8c0.2-0.1,0.4-0.2,0.6-0.4l0.5-0.4c0,0.1,0,0.1,0,0.2c0,0.1,0,0.2,0,0.3L304,21.8z M307.7,41.2
			c0,0.1,0.1,0.2,0.1,0.3c0-0.1,0.1-0.2,0.1-0.3s0.1-0.2,0.1-0.2c0.2,0.1,0.4,0.1,0.6,0.1h0.8c0.3,0,0.6,0.1,0.9,0.3l0.5,0.2
			l0.7,0.3c0.2,0.1,0.3,0.2,0.3,0.3c0,0.3,0.1,0.6,0.4,0.8c0.2,0.1,0.4,0.3,0.5,0.5c0.3,0.4,0.4,0.9,0.5,1.4c0,0.3-0.1,0.6-0.2,0.8
			c0.1,0,0.2-0.1,0.3-0.1c0.1,0,0.2-0.1,0.3-0.1c0,0.2,0,0.3,0.1,0.5c0,0.2,0.1,0.3,0.1,0.5c-0.1,0.4-0.2,0.7-0.5,1
			c-0.3,0.3-0.5,0.6-0.6,1c-0.1,0.1-0.1,0.2-0.3,0.3c-0.2,0.1-0.4,0.3-0.6,0.4l-0.5,0.3c-0.2,0.1-0.5,0.3-0.7,0.5
			c-0.3,0.2-0.5,0.4-0.9,0.6c-0.3,0.1-0.5,0.2-0.8,0.2h-0.1c-0.2,0-0.4,0-0.6,0l-0.7,0.2l-0.6,0.2c-0.2,0-0.3,0-0.3,0l-0.6-0.3
			c-0.3-0.1-0.5-0.3-0.8-0.5c-0.2-0.1-0.3-0.3-0.4-0.5c-0.2-0.3-0.4-0.5-0.6-0.7c-0.3-0.3-0.4-0.6-0.5-1c-0.1-0.3-0.1-0.5-0.2-0.8
			c-0.1-0.2-0.2-0.5-0.2-0.8c0-0.1,0-0.3,0-0.4c0-0.6,0.3-1.2,0.7-1.7c0.4-0.5,1-0.8,1.6-1c0.2,0,0.3-0.1,0.4-0.3
			c0.1-0.2,0.3-0.4,0.4-0.6c0.1-0.3,0.2-0.4,0.3-0.4c-0.2,0-0.3-0.1-0.5-0.1c-0.1,0-0.3,0-0.4-0.1c0,0.2,0,0.4-0.1,0.4
			c-0.1,0-0.3,0-0.4-0.1c-0.1,0-0.2-0.1-0.4-0.1c0.2-0.1,0.4-0.3,0.8-0.5l0.8-0.5c0,0,0,0.1,0,0.1c0,0.1,0,0.1,0,0.2
			c0,0.1-0.1,0.1-0.1,0.2c0,0.1,0.1,0.1,0.1,0.2c0.3-0.2,0.6-0.4,0.9-0.5C307.3,41.2,307.5,41.2,307.7,41.2L307.7,41.2z M312.5,30.5
			l-1.8,1.3c-0.8,0.6-1.3,1-1.7,1.3c0.8-0.2,1.7-0.6,2.4-1c0.1-0.1,0.3-0.2,0.4-0.4c0.2-0.2,0.3-0.4,0.4-0.5
			c0.1-0.2,0.2-0.3,0.4-0.5c0,0-0.1,0-0.1-0.1S312.5,30.5,312.5,30.5L312.5,30.5z M317.3,29.8L314,32l-3.1,2.1c0,0,0.1,0,0.2,0.2
			l3.2-2.2c1.4-0.9,2.5-1.6,3.1-2.1C317.4,29.9,317.4,29.9,317.3,29.8L317.3,29.8z M311.8,17.2h2.6c0,0.1-0.1,0.1-0.1,0.2h-2.5V17.2
			z M315.6,18c0.3,0.2,0.7,0.2,1,0.2c0.3,0,0.6,0,0.9,0.1c-0.6,0.1-1,0.1-1.1,0.1c-0.5,0-1-0.2-1.4-0.6c-0.2-0.2-0.4-0.3-0.6-0.4
			c0.2,0,0.3,0,0.5,0c0.1,0,0.3,0,0.5,0C315.2,17.6,315.3,17.9,315.6,18L315.6,18z M315.2,17.3h0.9c0.4,0,0.6,0,0.8,0v0.3
			C316.3,17.7,315.7,17.6,315.2,17.3L315.2,17.3z M319.6,30.1c-0.9,0.7-1.5,1.2-2,1.6l0.1,0.1c0.1-0.1,0.8-0.6,2-1.6L319.6,30.1z
			 M321.1,27.9c-0.4,0.4-0.9,1.1-1.7,2C320.2,29.8,320.8,29.1,321.1,27.9L321.1,27.9z"/>
		<path d="M104.3,0.7c-0.6-0.4-1.2-0.6-1.9-0.7c-0.6-0.1-1.3,0-1.9,0.2c-0.1,0.1-0.1,0.2-0.2,0.3c-0.1,0.2-0.2,0.4-0.2,0.6
			c-0.2,0.2-0.4,0.4-0.6,0.6c-0.2,0.3-0.1,0.7,0.2,0.9c-0.1,0.2-0.2,0.3-0.3,0.5c-0.2,0.3-0.3,0.7-0.3,1.1c-0.3,0.4-0.6,0.8-0.9,1.2
			c-0.4,0.6-0.9,1.2-1.3,1.7c-0.4,0.4-0.7,0.9-1,1.4c0,0.1-0.1,0.1-0.1,0.2c-0.4,0.6-0.9,1.1-1.5,1.4c-0.2,0.2-0.3,0.2-0.3,0.1
			c0-0.1,0-0.1,0-0.2c-0.3,0.2-0.5,0.4-0.6,0.7c-0.1,0.3-0.5,0.6-0.8,0.6c-0.1,0.1-0.1,0.1-0.1,0.2c0,0.1,0.1,0.1,0.5,0.1
			s0.3-0.1,0.3-0.1c-0.1,0.1-0.1,0.3,0.1,0.5s0.3,0.3,0.3,0.4c0.1,0,0.2,0,0.3-0.1c0.1-0.1,0.3-0.1,0.4-0.2c0.2-0.1,0.3-0.1,0.4,0
			s0.1,0.1,0,0.2c0,0.1,0,0.2,0,0.3c0,0.1,0,0.2,0,0.2c0.2,0,0.5,0,0.7-0.2c0.3-0.2,0.3-0.1,0.3,0.2c0.5-0.2,0.9-0.6,1.1-1
			c0.1-0.3,0.2-0.6,0.2-0.9c-0.6,0.3-0.8,0.3-0.7,0c0.1-0.1,0.2-0.2,0.3-0.2c0.2-0.1,0.2-0.2,0.1-0.4c0.2-0.5,0.4-0.9,0.6-1.1
			c0.1-0.2,0.2-0.4,0.3-0.5C97.8,8.8,98,8.6,98,8.3c0-0.2-0.1-0.1-0.3,0.1c-0.2,0.2-0.3,0.4-0.4,0.6c-0.2,0.3-0.3,0.5-0.4,0.5
			c0.4-0.4,0.5-0.6,0.2-0.6s-0.4,0.3-0.8,1l-0.5,0.9c0.1-0.2,0-0.3-0.2-0.2c-0.1,0-0.2,0-0.2,0s0-0.1,0-0.2s0-0.2,0-0.4
			c-0.1-0.2,0-0.3,0.1-0.4c0,0,0,0,0,0c0.2-0.2,0.7-0.9,1.6-1.9s1.6-2,2.1-2.6l1-1.3c0.2,0,0.3,0,0.5-0.1c0.2-0.1,0.3-0.1,0.3-0.2
			l-0.1,0.2c0,0.1,0.1,0.1,0.3-0.1l-0.1,0.1c0.1,0.3,0.3,0.4,0.6,0.2l0.3-0.3c0.1-0.1,0.3-0.2,0.4-0.3c0.2-0.1,0.3-0.1,0.5-0.2
			c0.2,0,0.5-0.3,0.7-0.7c0.2-0.3,0.4-0.5,0.6-0.7c0-0.1,0.1-0.3,0.2-0.3C104.3,1.2,104.3,1,104.3,0.7z"/>
		<path d="M100.9,4.3c-0.1-0.1-0.2-0.2-0.3-0.2c0,0-0.3,0.2-0.6,0.8c-0.2,0.3-0.5,0.6-0.7,1c-0.1,0.2-0.2,0.3-0.2,0.5
			c0.2-0.1,0.4-0.4,0.8-0.9c0.1-0.2,0.2-0.2,0.3-0.2c-0.1,0.2-0.3,0.4-0.4,0.6c-0.2,0.3-0.2,0.6-0.2,0.9c0.5-0.8,1-1.5,1.6-2.2
			C101.1,4.5,101,4.4,100.9,4.3z"/>
		<path d="M111.5,12c0.1-0.4,0-0.7-0.1-1.1c-0.1-0.4-0.2-0.7-0.2-1.1c0-0.3-0.1-0.7-0.3-0.9c0-0.4-0.1-0.8-0.3-1.2
			c-0.2-0.2-0.2-0.5-0.2-0.8c0-0.2,0-0.4-0.2-0.5c0.1,1.4,0.3,2.7,0.7,4C111.2,11.1,111.4,11.7,111.5,12z"/>
		<path d="M108.8,7.3c0,0.3,0,0.7,0.1,1c0.1,0.4,0.1,0.7,0.2,0.9c0.6,2.4,1,3.9,1,4.3s0.1,0.9,0.2,1.4c0,0.1,0,0.3,0,0.4
			s0.3,0.1,0.4,0.2c0.5,0.1,0.9,0.2,1.4,0.3h0.4c0.7,0.1,1.5-0.7,2.2-1.5c0.1-0.3,0.2-0.5,0.4-0.8c0-0.1,0-0.2-0.2-0.3
			c0.2-0.3,0.3-0.7,0.4-1.1c0.1-0.4,0.3-0.7,0.5-1c0.1,0,0.1,0.2,0.1,0.3s0,0.1-0.1,0.1c0,0,0,0.1-0.1,0.1c-0.1,0.1-0.2,0.2-0.3,0.4
			c-0.1,0.2-0.1,0.4,0.1,0.5c0.2,0.2,0.3,0.1,0.3-0.2c0.1-0.2,0.2-0.5,0.3-0.8c0.1-0.3,0.1-0.5,0-0.5c-0.1,0.1-0.1,0.1-0.1,0
			s-0.1-0.2-0.2-0.1c0.1-0.2,0.1-0.4,0.1-0.6c0-0.2,0-0.4,0.2-0.5c0.1,0.3,0.3,0.2,0.6-0.4c0.2-0.4,0.4-0.9,0.7-1.4
			c0.3-0.6,0.6-1.3,0.9-2c-0.3,0.4-0.6,0.6-0.8,0.6s-0.1-0.1,0-0.5c0.4-0.4,0.7-0.9,0.8-1.5V4.2c0-0.2,0.2-0.2,0.4-0.2l0.3-0.8
			l-0.1,0.2c-0.1,0.2-0.1,0.3-0.1,0.5c0,0.2,0.1,0.3,0.3,0.1l0.5-0.7c0.2-0.3,0.1-0.5-0.3-0.4c-0.1-0.1-0.1-0.2,0-0.2s0,0-0.1-0.1
			s-0.1,0-0.2-0.1s-0.2-0.1-0.2,0.2s-0.2,0.2-0.3,0.1c-0.1-0.2-0.1-0.3-0.3-0.4c-0.1-0.1-0.2-0.1-0.4,0.1l-0.1-0.2
			c-0.1,0.1-0.2,0.1-0.3,0.1c-0.3-0.1-0.4,0-0.5,0.3c-0.2,0.7-0.3,0.8-0.5,0.4c-0.2,0.3-0.4,1-0.9,1.8c-0.4,0.7-0.6,1.3-0.9,2.1
			c0.2-0.2,0.3-0.4,0.5-0.7h0.1c0,0.6-0.2,1.1-0.4,1.6c-0.2,0.5-0.4,0.9-0.5,1.4c-0.1,0.4-0.3,0.9-0.6,1.3c0,0.3,0,0.4-0.2,0.4
			s-0.1-0.1-0.1-0.2c-0.1,0-0.2,0.1-0.2,0.3c0,0,0,0.1,0,0.1c0.1,0.1,0.1,0.1,0.2,0.1c0,0.1-0.1,0.1-0.1,0.2c0,0.1-0.1,0.2-0.1,0.2
			c0-0.1,0-0.2-0.1-0.3c-0.1,0.1-0.1,0.2-0.3,0.3c-0.1,0.1-0.2,0.2-0.2,0.4c0,0.1,0,0.1,0,0c0-0.1,0-0.1-0.1-0.2c0,0-0.1,0-0.2,0.1
			c0.1-0.1,0.1-0.2,0.1-0.3c0-0.2-0.1-0.3-0.3-0.3c0-0.3-0.1-0.4-0.2-0.1s-0.1,0.3,0.1,0.4v0.8c-0.1-0.2-0.1-0.4-0.1-0.6
			c-0.1-0.3-0.2-0.3-0.3,0c-0.1,0.1-0.2,0.3-0.2,0.4c-0.1,0.3-0.2,0.2-0.2-0.2c-0.1-0.7-0.4-2-0.9-3.8s-0.7-3.2-0.9-4.2
			c0,0.2,0,0.3,0,0.5c0,0.3,0,0.6,0.1,0.9c0.1,0.6,0.2,1.1,0.2,1.5s0.3,1.2,0.6,2.5s0.5,2.2,0.6,2.8c0.1,0.2,0.1,0.4,0.1,0.6
			c0,0.2-0.1,0.5-0.2,0.7c0,0.3,0,0.4-0.1,0.4s-0.1-0.3-0.2-0.8c0-0.2,0-0.4-0.1-0.6c0-0.1-0.1-0.2-0.2-0.2c0-0.3,0-0.5-0.1-0.8
			c-0.2-1.2-0.5-2.4-0.8-3.6c-0.1,0.1-0.2,0.1-0.3,0c-0.1-0.2-0.1-0.4-0.1-0.6c0-0.2,0-0.4-0.1-0.6c0-0.1-0.1-0.4-0.2-0.9
			c-0.1-0.4-0.2-0.8-0.3-1.3c0.2,0.3,0.3,0.7,0.4,1.1c0,0.2,0.1,0.4,0.1,0.5s0,0.3,0.1,0.4s0.1,0.2,0.1,0.4s0.1,0.2,0.2,0.2
			c-0.3-1.5-0.7-2.9-1.1-4.3c0,0.6,0,1.3,0.1,1.9C108.4,5.7,108.6,6.5,108.8,7.3z M115.7,8.8c0.1-0.3,0.2-0.5,0.3-0.8
			c-0.1,0.3-0.2,0.7-0.3,1c-0.2,0.5-0.3,0.7-0.4,0.8C115.4,9.5,115.5,9.1,115.7,8.8z M114.5,11.9c0.2-0.4,0.3-0.7,0.3-0.9
			c0.1-0.2,0.2-0.4,0.3-0.6c-0.3,0.7-0.6,1.6-0.9,2.5C114.3,12.5,114.4,12.2,114.5,11.9z"/>
		<path d="M109,10l0.1,0.1c0.1,0.1,0.1,0.3,0.1,0.3s-0.1,0-0.1-0.1C109,10.2,109,10.1,109,10z"/>
		<path d="M113.9,13.5c-0.1,0.1-0.1,0.2-0.2,0.4c0,0.1-0.1,0.2,0,0.2S113.9,13.8,113.9,13.5z"/>
		<path d="M114.4,8.4L114.4,8.4c0,0.3-0.1,0.4-0.2,0.4s-0.1-0.1,0-0.2C114.2,8.6,114.3,8.5,114.4,8.4z"/>
		<path d="M115.7,5.8c-0.1,0.2-0.2,0.4-0.3,0.7C115.5,6.3,115.6,6.1,115.7,5.8z"/>
		<path d="M116.7,6.6l-0.1,0.2c-0.1,0.1-0.1,0.3-0.2,0.5c0,0,0.1-0.2,0.2-0.3C116.6,6.8,116.7,6.7,116.7,6.6z"/>
		<path d="M118,4.2l-0.2,0.3l0,0C117.9,4.4,118,4.3,118,4.2z"/>
	</g>
</g>
<path d="M33.7,24.3c0.1-0.3,0-0.6-0.1-0.8c-0.1-0.3-0.1-0.6-0.1-0.9c0-0.3-0.1-0.5-0.2-0.7c0-0.3-0.1-0.7-0.2-0.9
	c-0.1-0.2-0.2-0.4-0.2-0.6c0-0.2,0-0.3-0.2-0.4c0.1,1,0.3,2.1,0.6,3.1C33.5,23.7,33.6,24.1,33.7,24.3z"/>
<path d="M31.7,20.7c0,0.3,0,0.5,0.1,0.8c0.1,0.3,0.1,0.6,0.1,0.7c0.5,1.9,0.8,3,0.8,3.3c0,0.3,0.1,0.7,0.1,1.1c0,0.1,0,0.2,0,0.3
	S33,27,33.1,27c0.3,0.1,0.7,0.2,1.1,0.2h0.3c0.6,0,1.2-0.5,1.7-1.1c0.1-0.2,0.2-0.4,0.3-0.6c0-0.1,0-0.2-0.2-0.2
	c0.1-0.3,0.2-0.5,0.3-0.8c0.1-0.3,0.2-0.5,0.4-0.8c0.1,0,0.1,0.1,0.1,0.3S37,24,37,24c0,0,0,0-0.1,0c-0.1,0.1-0.2,0.2-0.2,0.3
	c-0.1,0.1-0.1,0.3,0.1,0.4c0.1,0.1,0.2,0.1,0.3-0.1c0.1-0.2,0.2-0.4,0.2-0.6c0.1-0.2,0.1-0.4,0-0.4c-0.1,0.1-0.1,0.1-0.1,0
	c0-0.1-0.1-0.1-0.2-0.1c0-0.2,0.1-0.3,0.1-0.5c0-0.1,0-0.3,0.1-0.4c0.1,0.3,0.2,0.1,0.5-0.3c0.2-0.3,0.3-0.7,0.6-1.1
	c0.3-0.5,0.5-1,0.7-1.5c-0.2,0.3-0.4,0.5-0.6,0.5s-0.1-0.1,0-0.4c0.3-0.3,0.5-0.7,0.6-1.2v-0.4c0-0.1,0.1-0.2,0.3-0.1l0.3-0.6
	l-0.1,0.2c-0.1,0.1-0.1,0.2-0.1,0.4c0,0.2,0.1,0.2,0.2,0.1l0.4-0.6c0.1-0.2,0.1-0.3-0.2-0.3c-0.1-0.1-0.1-0.1,0-0.2s0,0-0.1-0.1
	s-0.1,0-0.1-0.1c-0.1-0.1-0.1-0.1-0.2,0.1s-0.2,0.2-0.2,0.1c0-0.1-0.1-0.2-0.2-0.3c-0.1-0.1-0.2-0.1-0.3,0l-0.1-0.2
	c-0.1,0.1-0.1,0.1-0.2,0.1c-0.2-0.1-0.3,0-0.4,0.3c-0.1,0.5-0.2,0.6-0.4,0.3c-0.1,0.3-0.3,0.8-0.7,1.4c-0.3,0.5-0.5,1-0.7,1.6
	c0.1-0.2,0.2-0.3,0.4-0.5h0.1c0,0.4-0.1,0.9-0.3,1.3c-0.2,0.4-0.3,0.7-0.4,1.1c-0.1,0.3-0.3,0.7-0.4,1c0,0.2,0,0.3-0.1,0.3
	c-0.1,0-0.1,0-0.1-0.2c-0.1,0-0.2,0.1-0.2,0.2c0,0,0,0.1,0,0.1c0,0.1,0.1,0.1,0.1,0.1c0,0,0,0.1-0.1,0.1C35.1,24,35,24,35,24
	c0-0.1,0-0.1,0-0.2c0,0.1-0.1,0.2-0.2,0.3c-0.1,0.1-0.2,0.2-0.2,0.3c0,0.1,0,0.1,0,0c0-0.1,0-0.1-0.1-0.1c0,0-0.1,0-0.1,0.1
	c0.1-0.1,0.1-0.2,0.1-0.2c0-0.2-0.1-0.2-0.2-0.2c0-0.3-0.1-0.3-0.1-0.1c-0.1,0.2,0,0.2,0.1,0.3v0.6c0-0.2-0.1-0.3-0.1-0.5
	c0-0.3-0.1-0.2-0.2,0c-0.1,0.1-0.1,0.2-0.2,0.3c-0.1,0.2-0.2,0.2-0.2-0.1c-0.1-0.5-0.3-1.5-0.7-2.9c-0.3-1.4-0.6-2.5-0.7-3.2
	c0,0.1,0,0.2,0,0.4c0,0.2,0,0.5,0.1,0.7c0.1,0.5,0.1,0.9,0.2,1.2s0.2,0.9,0.4,1.9c0.2,1,0.4,1.7,0.5,2.2c0.1,0.1,0.1,0.3,0.1,0.4
	c0,0.2,0,0.4-0.1,0.5c0,0.2,0,0.3-0.1,0.3c-0.1,0-0.1-0.2-0.1-0.6c0-0.2,0-0.3-0.1-0.5c0-0.1-0.1-0.2-0.1-0.1c0-0.2,0-0.4-0.1-0.6
	c-0.1-0.9-0.4-1.9-0.7-2.8c-0.1,0.1-0.2,0.1-0.2,0c0-0.2-0.1-0.3-0.1-0.5c0-0.2,0-0.3-0.1-0.5c0-0.1-0.1-0.3-0.2-0.7
	c-0.1-0.3-0.2-0.6-0.3-1c0.1,0.3,0.3,0.5,0.3,0.8c0,0.2,0,0.3,0.1,0.4s0,0.2,0.1,0.3c0.1,0.1,0,0.2,0.1,0.3c0,0.1,0.1,0.2,0.1,0.1
	c-0.2-1.1-0.5-2.2-0.9-3.3c0,0.5,0,1,0.1,1.5C31.4,19.4,31.5,20.1,31.7,20.7z M36.9,21.9c0.1-0.2,0.2-0.4,0.2-0.6
	c-0.1,0.3-0.1,0.5-0.2,0.8c-0.2,0.4-0.2,0.6-0.3,0.6C36.7,22.4,36.8,22.1,36.9,21.9z M36,24.2c0.1-0.3,0.2-0.6,0.2-0.7
	c0-0.2,0.1-0.3,0.2-0.4c-0.2,0.6-0.5,1.2-0.7,1.9C35.8,24.8,35.9,24.5,36,24.2z"/>
</svg>
