<?xml version="1.0" encoding="utf-8"?>
<!-- Generator: Adobe Illustrator 22.0.1, SVG Export Plug-In . SVG Version: 6.00 Build 0)  -->
<svg version="1.1" id="Layer_1" xmlns="http://www.w3.org/2000/svg" xmlns:xlink="http://www.w3.org/1999/xlink" x="0px" y="0px"
	 viewBox="0 0 221.9 106.7" style="enable-background:new 0 0 221.9 106.7;" xml:space="preserve">
<style type="text/css">
	.st0{fill:#231F20;}
</style>
<title>Asset 1</title>
<g id="Layer_2_1_">
	<g id="Layer_1-2">
		<path class="st0" d="M0.5,18.9c0.3,0.4,0.4,0.8,0.4,1.2v0.7c0,0.3-0.1,0.6-0.1,0.8c-0.1,0-0.1,0-0.2,0c0-0.3-0.1-0.6-0.1-0.9
			c-0.1,0.1-0.2,0.2-0.3,0.3L0,21.4c0.1-0.3,0.2-0.7,0.2-1C0.1,19.8,0.3,19.3,0.5,18.9z M5.4,45.9c0,0.8,0,2.2-0.2,4.3
			c0,0.2,0,0.4,0.1,0.6c0,0.2,0,0.4,0,0.4c-0.1,0.1-0.2,0.3-0.4,0.3l-0.2-0.4l-0.2-0.5c0,0.2-0.1,0.4-0.1,0.7c0,0.1,0,0.3,0,0.5
			c0,0-0.1,0-0.2,0c0,0-0.2-0.3-0.6-1c-0.1,0.1-0.2,0.2-0.3,0.3C3.2,50.1,3,49,3,48c0-0.5,0-0.9,0.1-1.4c0-0.3,0-0.6,0-0.9
			c0-0.5,0-0.9-0.1-1.4c0-0.4,0-0.9,0-1.3v-2.8c0-0.3,0-0.6,0-1c0-0.2-0.1-0.5-0.2-0.7v13c0,0-0.1-0.1-0.2-0.1
			c-0.1,0-0.2-0.1-0.3-0.1c0,0.1,0,0.2,0,0.3c0,0.1,0,0.2,0,0.3c-0.2-0.2-0.5-0.4-0.8-0.6c0.1-0.7,0.1-1.2,0.1-1.5l-0.3,0.2
			l-0.1,0.1c-0.1-0.9-0.1-1.4-0.1-1.5c0-0.6,0-1.2,0.1-1.8c0.1-0.8,0.1-1.2,0.1-1.3c0-0.1,0-0.3-0.1-0.4c-0.1-0.1-0.1-0.2-0.1-0.4
			c0-0.3,0.1-0.7,0.1-1c0-0.4,0.1-0.8,0.2-1.3C1.6,42.3,1.8,42,2,41.8l-0.3-0.1H1.5c0-0.2-0.1-0.3-0.2-0.5c-0.1-0.3-0.1-0.4,0.1-0.5
			s0-0.2-0.1-0.3c-0.4-0.3-0.4-0.8-0.2-1.1c0,0,0,0,0,0l0.1-0.1c0.1-0.3,0.1-0.6,0.1-0.8c-0.2,0-0.4-0.1-0.4-0.2c0-0.1,0-0.2,0-0.3
			c0.1-0.1,0.1-0.2,0.1-0.3c0-0.5-0.1-0.7-0.4-0.7L1,36.1c0-0.3,0-0.6-0.1-0.9c-0.2-0.2-0.4-0.4-0.6-0.5c0.1,0,0.1-0.3,0.2-0.7
			c0-0.4,0.4-0.6,0.7-0.6c0,0,0,0,0,0h0.1l-0.6-1c0.5-0.4,0.5-0.7,0.2-1.1c0,0.3,0,0.5,0,0.8c-0.1-0.2-0.1-0.4-0.1-0.5
			c-0.1,0.1-0.2,0.2-0.3,0.3c0-0.2-0.1-0.3-0.1-0.5c-0.1-0.3-0.1-0.4-0.1-0.5c0.1,0.1,0.3,0.1,0.5-0.2s0.4-0.2,0.6,0.2
			c-0.1-1.4-0.1-3-0.1-4.6c0-2,0.1-4.7,0.3-8c0.1,0,0.1,0,0.2,0c0,0.1,0.1,0.5,0.2,1c0.1,0.5,0.2,1,0.2,1.3c0.1-0.2,0.1-0.4,0.1-0.6
			c0-0.3,0-0.6,0.1-1c0.2,0.5,0.3,1,0.3,1.5c0,0.4-0.1,0.8-0.1,1.3c-0.1,0.4-0.1,0.8-0.1,1.3c0,0.1,0,0.3,0,0.4v4.5
			c0.1,1.8,0.3,3.2,0.3,4.1h0.4v-3.1h0.2c0.1,1.2,0.1,1.9,0.2,2.3h0.2V19.9h0.7v6.7h0.2c0-0.4,0.1-1.8,0.2-4.1h0.2
			c0,0.5,0.1,3.5,0.3,9c2.3-0.4,4-0.6,4.9-0.8c-0.2,0.2-0.3,0.4-0.5,0.5l2.3-0.4c0,0,0-0.1,0-0.1l-1-0.1c0.4,0,0.9-0.1,1.3-0.2
			c0.6-0.1,1-0.2,1.4-0.2c0.2-1.6,0.3-3.3,0.3-5.1v-0.4c0.4-0.3,0.6-0.9,0.6-1.9c0.1-1.9,0.8-3.7,2.1-5.1c0.1,0.2,0.2,0.5,0.4,1
			s0.4,0.9,0.5,1.2c0-0.4,0.1-0.9,0.5-1.1c0.4-0.4,0.6-0.6,0.6-0.7c0.3,0.7,0.6,1.1,0.7,1.4c0.1-0.1,0.1-0.1,0.2-0.2
			c0.5,0.7,0.8,1.6,0.8,2.5c0,0.5,0,1-0.2,1.5c-0.2,0.5-0.3,1-0.3,1.5c0,0.2,0,0.5,0,0.7c0,0.2-0.1,0.3-0.1,0.5
			c-0.1,0.1-0.1,0.3-0.1,0.4c0,0.3-0.2,1.5-0.5,3.8l-0.3-0.1c-0.1,1-0.1,1.6-0.1,1.7c0,0.2,0.1,0.3,0.1,0.5c0.1,0.2,0.1,0.4,0.2,0.5
			c0,0.2,0,0.3,0,0.5v0.6c0,0.1,0,0.2,0,0.3v0.3c0,0.5,0,1.1,0.1,1.6c0-0.3,0-0.5,0.1-0.8c0.1-0.4,0.1-0.7,0.1-0.9l0.1,0
			c0,0.7,0,1.1,0,1.3c0,0.6,0.1,1.3,0.3,1.8c0-0.3,0.1-0.6,0.1-1c0,0.1,0,0.2,0.1,0.3c0.1,0.1,0.1,0.3,0.1,0.5
			c0,0.1-0.1,0.3-0.4,0.3c-0.1,0-0.1,0.3-0.2,0.7c0,0.3-0.1,0.5-0.2,0.8c-0.1-0.3-0.1-0.5-0.2-0.5v1.2h-0.1v-0.3h-0.2v2
			c0,1.6,0.1,3.2,0.4,4.8c0.3-0.3,0.5-0.4,0.6-0.3c0.2,0.2,0.4,0.5,0.5,0.8c0.1-0.3,0.2-0.4,0.3-0.5l0.5,1.3c0,0-0.1,0.1-0.1,0.1
			c0,0-0.1,0-0.1,0c0-0.1,0-0.2-0.1-0.3l-0.1-0.3h-0.1v2.8h-0.6c-0.2,0.5-0.4,0.5-0.7,0.2l-0.1-0.2c-0.1,0.3-0.2,0.6-0.4,0.9
			c-0.2-0.2-0.4-0.5-0.5-0.7c-0.1,0.1-0.2,0.2-0.4,0.3c0-0.1-0.1-0.1-0.1-0.2c0-0.1-0.1-0.2-0.1-0.3l-0.1-0.3
			c-0.2,0.6-0.3,0.9-0.3,1.1s-0.3,0.1-0.6,0.1l-0.7,0.1c-0.4-1.4-0.7-2.1-0.7-2.2v-0.2c-0.2-0.3-0.3-0.6-0.3-1V46
			c-0.1-0.6-0.3-1.1-0.5-1.7c-0.3-0.6-0.4-1.2-0.4-1.8c0-0.3,0-0.5,0.1-0.8c0-0.1,0-0.2,0-0.3c0-0.1-0.1-0.2-0.1-0.3v-0.7
			c-0.3-0.1-0.4-0.8-0.4-2.2c-0.1-0.6,0.1-1.2,0.3-1.7c0.1,0.5,0.2,1.1,0.4,1.9s0.3,1.4,0.4,1.6c0.2-0.5,0.3-1.1,0.2-1.7
			c0.1-0.8,0-1.6-0.3-2.4v0.3c0,0.1,0,0.2,0,0.3c-0.3-0.2-0.7-0.4-1-0.5L12,36.3v0.2c0.1,0.1,0.3,0.1,0.4,0.1l-0.2,0.2
			C11.1,36.9,10,37,9,37.1L8.8,37c0.3-0.1,0.7-0.3,1.1-0.4c-0.2-0.1-0.4-0.2-0.6-0.2c-0.2,0-0.4,0.1-0.6,0.1
			c-0.2,0.1-0.4,0.1-0.6,0.1c-0.2,0-0.4,0-0.6-0.2c0,0.1-0.1,0.2-0.1,0.3l0,0c-0.2,0-0.4,0.1-0.8,0.1L5.9,37c0-0.1-0.1-0.3-0.1-0.4
			c-0.1,0-0.1,0.2-0.2,0.4s-0.3,0.3-0.5,0.2c-0.2,0.6-0.3,1-0.3,1c0.1,0.6,0.2,1.2,0.3,1.8v-1h0.2v5.7h0.3v-1.2
			c0.3,0.5,0.4,1.1,0.2,1.6c0,0.2,0,0.5,0.1,0.7c0.3,0.3,0.4,0.6,0.5,1c0,0.4-0.2,0.7-0.4,1C6.2,47.8,6.4,48,6.4,48
			c0,0.2-0.1,0.3-0.2,0.4C6.1,48.6,6,48.8,6,49v0.8H5.7v-3.9H5.4z M1,46.7c-0.1,0.4-0.2,0.9-0.3,1.5s-0.2,1-0.3,1.2c0,0,0.1,0,0.1,0
			h0.1c0-0.2,0-0.3,0.1-0.5L0.9,49c0,0.2,0,0.3,0,0.5c-0.1,0.2-0.1,0.3-0.2,0.5c-0.3-0.1-0.4-0.5-0.4-1c0.1-0.8,0.2-1.6,0.6-2.4
			L1,46.7z M0.6,23.9c0.1,0.6,0.1,1.5,0.2,2.5l-0.2,0c-0.1-0.2-0.1-0.4-0.2-0.6c-0.1-0.3-0.1-0.6-0.1-0.9
			C0.3,24.5,0.4,24.2,0.6,23.9z M1,42.5v2.3c-0.2,0-0.4-0.3-0.4-0.5C0.7,43.7,0.9,43.1,1,42.5z M4.4,28.3l-0.2,0
			c0,0.2,0.1,0.5,0.1,1s0.1,0.8,0.1,1c0.1,0,0.2-0.1,0.3,0c0-0.2-0.1-0.4-0.1-0.6S4.6,29.2,4.6,29S4.5,28.5,4.4,28.3z M4.8,20.2H5
			c-0.1,0.6-0.2,1.3-0.3,2c0,0-0.1,0-0.2,0H4.4L4.8,20.2z M5.4,37.5c0.2,0,0.4,0,0.6-0.1l0.6-0.1c0.1,0,0.3-0.1,0.4-0.2
			c0.1-0.1,0.3-0.2,0.3-0.3c0.4,0,0.9,0.1,1.3,0.2c-0.9,0.4-1.9,0.6-2.8,0.7H5.5C5.5,37.6,5.5,37.5,5.4,37.5z M16.5,28.2V31
			c0,0,0.1,0,0.1,0v-2.8L16.5,28.2z M17.1,22.5c0,0.3-0.1,0.9-0.2,1.6s-0.2,1.4-0.3,1.8l0.2,0c0.1-1.1,0.3-2.2,0.4-3.4L17.1,22.5z
			 M19.2,40.5c0.1,0.6,0.2,1.7,0.4,3.2c-0.4-0.1-0.6-0.2-0.6-0.3c0-0.2,0-0.4,0-0.6c0-0.7,0-1.4-0.1-2.2H19
			C19,40.5,19.1,40.5,19.2,40.5L19.2,40.5z"/>
		<path class="st0" d="M29.1,40c0.1,0.4,0.1,0.8,0.1,1.2c0,0.7,0.1,1,0.2,1.1c0.4,0.1,0.8-0.1,1.1-0.5c0.3-0.1,0.7-0.3,1-0.5
			c0.5-0.4,1.1-0.6,1.8-0.5C33,41,32.9,41.1,33,41.1h0.3c0.1,0,0.2,0,0.3,0c0,0,0,0.1,0,0.2l-0.4,0.3h0.1c0.9-0.2,1.2-0.1,1.1,0.3
			c0,0,0,0.1,0,0.2c0.4,0,0.6,0,0.7,0.2c0.1,0.3,0.1,0.5,0.1,0.8c-0.3,0.3-0.4,0.4-0.2,0.4c0.2,0,0.4,0,0.6-0.1
			c0.2-0.1,0.4-0.1,0.4,0c0,0.1,0,0.3-0.1,0.3c-0.1,0.1-0.1,0.2,0,0.2h0.5c0,0,0,0.2-0.2,0.3c-0.3,0.2-0.6,0.3-0.9,0.4
			c-0.4,0.2-1.1,0.4-2.1,0.8c-0.3,0.5-0.7,0.8-1.2,1c-0.5,0.2-0.9,0.5-1.2,0.8c-0.3,0.4-0.6,0.7-1,1c-0.3,0.3-0.7,0.6-1,1
			c-0.3,0.3-0.7,0.6-1.1,0.7c-0.5,0.2-0.9,0.4-1.2,0.8c-0.2,0.3-0.6,0.5-0.9,0.5c-0.4,0-0.7-0.3-0.9-0.8c-0.9,0-1-0.5-0.5-1.3
			L23.7,49c-0.8-0.3-1.1-0.5-0.8-0.8c0-0.2,0.1-0.5,0.1-0.7c0.1-0.4,0-0.6-0.2-0.6c0-0.2,0.3-0.6,1-1.2s0.8-1.1,0.5-1.7v-1
			c0-0.6-0.1-1.2-0.3-1.7c-0.1-0.3-0.2-0.7-0.2-1c0-0.4,0.1-0.8,0.3-1.2c0.2-0.6,0.3-1.2,0.3-1.8c-0.5-0.3-0.6-0.5-0.5-0.7
			s0.4-0.2,0.6-0.1c0.2,0.5,0.2,1,0.2,1.5c0,0.4,0.1,0.9,0.1,1.3v-0.4c0-0.4,0-1,0-2v-0.3c-0.1-0.7,0-1.4,0.2-2.1
			c0.1-0.6,0-1.2-0.3-1.8c0,0.1,0,0.2,0.1,0.3c0.1,0.4,0.1,0.8,0,1.2c0,0.6-0.2,0.7-0.5,0.4c0-0.2,0-0.5,0-0.8
			c0-0.6-0.1-1.3-0.1-1.9c-0.1-1.2-0.2-2-0.2-2.4c0-0.6,0-1.2,0.1-1.8c0.1-0.5,0.1-1.1-0.1-1.6c0.1-0.3,0.3-0.3,0.4,0.1
			c0.4-0.6,0.6-1.4,0.6-2.2c0-0.4,0-0.8-0.1-1.2c0-0.5,0-1-0.1-1.5c-0.1-0.5,0-1,0.2-1.5c0.3,1.3,0.5,1.5,0.4,0.6
			c-0.2-0.4-0.3-0.5-0.2-0.5s0.2,0.1,0.4,0.3S26,21,26,21.9c0,0.7,0.1,1.4,0.2,2.1c0.1,1.4,0.2,2.9,0.2,4.3v1.6
			c0,1.9-0.1,3.8-0.1,5.9c0,0.6,0.1,2,0.4,4.3c-0.1,0.6-0.2,1.2-0.1,1.8v0.8c0.1,1,0.1,1.7,0.1,2l0.3-16c0.2,0.5,0.3,1.1,0.3,1.6
			v1.5c0-1.9,0-3.5,0-4.7c0-0.9,0-1.9-0.1-2.8c-0.1-0.5-0.1-1.1-0.1-1.6v-0.8C27,21,27,20.5,27,20.2c0.3-0.1,0.5,0.2,0.5,0.8
			c0.1,0.4,0.1,0.9,0,1.4c0.1,0.7,0.1,1.4,0.1,2.1c0,1.1,0.1,1.7,0.4,2l0.2,0.5c0.1-0.3,0.1-0.6-0.1-0.9c-0.1-0.2-0.2-0.5-0.4-0.7
			c0.1-0.5,0.1-1,0.1-1.5c0-0.7-0.1-1.5-0.3-2.2c0.1-0.7,0.3-0.7,0.5,0c0.1,0.3,0.1,0.6,0.1,0.9c0,0.2,0,0.6,0.1,1.2
			c0,0.9,0.1,1.8,0.3,2.6c-0.2,0.5-0.2,1-0.2,1.5c0,0.4,0,0.9,0,1.3c0.1,1.2,0.1,2,0.1,2.5l-0.2,1.8c0,0.7,0,1.6,0.1,2.8
			c0.2,2.5,0.3,3.9,0.3,4.3v0.4L29.1,40z M24,33.1l0,0.2c0.1,0.4,0.1,0.7,0.1,0.7s-0.1,0-0.2-0.3C23.8,33.5,23.9,33.3,24,33.1
			L24,33.1z M24.8,27v2c0.1,0.4,0.1,0.9,0,1.3l0.1,0.8c0-0.1,0.1-0.1,0.1-0.2c-0.1-0.7,0-1.4,0.1-2.1c0.1-0.5,0.1-0.9,0.1-1.4
			c0-0.3,0-0.6,0-0.9c-0.1,0.1-0.1,0.3-0.1,0.4C25,27.1,24.9,27.2,24.8,27L24.8,27z M26.6,23c0.2,0.4,0.2,0.8,0.2,1.2v1
			c-0.1-0.1-0.2-0.4-0.2-0.9C26.6,23.9,26.6,23.4,26.6,23L26.6,23z M27.8,27v2.3l0.2-1.1C28,27.7,27.9,27.4,27.8,27z M29.6,35.5v3.5
			c-0.2-0.8-0.3-1.5-0.3-2.3C29.3,36.2,29.4,35.8,29.6,35.5L29.6,35.5z M30.4,45.8h-0.3H30L29.6,46C29.8,46.2,30.1,46.1,30.4,45.8
			L30.4,45.8z M32.3,44.7c-0.6,0.3-0.9,0.5-0.9,0.5L32.3,44.7L32.3,44.7z M33.5,45.4c0.2-0.2,0.5-0.3,0.7-0.3c0.2,0,0.4-0.1,0.5-0.1
			c0.2-0.4,0.7-0.6,1.1-0.4c0.5,0.1,0.5,0.3,0,0.7l-0.5,0.3c-1,0.5-1.5,0.5-1.5,0.1c-0.1,0.1-0.2,0.1-0.3,0.2
			C33.3,45.7,33.4,45.6,33.5,45.4L33.5,45.4z"/>
		<path class="st0" d="M56.3,46.1c-0.6-0.4-1.1-0.9-1.5-1.5l0.1-0.1c0,0,0.1-0.1,0.1-0.1s0.2,0.2,0.5,0.4c0-0.7-0.1-1.6-0.2-2.8
			h-0.2c0,0.3,0,0.6-0.1,0.8c-0.1-0.3-0.2-0.7-0.3-1.2c-0.3,0.2-1.3,0.5-2.8,1.1c-1.2,0.4-2.3,1-3.3,1.7l-0.2-0.2L48.3,44
			c0,0.3-0.1,0.5-0.2,0.8c-0.1,0.3-0.2,0.6-0.3,0.8c-0.1,0.2-0.2,0.4-0.3,0.6c-0.1,0.2-0.3,0.4-0.5,0.5c-0.3,0.3-0.4,0.5-0.4,0.7
			s0.2,0.4,0.6,0.6c0.5,0.3,0.6,0.6,0.3,0.9l-0.5,0.3c0-0.2,0-0.4,0-0.5l0-0.3l-0.3-0.2L46.5,48c0.1,0.6,0.1,0.9,0.1,1
			c0,0.2-0.1,0.4-0.2,0.5c-0.4,0.4-0.6,0.9-0.7,1.4c-0.1,0.5-0.2,0.9-0.3,1.4c-0.1,0.2-0.6,0.3-1.5,0.3l-0.5-0.5l-0.6-0.2
			c-0.1,0.3-0.3,0.4-0.7,0.3c-0.2-0.1-0.5-0.2-0.8-0.1c-0.4-0.6-0.5-0.9-0.5-0.9s0-0.3,0.1-0.8s0.1-0.7,0.1-1s-0.1-0.6-0.3-0.7
			c0-0.2,0-0.3,0-0.5c0-0.2,0-0.3,0-0.5c0-0.2,0.1-0.3,0.2-0.4c0-0.1,0-0.1,0-0.2c0-0.1,0-0.2,0-0.3c0-0.1,0-0.2,0-0.3
			c0-0.3,0-0.6,0.1-0.9l-0.5,0.2l-0.5,0.2c0.1-0.2,0.1-0.4,0.1-0.5c0-0.2-0.1-0.3-0.4-0.3c-0.1-0.3-0.2-0.7-0.3-1
			c0.1-0.1,0.1-0.1,0.1-0.2c0.1-0.1,0.1-0.2,0.2-0.3c-0.2,0-0.4,0.1-0.7,0.1c-0.1-0.4-0.2-0.8-0.3-1.3c-0.1-0.5-0.2-1-0.5-1.5
			c0.2-0.4,0.6-0.6,1-0.7c0.9-0.3,1.8-0.7,2.6-1.2c0.2-0.3,0.4-0.6,0.6-0.8c0.1,0.2,0.1,0.4,0.2,0.5c0-0.2,0-0.3,0.1-0.5
			c0-0.2,0.1-0.4,0.2-0.5c0.1-0.1,0.2-0.2,0.4-0.3c0.2-0.1,0.2-0.2,0.2-0.4c0-0.1,0-0.3,0-0.4c0-0.2,0-0.5,0.1-0.7
			c0.1-0.2,0.2-0.5,0.3-0.8c0.1-0.2,0.2-0.4,0.3-0.6c0.2-0.3,0.3-0.7,0.5-1l0.3-0.1c0.1-0.9,0.1-1.3,0.1-1.4c0.1-0.3,0.3-0.7,0.5-1
			c0.2-0.4,0.4-0.9,0.5-1.4c-0.2,0-0.5,0-0.8,0c0.6-1.5,0.9-2.4,1-2.6c0.1-1.6,0.4-3.1,0.8-4.6c0.3-1.1,0.9-2.1,1.7-2.9l-0.2-0.3
			c0.5-1.1,0.9-1.9,1.2-2.5c0.1-0.4,0.4-0.8,0.7-1.1c0.6-0.4,1.2-0.7,1.9-0.7l0.3,0.4v-0.7c0.1,0.2,0.3,0.4,0.6,0.7l0.8-0.4
			c0.3-0.2,0.6-0.4,0.8-0.4c0,0.3,0,0.6,0.1,0.9c0.1,0,0.2,0,0.3-0.1c0.1,0,0.3,0,0.4-0.1c0,0-0.1-0.1-0.1-0.2v-0.2
			c0.7,0.5,1.1,1.2,1.4,1.9c0.3,0.9,0.4,1.9,0.5,2.8c-0.2-0.1-0.3-0.2-0.5-0.4c0.1,1.4,0.4,3.3,0.8,5.7c0.1,0.2,0.1,0.4,0.3,0.6h0.2
			c0.1,0.3,0.1,0.7,0.1,1v1.1h0.2v-0.5c0-0.2,0-0.4,0.1-0.5h0.3c0.1,1.1,0.2,1.8,0.2,1.9c0,0.3-0.1,0.5-0.1,0.8
			c-0.1,0.2-0.1,0.4-0.1,0.6c0,0.3,0.1,0.5,0.3,0.8c-0.3,0.5-0.4,1.1-0.3,1.8c0,0.1,0,0.2,0.1,0.3c0,0.1,0.1,0.3,0.1,0.4
			c0,0.1,0,0.3,0,0.4v0.7h0.3v-1.3l0.3,0l0.2,0.6c-0.1,0.3,0,0.7,0.1,1c0.3,0.2,0.6,0.4,1,0.4c-0.2,0.3-0.5,0.6-0.8,0.8
			c0.3,0,0.5,0,0.8-0.1c0.2,0,0.4,0,0.7-0.1c0,0,0,0.1,0,0.1l-0.5,0.3c-0.2,0.1-0.3,0.2-0.5,0.3l0.9,0.2c-0.2,0.2-0.4,0.3-0.6,0.4
			c-0.3,0.2-0.5,0.3-0.6,0.3c0.3-0.1,0.8-0.1,1.3-0.2l1.3-0.2c0,0.1,0,0.1,0,0.2c-0.2,0.1-0.4,0.2-0.6,0.2l-0.6,0.2l0.4,0.5l0.7-0.1
			c-0.7,0.4-1.3,0.8-1.8,1.3c-0.7,0.7-1.1,1-1.2,1.1L59.5,40v0.3c-0.3,0.1-0.3,0.3-0.1,0.5c0.1,0.2,0.1,0.4,0.1,0.7l0,0v1.3
			c0,0.3,0,0.6,0,0.9c0.1,0.9,0.3,1.9,0.6,3.1c0.1,0.4,0.2,0.7,0.4,1.1c0.1,0.3,0.2,0.7,0.3,1c0.5,1.6,0.9,3.1,1.3,4.7
			c0.1,0.1,0.1,0.3,0.2,0.4c0.1,0.2,0.2,0.4,0.1,0.6c-0.1,0.1-0.1,0.3-0.2,0.4c-0.1,0-0.2-0.1-0.3-0.2c-0.1-0.1-0.2-0.2-0.3-0.3
			c0,0.1-0.1,0.4-0.2,0.9c-0.3-0.3-0.5-0.6-0.7-0.8c0,0.1-0.1,0.2-0.1,0.3c0,0.1,0,0.2-0.1,0.3c-0.1-0.2-0.2-0.5-0.5-1
			c0,0.3-0.1,0.6-0.1,0.9c0,0.2-0.1,0.5-0.1,0.7c-0.5-0.3-0.8-0.3-0.9,0.2l-0.5-1.1c0,0-0.1,0.4-0.3,1c-0.7-0.5-1.1-1.2-1.1-2
			c0-0.9-0.3-1.8-0.8-2.5c-0.1-0.2-0.2-0.3-0.3-0.5c-0.1-0.2-0.2-0.4-0.3-0.7l-0.2-0.5l0.3-0.2l0.5,0.3c0.3,0.7,0.6,1.5,0.8,2.2h0.3
			c0-0.8-0.3-1.6-0.8-2.3c-0.2-0.2-0.3-0.5-0.3-0.8c0-0.3,0-0.6,0.1-0.8c0.1-0.3,0.1-0.6,0.1-0.8c0-0.5-0.1-0.6-0.4-0.4l-0.3-0.1
			C55.9,46.5,56.1,46.2,56.3,46.1z M40.7,48.7c-0.1,0.7-0.3,1.4-0.4,2v-2.5c0.1,0,0.2,0.1,0.2,0.3S40.5,48.8,40.7,48.7z M47.7,23.6
			c-0.4,0.6-0.6,1.3-0.6,2c0,0.4,0.1,0.8,0.2,1.2c0.1-0.3,0.3-0.8,0.5-1.4l0.5-1.3C48.2,24,48,23.9,47.7,23.6z M52.3,29.9l-0.3,0.9
			c-0.2,0.4-0.3,0.7-0.3,0.9c-0.1,0.5-0.2,1-0.3,1.5c0.2,0,0.3,0.1,0.3,0.2c-0.1,0.3-0.2,0.5-0.3,0.7c0-0.1,0-0.2,0-0.3
			c0-0.1,0-0.2-0.1-0.3c-0.4,0.9-0.8,1.9-1,2.9c-0.1,0.5,0.1,0.6,0.6,0.3l0.7-0.3h0.2c0.5,0,0.9-0.2,1.3-0.4
			c0.4-0.2,0.8-0.4,1.2-0.5c0.4-0.1,0.7-0.4,0.9-0.8v-1.3c0,0.1-0.1,0.2-0.2,0.3c0,0.1-0.1,0.2-0.2,0.3h-0.2
			c-0.1-1.2-0.3-2.8-0.5-4.9v0.1l-0.5-1.5c-0.2-0.4-0.3-0.8-0.2-1v-0.4h-0.3C52.6,28.4,52.3,29.6,52.3,29.9z M53.9,24v3.2
			c0.2-0.1,0.4-0.2,0.7-0.3v-1.5L53.9,24z M54.9,27.6h-0.2c0.1,1.2,0.1,2.1,0.2,2.7c0.3-0.3,0.4-0.7,0.5-1.1
			C55.2,28.7,55.1,28.1,54.9,27.6L54.9,27.6z M56.6,22.2h-0.3c-0.1,0.6-0.1,1.1-0.1,1.7c0.1,0.5,0.1,1.1,0.3,1.6
			c0.1,0.6,0.2,1.2,0.2,1.8v3.8c0,0.7,0,1.5-0.1,2.2c0,0.2,0,0.4,0,0.6h0.3c0.1-2.5,0.2-4.1,0.2-4.9c0-1.1-0.1-2.2-0.2-3.3
			c0.1,0.2,0.2,0.4,0.3,0.6c0-0.3,0-0.6-0.1-0.9l-0.3-0.3c0-0.5,0-1-0.1-1.5C56.7,23.1,56.6,22.6,56.6,22.2L56.6,22.2z M57.2,23
			h-0.3c0.1,0.6,0.2,1.4,0.3,2.6c0.1-0.4,0.1-0.9,0.2-1.3C57.3,23.9,57.2,23.4,57.2,23L57.2,23z M57.2,43.5c-0.1,0-0.1,0-0.2,0
			c0.1,0.2,0.3,1.1,0.8,2.7h0.2c-0.1-0.3-0.2-0.8-0.4-1.5S57.2,43.7,57.2,43.5L57.2,43.5z M58.4,47.8h-0.2c0.3,1,0.5,2.2,0.8,3.5
			h0.2c-0.5-1.6-0.8-2.7-1-3.5L58.4,47.8z M58.5,22.8c0.1,0.3,0.1,0.6,0.2,0.9c0.1,0.3,0.2,0.6,0.2,0.9c0,0.3-0.1,0.6-0.3,0.9h-0.2
			c-0.1-1.5-0.2-2.4-0.2-2.7L58.5,22.8z M59.5,41.4h0.2c0.1,0.3,0.2,0.9,0.3,1.8l-0.2,0c0-0.1-0.1-0.4-0.2-0.8S59.5,41.7,59.5,41.4
			L59.5,41.4z"/>
		<path class="st0" d="M65.1,27.4c0.2,0.2,0.4,0.4,0.5,0.6c0.1,0.3,0.1,0.7,0.2,1v0.8c-0.5,0.1-0.9-0.3-1-0.8c0,0,0,0,0,0
			c0-0.1,0-0.1,0-0.2c0-0.3,0-0.7,0.1-1c0.1,0.6,0.2,1.1,0.3,1.7h0.2c0-0.2-0.1-0.6-0.1-1S65.1,27.6,65.1,27.4z M72.2,18.9
			c0.7,0.1,1.3,0.5,1.7,1.1c0,0,0-0.1,0-0.1v-0.3l0.1-0.1c0.2,0.3,0.5,0.5,0.9,0.6c0.1,0,0.2,0,0.3,0h0.2c0.3,0.4,0.9,0.6,1.4,0.5
			c0.1,0,0.1,0,0.2,0.1l0.4,0.4l0.9,1c0.5,0.5,0.9,1.1,1.2,1.8c0.3,1.9,0.5,3.9,0.6,5.8c0,0.3,0,0.6,0,0.9c0,0.3-0.1,0.6-0.1,0.9
			c0,0.2,0,0.5,0.1,0.7c0,0.2,0.1,0.5,0.1,0.7c0,0.3-0.1,0.6-0.2,0.9c-0.1,0.3-0.2,0.6-0.2,0.9l0.4-0.5l0,0
			c-0.1,0.3-0.3,0.9-0.6,1.7c-0.1-0.2-0.1-0.3-0.1-0.5c0-0.2-0.1-0.5-0.1-0.7c-0.2,0.6-0.4,1.5-0.7,2.5c-0.1,0.3-0.1,0.5-0.3,0.8
			c-0.3,0.4-0.5,1-0.4,1.5c0.5-0.9,0.9-1.7,1.3-2.7c-0.2,0.7-0.7,2.1-1.4,4.3c-0.1,0.2-0.1,0.3-0.1,0.5c0.5-0.9,1-1.9,1.3-2.8
			c0.4-1,0.8-2.2,1.2-3.5s0.7-2.3,1-3c-0.5,3.4-1.5,6.8-2.9,10c0.1,0,0.2,0.1,0.3,0.1c0.1-0.1,0.1-0.2,0.2-0.3
			c0.1-0.1,0.1-0.2,0.2-0.3h0.1c-0.2,0.8-0.3,1.2-0.3,1.3c-0.9,1.4-2.1,3.3-3.7,5.7c-0.1,0.2-0.2,0.4-0.4,0.5L74,50
			c-0.5,0.8-1.1,1.4-1.8,2L71,52.7c0-0.3,0-0.7,0.1-1L70.6,52L70,52.4c0-0.3,0.1-0.7,0.2-1h-0.6c0.7-0.8,1.1-1.2,1.2-1.4
			c0,0-0.1,0-0.1-0.1l-2.1,1.8c-0.1-0.1-0.2-0.2-0.4-0.3c-0.2-0.1-0.4-0.2-0.5-0.4c-0.1-0.2-0.1-0.5,0-0.8c-0.2,0.1-0.3,0.3-0.3,0.7
			s-0.4,0.7-1,0.8h-0.2c-0.1-0.2-0.2-0.5-0.3-0.7c-0.2-0.3-0.2-0.6-0.2-0.9c0.1,0,0.1-0.2,0-0.6c0-0.2,0-0.4,0-0.6
			c0-0.1,0-0.3,0.2-0.4c0.3-0.4,0.5-0.9,0.4-1.5c-0.1-1-0.3-3.6-0.4-7.8v-0.5c0-0.2,0-0.5,0-0.7c0.1-0.1,0.1-0.2,0.1-0.3
			c0-0.2,0.1-0.3,0.1-0.5c-0.1,0.1-0.1,0.3-0.2,0.5h-0.1c-0.1-0.3-0.1-0.6-0.2-0.9c0.1,0,0.1,0.1,0.2,0.1c0.1,0,0.1,0,0.2,0
			c0-0.4-0.1-1.2-0.2-2.3s-0.2-2-0.2-2.6H66c0,0.1,0.1,0.3,0.1,0.4c0,0.2,0.1,0.3,0.1,0.5c0,0.1,0.1,0.3,0.1,0.4h0.2l-0.2-1.8h0.2
			c0,0.3,0.1,0.5,0.2,0.8c0.1,0.3,0.1,0.5,0.2,0.8c0,0.4-0.1,0.7-0.3,1c-0.1,0.2,0,0.5,0.2,1.2c0.1-0.3,0.1-0.6,0.1-0.9h0.2
			c0.2,1.9,0.4,3.9,0.5,6L66.8,40v7l0,0c0-0.2,0.1-0.4,0.2-0.6l0.1,0.2c0.1-0.2,0.2-0.3,0.3-0.5l0.4-0.6c0.1-0.2,0.3-0.4,0.3-0.6
			c0.1-0.2,0.1-0.4,0.2-0.7v-0.5c0-2.8-0.2-6.1-0.6-10v-0.1V31c0.1,0.3,0.2,0.5,0.3,0.8c0.1,0.4,0.1,0.7,0.2,1c0,0.4,0,0.8,0,1.2
			c0,0.5,0,0.8,0,1c0.2,3.1,0.4,5.7,0.6,7.8l0.1,1.4c0.1-0.7,0.2-1.3,0.2-2v-1.5c0-0.7,0-1.2,0-1.6c0-0.4,0-0.8,0-1.2l0.2,0.4
			c0.1,0.1,0.1,0.3,0.2,0.5c0,0.1,0,0.3,0,0.4c0,0.1,0,0.2-0.2,0.3c-0.1,0.2-0.1,0.5,0,0.8c0.1,1.1,0.2,2,0.2,2.7l0.9-0.7l1-0.8v1.2
			c-0.2,0.1-0.3,0.2-0.4,0.4c0.1,0,0.3,0.1,0.3,0.2c0.1,0.2,0.3,0.1,0.4-0.1l0.6-0.6c0.3-0.2,0.5-0.5,0.7-0.8l0.6-1.3l0,0
			c0.4-0.5,0.8-1.1,1.2-1.7c0.4-0.8,0.8-1.7,1-2.6c0.1-0.3,0-0.7-0.1-1c-0.1,0-0.1-0.3-0.1-0.8s0-0.8,0-0.9c0-0.2-0.1-0.7-0.2-1.4
			s-0.1-1.3-0.2-1.7v-0.5c0-0.7-0.1-1.3-0.3-1.9c0-0.1-0.1-0.4-0.2-0.8c-0.1-0.3-0.2-0.6-0.3-0.9l0.2-0.6c0.3,0.4,0.6,0.9,0.9,1.3
			c0.1-1.1,0.2-1.8,0.2-2c-0.2,0-0.4,0-0.6-0.2c-0.2-0.2-0.4-0.3-0.6-0.5L74,23.7c0.1-0.5,0.2-0.7,0.2-0.8c0-0.1-0.1-0.2-0.2-0.3
			c-0.1-0.1-0.3-0.1-0.4-0.1c-0.1,0-0.2,0-0.3,0L73,23l-0.5-0.5c-0.1-0.4-0.5-0.7-1.2-0.9c-0.5-0.1-0.9-0.3-1.3-0.5
			c-0.4-0.4-0.7-0.6-0.9-0.5c-0.2,0.1-0.5,0.1-0.8,0c-0.2-0.1-0.4-0.2-0.7-0.2l0.3-0.2l-0.8-0.4l0.3-0.1c0.1-0.1,0.3-0.1,0.4-0.2
			c-0.2-0.1-0.4-0.2-0.6-0.3c0.1,0,0.3,0,0.4,0c0.3,0,0.6,0,0.9-0.1c0.3-0.1,0.7-0.2,1-0.2c0.2,0,0.5,0,0.7,0c1,0.2,1.9,0.5,2.9,0.6
			c-0.1-0.1-0.2-0.2-0.3-0.3L72.2,18.9z M66.3,46.7L66.3,46.7c-0.1,0.2,0,0.5,0,1s0.1,0.9,0.1,1.2h0.3c0.1-0.3,0.1-0.6,0.3-0.9
			l0.3-0.8c-0.1,0-0.1,0-0.2-0.1l-0.3,0.6c-0.1-0.2-0.2-0.4-0.3-0.6L66.3,46.7z M67.1,21v0.9c0,0.2,0,0.5,0,0.7
			c0,0.9,0.2,1.7,0.4,2.5v1.6c0,0.8,0.2,1.6,0.3,2.4c0.1,0.2,0.1,0.4,0,0.5c-0.4-0.8-0.7-1.7-0.7-2.6l0,0c-0.1-0.3,0-0.4,0.3-0.3
			v-0.4c-0.2-0.2-0.3-0.4-0.3-0.6c-0.1-0.3-0.1-0.5-0.2-0.8c0-0.2,0-0.4,0-0.6c-0.1-0.9-0.2-1.7-0.2-2.6
			C66.8,21.5,66.9,21.2,67.1,21z M72.8,47.5c-0.5,0.5-0.8,1-1,1.3C72.6,48.3,72.9,47.9,72.8,47.5L72.8,47.5z M73.8,41.5
			c-0.5,0.6-0.9,1.3-1.4,2l0.1,0l0,0l0.7-1L73.8,41.5L73.8,41.5C73.7,41.5,73.8,41.5,73.8,41.5L73.8,41.5z M73.6,40.2l-0.3-0.3
			c-0.1-0.1-0.2-0.1-0.2-0.2l0.4-0.4c0.2-0.2,0.4-0.4,0.6-0.5C74,39.2,73.8,39.7,73.6,40.2L73.6,40.2z M75,44.2l-0.7,1.1
			c-0.3,0.5-0.5,0.8-0.7,1.1c0,0,0.1,0.1,0.2,0.1c0.1-0.2,0.2-0.3,0.4-0.5c0.1-0.2,0.3-0.3,0.4-0.5c0.1-0.2,0.2-0.4,0.3-0.5
			C75,44.7,75.1,44.4,75,44.2L75,44.2z M76.5,41.8c-0.7,1.1-1.2,1.9-1.4,2.3c0.2-0.1,0.4-0.1,0.6-0.2C76.1,43.3,76.4,42.6,76.5,41.8
			L76.5,41.8z M76.9,24.6c-0.1,0-0.2,0.1-0.3,0.1c0.4,1,0.6,1.5,0.6,1.5c0.4,0.7,0.7,1.4,0.7,2.3c0,0.4,0,0.7-0.1,1
			c-0.2-0.4-0.3-0.9-0.3-1.4c0-0.5-0.1-1-0.4-1.4c0.1,1.1,0.2,2.7,0.3,4.9c0.3-1.1,0.6-2.3,0.8-3.5c0-0.7-0.2-1.4-0.6-2
			c-0.2,0.1-0.3,0-0.3-0.4v-0.3C77.2,25.2,77,24.9,76.9,24.6L76.9,24.6z M77.8,39.6c-0.4,0.7-0.7,1.4-1,2.1c0.2-0.1,0.4-0.3,0.4-0.5
			c0.2-0.3,0.3-0.7,0.4-1C77.7,39.9,77.8,39.7,77.8,39.6L77.8,39.6z M79.8,38.8c0.2,0.2,0.3,0.4,0.3,0.5c-0.2,0.5-0.6,1-1,1.5
			c0.1-0.2,0.2-0.5,0.3-0.9S79.7,39.1,79.8,38.8L79.8,38.8z M80.3,37.3c0,0.1,0.1,0.2,0.1,0.3c0,0.1,0.1,0.2,0.1,0.3
			c0,0.1,0,0.2,0,0.3c0,0.1-0.1,0.2-0.2,0.3c-0.1,0.1-0.3,0.2-0.4,0.2c0-0.3,0.1-0.5,0.2-0.8C80.1,37.7,80.2,37.5,80.3,37.3
			L80.3,37.3z"/>
		<path class="st0" d="M92,14.7c0.2-0.1,0.5-0.2,0.8-0.3c0.2,0,0.4,0,0.7,0c0.3,0.1,0.5,0.2,0.8,0.3l0.7,0.2
			c0.2,0.1,0.4,0.2,0.6,0.3c0.2,0.1,0.4,0.2,0.6,0.4l0.4,0.4c0.3,0.3,0.4,0.7,0.3,1.1c-0.2,0.7-0.4,0.6-0.6-0.1
			c-0.1-0.2-0.2-0.4-0.2-0.4c0,0.2,0,0.5,0,0.8c-0.1,1.4-0.6,2.8-1.6,3.9c-0.5,0.4-0.8,0.9-1,1.5c-0.2,0.6-0.3,1.2-0.4,1.8
			c-0.1,0.6-0.2,1-0.3,1.1c0.1,0.6-0.1,1.2-0.5,1.6c-0.5,0.6-0.7,1.1-0.6,1.4c0.5-0.7,0.7-0.7,0.8,0c0,0.4,0,0.7-0.2,1
			c-0.1,1.3-0.3,2.5-0.8,3.7C91,35,90.7,35.8,90.7,36c0.7,0.1,1.4,0,2.1-0.3c1.2-0.4,1.9-0.7,2-0.7c-0.2,0-0.3-0.1-0.2-0.2
			c0.3-0.2,0.4-0.2,0.4,0c0,0.2,0.1,0.3,0.4,0.2c0.3-0.1,0.4-0.1,0.3,0c-0.1,0.1-0.2,0.3-0.3,0.3c-0.2,0.2-0.2,0.2-0.1,0.2l0.4-0.1
			c0.4-0.6,0.6-1.3,0.6-2c0-0.3,0-0.6-0.1-0.8c-0.1-0.6-0.2-1.2-0.2-1.8c0-0.3,0-0.6,0.1-0.9c0.4,0.4,0.5,1,0.4,1.6
			c0,0.6,0,1.1,0,1.7l0.2,1.9c0-0.3,0.1-0.5,0.2-0.8c0.1,0,0.2,0.3,0.3,0.9c0,0.4,0.2,0.8,0.4,1.1c-0.1,0.2-0.1,0.3-0.1,0.5
			c0,0.3-0.2,0.6-0.4,0.8c0.7-0.2,1,0,0.9,0.5c0,0.5-0.5,0.8-0.9,0.8c0.2,0.3,0.5,0.4,0.7,0.2c0.2-0.2,0.4-0.4,0.6-0.7
			c0.1-0.3,0.3-0.2,0.4,0.1v3.1c0,0.8,0,1.6,0.1,2.5c0.1,0.6,0.1,1.2,0.1,1.8c-0.1,0.6-0.1,1.2,0,1.8c0.2-0.3,0.3-0.3,0.3,0
			s0.1,0.6,0.1,0.6s0.1,0.3,0.2,0.6s0.2,0.6,0.3,0.8l0.2,0.8c0.1,0.5-0.1,1-0.4,1.3c-0.2,0.3-0.7,0.4-1,0.2h-0.1
			c-0.4-0.3-0.7-0.7-0.6-1.3v-0.6c0,0.3,0,0.5,0,0.8c0.2,0.7,0,1.1-0.6,1.3s-1-0.2-1.1-1c-0.3,0.8-0.4,0.5-0.3-0.7
			c0.3-1.4,0.5-2.8,0.7-4.3c-0.2,0.2-0.3,0.1-0.3-0.2c-0.1-0.5,0-1,0.3-1.4c0.2-0.2,0.3-0.2,0.3-0.1c0,0.2,0,0.4,0,0.5
			c0.2,0,0.2-0.1,0.2-0.5c0-0.3-0.1-0.6-0.1-0.8c0-0.2-0.1-0.4-0.1-0.7c0-0.2,0-0.3,0-0.5c-0.1,0.5-0.2,0.5-0.4,0
			c-0.2-0.3-0.2-0.7-0.1-1.1c0-0.5-0.1-1-0.3-1.4c-0.2-0.4-0.7-0.5-1.3-0.2c-0.2-0.1-0.4-0.2-0.6-0.2c-0.7,0.1-1.4,0.3-2.1,0.6
			c-0.4,0.5-0.9,0.8-1.5,0.9c-0.5,0.1-1,0.4-1.5,0.7c-0.3-0.1-0.6,0-0.7,0.2l0,0c-0.2,0.3-0.2,0.7-0.3,1.1c-0.3,0.8-0.5,1.7-0.6,2.6
			c-0.1,1-0.4,2-1,2.8c0-0.6,0.1-1.2,0.2-1.8c0.1-0.8,0.2-1.3,0.3-1.5h-0.2c-0.1,0.4-0.1,0.8-0.3,1.2c-0.3-0.1-0.3-0.6-0.1-1.6
			c0.2-0.6,0.3-1.3,0.2-1.9c-0.1-0.3-0.3-0.5-0.4-0.5c-0.2,0-0.4,0.5-0.7,1.5c0,0.1-0.1,0.3-0.1,0.5c-0.3-0.1-0.4-0.3-0.3-0.8
			c0.1-0.4,0.2-0.7,0.3-1.1c0-0.5-0.2-0.7-0.7-0.7h-0.3c-0.6,0.3-0.9,0.3-1-0.2c0-0.5,0.3-0.9,0.8-1l0.6-0.2c-0.2,0-0.4-0.1-0.5-0.1
			c-0.3,0-0.5-0.1-0.7-0.3c-0.5,0.2-0.7,0.2-0.7-0.1s0.3-0.5,0.7-0.6c-0.3,0-0.5-0.1-0.5-0.3s0.5-0.5,1.4-0.8
			c0.2-0.1,0.4-0.1,0.6-0.2c0.4-0.4,0.4-0.6,0-0.6l-1.2-0.1c0.7-0.1,1.3-0.4,1.7-0.8c0.4-0.4,0.6-1,0.6-1.5c-0.1-0.5,0-1,0.3-1.5
			c0.3-0.4,0.3-0.7,0.3-0.9c0.3-1.1,0.8-2.6,1.3-4.7s0.9-3.4,1.1-4c0.1-0.3,0.2-0.7,0.3-1.1c0-0.1-0.1-0.3-0.2-0.4
			c-0.1-0.1-0.2-0.2-0.3-0.4c-0.3,0.6-0.4,0.8-0.4,0.6c0.2-1.9,0.5-3.8,1.1-5.6c0.1-0.1,0.2-0.4,0.4-0.8c0.2-0.3,0.3-0.6,0.6-0.9
			c0.1-0.2,0.3-0.4,0.6-0.7C91.5,15.1,91.7,14.9,92,14.7z M83.9,48.8c0.2,0.2,0.2,0.5,0.1,0.8c-0.1,0.3-0.1,0.4-0.2,0.4
			c-0.2,0-0.3-0.2-0.2-0.5C83.8,49.2,83.8,49,83.9,48.8z M84.9,46.1c0.2,0,0.3,0.1,0.3,0.3c-0.2,1.8-0.5,3.6-1,5.3
			c-0.4,0-0.5-0.3-0.3-1c0.2-0.8,0.4-1.5,0.5-2.3C84.5,47.6,84.7,46.8,84.9,46.1z M86.1,49.2c0.1,0.2,0.1,0.5,0.1,0.8
			c0,0.3-0.1,0.4-0.2,0.4s-0.3-0.2-0.2-0.5C85.8,49.6,85.9,49.4,86.1,49.2z M86.7,49.5c0,0.4,0,0.8,0,1.2c0,0.3-0.1,0.5-0.2,0.5
			c-0.2-0.2-0.3-0.5-0.2-0.8C86.4,50.1,86.5,49.8,86.7,49.5z M88.5,33.5l-0.8,3V37c0.2-0.9,0.4-1.4,0.6-1.3c-0.1,0.4-0.2,0.7,0,0.7
			s0.2-0.1,0.4-0.4c0.2-0.3,0.2-0.7,0-1c0.4-1.8,0.9-3.7,1.5-5.5c0.6-1.9,1.1-3.8,1.5-5.7c-0.2,0.8-0.6,2-1.2,3.8s-0.9,2.9-1.1,3.4
			s-0.3,1.1-0.5,1.7S88.6,33.5,88.5,33.5L88.5,33.5z M88.5,23.8c0.1,0.5,0,0.9-0.1,1.4c-0.1,0.4-0.3,0.6-0.3,0.6s-0.3-0.4-0.1-1
			S88.3,23.9,88.5,23.8L88.5,23.8z M88.6,25.3c0.1,0.5,0,1-0.2,1.5c-0.2,0.4-0.4,0.8-0.5,1.3C88,27.1,88.2,26.2,88.6,25.3L88.6,25.3
			z M90.7,33.8c-0.2,0.4-0.4,0.9-0.5,1.5c-0.1,0.7-0.2,1-0.2,1.2L90.7,33.8z M93.8,38.4c-0.5,0.3-0.8,0.3-1,0.3l0.6-0.2h0.2
			L93.8,38.4z M95.8,23.7c0.2,0.8,0.3,1.5,0.3,2.3v0.4c-0.1-0.1-0.2-0.4-0.3-1.1C95.7,24.8,95.7,24.2,95.8,23.7L95.8,23.7z M96,26.8
			c0.2,0.2,0.3,0.6,0.2,1.3v0.5c-0.3-0.3-0.4-0.6-0.3-1C95.9,27.3,95.9,27,96,26.8L96,26.8z M98.3,39.4c-0.6,0.1-1.1,0.5-1.2,1.2
			c0,0.3,0,0.7,0,1c0,0.6,0,1.2,0.1,1.8c0.1,0.7,0.1,1.3,0.1,1.8c0,0.4,0,0.8-0.1,1.2c-0.1,0.7,0,1.3,0.3,2c0.2,0.4,0.3,0.1,0.6-0.7
			c0,0.1,0,0.1,0.1,0.2c0,0.1,0.1,0.1,0.1,0.1C98.3,47,98.3,44.2,98.3,39.4L98.3,39.4z M98.3,31.8c0.1,0.3,0.2,0.6,0.3,0.9
			c0,0.2,0,0.4,0,0.5c-0.2,0-0.3-0.3-0.3-0.7C98.1,32.4,98.1,32.1,98.3,31.8L98.3,31.8z M98.3,35.3c0.3,0.4,0.4,0.9,0.4,1.4
			c0,0.3-0.1,0.7-0.2,1c-0.2,0.1-0.3-0.1-0.3-0.5C98.1,36.5,98.1,35.9,98.3,35.3z M99,39.1c0.1,0.2,0.2,0.4,0.3,0.7
			c0.1,0.8,0.1,1.5,0.2,2.3c0,0.9-0.1,1.7-0.4,2.5V39.1z M99,45.6l0.1,0.2l0.1,0.2c0,0.2,0,0.5,0,0.7c0,0.2-0.1,0.1-0.2-0.2
			C99,46.2,99,45.9,99,45.6L99,45.6z M100.2,49.6c0.2,0.1,0.3,0.2,0.4,0.3c-0.2,0.6-0.3,0.8-0.3,0.5
			C100.2,50.2,100.2,49.9,100.2,49.6L100.2,49.6z"/>
		<path class="st0" d="M102.7,22.7c0.1,0.2,0.1,0.5,0.2,0.8c0,0.3,0,0.4-0.1,0.5s-0.1-0.1-0.1-0.5C102.6,23.2,102.6,22.9,102.7,22.7
			z M102.8,28.4c0.2,0.1,0.3,0.3,0.4,0.5c0,0.2,0,0.4-0.1,0.5s-0.2,0-0.3-0.3C102.6,28.9,102.7,28.6,102.8,28.4z M103.5,29.3
			L103.5,29.3c0.4,0.3,0.8,0.9,1.3,1.6s0.9,1.2,1.2,1.6c0.3,0.6,0.2,0.7-0.3,0.2c-0.1-0.1-0.2-0.2-0.5-0.5s-0.2-0.2,0,0.2
			s0.3,0.5,0.2,0.5s-0.3,0-0.5-0.3c-0.1-0.1-0.2-0.3-0.2-0.5c-0.4,0-0.8-0.3-1-1C103.3,30.4,103.3,29.8,103.5,29.3z M116.1,35.4
			c-0.9-0.4-1.3-0.8-1.3-1c-0.7,0-1.3-0.2-1.8-0.6c-0.5-0.4-1-0.6-1.6-0.7c0.4,0.3,0.3,0.6-0.5,0.9c-0.2,0.1-0.5,0.1-0.8,0.2
			c-1.6-0.3-3.1-1.1-4.2-2.4c-1-1.1-1.8-2.4-2.1-3.9c-0.2-0.6-0.2-1.2-0.3-1.9c0-0.9,0.2-1.7,0.4-2.5c0.2-0.3,0.4-0.5,0.6-0.9
			c0.3-0.6,0.5-0.6,0.6,0c-0.1-0.2,0.2-0.7,0.7-1.4s0.9-1.1,1.2-1.2c-0.1,0.2-0.2,0.5-0.2,0.7c0,0.1,0.2-0.1,0.5-0.5
			c0.4-0.3,0.8-0.6,1.2-0.9c0.5-0.3,0.7-0.4,0.7-0.2l-0.4,0.5c0.2-0.1,0.4-0.3,0.7-0.4c0.2-0.2,0.5-0.4,0.8-0.5
			c0.5-0.1,0.6-0.1,0.3,0.2c0.5-0.4,1.2-0.6,1.9-0.6c0.5,0,1,0,1.6-0.1h0.3c-0.1,0.1-0.2,0.1-0.3,0.1l2.1,0.2
			c0.5-0.2,0.7-0.2,0.8,0.1c0,0.3-0.1,0.5-0.4,0.5c0,0,0,0,0,0l0,0c-0.2,0.1-0.5,0.1-0.8,0c-0.7-0.1-1.4-0.2-2.1-0.2
			c-0.8,0-1.5,0.1-2.3,0.5h-0.4c-1.1,0.1-2,0.6-2.7,1.5c-0.4,0.4-0.6,0.5-0.6,0.2s0.1-0.5,0.5-0.7c-0.3,0-1,0.9-2,2.6l1.1-1.3
			c0.3-0.3,0.6-0.5,1-0.6c1.4-0.9,3.1-1.4,4.8-1.4c0.5,0,0.9,0,1.4,0.1c0.3,0.1,0.7,0.1,1,0.3l0.8,0.2c-0.1-0.1-0.1-0.1-0.2-0.1
			c0.3-0.2,0.8-0.3,1.5-0.1c0.6,0.1,1.1,0.3,1.5,0.7c0.3,0.3,0.4,0.4,0.3,0.5c-0.1,0.1-0.2,0.1-0.4,0.1c-0.2,0.1-0.3,0.2-0.2,0.3
			c-0.2,0.3-0.6,0.5-1,0.5c-0.4,0-0.9-0.1-1.5-0.3c-0.5-0.1-0.9-0.1-1.4,0c0.5,0,0.9,0,1.4,0.2c0.4,0.2,0.8,0.2,1.2,0.2
			c0.2,0,0.6,0.1,1.1,0.5c0.4,0.3,0.8,0.6,1.1,0.9l0.6,0.7l0.4,0.5l0.4,0.5c0.2,0.3,0.3,0.5,0.2,0.5c-0.1,0.2-0.1,0.4-0.1,0.5
			c0,0.3,0,0.4-0.1,0.5c-0.1,0-0.2,0-0.3,0c-0.1-0.1-0.2,0-0.3,0.1c0,0.2-0.1,0.4-0.2,0.5c0,0.1-0.2,0.1-0.3,0.1c0,0,0,0,0,0
			c-0.1-0.1-0.2-0.1-0.3-0.2c-0.1-0.1-0.2-0.2-0.3-0.4l-0.3-0.4c-1.1-1.8-2.4-2.7-3.8-2.7h-2.5c-0.9,0-1.4-0.4-1.6-1.1
			c-0.5-0.1-1.1,0-1.5,0.4c-0.4,0.3-0.7,0.6-0.9,0.9l-0.4,0.5c-0.1,0-0.3,0.1-0.4,0.1c0,0.1,0.1,0.2,0.2,0.3
			c0.1,0.1,0.2,0.3,0.2,0.5c-0.3,0.2-0.4,0.4-0.2,0.5s0.3,0.3,0.2,0.5c-0.2-0.2-0.3-0.2-0.3-0.1c0,0.2,0,0.4,0,0.5
			c0.1,0.2,0.1,0.3,0,0.5c-0.1,0.1-0.2,0.1-0.5-0.1c0.2,0.5,0.4,0.6,0.7,0.4s0.3-0.4,0.2-0.6c0.1,0.1,0.3,0.2,0.4,0.1
			c0.2,0,0.3,0,0.5,0c0.2,0.5,0.3,0.5,0.4-0.1s0.3-0.9,0.4-0.9s0.3,0.1,0.4,0.3c0.1-0.3,0.3-0.3,0.6-0.1s0.5,0.1,0.6-0.2
			c0.2,1.4,1.1,2.6,2.3,3.3c0.2,0.2,0.3,0.3,0.2,0.3h-0.3l-0.3,0c0,0.1,0.1,0.2,0.2,0.2c-0.1,0.3,0,0.5,0.3,0.8s0.4,0.4,0.3,0.5
			l-0.5-0.2c0.3,0.3,0.7,0.6,1.2,0.5c1.2,0.4,2.3,0.8,3.4,1.5c1,0.6,1.8,1,2.2,1.2l0.8,0.4c0.2,0.1,0.4,0.2,0.6,0.4
			c0.2,0.1,0.4,0.3,0.7,0.5c0.4,0.5,0.8,1,1,1.6c0.2-0.4,0.3-0.5,0.5-0.2c0,0.2,0,0.4,0.1,0.7c0.1-0.2,0.2-0.4,0.3-0.6
			c0.1,0,0.3,0.1,0.3,0.4l0.3,0.8c0.1,0.4,0.1,0.8,0,1.2c-0.3,0.1-0.6,0.4-0.6,0.8v0.6c0.1-0.1,0.2-0.1,0.3-0.2c0,0.7-0.1,1.3-0.3,2
			c-0.1,0.1-0.4,0.5-0.8,1.1c-0.4,0.4-0.6,0.9-0.7,1.5c0,0.4-0.1,0.7-0.4,1c-0.4,0.4-0.8,0.7-1.3,0.9c-0.4,0.2-0.8,0.5-1.2,0.7
			c-0.5,0.3-0.9,0.6-1.4,0.8c-0.6,0.2-1.1,0.6-1.6,1.1c-0.9,0.4-2,0.6-3,0.5h-1.3c-0.6-0.3-1.2-0.4-1.8-0.3c-0.6,0-1.3,0-1.9-0.2
			c-0.6,0.1-1.3-0.1-1.8-0.5c-1-0.7-1.9-1.5-2.6-2.5c-0.7-0.8-0.7-1.1,0-1l-0.4-1c-0.1-0.3,0-0.6,0.1-0.8c0.5,0.2,0.8,0.1,0.8-0.2
			s0-0.5-0.7-0.5c0-0.7,0.5-1.1,1.4-1.1c0.2,0,0.4,0,0.7,0c0.4,0.1,0.9,0.1,1.3,0c0.3-0.5,0.9-0.8,1.4-0.6c0.6,0.2,1.1,0.6,1.3,1.2
			c0.5,0.6,1.3,0.9,2.1,0.8c0.6,0,1.2-0.1,1.8-0.3c0.6-0.3,1.2-0.4,1.8-0.2c0.6,0.2,1.3,0.1,1.9-0.1c0.2-0.2,0.8-0.3,1.8-0.3h-0.1
			c-0.1-0.4,0.2-0.7,1-0.7s1-0.3,0.8-0.8h0.1c0.8-0.1,1-0.4,0.4-0.8c-0.2,0.1-0.3,0.1-0.5,0h-0.3c0,0.2,0.1,0.3,0.1,0.5
			c-0.3,0.2-0.4,0.2-0.4,0.1c-0.1-0.2-0.1-0.4-0.1-0.6c0-0.2-0.1-0.4-0.2-0.5c-0.1-0.1,0-0.3,0-0.3s-0.2,0.1-0.3,0
			c-0.4-0.3-0.7-0.6-1-1c-0.5-0.6-1-1-1.3-1.3c-0.2,0.4-0.4,0.5-0.8,0.1c-0.1-0.1-0.1-0.2-0.1-0.3c0-0.1-0.2-0.3-0.4-0.5
			c-0.3-0.2-0.6-0.4-0.8-0.5s-0.3-0.3-0.2-0.5L116.1,35.4z M106.3,21.3c-0.5,0.3-0.7,0.8-0.8,1.4C105.7,22.4,106,21.9,106.3,21.3z
			 M110.1,34.3h0.2c1.5,0.4,2.9,0.9,4.2,1.5c0.5,0.3,0.6,0.4,0.4,0.4c-0.5,0-1-0.2-1.4-0.4c-0.4,0.1-0.6,0.1-0.8,0s-0.2-0.2-0.1-0.2
			c0.1,0,0.3,0,0.4,0c-0.4-0.2-0.9-0.4-1.3-0.6C111.1,34.9,110.6,34.7,110.1,34.3z M111.5,31.4h-0.2l-0.2,0.1c0.2,0,0.4,0.2,0.6,0.4
			c0.1,0.3,0.3,0.4,0.4,0.4c0.7,0.4,1.6,0.6,2.4,0.7c0.3-0.2,0.7-0.1,1.1,0.3c0.8,0.6,1.3,0.9,1.4,0.8s0.1-0.2-0.2-0.5
			c-0.1-0.1-0.3-0.3-0.5-0.3c0.3,0,0.6,0.1,0.8,0.3c0.3,0.3,0.6,0.4,0.8,0.3s0.2-0.2,0-0.3l-1-0.5c-0.4-0.2-0.8-0.4-1.1-0.5
			c-0.3-0.2-0.7-0.3-1.1-0.5c-0.4-0.2-1-0.3-1.8-0.5S111.7,31.5,111.5,31.4z M111.7,24.2c0.1,0.1,0.3,0.1,0.4,0.1
			c0.2,0,0.3,0.1,0.4,0.1c0.3,0.1,0.4,0.3,0.6,0.5c0.4-0.1,0.6,0,0.6,0.2s-0.3,0.3-0.7,0.2c-0.5,0.1-1.1-0.1-1.5-0.4
			C111.1,24.6,111.1,24.4,111.7,24.2z M112.3,34.3h0.3c0.2,0.1,0.5,0.2,0.7,0.3C112.3,34.6,112,34.5,112.3,34.3z M112.9,23.5
			c0.5,0.2,1,0.3,1.6,0.3c-0.2-0.1-0.3-0.1-0.5-0.1C113.6,23.6,113.2,23.5,112.9,23.5L112.9,23.5z M114.3,43.6h-0.2
			c-0.2,0-0.5,0.1-0.7,0.2h0.6C114.1,43.8,114.2,43.7,114.3,43.6z M113.6,34.6c1,0.1,1.4,0.3,1.3,0.7c-0.2-0.1-0.4-0.1-0.5,0
			c-0.1,0-0.3,0-0.4,0c0.2-0.1,0.2-0.2,0-0.3C113.7,34.9,113.6,34.8,113.6,34.6L113.6,34.6z M114.3,19.2h0.3c0.1,0.1,0.1,0.1,0,0.2
			c-0.2,0.1-0.5,0-0.7-0.1C113.7,19.3,113.9,19.3,114.3,19.2L114.3,19.2z M114.5,30.9c2.2,0.6,3.4,1.3,3.7,2
			C116.8,32.5,115.6,31.8,114.5,30.9z M114.8,22.4l0.2,0.1l0.5,0L114.8,22.4z M117.7,19.2c-0.5,0-0.8-0.1-0.9-0.2s0-0.2,0.1-0.2
			c0.1,0,0.3,0,0.4,0c0.2,0.1,0.4,0.2,0.6,0.2C118.1,19.2,118,19.3,117.7,19.2L117.7,19.2z M120.7,24.3c0.2-0.7,0.5-0.7,0.8-0.1
			s0.4,0.9,0.3,0.9s-0.3-0.1-0.5-0.3s-0.3-0.3-0.3-0.3s0.1,0.3,0.3,0.8c-0.2,0.1-0.4,0-0.6-0.4s-0.5-0.7-0.8-1.1
			C120.2,23.7,120.5,24,120.7,24.3L120.7,24.3z M119.8,47.9c0.2-0.1,0.3-0.2,0.5-0.3h0.2c0.1,0.1,0,0.3-0.2,0.3
			C120.1,48,119.9,48,119.8,47.9L119.8,47.9z M123.7,43.8l-0.1,0.3c-0.2,0.5-0.4,0.7-0.5,0.5s-0.1-0.3,0.1-0.5
			C123.3,43.9,123.5,43.8,123.7,43.8L123.7,43.8z"/>
		<path class="st0" d="M45.9,73.5c0.1,0,0.2,0.2,0.3,0.4c0.3-0.3,0.5-0.5,0.6-0.7c0,0.1-0.1,0.2,0,0.3c0,0.1,0,0.3-0.1,0.4
			c-0.1,0.1-0.2,0.2-0.3,0.3c-0.6,0.4-0.9,1-0.9,1.7c-0.1,0.8-0.2,1.5-0.5,2.2c-0.2,0.7-0.4,1.3-0.5,2c-0.1,0.7-0.3,1.8-0.7,3.2
			s-0.5,2.2-0.5,2.4c-0.2,1.4-0.3,2.8-0.3,4.3v1.3c0.2-3.4,0.7-6.8,1.5-10.1c0.5-1.7,1.1-3.3,1.9-4.9c0.6-1,1.2-1.9,1.9-2.8
			c0.1-0.2,0.4-0.4,0.7-0.8l0.9-0.9c0.2-0.2,0.5-0.5,0.8-0.7c0.3-0.2,0.6-0.4,1-0.6c0.4-0.2,0.8-0.4,1.3-0.6l1.1-0.4
			c0.1,0.1,0.2,0.2,0.2,0.2c0,0.1-0.1,0.2-0.1,0.3c-0.1,0.2-0.1,0.3-0.2,0.4c0.1,0,0.3,0.1,0.5,0.1c-0.3,0.3-0.6,0.7-0.8,1.2
			c-0.2,0.2-0.5,0.3-0.8,0.4c-0.3,0.1-0.6,0.3-0.9,0.6c-0.2,0.2-0.4,0.5-0.4,0.8c0,0-0.1,0.1-0.1,0.1l-0.3,0.1
			c-0.1,0-0.2,0.1-0.2,0.1c-0.3,0.2-0.6,0.5-0.9,0.8l-0.2,0.3l-0.2,0.3c-0.1,0.1-0.1,0.1-0.2,0.2c-0.1,0.1-0.2,0.1-0.3,0.2
			c-0.1,0-0.2,0.1-0.3,0.3c0,0.2,0,0.3,0.3,0.4c0,0.1,0,0.1,0,0.2v0.1c-0.2-0.1-0.4-0.1-0.5,0.1c0,0,0,0,0,0l0,0
			c-0.1,0.2-0.2,0.3-0.2,0.3L48,76.4c-0.1,0.3-0.1,0.6-0.1,0.9c0,0.5-0.1,0.7-0.3,0.8c0,0.2,0.1,0.4,0.1,0.6c0,0.5-0.2,1-0.4,1.4
			c-0.2,0.4-0.4,0.8-0.5,1.2c-0.2,0.6-0.3,1.3-0.3,1.9c0.2,0.7,0,1.4-0.5,1.8v0.1c0.1,0.1,0.1,0.3,0.1,0.4c0,0.3-0.1,0.6-0.3,0.9
			c-0.2,0.3-0.2,0.7-0.2,1v0.1c0.2,0.4,0.4,0.8,0.3,1.3c0,0.3,0,0.5,0,0.8c0,0.3,0,0.6,0,0.8c0,0.3,0,0.6,0.2,0.9
			c0,0.2-0.1,0.3-0.2,0.4c-0.1,0.4-0.1,0.6,0,0.6c0.1,0.2,0.3,0.3,0.5,0.5c0.3,0.3,0.3,0.8,0,1.6c-0.2-0.4-0.4-0.7-0.7-1.1h-0.1
			c0.1,0.6,0.4,1.1,0.8,1.6c0.4,0.4,0.7,0.8,1,1.3c0.1,0.1,0.5,0.6,1.3,1.4l0.1-0.1c0-0.1-0.1-0.2-0.1-0.3c0-0.1-0.1-0.2-0.1-0.3
			h0.6c0.2,0,0.4,0,0.6,0l0.1-0.2c0.2,0.4,0.6,0.6,1,0.7c0.2-0.1,0.5-0.3,0.7-0.4l-0.1-0.2l-0.1-0.2c1.1-0.2,2.3-0.5,3.7-0.8
			c0-0.2,0.1-0.5,0.1-0.9c0-0.3,0-0.5,0-0.8c0,0.1,0,0.1-0.1,0.2v0.2c-0.2-1.5-0.3-2.3-0.3-2.3c0-0.4,0.1-0.8,0.2-1.2l-0.1,0.2
			c0,0.1-0.1,0.1-0.1,0.2h-0.1c0-0.6,0.1-1.2,0.2-1.8c-0.2,0-0.4,0-0.5,0c0-0.1,0.1-0.2,0.2-0.3c0.1,0.1,0.3,0.1,0.5,0.2
			c-0.1,0-0.1-0.2,0.1-0.4s0.1-0.4-0.2-0.4c0-0.1,0-0.2,0-0.3c0-0.1,0-0.2,0-0.4c0-0.1,0-0.2,0-0.3h-0.2c-0.1,0.3-0.1,0.4-0.2,0.4
			c-0.1-0.3-0.2-0.5-0.2-0.6c0-0.1-0.1-0.2-0.2-0.3c-0.1-0.1-0.1-0.2-0.1-0.3c0-0.3,0-0.6,0-0.9c0-0.1,0-0.1,0-0.2
			c0-0.1,0-0.1,0.1-0.2c0,0,0-0.1,0-0.2c-0.2-0.2-0.3-0.4-0.3-0.4c0.1,0,0.2,0,0.3,0c0.1-0.3,0.1-0.5,0-0.8
			c-0.1-0.4-0.2-0.7-0.3-1.1c-0.1-0.4-0.2-0.7-0.3-0.8c0.1,0,0.1-0.1,0.2-0.2c0.2,0.4,0.5,0.9,0.7,1.4c0-0.2,0-0.4,0-0.6
			c0-0.3,0.1-0.5,0.4-0.7v-1c0.3,0.1,0.6,0.2,0.9,0.4c0.1,0.2,0.2,0.4,0.3,0.6c0.1,0.2,0.1,0.4,0.3,0.6l0.1-0.3
			c0-0.1,0.1-0.3,0.1-0.4c0-0.1,0.1-0.2,0.1-0.3c0.1,0.1,0.2,0.1,0.3,0.2c0.2-0.4,0.3-0.8,0.4-1.1c0.2,0.7,0.4,1.1,0.5,1.3l0.3-0.8
			c0.3,0.6,0.6,1.1,0.8,1.5c0-0.2,0.1-0.3,0.1-0.5c0-0.1,0-0.2,0-0.3c0.1,0,0.1,0,0.2,0c0.1,0.9,0.3,2,0.6,3.5
			c0.3,1.4,0.5,2.3,0.5,2.4s0.1,0.8,0.2,1.6s0.2,1.4,0.3,1.9c0.2,0.5,0.4,0.9,0.7,1.3v-0.5h0.2v1.4l-0.2,0.3l0.4,0.1
			c0.2-0.2,0.3-0.2,0.3,0s0,0.2,0,0.2c-0.2,0.1-0.3,0.2-0.3,0.3s0,0.1,0.2,0.2s0.2,0.2,0.2,0.2v0.5l0.3-0.2l0.3-0.3
			c-0.1,0.7-0.2,1-0.2,1S62.3,96.5,62,97v-0.4c-0.1,0.2-0.2,0.4-0.2,0.6c0,0.2,0,0.3,0.1,0.5c0.1,0.1,0.1,0.3,0.2,0.4l0.3,0.2
			c0,0.1,0.1,0.3,0.1,0.4c0,0.2,0.1,0.3,0.1,0.4c0.1,0.3,0.2,0.7,0.2,1c0,0.2,0,0.4,0,0.7c0,0.2,0,0.5,0,0.7c0,0.3,0.1,0.5,0.2,0.8
			l-0.3,1l0.2-0.2l0.2-0.3v1.4c0,0.2,0,0.4-0.1,0.5c-0.1,0.1-0.2,0.2-0.4,0.3c-0.2,0.1-0.5,0.2-0.8,0.3c-0.2,0.1-0.4,0.1-0.6,0.2
			l-1.2-0.3l-0.6,0.4c-0.3,0.2-0.6,0.3-1,0.2c-0.6-0.1-1.2-0.1-1.8-0.2c-0.4,0-0.5-0.2-0.5-0.6c0-0.9-0.1-2.3-0.3-4.2
			c-0.3,0.1-0.6,0.2-0.8,0.4c-0.3,0.2-0.6,0.3-1,0.3h-0.3c-0.5,0-0.9,0.1-1.3,0.2c-0.4,0.1-0.9,0.2-1.3,0.2c-0.2,0-0.3,0-0.5,0
			l-1.3-0.3c-0.2,0.1-0.4,0.1-0.5,0.2c-0.2,0-0.3-0.1-0.5-0.2l-0.5-0.2v0.2c-0.6,0.1-1.1,0-1.7-0.3c-0.9-0.7-1.5-1.2-1.6-1.3
			s-0.8-0.9-2-2.2c0.1,0,0.2,0,0.3,0c-0.5-0.9-0.8-1.9-0.8-2.9c0-0.7,0.1-1.4,0.2-2.2h0.2l-0.5-0.4l-0.1,0.3
			c-0.1-0.5-0.3-0.8-0.3-1.2L41,91.7l-0.1-0.1c0.4-0.4,0.6-1,0.6-1.6c0-0.3,0-0.5-0.1-0.8c-0.1-0.4-0.2-0.8-0.2-1.2
			c0-0.4,0.1-0.8,0.2-1.2v-1.3c0-0.2,0-0.4,0.1-0.6l0.2-0.1c0.1,0,0.1-0.1,0.1-0.1c0-0.2,0.1-0.5,0.1-0.8c0-0.3,0.1-0.6,0.2-0.9
			c0.2-0.3,0.3-0.6,0.5-0.9c-0.1-0.2-0.1-0.5,0.1-0.7c0.2-0.3,0.4-0.5,0.7-0.6c-0.1,0.2-0.2,0.5-0.3,1s-0.2,0.8-0.3,1.1
			c0.3-0.1,0.5-0.3,0.7-0.6c0.1-0.2,0.2-0.4,0.3-0.7c0-0.3,0.1-0.5,0.2-0.8c0.1-0.3,0.2-0.6,0.3-0.7c-0.4,0-0.8,0.1-1.2,0.2
			c0-0.5,0-0.9,0.1-1.3c0-0.2,0.1-0.3,0.2-0.5c0.1-0.1,0.1-0.2,0.2-0.3c0.1-0.2,0.2-0.5,0.4-0.9s0.3-0.7,0.4-1h0.4
			C45.2,75.2,45.6,74.3,45.9,73.5z M42,89.5V91c0.2-0.2,0.3-0.5,0.4-0.8C42.5,90.1,42.3,89.8,42,89.5z M43.2,82.9
			c-0.1,0.2-0.2,0.4-0.3,0.6c-0.1-0.2-0.2-0.3-0.2-0.5c-0.1,0.3-0.2,0.8-0.3,1.5s-0.2,1.2-0.2,1.5c0.1-0.3,0.3-0.8,0.5-1.5
			S43.2,83.3,43.2,82.9C43.3,82.9,43.2,82.9,43.2,82.9L43.2,82.9z M42.4,91.3c-0.1,0.4-0.1,0.8-0.1,1.2c0,0.4,0.1,0.8,0.3,1.2v-0.8
			C42.5,92.3,42.5,91.8,42.4,91.3z M53.7,71.6c0.4,0,0.9,0,1.3-0.1v0.2c-0.5,0.2-1.1,0.4-1.6,0.6c0-0.1,0.1-0.3,0.2-0.4
			C53.6,71.8,53.6,71.7,53.7,71.6z M55.7,99.6c-0.2,0.1-0.4,0.1-0.5,0.1c-0.2,0-0.4,0.1-0.6,0.2c-0.2,0.1-0.2,0.3-0.3,0.5l1.4-0.3
			L55.7,99.6z M61.3,89.5c0.1,0.5,0.1,1,0.2,1.4c-0.4-0.7-0.5-1.2-0.4-1.4H61.3z M61.7,91.4c0.4,0.7,0.7,1.5,0.7,2.3h-0.2v-1
			C61.7,92.7,61.6,92.3,61.7,91.4L61.7,91.4z"/>
		<path class="st0" d="M68.5,96.9l1-5v-0.4c0-0.7,0.1-1.4,0.2-2.2c0.1-0.8,0.2-1.6,0.3-2.4c0-0.9,0.1-1.7,0.3-2.6
			c0.2-0.9,0.3-1.9,0.3-2.8c0.2-0.7,0.3-0.8,0.4-0.2c0.1,0.4,0,0.9-0.1,1.3c0.1,0.5,0.6,0.6,1.4,0.4s1.2-0.1,1.3,0.2
			c0.1,0.1,0.3,0.2,0.5,0.2c0.9-0.2,1.7-0.7,2.3-1.3c0.1-0.1,0.3-0.3,0.4-0.4c0.2-0.6,0.4-0.5,0.8,0.3c0.5-0.2,0.9-0.7,1.1-1.2
			c0.2-0.6,0.3-0.8,0.2-0.8s-0.3,0.2-0.6,0.5s-0.4,0.4-0.4,0.1c0-0.4,0.3-0.8,0.7-0.9c0.2-0.3,0.4-0.3,0.7,0.1
			c0-0.1-0.1-0.2-0.1-0.3c0.4-0.3,0.8-0.8,0.9-1.3c0.1-0.4,0.2-0.8,0.3-1.2c0.3-0.5,0.4-1.1,0.4-1.7c0-1-0.3-2-0.9-2.9
			c0.2-0.4,0.1-0.7-0.3-0.8c-0.5-0.1-1-0.1-1.5-0.1c-0.8,0.1-1.6,0.3-2.3,0.6c-0.6,0.2-1.2,0.4-1.8,0.6c-0.6,0-0.5-0.1,0.3-0.4
			l0.4-0.2h-0.4c-0.3,0-0.5,0-0.5,0s0.1-0.2,0.5-0.4c0.3-0.2,0.6-0.2,0.9,0c0.4-0.1,0.3-0.2-0.2-0.3s-0.9-0.1-1,0.3
			c-0.1,0.2-0.2,0.4-0.4,0.6c-0.1,0.1-0.1,0.1-0.2,0c0,0,0,0,0,0l0,0c-0.1-0.1-0.1-0.2-0.2-0.3c-0.1-0.3-0.3-0.5-0.6-0.7
			c0.4-0.1,0.8-0.3,1.3-0.4c1.1-0.4,2.3-0.7,3.4-0.9c-0.6-0.2-1.3-0.1-1.9,0.2c-0.1,0-0.4,0.1-1,0.3c-0.8,0.2-1.1,0.2-0.8-0.1
			l0.7-0.2h-0.8c-0.9,0.1-1.4,0.2-1.4,0.1s0.1-0.2,0.3-0.3c0.4-0.3,0.5-0.4,0.2-0.4c-0.1-0.2-0.1-0.5,0.2-0.6c0,0,0,0,0,0
			c0,0,0.1-0.1,0.2-0.1c0.4-0.1,0.9-0.2,1.3-0.3c0.4,0,0.7-0.2,1-0.4c0.2,0.3,0.6,0.4,1.1,0.2c0.3-0.1,0.6-0.2,0.9-0.3
			c0.4,0.1,0.7,0.2,1,0.4c-0.5,0-1,0.1-1.4,0.2c-0.3,0-0.5,0.1-0.8,0.3c0.7-0.1,1.4-0.1,2.1-0.2c1.1,0,2.2,0.2,3.2,0.6
			c1.1,0.5,2,1.2,2.7,2.2c0.7,0.9,1,2.1,1,3.2c0,0.2,0,0.4,0,0.7c0,0.6-0.1,1.2-0.3,1.8c-0.3,0.9-0.4,1.5-0.5,1.8
			c0.1,0.5-0.1,1.1-0.4,1.5c-0.3,0.3-0.5,0.4-0.5,0.3c0.3-0.4,0.3-0.6,0.2-0.6S83,80,82.9,80.5c0.1,0.7-0.2,1.3-0.8,1.8
			c-0.4,0.4-0.8,0.9-1.1,1.4c-0.6,0.6-0.5,0.6,0.2,0c0,0.3-0.4,0.8-1.1,1.4c-0.6,0.6-1.3,1-2.1,1.3l4.4,7c-0.2-0.6-0.4-1.2-0.8-1.8
			c-0.4-0.7-0.6-1.1-0.7-1.2c0.6,0.3,1.1,0.8,1.3,1.4c0.4,0.7,0.6,1.3,0.8,1.6c0.3,0.6,0.8,1.2,1.3,1.7c0.7,0.8,1.1,1.4,1.3,1.7
			c-0.1-0.3-0.3-0.6-0.4-0.9c-0.4-0.8-0.3-1,0.4-0.8c0.1,0.3,0.3,0.5,0.5,0.8c0.3,0.4,0.5,0.7,0.6,0.9s0.2,0.7,0,0.8l-0.3-0.4
			c0.1,0.4,0.2,0.8,0.1,1.2c0.1,0.3,0.1,0.5-0.2,0.6s-0.3,0.2-0.2,0.4c-0.3,0.5-0.8,0.5-1.4,0c-0.5-0.4-1-1-1.2-1.6
			c-0.7-1-1.1-2.1-1.3-3.3c-1.7-3-2.7-4.7-3.1-5.1c-0.3-0.4-0.5-0.7-0.7-1.1c-0.1-0.2-0.3-0.5-0.4-0.7c-0.1-0.2-0.3-0.4-0.4-0.5
			c-0.3-0.3-0.8-0.2-1.3,0.3c0.2,0.2,0.4,0.5,0.6,0.7c0.7,0.8,1.1,1.3,1.1,1.6c0,0.1,0,0.1-0.1,0.2c1.3,1.4,2.3,3,3.2,4.7
			c0.8,1.7,1.8,3.3,2.9,4.8c0.6,0.8,0.7,1.1,0.3,1.1c0.2,0.4,0.2,0.7,0,0.7s-0.4-0.1-0.6-0.4c-1.1-1.2-2-2.6-2.7-4
			c-0.6-1-1.1-2-1.6-3c-0.4-0.9-1-1.8-1.5-2.6c-0.7-0.9-1.2-1.9-1.7-3c0-0.5-0.3-0.6-0.8-0.3s-0.8,0.4-0.8,0.2c0-0.1-0.1-0.1-0.3,0
			c-0.8,0.2-1.3,0.2-1.4,0c0.2-0.2,0.3-0.3,0.3-0.4s-0.1,0-0.3,0.1c-0.7,0.2-1.1,0.1-1.3-0.3c-0.2,0.1-0.4,0.1-0.6,0
			c-0.1,0-0.2-0.2-0.3-0.3s-0.1-0.3-0.2-0.4c-0.8,6-1.2,9.4-1.2,10.2c0,0.1,0,0.2,0.1,0.2l0.1-0.3c0-0.3,0.1-0.5,0.2-0.8
			c0.4,0.7,0.7,1.5,0.8,2.3c0,0.3-0.1,0.5-0.3,0.7c0.4-0.7,0.7-0.5,0.7,0.6c0,0.3,0,0.7,0,1c-0.4,0.1-0.7,0.2-1,0.5
			c-0.5,0.3-0.7,0.3-0.8-0.1c-0.1,0.4-0.3,0.5-0.5,0.2s-0.4-0.3-0.5,0c-0.2-0.1-0.3-0.1-0.4-0.1c-0.2,0.1-0.3,0.3-0.4,0.5
			c-0.1-0.1-0.3-0.2-0.5-0.2c-0.2,0-0.4,0-0.6-0.1l-0.2-0.4c-0.1,0.2-0.3,0.4-0.6,0.6c-0.4-0.2-0.6-0.6-0.6-1c0-0.3,0.1-0.7,0.2-1
			c0.3-1.1,0.5-1.7,0.5-1.8c0.1-0.5,0.2-0.6,0.3-0.2c0.1,0.7,0.2,1,0.3,1s0.1-0.1,0.2-0.2c0.1-1.1,0.3-2.8,0.6-4.9
			c0.2,0.1,0.2,0.6,0.2,1.5c-0.1,0.7-0.1,1.3,0,2c0-0.2,0-0.5,0.2-0.7c0.1-0.1,0.2,0,0.3,0.2s0.1,0.5,0.2,0.8
			c0.1,0.5,0.2,0.5,0.3-0.1S68.3,96.4,68.5,96.9z M68.6,84.7l0.3,1.2c0,1.5-0.2,3-0.7,4.4v1c-0.1,0.1-0.2,0.5-0.3,1.2
			c-0.1,1.4-0.2,2.1-0.3,2.1s-0.4-0.3-0.4-0.8s0-0.9,0-1.2c0.1-0.7,0.2-1.3,0.4-2c0.2-0.7,0.3-1.3,0.3-2c0-0.7,0-1.3,0-2
			c0.1-0.5,0.1-1,0-1.6l0.4,0.2C68.4,85.1,68.5,84.9,68.6,84.7L68.6,84.7z M69,77.7v1.2c0,0.8-0.1,1.6-0.3,2.4
			c-0.1-0.1-0.1-0.3-0.1-0.8C68.7,79.6,68.8,78.6,69,77.7L69,77.7z M69.1,82.4c0.1,0.4,0.1,0.8,0.1,1.2c0,0.4-0.1,0.7-0.2,0.7
			s-0.2-0.2-0.2-0.8S69,82.6,69.1,82.4z M69.5,78.7c0.1,0.2,0.1,0.5,0.1,0.8l-0.1,0.6C69.3,79.6,69.3,79.1,69.5,78.7L69.5,78.7z
			 M69.5,70.4l0.2,0.6l-0.2,0.4C69.3,71.2,69.3,70.9,69.5,70.4L69.5,70.4z M70.5,89.4c0.1,0.3,0.1,0.7,0,1c-0.1,0.4-0.2,0.6-0.2,0.6
			s-0.2-0.3-0.1-0.7C70.2,90,70.3,89.7,70.5,89.4L70.5,89.4z M76.8,82.7c-0.1,0.1-0.3,0.2-0.4,0.2c-0.7,0.2-1,0.4-0.9,0.5
			s0.3,0.1,0.7-0.2C76.4,83.1,76.7,82.9,76.8,82.7L76.8,82.7z M76.9,88.2c0,0.3,0.2,0.6,0.4,0.8c0.2,0.3,0.3,0.3,0.3,0.2
			C77.4,88.8,77.2,88.4,76.9,88.2L76.9,88.2z M77.1,91.1c0.2,0,0.3,0.1,0.3,0.3c0.3,0.3,0.3,0.5,0.1,0.6s-0.4,0-0.4-0.3
			C77,91.5,77,91.3,77.1,91.1L77.1,91.1z M77.8,80.7L77.8,80.7l0.1,0.2c-0.2,0.3-0.4,0.4-0.6,0.3s-0.2-0.2,0-0.3
			C77.4,80.8,77.5,80.7,77.8,80.7L77.8,80.7z M78.3,92.9c1.1,1.2,2,2.6,2.6,4.1v0.3c-0.1-0.2-0.2-0.3-0.3-0.4
			c-0.3-0.4-0.6-0.8-0.9-1.2C78.9,95,78.4,94,78.3,92.9L78.3,92.9z M79.5,70.3c-0.2,0.1-0.1,0.2,0.2,0.2c0.6,0.1,1,0.1,1.1,0
			s0-0.2-0.3-0.3C80.1,70.2,79.8,70.2,79.5,70.3L79.5,70.3z M80,88.8l0.2,0.1c0.2,0.2,0.3,0.4,0.3,0.6c0,0.2-0.1,0.1-0.3-0.1
			C80.1,89.3,80,89.1,80,88.8L80,88.8z M82,98.9c0.3,0.2,0.4,0.4,0.4,0.6c0.2,0.3,0.2,0.4,0,0.4s-0.4-0.1-0.4-0.4
			C82,99.3,81.9,99.1,82,98.9L82,98.9z"/>
		<path class="st0" d="M107,96.8c-0.6-0.4-1.1-0.9-1.6-1.4l0.1-0.1c0,0,0.1-0.1,0.1-0.1c0.1,0.1,0.3,0.3,0.4,0.4
			c0-0.7-0.1-1.6-0.2-2.8h-0.2c0,0.3,0,0.6-0.1,0.8l-0.3-1.2c-0.3,0.2-1.3,0.5-2.8,1.1c-1.2,0.4-2.3,1-3.3,1.7l-0.2-0.2l-0.3-0.3
			c0,0.3-0.1,0.5-0.2,0.8c-0.1,0.3-0.2,0.6-0.3,0.8s-0.2,0.4-0.3,0.6c-0.1,0.2-0.3,0.4-0.4,0.6c-0.3,0.3-0.4,0.6-0.4,0.7
			s0.2,0.4,0.6,0.6c0.5,0.3,0.6,0.6,0.3,0.9l-0.4,0.3c0-0.2,0-0.4,0-0.6v-0.3l-0.3-0.2l-0.3-0.2c0.1,0.6,0.1,0.9,0.1,1
			c0,0.2-0.1,0.4-0.2,0.4c-0.4,0.4-0.6,0.9-0.7,1.4c-0.1,0.5-0.2,1-0.4,1.4c-0.1,0.2-0.6,0.3-1.6,0.3l-0.4-0.5l-0.6-0.2
			c-0.1,0.3-0.3,0.4-0.7,0.3c-0.2-0.1-0.5-0.2-0.8-0.1c-0.4-0.6-0.5-0.9-0.5-0.9s0-0.3,0.1-0.8s0.1-0.7,0.1-1s-0.1-0.6-0.3-0.7
			c0-0.2,0-0.3,0-0.5c-0.1-0.2-0.1-0.3-0.1-0.5c0-0.2,0.1-0.3,0.2-0.4c0-0.1,0-0.1,0-0.2c0-0.1,0-0.2,0-0.3c0-0.1,0-0.2,0-0.3
			c0-0.3,0-0.6,0.1-0.9l-0.4,0.2l-0.4,0.2c0.1-0.2,0.1-0.4,0.1-0.6c0-0.2-0.1-0.3-0.4-0.3c-0.1-0.3-0.2-0.7-0.3-1
			c0-0.1,0.1-0.1,0.1-0.2c0-0.1,0.1-0.2,0.2-0.3c-0.2,0-0.4,0.1-0.7,0.1c-0.1-0.4-0.2-0.8-0.3-1.3c-0.1-0.5-0.2-1-0.5-1.5
			c0.2-0.4,0.6-0.6,1-0.7c0.9-0.3,1.8-0.7,2.7-1.3c0.2-0.3,0.4-0.6,0.6-0.8c0.1,0.2,0.1,0.4,0.2,0.6c0-0.2,0-0.3,0.1-0.5
			c0-0.2,0.1-0.4,0.2-0.5c0.1-0.1,0.2-0.2,0.4-0.3c0.2-0.1,0.2-0.2,0.2-0.4c0-0.1,0-0.3,0-0.4c0-0.2,0-0.5,0.1-0.7
			c0.1-0.3,0.2-0.5,0.3-0.8c0.1-0.2,0.2-0.4,0.3-0.6c0.2-0.3,0.3-0.7,0.6-1l0.3-0.1c0.1-0.9,0.1-1.3,0.1-1.4c0.1-0.3,0.3-0.7,0.5-1
			c0.2-0.4,0.4-0.9,0.5-1.4c-0.2,0-0.5,0-0.8,0c0.6-1.5,0.9-2.4,1-2.7c0.1-1.6,0.4-3.1,0.8-4.7c0.3-1.1,0.9-2.1,1.7-2.9L99.4,70
			c0.5-1.1,0.9-1.9,1.2-2.4c0.1-0.4,0.4-0.8,0.7-1.1c0.6-0.4,1.3-0.7,2-0.8l0.3,0.3v-0.7c0.1,0.2,0.3,0.4,0.6,0.7l0.8-0.4
			c0.3-0.2,0.6-0.3,0.8-0.4c0,0.3,0,0.6,0.1,0.8c0.1,0,0.2,0,0.3,0c0.1,0,0.3-0.1,0.4-0.1c0,0-0.1-0.1-0.1-0.2c0-0.1,0-0.1,0-0.2
			c0.7,0.5,1.1,1.2,1.4,1.9c0.3,0.9,0.4,1.9,0.5,2.8c-0.2-0.1-0.3-0.2-0.4-0.3c0.1,1.4,0.4,3.3,0.8,5.7c0.1,0.2,0.1,0.4,0.3,0.6h0.2
			c0.1,0.3,0.1,0.7,0.1,1c0,0.4,0,0.8,0,1.2h0.2v-0.5c0-0.2,0-0.4,0.1-0.6h0.3c0.1,1.1,0.2,1.8,0.2,1.8c0,0.3-0.1,0.5-0.1,0.8
			c-0.1,0.2-0.1,0.4-0.1,0.6c0,0.3,0.1,0.5,0.3,0.8c-0.3,0.5-0.4,1.1-0.3,1.8c0,0.1,0,0.2,0.1,0.3c0.1,0.2,0.1,0.3,0.1,0.4
			c0,0.1,0,0.3,0,0.4v0.7h0.3v-1.3h0.3l0.2,0.6c-0.1,0.3,0,0.7,0.1,1c0.3,0.2,0.6,0.4,1,0.4c-0.2,0.3-0.5,0.6-0.8,0.8
			c0.3,0,0.5,0,0.8-0.1c0.2,0,0.4,0,0.7-0.1c0,0,0,0.1,0,0.1l-0.5,0.3c-0.2,0.1-0.3,0.2-0.5,0.3l0.9,0.2c-0.2,0.1-0.4,0.3-0.6,0.4
			c-0.3,0.2-0.5,0.3-0.6,0.3c0.3-0.1,0.8-0.1,1.3-0.2l1.3-0.2c0,0.1,0,0.1,0,0.2c-0.2,0.1-0.4,0.2-0.6,0.2l-0.6,0.2l0.4,0.6l0.7-0.1
			c-0.7,0.4-1.3,0.8-1.8,1.3c-0.7,0.7-1.1,1-1.2,1.1l-0.2-0.3V91c-0.3,0.1-0.3,0.3-0.1,0.5c0.1,0.2,0.1,0.4,0.1,0.7l0,0v1.3
			c0,0.3,0,0.6,0,0.9c0.1,0.9,0.3,1.9,0.6,3.1c0.1,0.4,0.2,0.7,0.4,1.1c0.1,0.3,0.3,0.7,0.3,1c0.5,1.6,0.9,3.1,1.3,4.7
			c0.1,0.1,0.1,0.3,0.2,0.4c0.1,0.2,0.2,0.4,0.1,0.6c-0.1,0.1-0.1,0.3-0.2,0.4c-0.1,0-0.2-0.1-0.3-0.2c-0.1-0.1-0.2-0.2-0.3-0.3
			c-0.1,0.3-0.2,0.6-0.2,0.9c-0.3-0.3-0.5-0.6-0.7-0.8c0,0.1-0.1,0.2-0.1,0.3c0,0.1,0,0.2-0.1,0.3c-0.1-0.2-0.2-0.5-0.4-1
			c0,0.3-0.1,0.6-0.1,0.9c0,0.2-0.1,0.4-0.1,0.7c-0.5-0.3-0.8-0.3-0.9,0.2l-0.4-1.1c0,0-0.1,0.4-0.3,1c-0.7-0.5-1.1-1.2-1.1-2
			c0-0.9-0.3-1.8-0.8-2.5c-0.1-0.2-0.2-0.3-0.3-0.5c-0.1-0.2-0.2-0.4-0.3-0.7l-0.2-0.6l0.3-0.2l0.6,0.3c0.3,0.7,0.6,1.5,0.8,2.3h0.3
			c0-0.8-0.3-1.6-0.8-2.3c-0.2-0.2-0.3-0.5-0.3-0.8c0-0.3,0-0.6,0.1-0.8c0-0.3,0.1-0.6,0.1-0.8c0-0.5-0.1-0.6-0.4-0.4l-0.3-0.1
			C106.5,97.2,106.7,96.9,107,96.8z M91.3,99.4c-0.1,0.7-0.3,1.4-0.4,2l0,0v-2.4c0.1,0,0.2,0.1,0.2,0.3S91.2,99.5,91.3,99.4
			L91.3,99.4z M98.3,74.2c-0.4,0.6-0.6,1.3-0.6,2c0,0.4,0.1,0.8,0.2,1.2c0.1-0.3,0.3-0.8,0.5-1.3l0.5-1.3L98.3,74.2z M102.9,80.6
			l-0.3,0.9c-0.2,0.4-0.3,0.7-0.3,0.9c-0.1,0.5-0.2,1-0.3,1.4c0.2,0,0.3,0.1,0.3,0.2c-0.1,0.3-0.2,0.5-0.3,0.7c0-0.1,0-0.2,0-0.3
			c0-0.1,0-0.2-0.1-0.3c-0.4,0.9-0.8,1.9-1,2.9c-0.1,0.5,0.1,0.6,0.6,0.3l0.7-0.3h0.2c0.5,0,0.9-0.2,1.3-0.4
			c0.4-0.2,0.8-0.4,1.2-0.6c0.4-0.1,0.7-0.4,0.9-0.8v-1.3c0,0.1-0.1,0.2-0.2,0.3c0,0.1-0.1,0.2-0.2,0.3h-0.2
			c-0.1-1.2-0.3-2.8-0.5-4.9v0.1l-0.6-1.4c-0.2-0.4-0.3-0.8-0.2-1v-0.3h-0.2C103.2,79.1,102.9,80.3,102.9,80.6L102.9,80.6z
			 M104.6,74.7v3.2c0.2-0.1,0.4-0.2,0.7-0.3V76C105.3,75.9,105,75.5,104.6,74.7L104.6,74.7z M105.6,78.3h-0.2
			c0.1,1.2,0.1,2.1,0.2,2.7c0.3-0.3,0.4-0.7,0.4-1.2C105.9,79.4,105.7,78.8,105.6,78.3z M107.3,72.9H107c-0.1,0.6-0.1,1.1-0.1,1.7
			c0,0.5,0.1,1.1,0.3,1.6c0.1,0.6,0.2,1.2,0.2,1.8v3.8c0,0.7,0,1.5-0.1,2.2c0,0.2,0,0.4,0,0.6h0.3c0.1-2.5,0.2-4.1,0.2-4.8
			c0-1.1-0.1-2.2-0.2-3.3c0.1,0.2,0.2,0.4,0.3,0.7c0-0.3,0-0.6-0.1-0.8l-0.3-0.3c0-0.5,0-1-0.1-1.5
			C107.3,73.8,107.3,73.3,107.3,72.9z M107.8,73.7h-0.1c0,0-0.1,0-0.1,0c0.1,0.6,0.2,1.4,0.3,2.6c0.1-0.4,0.1-0.9,0.2-1.3
			C108,74.6,107.9,74.1,107.8,73.7L107.8,73.7z M107.8,94.2c-0.1,0-0.1,0-0.2,0.1c0.1,0.2,0.3,1.1,0.8,2.7h0.2
			c-0.1-0.3-0.2-0.8-0.4-1.4S107.9,94.4,107.8,94.2z M109,98.5h-0.2c0.3,1,0.6,2.2,0.8,3.4c0,0,0.1,0,0.1,0h0.1
			C109.5,100.4,109.2,99.2,109,98.5z M109.1,73.5c0.1,0.3,0.1,0.6,0.2,0.9c0.1,0.3,0.2,0.6,0.2,0.9c0,0.3-0.1,0.6-0.3,0.9H109
			c-0.1-1.5-0.2-2.4-0.2-2.7H109.1z M110.1,92.1h0.2c0.1,0.3,0.2,0.9,0.3,1.8l-0.2,0.1c-0.1-0.3-0.1-0.6-0.2-0.8
			C110.3,92.7,110.2,92.4,110.1,92.1L110.1,92.1z"/>
		<path class="st0" d="M118.4,68.8c0.1,0,0.2-0.3,0.2-0.8c0.1,0.1,0.3,0.1,0.4,0.2c0.1-0.3,0.1-0.6,0.2-0.9c0.4,0.1,0.8,0.2,1.2,0.3
			c0.1,0.1,0.4,0.4,0.9,1.1v-1.1h0.1c0,0.1,0.1,0.6,0.3,1.5l2.9-0.2l0.4-0.7c0.2-0.7,0.9-1.1,2-1.2c0.5-0.1,1.1-0.2,1.6-0.3
			c0.6-0.1,1.1-0.2,1.7-0.3c0.4,0,0.9,0.1,1.3,0.3h0.6c0.2,0.2,0.4,0.5,0.6,0.8c-0.1,0.1-0.2,0.1-0.3,0.1l0,0h1.9l-0.9,0.8
			c0.3,0,0.5,0.1,0.8,0.2c-0.2,0.2-0.4,0.3-0.6,0.4c0.1,0.1,0.2,0.2,0.4,0.3c0.2,0.1,0.3,0.2,0.4,0.3c-0.3,0.1-0.6,0.2-0.9,0.3v0.2
			c0.4,0,0.8,0,1.2,0.1c-0.1,0.3-0.2,0.7-0.3,1l-1.4,0.2l0.2-0.4c-0.2,0-0.5,0-0.7,0c0.2,0.4,0,0.6-0.5,0.6c0.1,0.3,0,0.6-0.3,0.8
			c-0.3,0.2-0.7,0.4-1.1,0.4c0-0.1-0.1-0.2-0.1-0.3l-0.3,0.2h-1.4c-0.1,0-0.2,0-0.4,0.1c-0.1,0-0.3,0-0.4,0c-0.1,0-0.2-0.2-0.3-0.3
			l-2.7,0.6c-0.3,0.1-0.5,0.3-0.7,0.5h1.2c-0.1,0.4-0.5,0.7-1.2,0.7c-0.6,0-1.2-0.1-1.8-0.2c0.1,0,0.1-0.1,0.1-0.2
			c0-0.1,0.1-0.1,0.1-0.2c-0.6,0-0.8,0.3-0.7,0.9c0.1,0.7,0.2,1.5,0.2,2.3l-0.1-0.3c-0.2,0.6-0.3,1.2-0.3,1.8c0,0.5,0.1,0.7,0.4,0.8
			c-0.2,0.3-0.3,0.6-0.5,0.9l0.2,0.2c0.1,0.1,0.1,0.1,0.1,0.2h-0.3V82c0,0,0.1,0,0.1,0c0-0.1,0-0.2,0.1-0.3c0-0.1,0.1-0.1,0.1-0.2
			c0.2,0.3,0.6,0.4,1.2,0.3c0.5-0.1,0.9-0.2,1.4-0.4c0.6-0.2,1.2-0.3,1.8-0.4l-0.7,0.4c0.8-0.1,1.5-0.2,2.3-0.4
			c0.8-0.2,1.6-0.3,2.4-0.4h0.6c0,0.1,0,0.1,0.1,0.2c-0.4,0.2-0.8,0.3-1.1,0.4h1.9c0,0.1,0.1,0.2,0.1,0.3c-0.2,0.1-0.9,0.3-2.1,0.7
			l0.1,0.2l0.7-0.1h0.5c0,0,0,0.1,0,0.1c0,0,0,0.1,0,0.1c-2,0.3-3,0.5-3.3,0.5c-0.1,0-0.2,0-0.3,0c-0.3,0-0.5,0-0.8-0.1
			c-0.3,0-0.6-0.1-0.8-0.1h-0.2c-0.2,0-1.2,0.2-3.1,0.4c0.1,0.3,0.1,0.7,0.2,1.1c0.1,0,0.1-0.1,0.2-0.2c0.1-0.1,0.1-0.1,0.2-0.2
			c0,0.1,0,0.2,0.1,0.3c0,0.1,0,0.1,0,0.2c0.1,0,0.9-0.2,2.3-0.6h0.3c0.3,0.2,0.8,0.2,1.6,0l2.6-0.7c0.3-0.1,0.6-0.1,0.9-0.2
			c0.5,0,1,0.2,1.4,0.6c-0.1,0.1-0.1,0.3-0.3,0.3l-0.2,0.2c-0.1,0.1-0.2,0.1-0.3,0.2c-0.1,0-0.2,0.1-0.3,0.1h-0.4
			c-0.1,0-0.3,0-0.4,0c-0.4,0.1-0.8,0.1-1.2,0.2l-1.5,0.3l-1.3,0.3c-0.2,0-0.5,0-0.7-0.1c-1.5,0.2-2.3,0.5-2.6,0.9
			c0-0.1-0.1-0.1-0.1-0.2l-0.2-0.2v1.6h-0.1c-0.2-0.5-0.3-0.9-0.3-1.4H122c0,0-0.1,0-0.2,0c0.1,1.6,0.2,2.8,0.3,3.7h0.2v-1.4h0.2
			c0.1,0.7,0.1,1.4,0.2,2c0,0,0.1,0,0.2,0h0.2c0-0.3,0-0.5,0-0.8v-0.8h0.2v0.8c0,0.3,0,0.7,0.1,1c0,0.3,0.1,0.5,0.2,0.8
			c0.1,0.3,0.2,0.6,0.2,0.9c0,0.2,0,0.4,0,0.6v0.6c0,1.7,0.1,3.9,0.3,6.8c0,0.1,0,0.1,0,0.2v0.1c0,0.1-0.1,0.1-0.2,0.2
			c-0.1,0.1-0.1,0.1-0.1,0.2c0,0.1,0,0.2,0.1,0.3c0,0.1,0,0.2,0,0.3c0,0.3-0.1,0.6-0.2,0.8c-0.1-0.3-0.4-0.8-0.8-1.8l0,0
			c0,0.3,0,0.9,0.1,1.9s0.1,1.7,0.2,2.3l-0.7-0.4c0,0.2,0,0.4,0,0.6l-1.6-0.6c-0.1,0.1-0.2,0.4-0.3,1c-0.1-0.2-0.2-0.3-0.3-0.5
			l-0.3,0.4l-0.5-0.1c-0.2,0-0.3-0.1-0.5-0.1l-0.1-0.2c0-0.1-0.1-0.2-0.2-0.3c0,0.1,0,0.2,0,0.3c0,0.1,0,0.2-0.1,0.3
			c-0.2-0.4-0.3-0.8-0.3-1.2c0-0.2-0.1-0.4-0.2-0.8s-0.1-0.7-0.2-1c-0.1-0.3-0.2-0.5-0.3-0.8c-0.2-0.5-0.4-1-0.3-1.6v-1
			c0-0.8,0.1-1.5,0.4-2.3c0.2,0.4,0.3,0.9,0.2,1.3c0-0.2-0.1-0.4-0.2-0.6c0,0-0.1,0-0.1,0c0.1,0.8,0.2,1.3,0.2,1.7h0.2
			c0-0.2,0-0.3,0-0.5h0.1c0,0.5,0.1,1,0.3,1.5c0.2-1.3,0.3-2,0.3-2.3c0.1-0.6-0.1-0.8-0.5-0.8c0-0.4,0-0.8-0.1-1.2
			c-0.1-0.5-0.1-1-0.1-1.4c0-0.2,0-0.3,0-0.5c0-0.3,0-0.6-0.2-0.9c-0.1-0.2-0.2-0.5-0.3-0.7c0-0.1-0.1-0.9-0.3-2.3c0,0,0-0.1,0-0.2
			c0.1-0.4,0.2-0.7,0.2-1.1c0-0.3,0-0.6,0-0.9c0-0.4-0.1-0.7-0.1-0.8c0-0.2,0-0.4,0.1-0.5c0-0.3,0-0.5-0.1-0.8v-0.8
			c0-0.2,0.2-0.8,0.4-2c0.2,0.4,0.4,0.6,0.4,0.6h0.2c-0.1-0.9-0.1-1.5-0.1-2h-0.1c0,0.4,0,0.8-0.1,1.2h-0.2
			c-0.1-0.2-0.2-0.4-0.3-0.5c-0.2-0.3-0.2-0.5,0.1-0.7l-0.2-0.3c0,0.1,0,0.1-0.1,0.2c0,0.1-0.1,0.1-0.1,0.2c0-0.1,0-0.3,0-0.4
			s0-0.3,0-0.4l0.3,0.3c0-0.3-0.1-0.7-0.1-1.2s0-0.9,0-1.2l0.1-0.1c0.2,0.3,0.4,0.7,0.7,1.1c0.3-0.5,0.2-0.9-0.4-1.3
			c-0.3-0.1-0.4-0.3-0.3-0.6c0-0.1,0-0.2-0.1-0.3c-0.1-0.1-0.1-0.2-0.1-0.3V73l-0.6-0.1l-0.6-0.1v-0.3c0.3,0,0.6-0.1,0.8-0.2
			c0.2-0.2,0.3-0.5,0.3-0.8h0.4c-0.9-0.5-1.5-0.9-1.9-1.2c0.4-0.4,0.7-0.9,1.1-1.3c-0.1-0.2-0.3-0.3-0.4-0.5l0.4-0.1
			c0.1,0,0.2,0,0.3-0.1c0-0.2,0.1-0.3,0.1-0.5c0-0.2,0-0.4,0.1-0.6c0.3,0.5,0.5,0.8,0.6,0.9c0.1-0.1,0.1-0.2,0.2-0.3
			c0.1-0.1,0.2-0.3,0.3-0.4C118.2,68,118.3,68.4,118.4,68.8z M117.8,76.4c0.1-0.7,0.2-1.4,0.3-2.1c0-0.8-0.2-1.2-0.7-1.2h-0.1
			c0,0.4,0.2,1.9,0.4,4.4l0.2-0.5c0-0.1,0-0.2-0.1-0.3C117.8,76.7,117.8,76.6,117.8,76.4z M121.8,82.3c0,0,0,0.1,0,0.1
			c0,0,0,0.1,0,0.1l2-0.2v-0.2L121.8,82.3z M127.4,85.5c0.3,0,0.6,0.1,0.8,0.3l-1.1,0.2c-0.5,0.1-0.9,0.2-1.2,0.2c0-0.1,0-0.1,0-0.2
			L127.4,85.5z"/>
		<path class="st0" d="M142.5,86.2c0.5,0.4,0.8,1,0.8,1.6c0,0.5-0.1,0.9-0.3,1.4c0.1,0.4,0.1,0.8,0.1,1.2c0,0.3,0,0.7-0.1,1
			c-0.1,0.7-0.2,1.2-0.3,1.5c0,0.1,0.1,0.3,0.1,0.4c0,1-0.2,2-0.6,3c0.1,0.5-0.3,0.9-0.8,1c0,0,0,0,0,0h-0.2c-0.3,0-0.7-0.1-1-0.2
			c-0.4-0.1-0.9-0.1-1.3,0.2c-0.4,0.1-0.7,0-1-0.3c-0.2-0.4-0.3-0.8-0.3-1.2c0-0.4-0.1-0.9-0.2-1.3c-0.1-0.3-0.2-0.3-0.2,0.1
			c0,0.8-0.1,1.2-0.3,1.3c-0.3,0.1-0.5-0.2-0.5-0.8v-0.4c0-0.9,0.3-1.9,1-2.6v-0.5c0,0.2-0.1,0.5-0.2,0.7c-0.2-0.2-0.2-0.7,0.1-1.3
			c0.2-0.4,0.3-0.9,0.3-1.3c0.1-0.5,0.2-1,0.2-1.6c0.1-0.8,0.2-1.3,0.4-1.5c0.2-0.1,0.4-0.3,0.5-0.5c0.1-0.3,0.2-0.5,0.3-0.8
			c0.1-0.3,0.2-0.6,0.2-0.7c0.2-0.5,0.5-0.4,0.8,0.1l0.1,0.3c0.1-0.4,0.2-0.4,0.3-0.3l0.1,0.4c0.1-0.1,0.2-0.3,0.3-0.4
			c0.1-0.2,0.3-0.3,0.5-0.3c0.1-0.4,0.2-1.3,0.4-2.7s0.4-3.3,0.8-5.7s0.6-3.7,0.6-4.2c0.1-0.3,0.1-0.6-0.1-0.8
			c-0.2-0.2-0.2-0.4-0.3-0.6c0-0.2,0-0.3-0.1-0.3c-0.1,0-0.2,0-0.3,0c-0.3,0.2-0.4,0.1-0.4-0.3v1.9c0,1.5-0.1,2.2-0.3,2.3
			s-0.4-0.4-0.2-1.3c-0.1,0-0.1,0.3-0.2,1s-0.1,1.1-0.1,1.2c-0.1,0.6-0.2,0.7-0.3,0.3c-0.1-0.5-0.1-0.9,0-1.4c0-0.3,0-0.7,0-1
			c0-0.8,0-1.5-0.1-2.3c-0.2-0.3-0.3-0.5-0.2-0.7c0.1-0.2,0.2-0.3,0.3-0.5c-0.1-0.7-0.4-0.6-0.9,0.3c-0.2-0.6-0.3-1.2-0.3-1.8
			c0-0.8,0.2-1.6,0.7-2.2c0.1,0.6,0.3,0.7,0.5,0.3c0.1-0.3,0.4-0.6,0.7-0.7c0,0.1,0.1,0.3,0.2,0.4c0.1,0.2,0.1,0.3,0.2,0.5
			c0,0.1,0.1,0.3,0.2,0.3c0.1,0,0.3,0,0.5-0.2c0.1-0.1,0.2-0.3,0.3-0.4c0.1-0.1,0.2-0.2,0.4-0.3c0.1,0.3,0.4,0.5,0.6,0.7
			c0.3,0.2,0.5,0.5,0.5,0.9c-0.1,0,0-0.1,0.3-0.3s0.6-0.2,0.6,0c0,0.2,0,0.3-0.1,0.4c-0.4,0.3-0.6,0.9-0.6,1.4
			c0.1,0.6,0,1.1-0.3,1.6c-0.1-0.1-0.1-0.2-0.1-0.3c-0.1-0.2-0.2-0.1-0.3,0.3c-0.6,1-0.9,2.1-0.9,3.3v0.3c0,1-0.1,2-0.3,3
			c-0.3,1.2-0.4,2.4-0.6,3.7c-0.1,1.1-0.2,2-0.3,2.6c0.3,0.7,0.5,1.4,0.4,2.2C142.6,85.4,142.6,85.8,142.5,86.2z M140,78.8
			c0.2,0.5,0.4,1.1,0.3,1.7c0,0.4,0,0.9-0.1,1.3c0.1,0,0.2-0.2,0.2-0.6c0-0.7,0.1-1.4,0.4-2v1c0,0.7,0,1.4-0.1,2.1
			c0,0.5-0.1,1.1-0.3,1.6c-0.2-0.1-0.3-0.2-0.4-0.3c-0.2-0.2-0.4-0.3-0.6-0.2C139.8,82,140,80.4,140,78.8L140,78.8z M140.1,69.5
			l0.1,0.1c0.1,0.3,0.1,0.5,0,0.6s-0.2,0-0.3-0.2C139.8,69.8,139.9,69.6,140.1,69.5C140,69.5,140,69.5,140.1,69.5L140.1,69.5
			L140.1,69.5z M140.7,77.3c0.2,0.5,0.2,1,0,1.5C140.2,78.9,140.2,78.4,140.7,77.3L140.7,77.3z M142.9,79.6v1.7
			c0,0.5-0.1,1.1-0.4,1.6c-0.1-0.5-0.1-0.9,0-1.4C142.6,80.9,142.7,80.2,142.9,79.6L142.9,79.6z M143.4,76c0.1,0.1,0.1,0.3,0.1,0.4
			l-0.2,0.6C143.2,76.8,143.2,76.4,143.4,76L143.4,76z M144.1,72.8c0.1,0.4,0.1,0.7-0.1,0.8c-0.2,0.4-0.3,0.5-0.3,0.3
			C143.5,73.5,143.7,73.1,144.1,72.8L144.1,72.8z"/>
		<path class="st0" d="M148.6,63.6l0.8-0.2l0.7-0.2c0.2,0,0.4,0,0.6,0c0.4,0.1,0.8,0.1,1.2,0c0.9,0.8,1.5,1.9,1.8,3.1
			c-0.1,0.3-0.2,0.7-0.3,1.1c-0.1,0.6-0.3,0.9-0.4,0.9c-0.1,0-0.2-0.1-0.2-0.2c-0.1,0.6-0.2,1.1-0.4,1.6c-0.2,0.7-0.3,1.1-0.4,1.2
			c0.5,0.3,0.7,0.9,0.7,1.4c0,0.2,0,0.4-0.1,0.6c0,0.8-0.6,1.4-1.4,1.5c-0.1-0.7-0.3-0.7-0.4,0c-0.1,0.3-0.1,0.7-0.1,1
			c0.5-0.2,0.8-0.2,0.8-0.1c0.1,0.3,0.1,0.6,0,0.9c0.1,0.5,0,1.1-0.1,1.6c-0.2,0.6-0.2,1.2-0.1,1.8c0.1,0.7,0.1,1.4,0,2.1
			c-0.1,0.7-0.1,1.4,0,2.1c-0.3,0.6-0.5,1.2-0.5,1.9c0,0.4,0.1,0.8,0.3,1.1c0,2.8,0.1,4.7,0.1,5.8v0.6c0,0.9-0.1,1.8-0.3,2.7
			c-0.2,1.1-0.2,1.7,0,1.8c0,0.1,0,0.5,0,1.3s-0.1,1.1-0.2,1.1c-0.2-0.1-0.3-0.2-0.3-0.3v-0.4c0-0.6,0-1.5,0.1-2.7
			c0-0.6,0.1-1.2,0.1-1.7c0-0.5,0-0.9-0.1-1.4c-0.2-0.5-0.3-0.9-0.3-1.4v-0.8c0-0.3,0.1-0.6,0.1-0.8c0-0.4,0-0.9-0.2-1.3
			c-0.1-0.6-0.1-1.1-0.1-1.7c0-0.6,0-1.3,0.1-2c0-0.6,0-1.2,0-1.7c0-0.7,0-1.4-0.1-2.1c0-0.3,0-0.7,0-1.1s0-1,0-1.7s0-1.2,0-1.6
			c0-0.3,0-0.7,0-1v-0.4c0-0.6,0.1-1.2,0.1-1.8c0.1-0.5,0.1-0.9,0.1-1.4c0-0.3,0-0.5,0-0.8c0,0.2-0.1,0.8-0.2,1.8
			c-0.1,0.9-0.2,1.9-0.1,2.8v1.7c0,1.6-0.2,3.3-0.4,4.9c-0.2,1.5-0.4,3.1-0.4,4.7c0,0.8,0,1.6,0.1,2.4c0.1,1.8,0.1,3.2,0.1,4.3
			c0,0.4,0,0.9,0,1.3c-0.1,0.6-0.2,1.2-0.2,1.8c0,0.6-0.1,1.2-0.4,1.8c-0.1-0.6-0.1-1.2-0.1-1.8v-0.7c0-0.9,0-1.6,0-1.9
			c-0.1,0-0.2,0.3-0.3,1.2c0,0.5-0.1,1-0.3,1.4v-3.5c0-1.2,0.1-2.3,0.3-3.5c0.2,0,0.3,0.1,0.3,0.5c0,0.4,0,0.7-0.1,1.1
			c-0.1,0.3,0,0.7,0.1,1c0-0.6,0.1-1.3,0.1-2.3v-2.4c0-0.9-0.1-1.8-0.1-2.4c0-0.9,0-1.7,0.1-2.3c-0.1,1.3-0.2,2.3-0.3,3
			c-0.1,1.4-0.2,1.5-0.4,0.4c0.1-1,0.1-1.8,0.1-2.6c0-0.7,0-1.3-0.1-2c-0.1-1.1-0.1-1.8-0.1-2.2c0-0.5,0-1,0.1-1.6
			c0.1-0.5,0.1-1.1,0.1-1.6c-0.1-1.3-0.1-2.3-0.1-2.9c0-0.3,0-0.7,0.1-1c0.1-0.5,0.1-1,0.1-1.5v-0.9c-0.1-0.7,0-1.4,0.2-2.1
			c-0.4,0.2-0.6,0.1-0.6-0.3c0-0.3,0-0.6,0.1-0.9c-0.2-0.2-0.3-0.5-0.3-0.8c0-0.2,0-0.3,0-0.5c0-0.2,0-0.3,0-0.5
			c0-0.2,0-0.3,0.1-0.4l0.1-0.5c0.1-0.2,0.1-0.4,0.1-0.4s0.1-0.2,0.1-0.5c0-0.2,0.1-0.3,0.2-0.5C148.4,63.8,148.5,63.7,148.6,63.6z
			 M148.3,88.6c0,0.1,0.1,0.3,0.1,0.4c0.1,0.2,0.1,0.4,0.1,0.5c0.1,0.4,0.1,0.6,0.1,0.7C148.1,89.4,148,88.9,148.3,88.6z
			 M148.8,76.2c0,0.3-0.1,0.8-0.1,1.4s-0.1,1.1-0.1,1.4l0.1-0.7c0-0.2,0-0.4,0-0.6c0-0.3,0-0.6,0.1-0.8
			C148.9,76.4,148.9,76.2,148.8,76.2z M149.7,76.6c-0.2,1-0.2,2.1-0.3,3.1c0,0.7,0.1,1.3,0.2,2v-3.3C149.6,77.6,149.6,77,149.7,76.6
			L149.7,76.6z M150.7,96.7c0,0.4,0,0.8,0,1.3c0,0.2,0,0.5,0,0.8c0,0.6-0.1,1.2-0.4,1.8c0-0.4,0-0.8,0-1.2v-0.5
			C150.3,98,150.4,97.3,150.7,96.7L150.7,96.7z M150.6,93.9c0.1,0.3,0.2,0.7,0.2,1c0,0.3,0,0.5-0.1,0.5s-0.3-0.3-0.3-0.7
			S150.5,94,150.6,93.9L150.6,93.9z M152,87.8l0.3,0.3c0,0.3,0,0.5-0.1,0.8l-0.1-0.3C151.9,88.3,151.9,88.1,152,87.8L152,87.8z
			 M164.8,67.1h0.3c0.6,0.6,1.3,1.1,2.1,1.4c0.4,0,0.7,0.5,0.9,1.4c0.1,0.4,0.3,0.4,0.5,0.1c0.1,0.3,0.1,0.5,0,0.8
			c-0.1,0.2-0.3,0.4-0.5,0.6c-0.3,0.3-0.5,0.4-0.6,0.5c0.1,0.5-0.1,0.9-0.6,1.1c-0.4,0.3-0.6,0.4-0.6,0.3c0-0.2,0.1-0.3,0.2-0.4
			c-0.4,0.2-0.7,0.6-0.9,1V74c0.1-0.1,0.3-0.3,0.4-0.4c0.1,0.3-0.1,0.9-0.6,1.6c-0.5,0.7-1,1.3-1.6,1.9c-0.7,1.1-1.5,2-2.5,2.8
			c-0.2-0.1-0.5-0.2-0.7-0.2c-0.6,0-1.1,0.3-1.4,0.8c-0.3,0.4-0.7,0.9-1.1,1.3c0-0.5-0.1-0.7-0.4-0.7s-0.9,0.4-1.7,1.3
			c-0.5,0.3-0.6,0.6-0.5,0.7c0.1,0.1,0.3,0.2,0.4,0.3c0.2,0.1,0.4,0.2,0.6,0.2l0.5,0.2c0.2-0.2,0.5-0.2,0.8,0.2s0.4,0.5,0.3,0.5
			c-0.2,0-0.3-0.1-0.5-0.1c0,0.2,0.3,0.4,0.9,0.7c0.5,0.2,1,0.4,1.6,0.6c0.5,0.4,0.9,0.7,1.3,1.2c0.9,1,2.1,1.7,3.4,2
			c0.8,0.5,1.6,1,2.4,1.4c0.8,0.4,1.7,0.9,2.4,1.5c0.4,0.2,0.4,0.4,0.1,0.5s-0.4,0.3-0.1,0.4c-0.4,0-0.4,0.1-0.3,0.4
			s0.2,0.4,0.1,0.5c-0.3-0.1-0.4-0.1-0.5,0s0,0.2,0.1,0.3c0.2,0.4,0.1,0.5-0.3,0.3c-0.1,0.4-0.6,0.6-1,0.5h-0.1
			c1,0.4,1.1,0.9,0.2,1.5c-0.4,0.1-0.5,0.3-0.4,0.5c0,0.1,0,0.2,0,0.3c-1.7-0.8-3.3-1.7-4.9-2.7c-0.5-0.2-0.6-0.3-0.3-0.4
			s0.4-0.2,0.2-0.4c0.5-0.1,0.3-0.6-0.6-1.3c-0.3-0.2-0.5-0.4-0.8-0.6c-0.6-0.2-1-0.5-1.4-0.9c-0.4-0.5-1.1-0.7-1.8-0.7
			c0.5,0.1,0.8,0.3,0.9,0.6s0.1,0.4-0.1,0.4c-0.1,0-0.3,0-0.4-0.1l-0.2-0.1l-0.1-0.1c-1.1-0.6-1.6-1.2-1.6-1.6
			c0-0.2,0.1-0.3,0.3-0.4c-0.7-0.3-1.3-0.7-1.8-1.3c-0.4-0.6-1-1.1-1.6-1.4c0.1-0.3,0-0.5-0.2-0.7c-0.1-0.1-0.3-0.3-0.4-0.4
			c-0.1-0.1,0-0.2,0-0.2c0.2-0.1,0.3-0.1,0.5-0.1c0.5,0.2,0.7,0.1,0.6-0.3s0-0.4,0.3-0.4c-0.3-0.3-0.4-0.5-0.2-0.8s0.4-0.2,0.6,0
			h-0.1c-0.1-0.3,0-0.5,0.2-0.6c0.2-0.1,0.4,0,0.5,0.2c0.1,0.1,0.4-0.2,0.9-0.9c0.3-0.4,0.6-0.8,1-1.2c-0.4,0.3-0.6,0.4-0.6,0.2
			s0.2-0.5,0.6-0.8c0.2-0.3,0.3-0.4,0.3-0.4s-0.3,0-0.7,0.3c-0.1-0.4-0.4-0.3-1,0.3c-0.3,0.4-0.7,0.7-1.1,1c0-0.2,0.1-0.4,0.2-0.5
			c0.5-0.5,0.8-1.1,1-1.8c-0.2,0.1-0.4,0.1-0.4,0s0-0.3,0.2-0.7s0.3-0.5,0.2-0.5s-0.1,0-0.2,0c-0.1-0.4-0.1-0.7,0-0.9
			c0.3-0.3,0.6-0.5,1-0.7c0.4-0.2,0.5-0.2,0.4,0.2l-0.2,0.4c0.1-0.1,0.2-0.1,0.3-0.2c0.4-0.2,0.6-0.6,0.4-1c-0.1-0.3,0-0.7,0.2-1
			c1.3-0.9,2.2-2.3,2.7-3.8c0.4-0.6,0.9-1.1,1.4-1.6c0.6-0.5,1-1.1,1.4-1.8v0.4c0.2-0.2,0.4-0.3,0.6-0.5
			C163.8,67,164.3,66.9,164.8,67.1L164.8,67.1z M154.2,81.3v0.2l-0.1,0.2c-0.3,0.4-0.5,0.5-0.6,0.4
			C153.3,81.9,153.5,81.7,154.2,81.3L154.2,81.3z M156.1,86c0.2,0.1,0.4,0.2,0.6,0.4c0.1,0.1,0.3,0.2,0.5,0.3l-0.6-0.5
			C156.4,86.1,156.2,86.1,156.1,86L156.1,86z M159.1,88.3c0.7,0.6,1.3,1,1.6,1.3C160.4,89,159.8,88.5,159.1,88.3L159.1,88.3z
			 M159.5,90.6l2.1,1.6c0,0.6-0.5,0.6-1.3-0.1S159.1,91,159.5,90.6L159.5,90.6z M160.7,86.5c0.2,0.3,0.4,0.5,0.6,0.5L160.7,86.5z
			 M163.7,93.5l0.1,0.2c0.3,0.2,0.5,0.3,0.6,0.3c0.1,0,0.1-0.1-0.1-0.3C164,93.7,163.8,93.6,163.7,93.5L163.7,93.5z M164.3,92
			L164.3,92l0.6,0.3l0,0C164.6,92.3,164.4,92.2,164.3,92L164.3,92z M164.3,89l0.3,0.3c0.2,0.2,0.5,0.4,0.8,0.6
			c0.3,0.2,0.5,0.2,0.4,0.1c-0.1-0.3-0.4-0.5-0.6-0.7C164.8,89.3,164.5,89.2,164.3,89L164.3,89z M165.3,94.8l0.6,0.3l0.6,0.3
			c-0.3-0.3-0.7-0.5-1.1-0.4L165.3,94.8z"/>
		<path class="st0" d="M188.2,72.4c0.3,0.3,0.6,0.4,0.8,0.2c0.3,0.1,0.6,0.3,0.9,0.4c0,0.1,0.1,0.2,0.1,0.2c0-0.3,0.1-0.4,0.1-0.4
			c0.1,0.4,0.1,0.8,0.1,1.1c0.1-0.1,0.1-0.1,0.2-0.2l0.1-0.2c0,0.4,0,0.7-0.1,1.1c-0.1,0.6-0.1,0.9,0.1,1c0.1,0.3,0.1,0.7,0,1
			c-0.1,0.3-0.1,0.6,0,0.9c0.1,0.3,0.2,0.7,0.2,1c0,0.5-0.1,1-0.3,1.6c0,0.2,0,0.3-0.1,0.4c-0.1,0.1-0.1,0.3-0.1,0.4
			c0,0.2,0,0.3,0,0.5l-0.3,0.3c-0.1-0.1-0.1-0.2-0.2-0.3l-0.3,1.7h-0.1c0,0-0.1-0.1-0.1-0.2l-0.1-0.2h-0.1c-0.3,0.4-0.4,0.9-0.4,1.4
			c0,0.2,0.1,1,0.3,2.3c0.1,0.5,0.2,1.1,0.3,1.7c0.1-0.3,0.2-0.5,0.3-0.8h0.2c0,0.4,0,0.9,0.1,1.6s0.1,1.2,0.1,1.6
			c0,1-0.1,1.9-0.4,2.8c-0.2-0.5-0.3-0.8-0.4-1h-0.3c-0.1,0-0.2,0-0.3,0v1.1h0.1c0.1-0.4,0.2-0.8,0.2-1h0.2c0,0.2,0,0.5-0.1,0.7
			c0,0.3,0,0.5,0,0.6l-0.4,0.1c-0.1,0-0.2,0.1-0.3,0.1c-0.1,0-0.1,0.1-0.2,0.1l-0.2,0.2c-0.1,0.1-0.2,0.2-0.3,0.3
			c0,0,0.1,0.1,0.1,0.1c0,0.1,0.1,0.1,0.1,0.2c0.1,0.1,0.1,0.2,0.1,0.2s0.1-0.1,0.1-0.2l0.2-0.2v1.1c0.2-0.3,0.4-0.5,0.6-0.8v1
			c-0.2,0-0.3,0.1-0.4,0.1v0.5c-0.3,0.4-0.5,1-0.4,1.6c0,0.4,0.1,0.9,0.4,1.3c0.4-1.3,0.7-2.2,0.9-2.8V97c-0.2,1.2-0.5,2.3-1,3.4
			c0,0.1-0.2,0.2-0.3,0.3c-0.2,0-0.4,0.1-0.6,0.2c-0.2,0.2-0.3,0.3-0.5,0.5l-0.3,0.4c-0.5,0.4-1,0.7-1.6,1c-0.2-0.1-0.4-0.2-0.5-0.3
			c-0.1,0.1-0.2,0.3-0.4,0.3c-0.2,0.1-0.4,0.2-0.6,0.2c-0.2,0-0.3,0.1-0.5,0.2c-0.4,0.1-0.7,0.1-1.1,0c-0.3-0.1-0.7-0.1-1.1-0.1
			h-0.1c-0.4,0-0.8-0.1-1.2-0.3c-0.4-0.2-0.8-0.2-1.2-0.3c-0.7,0-1.3-0.3-1.6-0.8l-0.3-0.3c-0.1-0.2-0.2-0.3-0.3-0.4
			s-0.1-0.2-0.2-0.4c-0.1-0.2-0.1-0.3-0.1-0.5c0-0.1,0-0.2,0.1-0.3c0,0,0-0.1,0.1-0.1c-0.3-0.3-0.6-0.7-0.7-1.1
			c-0.1-0.4-0.3-0.8-0.6-1.1h-0.1c-0.2-0.3-0.4-0.8-0.9-1.3l0.2,0.1c0.1,0,0.2,0.1,0.4,0.1c-0.2-0.2-0.3-0.3-0.5-0.4
			c0.2-0.1,0.3-0.3,0.3-0.4c0-0.2-0.1-0.4-0.1-0.5c-0.1-0.1-0.1-0.2-0.2-0.4l-0.4-1.3c-0.2-0.6-0.4-1-0.4-1.3h-0.3
			c0.1,1,0.1,1.8,0.1,2.3c-0.2-0.3-0.4-0.6-0.5-1c-0.1-0.3-0.2-0.6-0.2-0.9v-1c0-0.3,0-0.6-0.1-0.9c0-0.1,0-0.2,0.1-0.3
			c-0.2-0.3-0.2-0.6-0.3-0.9c0.1-0.7,0.4-1.3,0.8-1.9c0-0.3,0-0.7-0.1-1c0-0.3-0.1-0.5-0.2-0.8c0-0.2,0-0.4,0.1-0.6
			c0.1-0.2,0.1-0.4,0.1-0.5c0-0.2-0.1-1.1-0.1-2.7c0-0.3,0.1-0.5,0.3-0.7c0.2-0.3,0.4-0.4,0.6-0.4c0-0.5,0-0.9,0-1.3
			c-0.2,0.3-0.4,0.4-0.4,0.5c-0.1-0.5-0.2-1-0.1-1.4c0.1-1.5,0.4-3,0.9-4.5c0,0.2,0.1,0.5,0.1,0.7c0.1,0.3,0.1,0.6,0.2,0.9l0.1-0.5
			l0.1-0.4h0.1c-0.1,2.2-0.1,3.4-0.1,3.7c0,0.3,0,0.7,0.1,1c0,0.3,0.1,0.7,0.1,1c0,0.8,0,2.1-0.1,3.7s-0.1,2.8-0.1,3.7
			c0,0.2,0.1,1.2,0.3,2.9c0.1,0,0.1,0,0.2-0.1c-0.1-1.4-0.2-2.2-0.2-2.3c0-0.9,0.1-2.8,0.2-5.6c0-0.2,0.1-0.3,0.1-0.5
			c0-0.1,0.1-0.2,0.1-0.3c0.1-0.5,0.2-1.6,0.3-3.1s0.3-2.7,0.4-3.5l0.3-0.5c0.1,0.6,0.2,1.1,0.3,1.6c0.1-0.1,0.1-0.2,0.1-0.4
			c0-0.1,0-0.3,0.1-0.4c0.1-0.1,0.2-0.1,0.5,0v10.5h0.2c0.2-0.3,0.2-0.7,0.2-1c0-0.1,0-0.3,0-0.4V84c0-0.2,0-0.4,0-0.6h0.2
			c0,0.8-0.1,1.6-0.1,2.3c0,1.7,0.1,3.4,0.4,5.2c0.1,0.8,0.3,1.6,0.6,2.4c0.2,0.3,0.5,0.7,0.6,1c0.1,0.3,0.2,0.7,0.2,1
			c0.1,0.3,0.2,0.7,0.3,1c0.1,0.3,0.3,0.5,0.6,0.7c0.3,0.1,0.5,0.3,0.8,0.4l0.7,0.3h0.1c0.4,0.3,0.7,0.2,0.8-0.3h0.4
			c-0.1-0.2-0.2-0.4-0.4-0.6h0.1c0,0,0.1,0,0.1-0.1c0.1,0.1,0.2,0.2,0.4,0.2c0.2,0,0.3-0.1,0.4-0.3c0.3-0.8,0.5-1.7,0.6-2.6
			l-0.1-0.1c-0.1-0.1-0.1-0.1-0.1-0.1c-0.1-0.3-0.1-0.6,0-0.9c0.1-0.4,0.2-0.7,0.5-1c0,0.1,0,0.2,0,0.3c0,0.1,0,0.2,0.1,0.3
			c0-0.1,0.1-0.3,0.2-0.8s0.2-0.7,0.3-0.9c-0.2-0.1-0.4-0.2-0.6-0.3v-4.4c0-0.3,0-0.7,0-1c0-0.1,0-0.2,0.1-0.3
			c0-0.1,0.1-0.2,0.1-0.3c0-0.1,0-0.2,0-0.3c-0.1-0.1-0.2-0.2-0.3-0.4c-0.1-0.1-0.1-0.3-0.1-0.4c0-0.1,0-0.2,0-0.3
			c0-0.1,0-0.3,0.1-0.4c0-0.1,0.1-0.2,0.1-0.3c0.3-1.5,0.4-2.3,0.4-2.4c0-0.3,0-0.7-0.1-1 M184.3,79v-0.2c0.3-0.4,0.5-0.8,0.5-1.3
			v-1c0-0.2,0-0.3,0-0.5l0.1-0.1V77c0,0,0.1,0,0.1,0h0.1c0.1-0.3,0.2-0.5,0.2-0.8c0-0.4,0-0.8,0-1.3v-1c0,0,0.1-0.4,0.2-1.3
			c0.2,0.2,0.4,0.3,0.6,0.5l0.2-0.7l0.5,0.2l0.4,0.2c0,0,0.1,0,0.1-0.1s0.1,0.1,0.1,0.2c0,0.1,0.1,0.2,0.1,0.3
			c0,0.1,0.1,0.2,0.1,0.3c0-0.1,0-0.3,0.1-0.4c0.2-0.3,0.3-0.5,0.4-0.8L184.3,79z M172.7,89l-0.4,1.4c0.1,0.3,0.2,0.5,0.2,0.8
			c0,0.2,0.1,0.4,0.1,0.7c0.1-0.4,0.2-0.8,0.2-1.2v-0.8C172.7,89.5,172.7,89.2,172.7,89z M184.9,88.7c-0.1,0.2-0.1,0.5-0.2,0.7
			c0,0.2-0.1,0.5-0.2,0.7c0.3-0.2,0.5-0.5,0.6-0.8C185.1,89.1,185,88.9,184.9,88.7L184.9,88.7z M184.8,88.4c0-0.2,0.1-0.3,0.1-0.4
			c0.1-0.2,0.1-0.4,0.2-0.7c0-0.2,0.1-0.4,0.1-0.6c0-0.2-0.1-0.4-0.2-0.4l-0.1,0.1l0,0L184.8,88.4L184.8,88.4z M185,73.3
			c0,0.7,0,1.4,0.1,2.1h-0.2L185,73.3C184.9,73.3,185,73.3,185,73.3L185,73.3z M190,73.3c-0.3,0.5-0.5,1-0.4,1.6
			c0,0.5,0.1,0.8,0.3,0.9C189.9,75.2,190,74.3,190,73.3L190,73.3z"/>
		<path class="st0" d="M202.9,72.5c-0.1,0-0.3,0.1-0.4,0.1l-0.4,0.1c-0.1,0-0.2,0-0.2-0.1c-0.1-0.1-0.1-0.2-0.1-0.4
			c-0.2-0.1-0.4-0.2-0.6-0.3c0,0,0.1-0.1,0.1-0.1l0.1-0.1l2.6-1.2c0.1,0.3,0.3,0.6,0.5,1c2.1-1.1,4.5-1.7,6.9-1.9
			c0.3,0,0.9,0,1.7-0.1s1.5,0,1.9,0c1,0,2,0.1,3,0.3c0-0.1-0.1-0.2-0.1-0.3c-0.1-0.2-0.1-0.3-0.2-0.5l0.3,0.2l0.3,0.2l0.3,0.1
			c0.1,0,0.2,0,0.3,0c0.1,0,0.2-0.1,0.3-0.1c0.1,0.1,0.2,0.2,0.2,0.3c0.1,0.2,0.2,0.3,0.3,0.4c0.1,0,0.1-0.1,0.2-0.2
			c-0.1-0.1-0.2-0.3-0.2-0.4l0.4,0.1c0,0.4,0.2,0.8,0.5,1.1c0.2,0.3,0.4,0.5,0.6,0.9c0.1,0.3,0.3,0.6,0.5,0.8
			c0.2,0.2,0.3,0.4,0.4,0.7c0.1,0.7,0,1.4-0.1,2.1c-0.1,0.7-0.3,1.3-0.7,1.8c-0.3,0.4-0.5,0.8-0.6,1.3c-0.1,0.4-0.3,0.8-0.5,1.2
			c-0.1,0.1-0.3,0.4-0.5,0.7c-0.2,0.2-0.3,0.5-0.5,0.7l-0.5,0.6c-0.2,0.2-0.4,0.5-0.6,0.7c-0.2,0.2-0.4,0.3-0.6,0.5
			c-0.3,0.2-0.7,0.4-1,0.7l-1.1,0.9c-0.3,0.3-0.7,0.5-1,0.8c-0.2,0.1-0.4,0.2-0.6,0.2c-0.1-0.1-0.1-0.1-0.1-0.2l-0.1,0.3
			c-1,0.4-2,1-3,1.6l-0.6,0.1c-0.1,0.1-0.3,0.4-0.7,0.8c0.3,0.3,0.2,0.5-0.2,0.7c-0.2,0.1-0.3,0.2-0.4,0.3c-0.1,0.1-0.3,0.3-0.4,0.4
			l-1.6,0.5c-0.1-0.5-0.2-0.8-0.3-1h-0.8c0-0.1,0.1-0.3,0.2-0.4c0.1-0.2,0.2-0.3,0.1-0.3c-0.1-0.1-0.3-0.2-0.4-0.3
			c0.3-0.2,0.6-0.4,0.8-0.7c-0.5,0-1,0.1-1.5,0.2c-0.5-0.7-0.4-1.3,0.4-1.7c-0.3-0.1-0.4-0.2-0.4-0.3l0.8-0.4l1-0.4
			c0.4-0.2,0.6-0.3,0.8-0.4c0-0.1,0-0.2-0.1-0.3c-0.2,0.1-0.5,0.2-0.8,0.3c0-0.1,0.1-0.2,0.1-0.3c1.8-1.2,3.2-2.1,4.2-2.8
			c0.2-0.1,0.3-0.1,0.5-0.2c0.2,0,0.3-0.1,0.5-0.2c0.6-0.4,1.6-1.1,2.9-2.1l0.3-0.3c0.1-0.1,0.2-0.2,0.3-0.3l0.3-0.3l0.3-0.3
			l0.3-0.3c0.1-0.1,0.2-0.2,0.3-0.3l0.2-0.3c0.1-0.1,0.1-0.3,0.2-0.4c0-0.1,0.1-0.3,0.1-0.4c0.1-0.3,0.2-0.5,0.4-0.8
			c0.2-0.3,0.4-0.6,0.5-0.8c0.2-0.3,0.4-0.7,0.6-1c-0.1,0-0.1,0-0.2,0.1h-0.2c0.1-0.3,0.1-0.6,0.1-0.9c-0.2,0.2-0.3,0.4-0.4,0.4
			c-0.2,0-0.3-0.1-0.4-0.2c-0.1-0.1-0.2-0.2-0.4-0.2c-0.5,0-0.8-0.3-1-1l1.1,0.1c0,0,0.1-0.1,0.1-0.2v-0.2c-0.4-0.2-0.9-0.3-1.3-0.3
			c-0.4,0-0.7,0-1.1,0.1c-0.4,0.1-0.7,0.1-1.1,0.1c-0.1,0-0.2,0-0.3,0v0.2c0.1,0.1,0.2,0.1,0.3,0.2c0.1,0.1,0.1,0.1,0.2,0.1
			l-0.7,0.1c-0.3,0-0.6,0-0.9,0.1c-0.2,0-0.4,0.1-0.5,0.2c-0.3,0.5-1,0.6-1.5,0.3c0,0,0,0,0,0l0,0c-0.2,0-0.4,0-0.6,0.1
			c-0.2,0.1-0.3,0.1-0.5,0c-0.1-0.2-0.2-0.4-0.1-0.7l-1.2,0.4l-0.3,0.2c-0.2,0.1-0.3,0.2-0.4,0.1l-0.4-0.2c-0.1-0.1-0.3,0.1-0.8,0.5
			c-0.4,0.4-0.6,0.6-0.5,0.7c0.1,0.2,0.3,0.4,0.5,0.6c0.1,0,0.2,0,0.3,0c0.2,1.3,0.3,1.9,0.4,2c0,0.3,0,0.5-0.1,0.6
			c-0.2,0.1-0.5,0.2-0.7,0.2l0.3,0.5c0.1,0.2,0.2,0.3,0.4,0.5l-0.8,0.3l-0.6,0.2c0,0.1,0,0.1,0.1,0.2c0.1,0,0.2,0,0.3,0
			c0,0.1,0,0.1,0,0.2l-0.8,0.3l0.1-0.5c-0.4,0.1-0.8,0.2-1.3,0.3l-0.4-0.5l-1.3-0.2c-0.1,0-0.1-0.1-0.1-0.3c0-0.1,0-0.3,0-0.4
			c0-0.1-0.2,0-0.5,0.1c-0.1-0.3-0.2-0.7-0.3-1c-0.2-0.4-0.3-0.7-0.3-1.1c0-0.3,0.1-0.6,0.3-0.8c0.2-0.1,0.4-0.2,0.6-0.4l0.6-0.4
			c0,0.1,0,0.1,0,0.2V74L202.9,72.5z M211.4,81.2l-1.8,1.3c-0.8,0.6-1.3,1-1.7,1.3c0.8-0.2,1.7-0.6,2.4-1c0.1-0.1,0.3-0.2,0.4-0.4
			c0.2-0.2,0.3-0.4,0.4-0.6c0.1-0.2,0.2-0.3,0.4-0.5c0,0-0.1,0-0.1-0.1v0C211.4,81.3,211.4,81.2,211.4,81.2L211.4,81.2z M216.2,80.5
			l-3.3,2.2l-3.1,2.1c0,0,0.1,0,0.2,0.2l3.2-2.2c1.4-0.9,2.5-1.6,3.1-2.1C216.3,80.6,216.2,80.6,216.2,80.5L216.2,80.5z M210.6,67.9
			h2.6c0,0.1-0.1,0.1-0.1,0.2h-2.5V67.9z M214.4,68.7c0.3,0.2,0.7,0.2,1,0.2c0.3,0,0.6,0,0.9,0.1c-0.6,0.1-1,0.1-1.1,0.1
			c-0.5,0-1-0.2-1.4-0.6c-0.2-0.1-0.4-0.3-0.6-0.3c0.1,0,0.3,0,0.4,0c0.1,0,0.3,0,0.4,0c0,0.3,0.2,0.5,0.4,0.7L214.4,68.7z
			 M214.1,68h1.6v0.3C215.2,68.4,214.6,68.3,214.1,68L214.1,68z M218.5,80.8c-0.9,0.7-1.5,1.2-2,1.6l0.1,0.2c0.1-0.1,0.8-0.6,2-1.6
			L218.5,80.8z M220,78.6c-0.4,0.4-0.9,1.1-1.7,2C219.1,80.5,219.7,79.8,220,78.6L220,78.6z"/>
		<path class="st0" d="M104.2,0.7c-0.6-0.4-1.2-0.7-1.9-0.7c-0.6-0.1-1.3,0-1.9,0.2c-0.1,0.1-0.1,0.2-0.2,0.3
			c-0.1,0.2-0.2,0.4-0.2,0.6c-0.2,0.2-0.4,0.4-0.6,0.6c-0.2,0.3-0.1,0.7,0.2,0.9c-0.1,0.2-0.2,0.3-0.3,0.5C99.1,3.5,99,3.9,99,4.3
			c-0.3,0.4-0.6,0.8-0.9,1.2c-0.4,0.6-0.8,1.2-1.3,1.7c-0.4,0.4-0.7,0.9-1,1.4l-0.1,0.2c-0.4,0.6-0.9,1.1-1.5,1.4
			c-0.2,0.2-0.3,0.2-0.3,0.1c0-0.1,0-0.1,0-0.2c-0.3,0.2-0.5,0.4-0.6,0.7c-0.1,0.3-0.5,0.6-0.8,0.6c-0.1,0.1-0.1,0.1-0.1,0.2
			c0,0.1,0.1,0.1,0.5,0.1s0.3,0,0.3-0.1c-0.1,0.1-0.1,0.3,0.1,0.5s0.3,0.3,0.3,0.4c0.1,0,0.2,0,0.3-0.1c0.1-0.1,0.3-0.1,0.4-0.2
			c0.2-0.1,0.3-0.1,0.4,0s0.1,0.1,0,0.2c0,0.1,0,0.2,0,0.3v0.2c0.2,0,0.5,0,0.7-0.2c0.3-0.2,0.3-0.1,0.3,0.2c0.5-0.2,0.9-0.6,1.1-1
			c0.2-0.3,0.2-0.6,0.2-0.9c-0.6,0.3-0.8,0.3-0.7,0c0.1-0.1,0.2-0.2,0.3-0.2c0.2-0.1,0.2-0.2,0.1-0.4c0.2-0.5,0.4-0.9,0.6-1.1
			c0.1-0.2,0.2-0.4,0.3-0.5c0.2-0.2,0.3-0.4,0.4-0.7c0-0.2-0.1-0.1-0.3,0.1c-0.2,0.2-0.3,0.4-0.4,0.6c-0.2,0.3-0.3,0.5-0.4,0.5
			c0.4-0.4,0.5-0.6,0.2-0.6s-0.4,0.3-0.8,1l-0.5,0.9c0.1-0.2,0-0.3-0.2-0.2h-0.2c0,0,0-0.1,0-0.2V10c-0.1-0.1,0-0.3,0.1-0.4
			c0,0,0,0,0,0l0,0c0.2-0.2,0.7-0.9,1.6-1.9s1.6-1.9,2-2.6l1-1.3c0.2,0,0.3,0,0.5-0.1c0.2-0.1,0.3-0.1,0.3-0.2l-0.1,0.2
			c0,0.1,0.1,0.1,0.3-0.1L101,3.9c0.1,0.3,0.3,0.4,0.6,0.2l0.4-0.3c0.1-0.1,0.3-0.2,0.4-0.3c0.2-0.1,0.3-0.1,0.5-0.2
			c0.2,0,0.5-0.3,0.7-0.7c0.2-0.3,0.4-0.5,0.6-0.7c0-0.1,0.1-0.3,0.2-0.3C104.3,1.3,104.2,1,104.2,0.7z"/>
		<path class="st0" d="M100.8,4.3c-0.1-0.1-0.2-0.2-0.3-0.2c-0.2,0.2-0.4,0.5-0.6,0.8c-0.2,0.3-0.5,0.6-0.7,1
			c-0.1,0.2-0.2,0.3-0.2,0.5c0.2-0.1,0.5-0.4,0.8-0.9c0.1-0.2,0.2-0.2,0.3-0.2c-0.1,0.2-0.3,0.4-0.4,0.6c-0.2,0.3-0.2,0.6-0.2,0.9
			c0.5-0.8,1-1.5,1.6-2.2C101,4.5,100.9,4.5,100.8,4.3z"/>
		<path class="st0" d="M111.4,12c0.1-0.4,0.1-0.7-0.1-1.1c-0.1-0.4-0.2-0.7-0.2-1.1c0-0.3-0.1-0.7-0.3-0.9c0-0.4-0.1-0.8-0.3-1.2
			c-0.1-0.2-0.2-0.5-0.2-0.8c0-0.2,0-0.4-0.2-0.5c0.1,1.4,0.3,2.7,0.7,4C111.1,11.2,111.3,11.8,111.4,12z"/>
		<path class="st0" d="M108.7,7.4c0,0.3,0,0.7,0.1,1c0.1,0.4,0.1,0.7,0.2,0.9c0.4,1.4,0.8,2.8,1,4.3c0,0.5,0.1,0.9,0.2,1.4v0.4
			c0,0.1,0.3,0.1,0.4,0.2c0.5,0.1,0.9,0.3,1.4,0.3h0.4c0.7,0.1,1.5-0.7,2.2-1.5c0.1-0.3,0.2-0.5,0.4-0.8c0-0.1,0-0.2-0.2-0.3
			c0.2-0.3,0.3-0.7,0.4-1.1c0.1-0.4,0.3-0.7,0.5-1c0.1,0,0.1,0.2,0.1,0.3s0,0.1-0.1,0.1c0,0,0,0.1-0.1,0.1c-0.1,0.1-0.2,0.2-0.3,0.4
			c-0.1,0.2-0.1,0.4,0.1,0.5c0.2,0.2,0.3,0.1,0.3-0.2c0.1-0.2,0.2-0.5,0.3-0.8c0.1-0.3,0.1-0.5,0-0.5c-0.1,0.1-0.1,0.1-0.1,0
			s-0.1-0.2-0.2-0.1c0.1-0.2,0.1-0.4,0.1-0.6c0-0.2,0-0.4,0.2-0.5c0.1,0.3,0.3,0.2,0.6-0.4c0.2-0.4,0.4-0.9,0.7-1.4
			c0.3-0.6,0.6-1.3,0.9-2c-0.3,0.4-0.6,0.6-0.8,0.6s-0.1-0.1,0-0.5c0.4-0.4,0.7-0.9,0.8-1.5V4.3c0-0.2,0.2-0.2,0.4-0.2l0.3-0.8
			l-0.1,0.2c-0.1,0.2-0.1,0.3-0.1,0.5c0,0.2,0.1,0.3,0.3,0.1l0.5-0.7c0.2-0.3,0.1-0.5-0.3-0.4c-0.1-0.1-0.1-0.2,0-0.2s0,0-0.1-0.1
			s-0.1,0-0.2-0.1s-0.2-0.1-0.2,0.2s-0.2,0.2-0.3,0.1c-0.1-0.2-0.2-0.3-0.3-0.4c-0.1-0.1-0.2-0.1-0.4,0.1l-0.1-0.2
			c-0.1,0.1-0.2,0.1-0.3,0.1c-0.3-0.1-0.4,0-0.5,0.3c-0.2,0.7-0.3,0.8-0.5,0.4c-0.2,0.3-0.4,1-0.9,1.8c-0.3,0.7-0.6,1.4-0.9,2.1
			c0.2-0.2,0.3-0.4,0.5-0.7h0.1c0,0.6-0.2,1.1-0.4,1.6c-0.2,0.5-0.4,0.9-0.5,1.4c-0.1,0.4-0.3,0.9-0.6,1.3c0,0.3,0,0.4-0.2,0.4
			s-0.1-0.1-0.1-0.2c-0.1,0-0.2,0.1-0.2,0.2c0,0,0,0.1,0,0.1c0.1,0.1,0.1,0.1,0.2,0.1c0,0.1-0.1,0.1-0.1,0.2c0,0.1-0.1,0.2-0.1,0.2
			c0-0.1-0.1-0.2-0.1-0.3c0,0.1-0.1,0.3-0.3,0.3c-0.1,0.1-0.2,0.2-0.2,0.4l0,0c0-0.1-0.1-0.1-0.1-0.2c-0.1,0-0.2,0.1-0.2,0.1
			c0.1-0.1,0.1-0.2,0.1-0.3c0-0.2-0.1-0.3-0.3-0.3c0-0.3-0.1-0.4-0.2-0.1s-0.1,0.3,0.1,0.4v0.8c-0.1-0.2-0.1-0.4-0.1-0.6
			c-0.1-0.3-0.2-0.3-0.3,0c-0.1,0.1-0.2,0.3-0.2,0.4c-0.1,0.3-0.2,0.2-0.2-0.2c-0.1-0.7-0.4-2-0.9-3.8s-0.7-3.2-0.9-4.2
			c0,0.2,0,0.3,0,0.5c0,0.3,0,0.6,0.1,0.9c0.1,0.6,0.2,1.1,0.2,1.5s0.3,1.2,0.6,2.5s0.5,2.2,0.6,2.8c0.1,0.2,0.1,0.4,0.1,0.6
			c0,0.2-0.1,0.5-0.2,0.7c0,0.3,0,0.4-0.1,0.4s-0.1-0.3-0.2-0.8c0-0.2,0-0.4-0.1-0.6c0-0.1-0.1-0.2-0.2-0.2c0-0.3,0-0.5-0.1-0.8
			c-0.2-1.2-0.4-2.4-0.8-3.6c-0.1,0.1-0.2,0.1-0.3,0c-0.1-0.2-0.1-0.4-0.1-0.6c0-0.2,0-0.4-0.1-0.6c0-0.1-0.1-0.4-0.2-0.9
			c-0.1-0.4-0.2-0.8-0.3-1.3c0.2,0.3,0.3,0.7,0.4,1.1c0,0.2,0,0.3,0.1,0.5c0,0.1,0,0.3,0.1,0.4S109,6.8,109,7s0.1,0.2,0.2,0.2
			c-0.3-1.4-0.7-2.9-1.1-4.3c0,0.6,0,1.3,0.1,1.9C108.3,5.7,108.5,6.5,108.7,7.4z M115.6,8.9c0.1-0.3,0.2-0.6,0.3-0.9
			c-0.1,0.3-0.2,0.7-0.3,1c-0.2,0.5-0.3,0.7-0.4,0.8C115.3,9.5,115.4,9.2,115.6,8.9z M114.4,11.9c0.2-0.4,0.3-0.7,0.3-0.9
			c0.1-0.2,0.2-0.4,0.3-0.6c-0.3,0.7-0.6,1.6-0.9,2.5C114.2,12.6,114.3,12.2,114.4,11.9z"/>
		<path class="st0" d="M108.9,10l0.1,0.1c0.1,0.1,0.1,0.3,0,0.3s-0.1,0-0.1-0.1C108.9,10.2,108.9,10.1,108.9,10z"/>
		<path class="st0" d="M113.8,13.6c-0.1,0.1-0.1,0.2-0.2,0.4c0,0.1-0.1,0.2,0,0.2S113.8,13.9,113.8,13.6z"/>
		<path class="st0" d="M114.3,8.5L114.3,8.5c0,0.3-0.1,0.4-0.2,0.4s-0.1-0.1,0-0.2C114.1,8.6,114.2,8.5,114.3,8.5z"/>
		<path class="st0" d="M115.6,5.9c-0.1,0.2-0.2,0.4-0.3,0.7C115.4,6.3,115.5,6.1,115.6,5.9z"/>
		<path class="st0" d="M116.6,6.6l-0.1,0.2c-0.1,0.1-0.1,0.3-0.2,0.5l0.2-0.3C116.5,6.8,116.6,6.7,116.6,6.6z"/>
		<path class="st0" d="M117.9,4.2l-0.2,0.3l0,0C117.8,4.4,117.9,4.3,117.9,4.2z"/>
	</g>
</g>
<g>
	<path class="st0" d="M205.4,92.9c-0.1,0.2-0.2,0.4-0.4,0.6c-0.2,0.3-0.5,0.6-0.9,0.7c-0.6,0.2-1.2,0.6-1.6,1.2
		c-0.5,0.6-0.6,1.3-0.4,2c0.3,1,0.5,2.1,1.4,2.8c0,0,0,0,0.1,0.1c0.2,0.4,0.5,0.6,0.9,0.8c0.3,0.1,0.5,0.3,0.7,0.4
		c0.2,0.1,0.4,0.1,0.6,0.1c0.6-0.1,1.2-0.2,1.8-0.3c0.6,0,1.1-0.2,1.6-0.5c0.6-0.4,1.2-0.8,1.8-1.1c0.3-0.2,0.5-0.4,0.6-0.7
		c0.1-0.3,0.4-0.6,0.6-0.9c0.3-0.3,0.5-0.6,0.5-1c0-0.4-0.1-0.8-0.2-1.1c-0.3-0.8-0.7-1.7-1-2.5c-0.1-0.3-0.3-0.5-0.6-0.6
		c-0.2-0.1-0.4-0.2-0.6-0.3c-0.8-0.4-1.6-0.8-2.6-0.6c0,0-0.1,0-0.1,0c-0.3-0.1-0.5,0-0.7,0.3c0,0,0,0,0,0c-0.7-0.6-1.1,0.1-1.7,0.3
		c0-0.2,0-0.3,0-0.5c-0.5,0.3-0.9,0.6-1.4,1c0.7,0.3,0.7,0.3,0.8-0.2C204.8,92.8,205.1,92.9,205.4,92.9z"/>
	<path class="st0" d="M205.4,92.9c-0.3,0-0.6-0.1-0.8-0.1c-0.1,0.4-0.1,0.4-0.8,0.2c0.5-0.3,0.9-0.6,1.4-1c0,0.2,0,0.4,0,0.5
		c0.6-0.2,1-0.9,1.7-0.3c0,0,0,0,0,0c0.1-0.3,0.3-0.4,0.7-0.3c0,0,0.1,0,0.1,0c0.9-0.1,1.8,0.2,2.6,0.6c0.2,0.1,0.4,0.2,0.6,0.3
		c0.3,0.1,0.5,0.3,0.6,0.6c0.3,0.8,0.7,1.7,1,2.5c0.1,0.4,0.2,0.7,0.2,1.1c0,0.4-0.2,0.7-0.5,1c-0.2,0.3-0.5,0.5-0.6,0.9
		c-0.1,0.3-0.4,0.5-0.6,0.7c-0.6,0.4-1.2,0.7-1.8,1.1c-0.5,0.3-1,0.5-1.6,0.5c-0.6,0-1.2,0.1-1.8,0.3c-0.2,0-0.4,0-0.6-0.1
		c-0.2-0.2-0.5-0.3-0.7-0.4c-0.4-0.2-0.7-0.4-0.9-0.8c0,0,0-0.1-0.1-0.1c-0.9-0.8-1.1-1.8-1.4-2.8c-0.2-0.7-0.1-1.4,0.4-2
		c0.4-0.5,0.9-1,1.6-1.2c0.4-0.1,0.7-0.4,0.9-0.7C205.1,93.3,205.2,93.1,205.4,92.9z"/>
</g>
</svg>
