<svg xmlns="http://www.w3.org/2000/svg" viewBox="0 0 187.75 53.32"><defs><style>.cls-1{fill:#231f20;}</style></defs><title>2</title><g id="Layer_2" data-name="Layer 2"><g id="Layer_1-2" data-name="Layer 1"><path class="cls-1" d="M4.36,31.52c-.1,0-.2-.11-.3-.35v.65a1.17,1.17,0,0,1,.27.63,3.56,3.56,0,0,1,0,.72,1.47,1.47,0,0,0,0,.6l-.35.3c0,.07,0,.35-.1.85a8.85,8.85,0,0,0-.1,1.15,2.11,2.11,0,0,0,.1.7c.16-.06.26-.07.3,0a.4.4,0,0,1,0,.27v.15a5.51,5.51,0,0,0,.3,1V36.92s0-.05,0-.05h.1l.3.55.15-.3a2.45,2.45,0,0,1,.25,1.05,4.4,4.4,0,0,1-.25,1.3c0,.07,0,.49.1,1.25a14.84,14.84,0,0,0,.5,2.3c.2.64.4,1,.6,1.1a5.06,5.06,0,0,0,2.2.7,1.41,1.41,0,0,0,.4,0,7.8,7.8,0,0,1,1-.37L11,44.07a.55.55,0,0,0,.05.2l-.6.35a4.75,4.75,0,0,1,1-.27,6.84,6.84,0,0,0,1.07-.3,1.23,1.23,0,0,0,.63-.58l1-.27,1-.28c0,.14-.15.45-.35.95.26,0,.58-.08,1-.15-.17.3-.35.67-.55,1.1l.2,0,.35-.08-1.1,1a.11.11,0,0,0,0,.1c.46-.16,1-.36,1.6-.6a5.71,5.71,0,0,1-.33.65c-.15.27-.26.47-.32.6a1.27,1.27,0,0,0,.37-.1l.43-.15a.77.77,0,0,0,.15.2c-1.14,1-1.8,1.59-2,1.75q-.06.06-.33,0a1.15,1.15,0,0,0-.4,0,3.6,3.6,0,0,0-.77.47.14.14,0,0,0-.1.05c-.07.07-.12.1-.15.1h-.25a5.39,5.39,0,0,0-.95.1,10.81,10.81,0,0,0-1.08.28,6.84,6.84,0,0,1-.92.22.9.9,0,0,1-.55-.12.88.88,0,0,0-.65-.08v.25q-.21,0-.6-.45a.36.36,0,0,0-.3,0,1.27,1.27,0,0,1-.55.15A1,1,0,0,1,6.58,49a2.84,2.84,0,0,1-.52-.43,3.78,3.78,0,0,0-.45-.4h1V48a14.33,14.33,0,0,1-2-.3l.12-.15a1.37,1.37,0,0,0,.13-.2.92.92,0,0,0,.35,0,.78.78,0,0,1,.3.05.46.46,0,0,0,0-.2,3.31,3.31,0,0,1-1.5-.75.66.66,0,0,1-.23-.22A1.41,1.41,0,0,0,3.58,46l-.22-.15a1.47,1.47,0,0,1-.6-.2,3.68,3.68,0,0,1-.58-.45c-.22-.2-.36-.33-.42-.4a6.87,6.87,0,0,1-1.45-2,3,3,0,0,1-.25-1.35q0-.6.3-.6h.1c.4.07.6-.1.6-.5q0-.15-.15-1.5l-.15,0c-.1.3-.17.45-.2.45a1.31,1.31,0,0,1-.45-1.6c.06.1.15.25.25.45v-1a1.09,1.09,0,0,1-.25.05V32.92a1.76,1.76,0,0,1,.45-1.2c.06,0,.08-.06,0-.1a3.66,3.66,0,0,1,.25-1.8,1.43,1.43,0,0,0,.07-.65,2.46,2.46,0,0,1,0-.7,7.37,7.37,0,0,1,.27-.92,3.52,3.52,0,0,0,.23-1.33,1,1,0,0,0,.45-1.55,1.16,1.16,0,0,1-.15.25,1.68,1.68,0,0,0,0-.27,2.72,2.72,0,0,0-.07-.33c-.2.4-.34.65-.4.75A12.47,12.47,0,0,1,4.11,19c-.34.8-.57,1.32-.7,1.55l.2.1c.06-.16.33-.68.8-1.55a.09.09,0,0,1,.07,0,.15.15,0,0,0,.08,0c-.17.47-.4,1.19-.68,2.15S3.37,23,3.21,23.47l-.5,1.3c-.24.6-.42,1.07-.55,1.4a2.14,2.14,0,0,0,0,.7,2.61,2.61,0,0,1,0,.7c0,.54-.11,1.27-.23,2.2s-.21,1.59-.27,1.95v.9c-.24,1.74-.35,2.7-.35,2.9a4.71,4.71,0,0,0,.15,1.25,12.72,12.72,0,0,1,.3,2.85c0,.57,0,1.2-.1,1.9a.52.52,0,0,0,.25.4v-.6c.13-5.36.23-8.35.3-9A31.49,31.49,0,0,1,3.46,24c.4-1.1.68-1.86.85-2.27s.46-1.09.9-2a9,9,0,0,1,1.22-2A10.28,10.28,0,0,1,8,16.3a5.74,5.74,0,0,1,2.05-1,2.83,2.83,0,0,1,.9-.15,3.69,3.69,0,0,1,2.75,1.7,7.3,7.3,0,0,0,.4.9l-.3.15-.3.15c.06.17.11.25.15.25-.37.47-.62.8-.75,1l-.15-.1c-.1.24-.19.45-.25.65a.6.6,0,0,1-.2.05c-.44-.66-.69-1-.75-1.1l-.75-.55a1.64,1.64,0,0,1,.05-.3l-1.45.85a2.38,2.38,0,0,1-.5.1.9.9,0,0,0-.5.2c-.77.84-1.12,1.37-1,1.6s0,.94-.55,1.7l-.8.3c0-.16-.09-.33-.15-.5a21.06,21.06,0,0,0-1.45,7.3,1.72,1.72,0,0,1,.1-.52,4.89,4.89,0,0,1,.15-.48.19.19,0,0,1,.1.05C4.57,29.59,4.46,30.59,4.36,31.52ZM.71,34.77a1.49,1.49,0,0,0-.4,1.1,4.51,4.51,0,0,0,0,.58,2.08,2.08,0,0,1,0,.62,1,1,0,0,0,.65-1A6.76,6.76,0,0,0,.71,34.77Zm3.35,4.3c0,.2.11.9.25,2.1a3.63,3.63,0,0,1,.05-.57,5.41,5.41,0,0,0,0-.58A1.43,1.43,0,0,0,4.06,39.07Zm1.35-13.2a.32.32,0,0,1,.2.05l.15.5q-.45,1-1,.75c.06-.1.17-.3.32-.6S5.31,26,5.41,25.87Z"/><path class="cls-1" d="M20.26,27.52c-.07.8-.11,1.73-.13,2.78s0,1.78,0,2.2-.05,1.21-.15,2.37a21,21,0,0,0-.15,2.25v.35a9.29,9.29,0,0,0-.2,2,13.33,13.33,0,0,0,.75,4.2,9.73,9.73,0,0,1,.6,2.25c-.14.07-.29-.05-.45-.35a2.74,2.74,0,0,1-.45-2c-.24-.43-.35-.51-.35-.25a1.45,1.45,0,0,0,.25.8c-.54-.06-.81-.49-.83-1.27a3.31,3.31,0,0,0-.32-1.63,1.76,1.76,0,0,1-.2-1,10.4,10.4,0,0,1,.1-1.3,23.91,23.91,0,0,0,.15-2.4l-.05-.75c0-.8.16-2.56.5-5.3a1.72,1.72,0,0,0,.6-1.45A2.58,2.58,0,0,1,20.26,27.52Zm7.25,22.85a.34.34,0,0,0-.45-.32,2.12,2.12,0,0,1-.75,0c-.07-.13-.32-.26-.75-.4-.2,0-.17-.1.1-.2a1.1,1.1,0,0,0-.6-.17,1.42,1.42,0,0,1-.58-.13c-.12-.06-.12-.21,0-.45-.44,0-.69-.06-.75-.2s0-.22.22-.27a1.65,1.65,0,0,1,.73,0c0-.13-.17-.23-.5-.3a4,4,0,0,1-2.95-2,6,6,0,0,1-.55-2q-.21-1.29-.33-1.8a3.32,3.32,0,0,1,.25-1.62,3.38,3.38,0,0,0,.18-1.88,3.78,3.78,0,0,0,.12-1.92,13.29,13.29,0,0,1-.07-2c0-.25.05-.89.05-1.9a6.51,6.51,0,0,1,.3-2.28,6.44,6.44,0,0,1,.57-2.22q.52-1.23.63-1.53c.46-.43.5-.65.1-.65a2.08,2.08,0,0,0-1.55.7q-.21.81-.33.3a5.43,5.43,0,0,1-.12-.55,1.3,1.3,0,0,1-1.2-1.5c-.4-.23-.42-.76-.05-1.6a2.53,2.53,0,0,0,.32-1.77,3,3,0,0,1-.25-.83.73.73,0,0,1,.3-.6,3,3,0,0,1,.65-.47c.22-.12.48-.25.8-.4a6.91,6.91,0,0,0,1.2-.78,10.25,10.25,0,0,1,3.23-1.15q-.41-.94,1.35-.75a3.83,3.83,0,0,0,1.05,0,1.46,1.46,0,0,1,.95.27,1.34,1.34,0,0,0,1,.25,3.24,3.24,0,0,1,1.1-.2,4.25,4.25,0,0,1,2.95,1.45,2.35,2.35,0,0,1,1.7,1,12.53,12.53,0,0,0,1.25,1.35c-.37-.5-.54-.83-.5-1,.63-.2,1.11.06,1.45.78s.28,1.09-.15,1.12a1.47,1.47,0,0,1-.55-.15,2.13,2.13,0,0,0,.77,1.13c.48.45.71.79.68,1a2.7,2.7,0,0,1,.4,1.9c0,.2-.17.24-.4.1-.2.37-.54.19-1-.55A11.51,11.51,0,0,0,38,26.8a5.71,5.71,0,0,1,.35,2,12.24,12.24,0,0,1,.15,2.15v1c0,.5-.05,1-.05,1.35a14.21,14.21,0,0,0,.1,1.9,2,2,0,0,1,.1,1.1c-.14,1.2.06,1.77.6,1.7a3,3,0,0,0-.48,1.3,2.53,2.53,0,0,1-.52,1.3c.13,0,.33-.33.6-1a2.9,2.9,0,0,1,.7-1.2,10.56,10.56,0,0,1-3,5.85c.33-.43.54-.43.62,0a1.18,1.18,0,0,1-.57,1.18c-.47.35-.95.74-1.45,1.17a7.56,7.56,0,0,1-2.65,1.85,8,8,0,0,1-2.53,1.08A12.56,12.56,0,0,0,27.51,50.37ZM21.66,36.22a12.88,12.88,0,0,0-.15,2,17,17,0,0,0,.15,2.2Zm15.25-1.35c.43,0,.58-.51.45-1.45a15.41,15.41,0,0,1-.1-2.15,5.41,5.41,0,0,0-.65-2,15,15,0,0,1-.85-1.85,1.67,1.67,0,0,0-1-1.6,3.32,3.32,0,0,1-1.35-1.15c-.3-.16-.47-.14-.5.08s-.17.27-.4.17a13.84,13.84,0,0,1-1.38-.77,2.76,2.76,0,0,0-1.72-.53,2.62,2.62,0,0,0-2.4,1.3c-.3.17-.45.21-.45.13a2.23,2.23,0,0,1,.05-.43c0-.2,0-.3-.05-.3a2,2,0,0,1-1.8,1.3,9.23,9.23,0,0,0-1.65,4.5,3.39,3.39,0,0,1-.3,1.6c-.3.57-.39.9-.25,1a3.11,3.11,0,0,1-.25,1.83,2.93,2.93,0,0,0-.15,2c0,.17,0,.46-.08.88s-.08.73-.1.95,0,.49,0,.82a3.79,3.79,0,0,0,.4,1.75c.43.1.6.42.5,1-.07.34-.19.42-.35.25,0-.66-.05-.86-.15-.57a1.47,1.47,0,0,0-.1.75c0,.21.29.54.77,1a2.14,2.14,0,0,1,.78,1.4l0,.4a.17.17,0,0,1-.05-.15c-.2-.5-.39-.58-.55-.25,0,0,.15.24.35.6.33.74.7,1,1.1.85A.64.64,0,0,0,25.68,46c.32-.43.31-.63,0-.6a.62.62,0,0,1-.1.6q-.21.21-.75,0c-.84-.26-.84-.6,0-1a2,2,0,0,1,1.9-.2.94.94,0,0,0,.67.75,1.28,1.28,0,0,0,1.13-.3,1.11,1.11,0,0,1-.43-.07c-.12-.05-.07-.09.15-.13a.57.57,0,0,1,.43,0,5.39,5.39,0,0,0,2.85-1.85,13.1,13.1,0,0,0,2.9-3.6c.06-.13.33-.55.8-1.25a4.78,4.78,0,0,0,.8-1.7,1.29,1.29,0,0,0,.35-.77c.06-.39.12-.69.17-.93S36.71,34.74,36.91,34.87Zm-14.45,0c.16.8.13,1.22-.1,1.25s-.22-.14-.15-.52A1.44,1.44,0,0,1,22.46,34.82Zm2.65-17.75a1.69,1.69,0,0,1-1.33.65c-.58,0-.86,0-.82,0,.13-.26.5-.43,1.12-.5Zm-1.2,31.7.3.1c.13.14.15.24.05.3s-.31,0-.63-.1-.38-.21-.2-.25A3,3,0,0,1,23.91,48.77Zm1.15-23.2c.26,0,.33.12.2.35,0,.07-.05.11,0,.13a.28.28,0,0,0,.18,0,2,2,0,0,1-.3,1.73,6.18,6.18,0,0,0-.65,1.47A2.54,2.54,0,0,0,23.41,31a3.23,3.23,0,0,1,.05-1.5A10.08,10.08,0,0,1,25.06,25.57Zm4.15-8.75h.15c.1.07.11.12.05.15l-.6,0S28.94,16.86,29.21,16.82Zm3.65,25.9-.15.2a3.7,3.7,0,0,0-.5.6l.55-.6A.3.3,0,0,0,32.86,42.72Zm1.7-4a.93.93,0,0,0-.15.35c-.24.5-.39.59-.45.25S34.06,38.67,34.56,38.67Zm.75,2.45-.15.2q-.45.45-.45.6A3.06,3.06,0,0,0,35.31,41.12Zm2.3-4.7,0,.35a.75.75,0,0,0-.18.5c0,.14.11.07.28-.2A.45.45,0,0,0,37.61,36.42Zm1,1,.1-.15a2.57,2.57,0,0,1,.15-.5c.06-.16.12-.1.17.2s0,.47-.07.5A.41.41,0,0,1,38.66,37.42Zm.2-3.15h.25V36c0,.6-.12.54-.25-.2A2.6,2.6,0,0,1,38.86,34.27Zm.75-3.8.1.25a23.88,23.88,0,0,1,.3,4.7,2.19,2.19,0,0,0,0,1c.13,1-.1,1.62-.7,1.85.06-.76.1-2,.1-3.8A24.41,24.41,0,0,1,39.61,30.47Zm.7,1.4c0,.1,0,.52.15,1.25a7.89,7.89,0,0,1,.1,1.15,6.34,6.34,0,0,1-.15,1.35q.15,0,.15.15c.06.47,0,.77-.1.9s-.22.16-.25.08a1.58,1.58,0,0,1,0-.65,11.92,11.92,0,0,0,0-2v-.95A6.66,6.66,0,0,1,40.31,31.87Z"/><path class="cls-1" d="M50.26,47.92V50h-.2v-2.1Zm10.5-31.2c0-.13-.24-.23-.7-.3v-.1a4.8,4.8,0,0,1,.72-.07l.73,0a5.16,5.16,0,0,0-.5-.9l.57.3a3.62,3.62,0,0,1,.48.3q-.11-.45-.15-.75l1.5,1.2.05-.1a.49.49,0,0,1,0-.25c.06.17.34.34.82.5a1,1,0,0,1,.78.9,1.38,1.38,0,0,1,.2-.27,1.21,1.21,0,0,0,.2-.33l.1.48c0,.18,0,.29,0,.32l.3,0c.16,0,.25,0,.27.07a1.63,1.63,0,0,0,.15.2.33.33,0,0,1,0,.4s0,.12.15.25.2.24.2.3A17.56,17.56,0,0,1,66.86,21a7.39,7.39,0,0,1-.5,2.75,12,12,0,0,0-.5,2.25,4.28,4.28,0,0,1,.45-.7h.45v.15c-.64,1.6-1,2.42-1,2.45-.17.34-.42.8-.75,1.4l-.7,1.25c-.07.14-.19.39-.35.78a6.66,6.66,0,0,1-.45.87s-.15.14-.35.3a.57.57,0,0,0-.25.55c0,.2.06.3.1.3a2.52,2.52,0,0,1,.75,1,2.32,2.32,0,0,1,.5,1.2,1.9,1.9,0,0,0,.5,1.15,2.19,2.19,0,0,1,.42.8,5,5,0,0,0,.23.65.45.45,0,0,0,.25.2l.3.15c.1.14.26.42.5.85.4.64,1.13,1.89,2.2,3.75.23.4.5.49.8.25a2.92,2.92,0,0,0,.55.85.8.8,0,0,0,.55.05,2.72,2.72,0,0,0,.7,1,1.7,1.7,0,0,1,.6,1.07.46.46,0,0,1-.13.25,3.57,3.57,0,0,1-.52.45l-.3-.2v1.3a5.21,5.21,0,0,1-.7-.45c.06.44.11.75.15.95a8.18,8.18,0,0,1-.8-.3,1.76,1.76,0,0,1-.3.7,9.17,9.17,0,0,1-.5-1.05l-.15.1a6.48,6.48,0,0,1,.25,1c0,.27-.29.59-.85,1,0,0-.1,0-.2-.15a1.53,1.53,0,0,0-.25-.2l-.25.5a11.94,11.94,0,0,1-1.85-2,.77.77,0,0,1-.15-.3,4.05,4.05,0,0,1-.15-.55q-.1-.39-.18-.6c0-.13-.12-.29-.2-.47a1.27,1.27,0,0,0-.3-.45,2.36,2.36,0,0,0-.42-.33,2,2,0,0,1-.85-1.15,4.36,4.36,0,0,0-.33-.4,3,3,0,0,1-.37-.47.41.41,0,0,1,0-.43c-.44-.23-.65-.46-.65-.7a2.84,2.84,0,0,0-.18-1,5,5,0,0,0-.67-1.15,3,3,0,0,1-.5-.78,3.22,3.22,0,0,0,0-.85c-.1-.13-.55-.6-1.35-1.4-.94.67-1.44,1.19-1.5,1.55,0,0-.05.07-.13.1a.75.75,0,0,0-.17.1,3.31,3.31,0,0,0-.35.48,4.18,4.18,0,0,1-.48.6,2.63,2.63,0,0,1-.47.37,2.15,2.15,0,0,1-.7.1,3.35,3.35,0,0,1-.2-.45v4.85l0,.05.2-.55a.26.26,0,0,0,.15.05c-.24.9-.29,1.47-.15,1.7a1.85,1.85,0,0,1,.12,1c0,.41-.19.66-.42.72a.68.68,0,0,0-.6.55,1.17,1.17,0,0,0,0,.7,1,1,0,0,1,0,.33.42.42,0,0,1-.1.15l-.23.07a.65.65,0,0,0-.22.1c-.1-.23-.17-.4-.2-.5-.17.34-.37.7-.6,1.1,0-.16-.23-.37-.58-.62s-.47-.53-.37-.83c-.34.64-.59,1.12-.75,1.45a12.36,12.36,0,0,1-.75-1.3,2.5,2.5,0,0,1-.05-.75v-.75c0-.06,0-.28-.08-.65a6.26,6.26,0,0,1-.07-.8,1.69,1.69,0,0,1,.1-.55c.36-.36.35-.66-.05-.9v-.3a3.35,3.35,0,0,0,.45.2v-3.8c-.14,0-.2.32-.2.95v1.2a3.1,3.1,0,0,1-.65-.15c.23-.13.34-.24.32-.32s-.06-.22-.12-.4a.63.63,0,0,1-.05-.43,5.88,5.88,0,0,0,.1-1.6c0-.1,0-.15.05-.15a1,1,0,0,0,.47-.55,1.62,1.62,0,0,0-.05-.77,3.4,3.4,0,0,1-.12-.63,3.13,3.13,0,0,1,.3-1.5,1.09,1.09,0,0,1,.05-.25.39.39,0,0,1,0-.2c.1.14.33.42.7.85a4,4,0,0,1,.1-.75c0,.67,0,1.63-.05,2.88s0,2.17,0,2.77a29.68,29.68,0,0,0,.45,5.6c0-1.13,0-2.16,0-3.1a55.76,55.76,0,0,1,.35-6.6,4.15,4.15,0,0,0,.45.65V37.22a1.09,1.09,0,0,1-.25.05,10.49,10.49,0,0,0,.4-3.25v-2.2a3.1,3.1,0,0,0,.07-.55c0-.26,0-.46,0-.6a1.05,1.05,0,0,0,0-.45,1,1,0,0,0-.22-.4q-.15-.09-.15-.45a.51.51,0,0,1,.35-.5c.06,0,.11-.25.15-.65q.69-6.84,1-9.2a6.92,6.92,0,0,1,.3.7c-.27,3.17-.4,4.89-.4,5.15a5.29,5.29,0,0,0,0,.8h.2c0-.36.1-.91.2-1.65s.18-1.28.25-1.65h0v5.5h-.2a3.54,3.54,0,0,0,0-.45h-.25v3c0,.5,0,1.27,0,2.3s0,1.8,0,2.3l.2.15,1.2-1.2c.63-.63,1.11-1.13,1.45-1.5l1-1.3a17.41,17.41,0,0,1,1.4-1.65,2.09,2.09,0,0,1,0,.38,1.3,1.3,0,0,0,0,.32l.1.05c.83-1.56,1.26-2.35,1.3-2.35a8.83,8.83,0,0,0,.22-1,4.94,4.94,0,0,1,.28-1.08l.1.15a.36.36,0,0,0,.1.15c.06-.06.29-.36.67-.87a10.37,10.37,0,0,0,1.08-1.93l-.35.05-.4.1a3,3,0,0,1,.22-.35,3.79,3.79,0,0,1,.28-.35,2.81,2.81,0,0,1,.1-1.95c-.2-.06-.49-.16-.85-.3l-.08.08-.07.07a1.28,1.28,0,0,0-.2-.9,2.22,2.22,0,0,0-.6-.75,1,1,0,0,0-.65-.25,3.26,3.26,0,0,0-.55.1,2.6,2.6,0,0,1-.6.1.82.82,0,0,1-.4-.1.35.35,0,0,0,.17-.1l.23-.15c-.77-.2-1.52-.41-2.25-.65l1.65-.4-.4-.2a.47.47,0,0,1-.1-.1Zm-8.2,1.45a3.4,3.4,0,0,1,.6,2,5.32,5.32,0,0,1-.15,1.2,7.82,7.82,0,0,1-.1-.8h-.25c-.07,1.14-.1,2.29-.1,3.45,0,.57,0,1.36-.05,2.38s-.07,1.69-.1,2c0,.6,0,1.7,0,3.3s-.07,2.84-.1,3.7l-.45.4c0-.63-.07-1.08-.1-1.35a1.19,1.19,0,0,1-.18.3.46.46,0,0,0-.12.25h-.1s-.05,0-.05-.05a7.2,7.2,0,0,1,.15-1.5,1.4,1.4,0,0,1,.07.33,3.19,3.19,0,0,1,0,.42,3.82,3.82,0,0,0,.07-.8,1.67,1.67,0,0,0-.42-.55s0,0,0-.15v-.15c.13.1.2.12.22,0a.45.45,0,0,0,0-.25c-.27-.1-.39-.21-.35-.35a2,2,0,0,1,.2-.6,2.48,2.48,0,0,0,.2-1,7.5,7.5,0,0,0-.1-.92,6.18,6.18,0,0,1-.1-1,1,1,0,0,1,.05-.35c.1-.73.18-1.51.25-2.35s.12-1.77.17-2.82.09-1.86.13-2.43a1,1,0,0,1,.32-.62.61.61,0,0,0,.08-.78l.3-.7A1.59,1.59,0,0,0,52.56,18.17Zm.25,12.7H53v4.35h-.15Zm1.4-.25h-.15v2.85h.15Zm.5,9.05a.56.56,0,0,1-.15.1,3.48,3.48,0,0,1,.1.85c0,.14,0,.37,0,.7s0,.59,0,.75a3,3,0,0,0,0,.6,6,6,0,0,1,.05.75c0,.27,0,.67-.1,1.2s-.12.89-.15,1.05h.2a3.53,3.53,0,0,1,.07-.6,3.54,3.54,0,0,0,.08-.6h0l0,3.3h.3c0-.23,0-.56,0-1s0-.73,0-.93v-.7A2.36,2.36,0,0,0,55,44.3c-.12-.45-.09-.74.08-.88a1.07,1.07,0,0,0,.07-.5c0-.16,0-.41-.1-.72a4.91,4.91,0,0,1-.07-.63V40.8a6.2,6.2,0,0,0,0-.88S54.87,39.81,54.71,39.67Zm9.4-16.1L64,25l.45.15c-.24.47-.58,1.13-1,2s-.76,1.46-.92,1.82a.28.28,0,0,1,.12.05l.13.1c.2-.43.52-1.1,1-2s.79-1.6,1-2.1a.34.34,0,0,0,.1-.42l-.13-.35a1.66,1.66,0,0,0-.25-.33Z"/><path class="cls-1" d="M75.56,27.52c-.07.8-.11,1.73-.13,2.78s0,1.78,0,2.2,0,1.21-.15,2.37a21,21,0,0,0-.15,2.25v.35a9.29,9.29,0,0,0-.2,2,13.33,13.33,0,0,0,.75,4.2,9.73,9.73,0,0,1,.6,2.25c-.14.07-.29-.05-.45-.35a2.74,2.74,0,0,1-.45-2c-.24-.43-.35-.51-.35-.25a1.45,1.45,0,0,0,.25.8c-.54-.06-.81-.49-.83-1.27a3.31,3.31,0,0,0-.32-1.63,1.76,1.76,0,0,1-.2-1,10.4,10.4,0,0,1,.1-1.3,23.91,23.91,0,0,0,.15-2.4l0-.75c0-.8.16-2.56.5-5.3A1.69,1.69,0,0,0,75.2,29,2.65,2.65,0,0,1,75.56,27.52Zm7.25,22.85a.34.34,0,0,0-.45-.32,2.12,2.12,0,0,1-.75,0c-.07-.13-.32-.26-.75-.4-.2,0-.17-.1.09-.2a1,1,0,0,0-.59-.17,1.42,1.42,0,0,1-.58-.13c-.12-.06-.12-.21,0-.45-.44,0-.69-.06-.75-.2s0-.22.22-.27a1.61,1.61,0,0,1,.72,0c0-.13-.16-.23-.5-.3a4,4,0,0,1-2.94-2A6.21,6.21,0,0,1,76,44c-.13-.86-.24-1.46-.32-1.8a3.32,3.32,0,0,1,.25-1.62,3.38,3.38,0,0,0,.18-1.88,3.78,3.78,0,0,0,.12-1.92,13.29,13.29,0,0,1-.07-2c0-.25,0-.89,0-1.9a6.8,6.8,0,0,1,.29-2.28A6.71,6.71,0,0,1,77,28.35q.52-1.23.63-1.53c.46-.43.5-.65.1-.65a2.12,2.12,0,0,0-1.56.7c-.13.54-.24.64-.32.3a5.43,5.43,0,0,1-.12-.55c-.81-.1-1.2-.6-1.2-1.5-.4-.23-.42-.76,0-1.6a2.53,2.53,0,0,0,.32-1.77,3,3,0,0,1-.25-.83.73.73,0,0,1,.3-.6,3,3,0,0,1,.65-.47c.22-.12.48-.25.8-.4a6.91,6.91,0,0,0,1.2-.78,10.25,10.25,0,0,1,3.23-1.15q-.41-.94,1.35-.75a3.83,3.83,0,0,0,1,0,1.47,1.47,0,0,1,1,.27,1.34,1.34,0,0,0,1,.25,3.22,3.22,0,0,1,1.09-.2,4.27,4.27,0,0,1,3,1.45,2.35,2.35,0,0,1,1.7,1,12.53,12.53,0,0,0,1.25,1.35c-.37-.5-.54-.83-.5-1,.63-.2,1.11.06,1.45.78s.28,1.09-.15,1.12a1.47,1.47,0,0,1-.55-.15,2.13,2.13,0,0,0,.77,1.13c.48.45.71.79.68,1a2.68,2.68,0,0,1,.39,1.9c0,.2-.16.24-.39.1-.2.37-.54.19-1-.55a11.51,11.51,0,0,0,.45,1.58,5.71,5.71,0,0,1,.35,2,13.3,13.3,0,0,1,.15,2.15v1q-.06.75-.06,1.35a14,14,0,0,0,.11,1.9,2,2,0,0,1,.1,1.1c-.14,1.2.06,1.77.6,1.7a3,3,0,0,0-.48,1.3,2.53,2.53,0,0,1-.52,1.3c.13,0,.33-.33.6-1a2.9,2.9,0,0,1,.7-1.2,10.56,10.56,0,0,1-3,5.85c.33-.43.54-.43.62,0a1.18,1.18,0,0,1-.57,1.18c-.47.35-1,.74-1.45,1.17a7.49,7.49,0,0,1-2.66,1.85,7.78,7.78,0,0,1-2.52,1.08A12.56,12.56,0,0,0,82.81,50.37ZM77,36.22a14.27,14.27,0,0,0-.14,2,18.84,18.84,0,0,0,.14,2.2ZM92.2,34.87c.44,0,.59-.51.46-1.45a15.41,15.41,0,0,1-.1-2.15,5.41,5.41,0,0,0-.65-2,15,15,0,0,1-.85-1.85,1.67,1.67,0,0,0-1-1.6,3.44,3.44,0,0,1-1.36-1.15c-.29-.16-.46-.14-.5.08s-.16.27-.39.17a13.84,13.84,0,0,1-1.38-.77,2.77,2.77,0,0,0-1.73-.53,2.62,2.62,0,0,0-2.39,1.3c-.3.17-.45.21-.45.13a2.23,2.23,0,0,1,0-.43c0-.2,0-.3,0-.3a2,2,0,0,1-1.8,1.3,9.13,9.13,0,0,0-1.65,4.5,3.39,3.39,0,0,1-.3,1.6c-.3.57-.39.9-.25,1a3.11,3.11,0,0,1-.25,1.83,3,3,0,0,0-.16,2,8.26,8.26,0,0,1-.07.88c0,.41-.08.73-.1.95s0,.49,0,.82a3.79,3.79,0,0,0,.4,1.75c.43.1.6.42.5,1-.07.34-.19.42-.35.25,0-.66,0-.86-.15-.57a1.47,1.47,0,0,0-.1.75c0,.21.29.54.77,1a2.14,2.14,0,0,1,.78,1.4l0,.4A.17.17,0,0,1,79,45c-.2-.5-.39-.58-.56-.25a5.08,5.08,0,0,1,.36.6c.33.74.7,1,1.1.85A.64.64,0,0,0,81,46q.48-.65,0-.6a.59.59,0,0,1-.09.6q-.21.21-.75,0c-.84-.26-.84-.6,0-1a2,2,0,0,1,1.9-.2.94.94,0,0,0,.67.75,1.28,1.28,0,0,0,1.13-.3,1.11,1.11,0,0,1-.43-.07c-.12-.05-.07-.09.15-.13s.36,0,.42,0a5.41,5.41,0,0,0,2.86-1.85,12.87,12.87,0,0,0,2.89-3.6c.07-.13.34-.55.81-1.25a4.78,4.78,0,0,0,.8-1.7,1.29,1.29,0,0,0,.35-.77c.06-.39.12-.69.17-.93S92,34.74,92.2,34.87Zm-14.44,0c.16.8.13,1.22-.1,1.25s-.22-.14-.15-.52A1.44,1.44,0,0,1,77.76,34.82Zm2.65-17.75a1.69,1.69,0,0,1-1.33.65c-.58,0-.86,0-.82,0,.13-.26.5-.43,1.12-.5ZM79.2,48.77l.31.1c.13.14.15.24,0,.3s-.31,0-.63-.1-.38-.21-.2-.25A3,3,0,0,1,79.2,48.77Zm1.16-23.2c.26,0,.33.12.2.35,0,.07,0,.11,0,.13a.25.25,0,0,0,.17,0,1.93,1.93,0,0,1-.29,1.73,6.18,6.18,0,0,0-.65,1.47A2.59,2.59,0,0,0,78.7,31a3.41,3.41,0,0,1,.06-1.5A9.93,9.93,0,0,1,80.36,25.57Zm4.15-8.75h.15c.1.07.11.12,0,.15l-.59,0S84.24,16.86,84.51,16.82Zm3.65,25.9-.15.2a3.7,3.7,0,0,0-.5.6l.55-.6A.3.3,0,0,0,88.16,42.72Zm1.7-4a1,1,0,0,0-.16.35c-.23.5-.38.59-.44.25S89.36,38.67,89.86,38.67Zm.75,2.45-.16.2c-.29.3-.44.5-.44.6A3.06,3.06,0,0,0,90.61,41.12Zm2.3-4.7,0,.35a.75.75,0,0,0-.18.5c0,.14.11.07.27-.2A.45.45,0,0,0,92.91,36.42Zm1,1,.11-.15a3.43,3.43,0,0,1,.14-.5c.07-.16.13-.1.18.2s0,.47-.07.5A.44.44,0,0,1,94,37.42Zm.21-3.15h.25V36c0,.6-.12.54-.25-.2A2.6,2.6,0,0,1,94.16,34.27Zm.75-3.8.1.25a23.88,23.88,0,0,1,.3,4.7,2.07,2.07,0,0,0,0,1c.13,1-.1,1.62-.7,1.85.06-.76.1-2,.1-3.8A24.41,24.41,0,0,1,94.91,30.47Zm.7,1.4c0,.1,0,.52.15,1.25a7.89,7.89,0,0,1,.1,1.15,5.78,5.78,0,0,1-.16,1.35c.11,0,.16,0,.16.15.06.47,0,.77-.1.9s-.22.16-.25.08a1.58,1.58,0,0,1,0-.65,11.92,11.92,0,0,0,0-2v-.95A6.66,6.66,0,0,1,95.61,31.87Z"/><path class="cls-1" d="M98.7,30.07a9.49,9.49,0,0,0,0,1.7,9.33,9.33,0,0,1,0,1.65,11.42,11.42,0,0,0,.07,2.15,3.75,3.75,0,0,1-.15,2c-.36-.13-.58-.71-.65-1.72a13.16,13.16,0,0,1,0-2.08,7.61,7.61,0,0,0,.07-1A7.51,7.51,0,0,1,98,32a6.19,6.19,0,0,1,.12-.68A2.17,2.17,0,0,1,98.7,30.07Zm2-11.8a5.9,5.9,0,0,0,.35-.95q.41.25.18,1.68t-.48,3a25.13,25.13,0,0,0-.4,4,10,10,0,0,0,0,1c-.2.4-.2.59,0,.55a1.28,1.28,0,0,0,1-.75,11.67,11.67,0,0,0,.18-2c0-.9,0-1.52,0-1.87s.08-.95.2-1.8a9.41,9.41,0,0,0,.12-2c-.16.4-.3.46-.4.18a1,1,0,0,1,.15-.88.71.71,0,0,1,.13-1.05c.35-.26.47-.41.35-.45a1.15,1.15,0,0,1-.45-.3.49.49,0,0,1-.13-.6c-.16-.26,0-.38.4-.35a1.53,1.53,0,0,1,.3,0l.3,0a.84.84,0,0,1-.25-.15s.75-.23,2.15-.7a1.46,1.46,0,0,0,.55.1c.54.1.67.24.4.4,0,.4.41.5,1.13.3a1.63,1.63,0,0,1,1.52.1l1,.43a9.19,9.19,0,0,1,1.15.57,2.45,2.45,0,0,1,1.25,1.65q.51.11.6.45c.07.4-.11.44-.55.1a4.13,4.13,0,0,1,.75,2.25,3,3,0,0,1-.05.6,10.7,10.7,0,0,0-.5,1.25,6.92,6.92,0,0,1-1.65,2.7c-.06.17-.08.27,0,.3s.25,0,.66-.15c.13-.06.18-.06.14,0a2.35,2.35,0,0,1-.14.25,2,2,0,0,1-1,1.1c-.57.34-.94.42-1.11.25a1,1,0,0,1-.5.95c-.33.2-.59.34-.77.43l-.73.3-.6.22c.3,0,.36.18.18.43s-.24.37-.18.37c-.06.54-.56,1.05-1.5,1.55a7.45,7.45,0,0,0-1.7,1.1,5.39,5.39,0,0,0-.15,1.45,21,21,0,0,0,.15,2.25c.1,1,.15,1.65.15,2s0,.5-.1.5-.1-.1-.2-.3l0-.65v1.3a4.05,4.05,0,0,1,.15,1.83,5.86,5.86,0,0,0,.1,1.92c-.16.64-.1.94.2.9a1.44,1.44,0,0,0,1.08-.72,2.22,2.22,0,0,0,.37-.83c0-.43.39-.75,1.05-1,.24-.06.37,0,.4.08s-.1.34-.42.67-.23.29.27-.15L107,40.82l-.9.45c-.1-.1,0-.38.25-.85a7.11,7.11,0,0,0,.5-1c.27,0,.45,0,.53-.1a.94.94,0,0,0,.17-.45,3.3,3.3,0,0,1,.1-.42l.3-.63c.17-.33.3-.6.4-.8a4.64,4.64,0,0,1,.9-1.25c.31-.26.44-.48.4-.65-.09-.33,0-.5.3-.5a2.38,2.38,0,0,0,.78-1,1.88,1.88,0,0,0,.2-1.25.73.73,0,0,0-.68-.65,3.16,3.16,0,0,0-1.32.23c-.52.18-.91.31-1.18.37a.44.44,0,0,1-.55-.17.59.59,0,0,0-.37-.33,1.47,1.47,0,0,0-.6,0l-.63.18-.72.27q-.48.21-.75.3c-.18.07-.29.05-.33,0s.12-.3.55-.4c.1-.66,1.29-1.38,3.55-2.15.77-.33,1.15-.53,1.15-.6-.4.1-.61.12-.65.05s.09-.21.35-.35a1.39,1.39,0,0,1,.9-.15c-.06-.43.24-.65.91-.65a2.3,2.3,0,0,1,1.72.35,5.75,5.75,0,0,0,1.32.65c.3-.13.48,0,.53.3s.18.54.37.6a1.79,1.79,0,0,1,.73,1.53c0,.55-.08.87-.1,1l-.15.73c-.08.38-.13.59-.13.62.14.3.05.49-.25.55s-.36.24-.2.5a21.22,21.22,0,0,1-1.09,2.7L112.65,39c-.2.31-.33.54-.4.67a3.65,3.65,0,0,1-.37.58c-.18.25-.34.46-.48.62a7.07,7.07,0,0,1-1.09,1,2,2,0,0,1-.75,1.4l-.76.65a3.92,3.92,0,0,1-2.15,2.3c-.33.34-.51.35-.55.05s.15-.51.55-.65q.36-.3.33-.42c0-.09-.46.26-1.33,1-1.13,1-1.46,1.39-1,1.08s.72-.4.75-.25-.12.36-.47.65a2.44,2.44,0,0,1-.73.47,1.41,1.41,0,0,1-.75.2,2,2,0,0,1-1.4-.75.67.67,0,0,1-.27-.9c.15-.4.21-.59.17-.57l-.35.22a3.82,3.82,0,0,1-.45.05s0-.07.15-.22a1.05,1.05,0,0,0,.25-.38l-.42-.15a.75.75,0,0,1-.4-.2c0-.06.06-.23.32-.5a1.43,1.43,0,0,1-.55-1.62,4,4,0,0,0,0-1.83,8.65,8.65,0,0,1,0-1.05c0-.43,0-1,0-1.6q.15-1.65.15-2.4l-.1-2.35c.1-.3.24-.2.4.3V33c-.43-.33-.53-.86-.3-1.6-.43.17-.61.58-.55,1.23a4.65,4.65,0,0,1,.05,1.17,5.72,5.72,0,0,1,.2,2c0,.5,0,1.09,0,1.75-.06,2.1-.1,3.35-.1,3.75-.2,0-.25,0-.15.25a4,4,0,0,1,.35,1.58,2.45,2.45,0,0,0-.15.75,4.6,4.6,0,0,1-.17,1c-.08.27-.23.4-.43.4q-.65.7-.75-.45a2,2,0,0,1,0-.6l-.1-.4a9.15,9.15,0,0,1-.2,1c-.3.17-.5,0-.6-.55a3.23,3.23,0,0,1,.1-1.8c-.06-.5,0-.79.2-.87s.31-.07.33,0a1.35,1.35,0,0,1,0,.47c0,.54.1.63.18.28a2.85,2.85,0,0,1,.32-.85,1,1,0,0,0,.18-.65,4.42,4.42,0,0,0-.2-.9,2.79,2.79,0,0,1-.15-1c0-.29,0-.83,0-1.63v-.9a20.26,20.26,0,0,1,.15-2.75,3.19,3.19,0,0,1-.15-1.1,7.6,7.6,0,0,1,.1-1.1,8.36,8.36,0,0,0,.1-1.25,2.89,2.89,0,0,0-.15-1c.1-1.13.24-2.13.4-3a12.59,12.59,0,0,1-.1-1.5,18.49,18.49,0,0,1,.45-3.95,25.61,25.61,0,0,0,.55-3.65c.1-.36.24-.55.4-.55s.22.35-.05,1.05Zm-2,9.1a5.36,5.36,0,0,0,.1,2c-.1,0-.21-.05-.35-.25C97.94,28.22,98,27.64,98.65,27.37Zm-.15-6.15a1,1,0,0,1,.5.6c0,.74-.11.89-.25.48A6.71,6.71,0,0,1,98.5,21.22Zm2.15-1.55a.17.17,0,0,0,0-.15Zm.4,16.5h0Zm.75-1.35v0Zm.45-12.4c0,.57-.07,1.29-.12,2.15S102,26,102,26.32a6.71,6.71,0,0,0,.25-2.15Zm1.85-2c-.4-.13-.68-.07-.85.18A3.11,3.11,0,0,0,103,22c0,.67,0,1,0,1.13a6.23,6.23,0,0,1-.22.92,3.73,3.73,0,0,0-.18,1.28c0,.31.25.44.65.37a1,1,0,0,1,1.08-.52q.63.12-.18.72A7.29,7.29,0,0,0,106.3,24a3.57,3.57,0,0,0,1.1-1.7c0-.16-.05-.2-.25-.1s-.38.24-.25,0a1.85,1.85,0,0,0,.15-.35c-.4-1-1.31-1.45-2.75-1.45A.53.53,0,0,0,104.1,20.42Zm4.75,8.45-1.85.7c-.13-.3-.13-.48,0-.55a3.93,3.93,0,0,1,.68-.2c.32-.06.49-.13.52-.2A1.18,1.18,0,0,1,108.85,28.87Zm0,2.3a6,6,0,0,0-1.25.35A1.69,1.69,0,0,0,108.85,31.17ZM110.15,43a1.19,1.19,0,0,1,.68-.22c.18,0,.06.21-.38.57s-.65.44-.67.23A.64.64,0,0,1,110.15,43Zm1-5.75c-.3.4-.43.6-.4.6l.31-.35A1.72,1.72,0,0,0,111.15,37.27Zm.45-4.5a.83.83,0,0,0-.29.68c0,.28,0,.46.17.55s.25-.08.4-.48S111.94,32.87,111.6,32.77Z"/><path class="cls-1" d="M118.85,18c0-.6.2-.88.7-.85.34.37.69.79,1,1.25a3.34,3.34,0,0,0,.18-.35c.08-.16.16-.3.22-.4l.25-.35c.1-.13.2-.18.28-.15l.37.15c.1.07.47.42,1.1,1.05a10.69,10.69,0,0,0,.15,1.1h.15a6.1,6.1,0,0,1,.15-1.65,6.8,6.8,0,0,1,.33,1.55c0,.54.07,1.12.07,1.75s0,1.12.05,1.45l.15-2.15c.14.1.2.57.2,1.4a25.09,25.09,0,0,1-.3,3.6c-.1-.86-.18-1.53-.25-2a.21.21,0,0,0-.15-.05c-.2,1.17-.3,1.79-.3,1.88s0,.69.15,1.82c-.33,0-.5.37-.5,1a4.52,4.52,0,0,0,.15,1.1,10.67,10.67,0,0,0,.15-1.1h.2q-.15,3.56-.45,6.9c-.23-.43-.4-.66-.5-.7q-.35,6.75-.45,8l.2,0a1.53,1.53,0,0,0,.13-.3l.12-.3a4.54,4.54,0,0,1,.25,1.55,11.93,11.93,0,0,1-.12,1.43,12.43,12.43,0,0,0-.13,1.32,8.58,8.58,0,0,0-.45-1,4.08,4.08,0,0,1-.2,1.35,5.41,5.41,0,0,1-.65-.65,5.63,5.63,0,0,0-.25.8c-.2-.23-.43-.48-.7-.75l-.3.6c-.1-.33-.18-.6-.25-.8a3.2,3.2,0,0,1-.2.55c-.1.24-.16.42-.2.55a.32.32,0,0,1-.15-.05c-.1-.4-.18-.76-.25-1.1-.06,0-.11.29-.15.85a3.54,3.54,0,0,1-.35-.6c-.1.5-.18.77-.25.8,0-.23-.1-.72-.22-1.47s-.23-1.36-.33-1.83c.24-.36.15-.71-.25-1.05a1,1,0,0,0,.68-.42,2.79,2.79,0,0,0,0-1.18c-.16.2-.35.45-.55.75-.16-.66-.25-1-.25-1a2.69,2.69,0,0,0,.33-1,11.22,11.22,0,0,0,.1-1.15,9.89,9.89,0,0,1,.07-1,6,6,0,0,0,.1-.82c0-.39.07-.69.1-.93s.1-.5.18-.8a4,4,0,0,1,.27-.75c.17.67.25,1,.25,1a3,3,0,0,1,.25,1.9l.3.25v-3.3s.09,0,.15.1c.14-.63.24-1.11.3-1.45.1.24.17.4.2.5a2.17,2.17,0,0,0,.1-.42,2.23,2.23,0,0,0,0-.48.9.9,0,0,1-.27.1.87.87,0,0,1-.28,0c.1-.5.17-.85.2-1a9.45,9.45,0,0,1-.7,1c0-.1-.05-.47-.15-1.12a10.55,10.55,0,0,1-.15-1.48v-.35a11.31,11.31,0,0,0,.18-1.25,15.2,15.2,0,0,0,.12-1.6.39.39,0,0,0-.05-.2c0-.13-.13-1-.4-2.75h-.2a2.64,2.64,0,0,0,0,.55,1.06,1.06,0,0,1,0,.45.37.37,0,0,0-.15,0,13.63,13.63,0,0,0,.15-2.2c0-.4,0-1,0-1.8s0-1.4,0-1.8.05-.63.15-.7S118.55,17.89,118.85,18Zm-1.3,25.3c0,.4,0,.74,0,1A1.38,1.38,0,0,1,117.55,43.32ZM121.7,37a9.37,9.37,0,0,1-.1,1.18c-.06.51-.11.89-.15,1.12l.25,0c0-.5.12-1.28.25-2.35h-.25Z"/><path class="cls-1" d="M127.3,32.37a1.11,1.11,0,0,0,.45-1c0-.13,0-.32,0-.57s0-.44,0-.58c0-.33,0-.83,0-1.5s0-1.16-.08-1.5c-.23.07-.35.09-.35.05a2.58,2.58,0,0,1-.5-1.75V25c0-.6,0-1.36-.1-2.3a4.32,4.32,0,0,1,.15-2.1,14.66,14.66,0,0,0,.45-2.25,3.19,3.19,0,0,0,.5.3c.1-.2.34-.63.7-1.3a3.87,3.87,0,0,1,.6.6,1.11,1.11,0,0,1,.78-.32.91.91,0,0,1,.72.22c.14.14.42.1.85-.1s.69-.21.75-.05a4,4,0,0,1,.5.9,9.44,9.44,0,0,1,.3-.9.37.37,0,0,1,.15.05,14,14,0,0,0,.6,2.75s.12.07.35.1a3.06,3.06,0,0,0-.4,1.5,4.72,4.72,0,0,0,.15,1.15,1.85,1.85,0,0,0,.35.58,4.48,4.48,0,0,1,.35.47c.14.27.9,1.64,2.3,4.1v.1a.53.53,0,0,0-.05.2l-2.5-4.35a.89.89,0,0,0-.67.7c-.08.37-.06.62.07.75a2.41,2.41,0,0,1,.3,1.25c0,.1,0,.26,0,.48s0,.37,0,.47a1.18,1.18,0,0,0,0,.35c0,.07,0,.57-.1,1.5-.13-.16-.23-.28-.3-.35V33a.56.56,0,0,1-.12.28.7.7,0,0,0-.13.22c-.13.14-.15.49-.05,1a8.66,8.66,0,0,1,.15,1.1,17.36,17.36,0,0,1-.3,2.85,5,5,0,0,0,0,.95,3.3,3.3,0,0,1,0,.9,3,3,0,0,0,0,1,4.4,4.4,0,0,1,0,1.05,10.05,10.05,0,0,1-.17,1.35,10.57,10.57,0,0,0-.18,1.7v.45s.12.14.35.3.35.3.35.4L133.1,48q-.19,1-.3,1.47a.73.73,0,0,0,.1.28.58.58,0,0,1,.1.22c-.3,1.83-.56,2.79-.8,2.85h0a1.18,1.18,0,0,0-1,.13,1.33,1.33,0,0,1-.9.17l-.6-.75a2.26,2.26,0,0,1-.25.45,1,1,0,0,1-.35-.2l-.45.7-2.25-.9a24.42,24.42,0,0,1-.2-3.15,19.68,19.68,0,0,1,.3-3.6,1.1,1.1,0,0,1,.2-.47,2.94,2.94,0,0,0,.3-.58c-.1,0-.25.1-.45.2a4.52,4.52,0,0,1-.3-1.7,16,16,0,0,1,.13-1.6A15,15,0,0,0,126.5,40a3,3,0,0,0,0-.6,1.18,1.18,0,0,0,.25.1.32.32,0,0,0,.15.05v-3.3a3.33,3.33,0,0,1,.25.5s0,0,.08,0h.12Zm-.4-3.45c.24,0,.37,0,.4.13a.61.61,0,0,1,0,.42c-.06.64-.11,1.64-.15,3a15.65,15.65,0,0,1-.3,3.12.44.44,0,0,0-.22-.32,1.71,1.71,0,0,1-.3-.28c0-.06,0-.18.22-.35-.06-1.13-.1-2-.1-2.45A9.63,9.63,0,0,1,126.9,28.92Zm.75-3.75h-.2c0,.24,0,.58.08,1a9.52,9.52,0,0,1,.07,1q.15-1.7.15-1.65A2.47,2.47,0,0,0,127.65,25.17Zm7.9-2.75a11.7,11.7,0,0,0-1.45-1.8,5.45,5.45,0,0,0,0-.67c0-.32-.05-.58-.05-.78a3.79,3.79,0,0,0,.35.28,2.27,2.27,0,0,1,.35.27.67.67,0,0,0,.15-.25l.2-.35c.1.2.2.39.3.55l.35.6a4.14,4.14,0,0,1,.3.6l-.42-.1a3.14,3.14,0,0,0-.43-.05l.55,1.6Zm16-3.65c.07.07.12.1.15.1s-.07.18-.12.33a1.56,1.56,0,0,1-.13.32l.1.1c.4-.43.67-.73.8-.9a1.9,1.9,0,0,0,.4.2,1.94,1.94,0,0,0,1.85-.2v1.1q.6-.75.9-1.05c0,.44.1,1,.2,1.7a.93.93,0,0,1,.95,1.2,21.52,21.52,0,0,0-.35,3,7,7,0,0,0,.05.8,2.56,2.56,0,0,1-.05.88c-.06.38-.1.61-.1.67A16.39,16.39,0,0,1,155.9,30c-.1-.13-.26-.33-.5-.6q0,.41-.12,1.35c-.05.64-.09,1.12-.13,1.45h.15c0-.1.08-.24.13-.42s.09-.33.12-.43a.21.21,0,0,1,.15.05l-.3,2.3a.92.92,0,0,0-.2,0c0-.1,0-.26.05-.5h-.2c0,.44,0,1.1-.05,2s-.05,1.59-.05,2H155l.1-.7h.15a7.27,7.27,0,0,1,.05.95,29.83,29.83,0,0,1-.25,3.3c-.16,1.44-.25,2.52-.25,3.25,0,.37,0,.92.1,1.65s.1,1.3.1,1.7c0,.2,0,.51,0,.93s0,.72,0,.92,0,.5.1,1.3l-.17-.15-.18-.15a.7.7,0,0,0,0,.28.52.52,0,0,1-.05.27.7.7,0,0,1-.22-.07.87.87,0,0,0-.23-.08q0,.41-.15.45c-.06-.2-.15-.45-.25-.75-.06.14-.2.47-.4,1a2.42,2.42,0,0,1-.32-.4c-.12-.16-.19-.26-.23-.3a1.27,1.27,0,0,0-.12.2.8.8,0,0,1-.18.25,6.55,6.55,0,0,0-.3-1h-.1v1.55c-.23-.3-.4-.51-.5-.65a3.89,3.89,0,0,0-.3.55A5.25,5.25,0,0,0,151,51l-.45.25c-.06-.06-.1-.11-.1-.15l-.3-1.45v-.25a2.49,2.49,0,0,0,.5-1.6c0-.16,0-.45-.05-.85s0-.68,0-.85,0-.63.15-1.6a.32.32,0,0,1-.15,0l-.45.75H150c.1-.6.19-1.06.25-1.4l.55.3a1.35,1.35,0,0,0,.18-.2,1.23,1.23,0,0,0,.17-.25,1.12,1.12,0,0,0,.1-.22.66.66,0,0,0,.05-.28.78.78,0,0,0-.1-.35,9.13,9.13,0,0,1-.15-1.35c.2,0,.32-.05.35-.15a.54.54,0,0,0,0-.37.5.5,0,0,1,0-.33l-.15.35c0-.13-.08-.36-.15-.7l-.55.4v1.75c-.33,0-.5-.06-.5-.1a11.12,11.12,0,0,1,.25-2.75c.1-.4.29-.51.55-.35a1.66,1.66,0,0,0,.23-.27c.05-.09.09-.16.12-.23s0-.06-.1-.1a1,1,0,0,0-.15-.2,13.83,13.83,0,0,1-.25-2.8,16.25,16.25,0,0,1,.2-2.6v-.15c-.2-.2-.28-.36-.25-.47a3.13,3.13,0,0,1,.28-.55,2.87,2.87,0,0,0,.27-.53,2.19,2.19,0,0,0-.2-.45s-.1.05-.2.05a.38.38,0,0,0,.1-.17.44.44,0,0,0,0-.18l.1.08a.23.23,0,0,1,.1.07c0-.1,0-.26,0-.5s0-.41-.05-.55a.52.52,0,0,1,.07-.35,1.33,1.33,0,0,0,.28-.5,2.32,2.32,0,0,0,0-.7c0-.3,0-.46,0-.5l.3-1.4a8.69,8.69,0,0,0-1.5,3.15.36.36,0,0,1-.15.1c-.66.44-.95.92-.85,1.45L149,31a1.24,1.24,0,0,0-.47.4,2.7,2.7,0,0,0-.33.7,1.57,1.57,0,0,1-.25.55.11.11,0,0,1,0,.1c-.16.17-.13.27.1.3a3.14,3.14,0,0,1-.25.65,2.56,2.56,0,0,0-.12-.32.73.73,0,0,0-.13-.23l-.15.2a.72.72,0,0,1,.23.38.44.44,0,0,1-.05.3c-.05.08-.13.19-.23.32s-.16.24-.2.3l-.7,1.05.15,0,.15,0c.14.64.2,1,.2,1a11,11,0,0,1-.8,1.25s-.1.05-.2.15a2.84,2.84,0,0,1-.67,1.2,5.63,5.63,0,0,0-.73,1,1.12,1.12,0,0,0-.05.55l.45,0a3.24,3.24,0,0,1-.75.85,3.39,3.39,0,0,1-1.2.25.86.86,0,0,1,0-.17,1,1,0,0,0,0-.23.9.9,0,0,1-.65.23c-.23,0-.36-.21-.4-.58a.77.77,0,0,1-.2.15l-.2.15h-.1c0-.26-.18-.7-.65-1.3l-.32.35c-.15.17-.28.32-.38.45v-2l-1.4.4-.1-.15q.75-.45,1.05-.6c-.4-.93-.31-1.41.25-1.45a.35.35,0,0,0,.23-.12,1.76,1.76,0,0,0,.25-.35c.08-.15.14-.26.17-.33q.36-.34-.15-.9a11,11,0,0,1-.65-1l.1-.4a.63.63,0,0,0,.13.25c.08.14.15.25.2.35a3.24,3.24,0,0,0,.2.33,1,1,0,0,0,.25.25.2.2,0,0,0,.22,0,1,1,0,0,0,.75-1,1.88,1.88,0,0,0-.3-1c-.66-1.16-1.6-3-2.8-5.45a.63.63,0,0,1,.1-.55C140.07,30,141.19,32,142,33.42l.7-.9-.1-.05a3.22,3.22,0,0,1-.35.3l-.65-1.3a.11.11,0,0,0,.1,0,.19.19,0,0,1,.1-.05.37.37,0,0,0,.05.15c.47.77.89.92,1.25.45.14-.13.34-.35.63-.65s.49-.53.62-.7.42-.7,1-1.7l-.15-.1c-.13.1-.3.22-.5.35a1.54,1.54,0,0,0,.13-.35c0-.16.09-.28.12-.35a.37.37,0,0,0-.15,0s-.08,0-.15.1l-.15.15a1.42,1.42,0,0,1-.15-.35s-.16.29-.4.75a2.3,2.3,0,0,1,1.4-2,1.19,1.19,0,0,0,0,.2.75.75,0,0,0,.07.25A1.2,1.2,0,0,0,146.1,26c-.16-.6.2-1.1,1.1-1.5a4.65,4.65,0,0,0-.25.6l.15.05Q149.26,21.92,151.6,18.77Zm.4,2.1a1.55,1.55,0,0,0-.5.3c-.1.2-.26.49-.47.88a8.9,8.9,0,0,0-.43.82q-3.6,6-4.55,8a.44.44,0,0,0,.3-.2c.54-1,1.45-2.57,2.75-4.72S151.37,22.11,152,20.87Zm-1.5.25a9.15,9.15,0,0,0-.55.9l-.7,1.25.15.1c.14-.23.34-.6.63-1.1l.62-1.1A.32.32,0,0,1,150.5,21.12Zm-.3,24.45c.47.87.34,1.47-.4,1.8A1.13,1.13,0,0,1,150.2,45.57Zm1.8-2.45V46a6.4,6.4,0,0,0,.2-1.55A4.42,4.42,0,0,0,152,43.12Zm.8-24.2a2.19,2.19,0,0,1-.22.45l-.28.48a2.06,2.06,0,0,0-.17.47,2.35,2.35,0,0,0-.08.55.39.39,0,0,0,.2.05c.4,0,.6-.48.6-1.45A2.1,2.1,0,0,0,152.8,18.92Zm0,6.8-.4,1h-.25c0,.17.09.5.15,1s.12.89.15,1.15A3.52,3.52,0,0,0,153,27,11.27,11.27,0,0,0,152.85,25.72Zm-.55,14v3.65c.1-1.83.17-3,.2-3.65h-.2Zm1.55-15.35c-.26,3.87-.5,6.85-.7,9a.55.55,0,0,1-.05.2.19.19,0,0,0,0,.1,18.8,18.8,0,0,0-.45,3.6,11.25,11.25,0,0,0,.1,1.45Q154,26.92,154.55,22l-.1,0A4.3,4.3,0,0,0,153.85,24.32Zm.15,20.6a1.74,1.74,0,0,0-.3,1.2,2.75,2.75,0,0,0,.3,1.35Z"/><path class="cls-1" d="M168.7,19.27a2.17,2.17,0,0,1-.42.1l-.38.08a.23.23,0,0,1-.2-.1,1.15,1.15,0,0,1-.15-.38,1.9,1.9,0,0,0-.55-.3.4.4,0,0,0,.1-.12l.1-.13,2.55-1.2c.14.27.3.59.5,1a17.25,17.25,0,0,1,6.85-1.9c.3,0,.86,0,1.68-.05s1.46,0,1.92,0a11.84,11.84,0,0,1,3,.3,1.47,1.47,0,0,0-.1-.32,3.16,3.16,0,0,0-.2-.48,2.53,2.53,0,0,1,.3.2l.3.2.28.13a.62.62,0,0,0,.32.05.78.78,0,0,0,.3-.13,2.51,2.51,0,0,1,.23.35c.11.2.21.35.27.45a.77.77,0,0,0,.2-.15.86.86,0,0,1-.2-.45l.35.1a1.91,1.91,0,0,0,.5,1.13,2.57,2.57,0,0,1,.55.87,2.34,2.34,0,0,0,.48.8,1.84,1.84,0,0,1,.42.7,5.44,5.44,0,0,1-.15,2.1,4.75,4.75,0,0,1-.7,1.85,3.65,3.65,0,0,0-.62,1.3,4.77,4.77,0,0,1-.48,1.2c-.1.14-.26.36-.47.68a7.66,7.66,0,0,1-.53.7c-.13.15-.3.35-.5.6a6.41,6.41,0,0,1-.6.65,3.37,3.37,0,0,1-.65.47c-.33.2-.67.44-1,.7l-1.15.9c-.42.34-.74.59-1,.75a2,2,0,0,1-.55.2c-.06-.06-.1-.11-.1-.15l0,.25a17.48,17.48,0,0,0-3,1.55l-.55.1c-.1.14-.33.42-.7.85.27.3.2.52-.2.65a1.34,1.34,0,0,0-.42.33,3.21,3.21,0,0,1-.43.37l-1.55.5c-.13-.5-.21-.81-.25-.95l-.2,0-.32.05-.28,0a.65.65,0,0,1,.2-.37c.14-.15.19-.27.15-.35s-.18-.18-.45-.28a7.93,7.93,0,0,0,.8-.7c-.33,0-.83.1-1.5.2-.46-.73-.35-1.3.35-1.7q-.39-.15-.45-.3c.27-.13.54-.26.83-.37l1-.4c.35-.15.62-.28.82-.38a.55.55,0,0,0-.1-.25,6.59,6.59,0,0,1-.75.25,1.06,1.06,0,0,0,.1-.3q2.76-1.84,4.2-2.75a2.41,2.41,0,0,1,.5-.2,1.54,1.54,0,0,0,.5-.2c.6-.4,1.57-1.1,2.9-2.1l.33-.25a2.31,2.31,0,0,0,.32-.25l.3-.25.33-.27.25-.28a3.27,3.27,0,0,0,.25-.32l.2-.33a2.14,2.14,0,0,0,.2-.4,1.09,1.09,0,0,0,.07-.4,3.25,3.25,0,0,1,.35-.8,6.73,6.73,0,0,0,.5-.85,7.45,7.45,0,0,1,.6-.95s-.09.05-.17.05h-.23a6.35,6.35,0,0,0,.1-.9c-.16.24-.31.36-.45.38a.55.55,0,0,1-.42-.18.67.67,0,0,0-.38-.2c-.5,0-.83-.35-1-.95l1.1.1a.3.3,0,0,0,.08-.17c0-.09,0-.14,0-.18a3.46,3.46,0,0,0-1.3-.25,10.23,10.23,0,0,0-1.07.1,8,8,0,0,1-1.08.1.79.79,0,0,1-.3,0v.2a1.35,1.35,0,0,1,.25.18.51.51,0,0,0,.2.12l-.67,0c-.38,0-.69,0-.93.07a.93.93,0,0,0-.5.2,1.1,1.1,0,0,1-1.55.25,1.55,1.55,0,0,0-.65.1.49.49,0,0,1-.5-.05,1,1,0,0,1-.15-.65l-1.22.43a1.68,1.68,0,0,0-.33.17.62.62,0,0,1-.35.13,3.83,3.83,0,0,1-.4-.18c-.1-.06-.35.09-.75.48s-.56.62-.5.72a3,3,0,0,0,.5.55,1.42,1.42,0,0,0,.3-.05c.2,1.27.32,1.94.35,2,0,.3,0,.49-.15.58a2.12,2.12,0,0,1-.7.22l.33.5a2.91,2.91,0,0,0,.37.5l-.75.25-.6.2a.37.37,0,0,0,0,.15.47.47,0,0,0,.25-.05.39.39,0,0,1,.05.2l-.75.25,0-.5a7.62,7.62,0,0,1-1.25.3l-.35-.5-1.25-.2c-.06,0-.08-.09,0-.27a1,1,0,0,0,0-.4c0-.09-.19,0-.53.12a6.13,6.13,0,0,0-.32-1,3.63,3.63,0,0,1-.28-1.13,1.4,1.4,0,0,1,.25-.8c.17-.1.39-.24.65-.42l.55-.38a1.19,1.19,0,0,0,0,.2c0,.1,0,.19,0,.25Zm3.7,19.45a.7.7,0,0,0,.15.3,3,3,0,0,1,.15-.32q.11-.18.15-.18a1.57,1.57,0,0,0,.6.1h.8a1.55,1.55,0,0,1,.9.25l.5.23c.27.11.5.22.7.32s.3.2.3.3a.94.94,0,0,0,.4.8,3.43,3.43,0,0,1,.5.5,3.82,3.82,0,0,1,.5,1.4,1.66,1.66,0,0,1-.2.8.7.7,0,0,0,.25-.1,1,1,0,0,0,.25-.1,2.57,2.57,0,0,0,.08.48,2.19,2.19,0,0,1,.07.47,1.59,1.59,0,0,1-.55,1,2.41,2.41,0,0,0-.65,1,.75.75,0,0,1-.27.33,4,4,0,0,1-.63.37l-.55.3a5,5,0,0,0-.67.5,4.15,4.15,0,0,1-.85.58,2.05,2.05,0,0,1-.83.17h-.15a4.44,4.44,0,0,0-.62.05l-.73.15-.6.15q-.24.06-.3,0c-.1-.06-.3-.18-.62-.35a5.15,5.15,0,0,1-.78-.47,1.17,1.17,0,0,1-.4-.48,5.54,5.54,0,0,0-.55-.77,2.25,2.25,0,0,1-.5-1,5.63,5.63,0,0,0-.22-.8,6.74,6.74,0,0,1-.23-.75,1.75,1.75,0,0,1-.05-.4,2.31,2.31,0,0,1,.73-1.65,3.65,3.65,0,0,1,1.57-1,.69.69,0,0,0,.38-.25,3.59,3.59,0,0,0,.4-.57c.15-.25.24-.39.27-.43a2.86,2.86,0,0,0-.5-.07,1.18,1.18,0,0,1-.4-.08c0,.24,0,.36-.12.38a.8.8,0,0,1-.38-.08,1.29,1.29,0,0,0-.35-.1c.17-.1.42-.26.75-.5l.75-.5a.14.14,0,0,1,.05.1.26.26,0,0,1-.05.15.36.36,0,0,1-.1.15.76.76,0,0,0,.1.15c.34-.2.64-.38.9-.55A6.09,6.09,0,0,0,172.4,38.72ZM177.2,28l-1.75,1.33c-.76.58-1.33,1-1.7,1.27a8.92,8.92,0,0,0,2.4-1.05,2.28,2.28,0,0,0,.4-.37,5.57,5.57,0,0,0,.43-.55,3.56,3.56,0,0,1,.37-.48s0,0-.07-.07S177.24,28,177.2,28Zm4.8-.75-3.3,2.2-3.1,2.1s.1.05.2.15L179,29.57c1.41-.93,2.46-1.63,3.12-2.1A1,1,0,0,0,182,27.27Zm-5.55-12.55h2.6a1.24,1.24,0,0,1-.1.2h-2.5Zm3.83.75a2.1,2.1,0,0,0,1,.23,4.33,4.33,0,0,1,.85.07c-.63.07-1,.1-1.1.1a1.83,1.83,0,0,1-1.4-.6,2.2,2.2,0,0,0-.65-.35,2.32,2.32,0,0,0,.45-.05,3.54,3.54,0,0,1,.45,0A.83.83,0,0,0,180.28,15.47Zm-.38-.65.85,0,.8,0v.25A2.21,2.21,0,0,1,179.9,14.82Zm4.45,12.75c-.86.7-1.53,1.24-2,1.6l.15.15c.1-.06.77-.6,2-1.6Zm1.45-2.2c-.36.4-.93,1.07-1.7,2C184.94,27.24,185.5,26.57,185.8,25.37Z"/><path class="cls-1" d="M9.6,9.77a2,2,0,0,0-.07-1.09,3.51,3.51,0,0,1-.17-1.11A1.69,1.69,0,0,0,9,6.63,2.67,2.67,0,0,0,8.78,5.4a1.44,1.44,0,0,1-.21-.82.57.57,0,0,0-.19-.52,17.21,17.21,0,0,0,.73,4C9.36,8.94,9.53,9.52,9.6,9.77Z"/><path class="cls-1" d="M7,5.13a3.36,3.36,0,0,0,.08,1l.15.9c.64,2.43,1,3.85,1,4.27s.12.89.2,1.4a2.38,2.38,0,0,1,0,.36l.44.17a6.79,6.79,0,0,0,1.39.31,2.42,2.42,0,0,1,.38,0c.73.05,1.51-.71,2.21-1.48a3.92,3.92,0,0,1,.37-.79c.06-.13,0-.22-.23-.27a4.71,4.71,0,0,0,.43-1.07,2.45,2.45,0,0,1,.49-1c.08.05.11.16.08.33s0,.15-.09.11a.11.11,0,0,1-.06.06.87.87,0,0,0-.31.34.43.43,0,0,0,.08.54c.15.18.27.12.34-.19a4,4,0,0,0,.27-.75c.08-.29.08-.46,0-.52-.08.13-.11.15-.11,0s-.08-.18-.23-.07a2,2,0,0,0,.07-.6.66.66,0,0,1,.16-.51c.1.33.3.19.61-.43.2-.4.45-.88.73-1.41a20.29,20.29,0,0,0,.88-2c-.31.4-.56.61-.77.61s-.11-.13,0-.46a2.6,2.6,0,0,0,.8-1.5V2c0-.15.16-.22.39-.19l.34-.8a1.65,1.65,0,0,0-.09.22,1.67,1.67,0,0,0-.14.5c0,.21.08.25.31.12l.46-.73Q18,.69,17.42.73c-.13-.1-.14-.18,0-.23s0,0-.11-.08-.09,0-.19-.11S16.9.24,16.85.5s-.22.23-.27.09a1.55,1.55,0,0,0-.25-.42c-.12-.14-.25-.12-.4.06L15.81,0a.31.31,0,0,1-.31.11c-.28-.07-.43,0-.45.35-.16.66-.32.79-.5.38-.16.36-.45,1-.88,1.82a13.9,13.9,0,0,0-.89,2.05,4.26,4.26,0,0,0,.46-.65l.08,0a5.71,5.71,0,0,1-.4,1.63,10.8,10.8,0,0,0-.52,1.4,4.34,4.34,0,0,1-.57,1.26c0,.26,0,.4-.16.42s-.09-.05-.11-.23a.24.24,0,0,0-.19.37c.05.12.1.15.16.1a.75.75,0,0,0-.07.18c0,.16-.06.23-.07.22a.77.77,0,0,1-.06-.29.69.69,0,0,1-.27.32.42.42,0,0,0-.19.37c0,.1,0,.11-.06,0a.26.26,0,0,0-.09-.18c-.06,0-.12,0-.2.14a.51.51,0,0,0,.12-.31q0-.34-.27-.27c0-.33-.09-.37-.19-.11s0,.3.08.38l0,.81a4.48,4.48,0,0,1-.11-.62c0-.33-.14-.32-.27,0,0,0-.1.17-.23.44s-.2.21-.23-.17c-.13-.72-.41-2-.86-3.78s-.75-3.19-.9-4.19a2.07,2.07,0,0,0,0,.46,5,5,0,0,0,.11.92c.08.61.15,1.12.22,1.51s.25,1.22.57,2.47.53,2.19.63,2.8a1.63,1.63,0,0,1,.12.58,1.38,1.38,0,0,1-.19.69c.05.25,0,.39-.08.42s-.13-.26-.15-.77a3.31,3.31,0,0,0-.12-.65c0-.15-.11-.22-.19-.19a2,2,0,0,0-.08-.77,22.82,22.82,0,0,0-.88-3.72c-.13.11-.22.09-.27,0a2.22,2.22,0,0,1-.11-.6,3.49,3.49,0,0,0-.1-.59q-.06-.2-.21-.9a11.58,11.58,0,0,0-.34-1.25A4.42,4.42,0,0,1,7,3.53c0,.2,0,.37.07.51s.06.26.08.37l.12.42c.05.18.11.23.19.15A43.06,43.06,0,0,0,6.35.69a12.18,12.18,0,0,0,.13,1.92A17.18,17.18,0,0,0,7,5.13Zm6.84,1.5a6.79,6.79,0,0,0,.36-.88,6.31,6.31,0,0,1-.36,1.07,8.77,8.77,0,0,1-.36.81A4.59,4.59,0,0,1,13.8,6.63ZM12.61,9.68a9.57,9.57,0,0,0,.33-.92,1.4,1.4,0,0,1,.3-.56c-.3.72-.61,1.55-.92,2.49A4.64,4.64,0,0,1,12.61,9.68Z"/><path class="cls-1" d="M7.07,7.78l.12.08c.08.15.1.24.06.28s-.08,0-.12-.09A.74.74,0,0,1,7.07,7.78Z"/><path class="cls-1" d="M12.06,11.34a1.61,1.61,0,0,0-.2.37c0,.14-.06.19,0,.17S12,11.65,12.06,11.34Z"/><path class="cls-1" d="M12.52,6.25l0,.07c0,.21-.09.31-.19.31s-.11-.06,0-.17S12.46,6.27,12.52,6.25Z"/><path class="cls-1" d="M13.82,3.64a1.66,1.66,0,0,0-.27.69A4.75,4.75,0,0,0,13.82,3.64Z"/><path class="cls-1" d="M14.82,4.37l-.12.23a2.09,2.09,0,0,0-.15.46l.15-.33A1,1,0,0,0,14.82,4.37Z"/><path class="cls-1" d="M16.08,2l-.15.31h0A.53.53,0,0,0,16.08,2Z"/><path class="cls-1" d="M130.57,1.77a4,4,0,0,0-1.88-.69,3.79,3.79,0,0,0-1.92.25,1.89,1.89,0,0,0-.17.28,1.94,1.94,0,0,0-.21.6,2.11,2.11,0,0,0-.55.61.66.66,0,0,0,.16.91,4.12,4.12,0,0,0-.35.54,2.19,2.19,0,0,0-.25,1.14c-.22.28-.52.69-.88,1.23a19.41,19.41,0,0,1-1.32,1.72,7.36,7.36,0,0,0-1,1.41l-.09.18a4.14,4.14,0,0,1-1.52,1.42c-.16.16-.26.19-.28.09a.3.3,0,0,0,0-.2,1.67,1.67,0,0,0-.6.75,1.08,1.08,0,0,1-.83.62.37.37,0,0,0-.13.2c0,.07.13.09.46.06s.34-.05.28-.09c-.12.16-.07.33.14.52s.31.33.3.43a1.52,1.52,0,0,0,.33-.08,2.27,2.27,0,0,1,.41-.16c.21-.06.34-.08.4,0s.07.11,0,.2a.57.57,0,0,0,0,.29,1.94,1.94,0,0,1,.06.22,1,1,0,0,0,.69-.19c.24-.17.35-.11.31.19a2.27,2.27,0,0,0,1.1-1,1.74,1.74,0,0,0,.19-.91c-.56.33-.8.33-.7,0a.71.71,0,0,1,.3-.22c.15-.08.18-.21.08-.39.21-.46.39-.84.55-1.14a2.93,2.93,0,0,1,.3-.47,1.1,1.1,0,0,0,.33-.67c0-.19-.08-.15-.26.11a4,4,0,0,0-.42.58c-.21.32-.35.47-.42.46.39-.37.46-.57.2-.61s-.4.32-.79,1.05c-.27.5-.42.8-.47.89q.15-.27-.24-.21c-.13,0-.2,0-.23,0s0-.09,0-.17a.39.39,0,0,0,0-.35c-.07-.16,0-.29.16-.41s.67-.86,1.55-1.93,1.57-1.94,2.06-2.62l.94-1.29a.7.7,0,0,0,.49-.08,1.27,1.27,0,0,0,.29-.16l-.06.22c0,.1.13.08.33-.08l-.07.14c.11.3.32.36.61.17l.35-.32a3.36,3.36,0,0,1,.41-.35,2.57,2.57,0,0,1,.5-.15,1.57,1.57,0,0,0,.73-.66,3.16,3.16,0,0,1,.59-.73.56.56,0,0,1,.21-.35C130.65,2.28,130.61,2,130.57,1.77Z"/><path class="cls-1" d="M127.24,5.36a.64.64,0,0,0-.27-.21s-.25.24-.6.75a6.75,6.75,0,0,0-.64,1,2.56,2.56,0,0,0-.22.53c.18-.06.45-.38.78-.94.09-.16.18-.23.29-.2a5.12,5.12,0,0,0-.4.64,1.53,1.53,0,0,0-.23.87,10.31,10.31,0,0,1,1.64-2.2A.84.84,0,0,1,127.24,5.36Z"/></g></g></svg>