<svg xmlns="http://www.w3.org/2000/svg" viewBox="0 0 186.2 40.44"><defs><style>.cls-1{fill:#231f20;}</style></defs><title>3</title><g id="Layer_2" data-name="Layer 2"><g id="Layer_1-2" data-name="Layer 1"><path class="cls-1" d="M1,.39,1.73.17A5.21,5.21,0,0,1,2.37,0,1.42,1.42,0,0,1,3,.1,2.23,2.23,0,0,0,4,.1,6,6,0,0,1,5.71,2.92a2.72,2.72,0,0,0-.32,1c-.13.57-.24.86-.32.86a.37.37,0,0,1-.26-.12,5.15,5.15,0,0,1-.29,1.47,6,6,0,0,0-.29,1.09,1.53,1.53,0,0,1,.64,1.35,2.22,2.22,0,0,1-.06.51,1.5,1.5,0,0,1-1.22,1.41c-.13-.68-.26-.68-.38,0a2.66,2.66,0,0,0,0,.9c.42-.13.67-.16.73-.1s.08.33,0,.8a3.5,3.5,0,0,1-.1,1.48,3.54,3.54,0,0,0-.06,1.63,5.87,5.87,0,0,1,0,1.9,7.06,7.06,0,0,0,0,2,4.55,4.55,0,0,0-.45,1.74,1.58,1.58,0,0,0,.32,1c0,2.52,0,4.3.07,5.32v.58a12.12,12.12,0,0,1-.26,2.5c-.17.94-.17,1.48,0,1.61,0,.08,0,.47,0,1.15s-.09,1-.19,1S3,33.88,3,33.7a1.21,1.21,0,0,1-.06-.38c0-.56,0-1.37.12-2.44.05-.55.07-1,.07-1.47A5.53,5.53,0,0,0,3,28.06a2.63,2.63,0,0,1-.26-1.28A4.75,4.75,0,0,1,2.76,26a5,5,0,0,0,.06-.77A3.15,3.15,0,0,0,2.63,24a7.05,7.05,0,0,1-.13-1.54q0-.77.06-1.86c0-.55.07-1.07.07-1.54a9.76,9.76,0,0,0-.13-1.86,7.67,7.67,0,0,1-.06-1c0-.43,0-.94.06-1.54V11.9a13.27,13.27,0,0,1,.13-1.67c0-.51.06-.94.06-1.28a4.3,4.3,0,0,0-.06-.77c0,.22-.07.79-.19,1.73a20.44,20.44,0,0,0-.13,2.57,8.72,8.72,0,0,0,.06,1V14a24.81,24.81,0,0,1-.45,4.49,26.73,26.73,0,0,0-.32,4.3c0,.68,0,1.41.07,2.18.08,1.62.13,2.93.13,3.91v1.22a4.67,4.67,0,0,0-.23,1.67,2.64,2.64,0,0,1-.35,1.6c0-.47-.07-1-.07-1.67v-.57c.05-.86.07-1.44.07-1.74-.09,0-.17.3-.26,1a5.63,5.63,0,0,1-.25,1.35c0-.43,0-1.11-.07-2.06V28.45a22.6,22.6,0,0,1,.19-3.21c.17,0,.26.1.26.42a9.26,9.26,0,0,1-.06,1,1.62,1.62,0,0,0,.12.93c.05-.55.07-1.26.07-2.11,0-.64,0-1.37-.07-2.18V19C1.07,20.17,1,21.07,1,21.71.88,23,.75,23.08.58,22.1q.06-1.29.06-2.31T.58,17.93a12.88,12.88,0,0,1-.16-2q0-.42.09-1.41c0-.66.07-1.14.07-1.44C.49,11.9.45,11,.45,10.36a4.06,4.06,0,0,1,.06-.83A12.35,12.35,0,0,0,.58,8.12V7.28A4.12,4.12,0,0,1,.77,5.36c-.34.17-.52.11-.55-.19a2.11,2.11,0,0,1,.1-.84A2,2,0,0,1,0,3.57c0-.22,0-.38,0-.49s0-.25,0-.44A1.42,1.42,0,0,1,.1,2.25l.12-.42c.07-.21.11-.35.13-.41S.42,1.2.48,1A1.16,1.16,0,0,1,.64.55,1,1,0,0,1,1,.39ZM.71,23.32a1.38,1.38,0,0,1,.19.77q.19.51.06.57C.53,24,.45,23.53.71,23.32Zm.51-11.48c0,.3-.09.74-.13,1.31S1,14.17,1,14.47l.06-.64c0-.3.06-.49.06-.55s0-.32.1-.77S1.3,11.84,1.22,11.84Zm.77.38a18.61,18.61,0,0,0-.26,2.89,7.86,7.86,0,0,0,.19,1.79V14A13.91,13.91,0,0,1,2,12.22Zm.9,18.41a9.8,9.8,0,0,0-.07,1.15,4.73,4.73,0,0,1,.07.71,3.48,3.48,0,0,1-.33,1.6V32.55A4.6,4.6,0,0,1,2.89,30.63Zm-.13-2.5A2.19,2.19,0,0,1,3,29c0,.3,0,.45-.13.45s-.23-.3-.19-.64A3.22,3.22,0,0,1,2.76,28.13ZM4,22.48l.19.32a1.61,1.61,0,0,1-.06.64L4,23.19A2.11,2.11,0,0,1,4,22.48ZM15.77,3.57l.26.06a4.32,4.32,0,0,0,2,1.22c.34,0,.6.49.77,1.34.08.35.23.37.45.07a1.21,1.21,0,0,1,0,.7,2.17,2.17,0,0,1-.48.55q-.39.35-.51.48a1,1,0,0,1-.52,1c-.38.25-.57.34-.57.25a.76.76,0,0,1,.19-.38,2.34,2.34,0,0,0-.84,1v.06a1.42,1.42,0,0,0,.39-.38q.2.45-.51,1.44a10.5,10.5,0,0,1-1.48,1.7,10.34,10.34,0,0,1-2.31,2.63,1.83,1.83,0,0,0-.64-.13,1.65,1.65,0,0,0-1.28.71c-.6.68-.94,1.07-1,1.15,0-.43-.1-.64-.32-.64s-.83.39-1.6,1.15c-.43.3-.57.53-.42.68a1.38,1.38,0,0,0,.39.29l.51.19.48.19c.21-.21.46-.17.74.13s.36.45.25.45a.94.94,0,0,1-.41-.13c-.05.13.22.32.8.58a8.22,8.22,0,0,0,1.44.51l1.29,1.09a6.1,6.1,0,0,0,3.07,1.86,21.64,21.64,0,0,0,2.18,1.25A13.76,13.76,0,0,1,20.33,26c.38.17.42.31.13.42s-.35.24-.13.41c-.34,0-.43.13-.26.39s.21.4.13.45q-.39-.13-.45,0a.34.34,0,0,0,.06.32c.26.38.2.49-.19.32-.17.38-.51.51-1,.38.89.39,1,.84.19,1.35q-.51.14-.45.45a1.26,1.26,0,0,1,.06.38,43.36,43.36,0,0,1-4.55-2.5c-.38-.13-.46-.23-.22-.32s.31-.19.22-.32c.47-.13.28-.51-.58-1.15a2.83,2.83,0,0,1-.7-.58,3.3,3.3,0,0,1-1.35-.83,2,2,0,0,0-1.6-.65c.43.09.68.27.77.55s.06.42-.07.42a.84.84,0,0,1-.35-.07.65.65,0,0,1-.19-.09l-.1-.1c-1-.6-1.54-1.07-1.54-1.41a.57.57,0,0,1,.26-.45,3.73,3.73,0,0,1-1.7-1.22,5.28,5.28,0,0,0-1.51-1.28A.59.59,0,0,0,5,20.21a4.5,4.5,0,0,1-.38-.42c-.07-.09-.06-.15,0-.19a1.19,1.19,0,0,1,.51-.07c.39.13.56.07.52-.19s0-.45.25-.45c-.3-.21-.37-.43-.22-.64s.37-.21.67,0c-.08,0-.13,0-.13-.06-.08-.26,0-.42.16-.49s.33,0,.42.1.43-.17.9-.77.77-1,.9-1.09c-.35.34-.53.4-.55.16s.14-.48.48-.74S8.9,15,8.88,15a2.34,2.34,0,0,0-.67.22c-.09-.34-.39-.23-.9.32a3.35,3.35,0,0,1-1,.9,2.05,2.05,0,0,1,.26-.45,3.22,3.22,0,0,0,.83-1.6c-.17.08-.26.08-.28,0s0-.28.19-.58.21-.46.19-.48-.1,0-.22,0c-.13-.42-.13-.71,0-.86a2.79,2.79,0,0,1,.89-.55c.35-.17.47-.13.39.13l-.19.38s.1,0,.19-.12a.9.9,0,0,0,.45-.9,1.16,1.16,0,0,1,.19-.9A7.7,7.7,0,0,0,11.67,7,8.25,8.25,0,0,1,13,5.59,5.61,5.61,0,0,0,14.24,4c-.05.26,0,.37,0,.35a3,3,0,0,0,.54-.48A.85.85,0,0,1,15.77,3.57ZM6,16.52v.19L6,16.84q-.37.57-.51.45C5.28,17.12,5.47,16.86,6,16.52Zm1.79,4.42a2.7,2.7,0,0,1,.55.32,1.21,1.21,0,0,0,.42.26l-.52-.45A1.11,1.11,0,0,0,7.82,20.94ZM10.58,23c.64.51,1.13.89,1.48,1.15A2.46,2.46,0,0,0,10.58,23ZM11,25.11l1.86,1.41c-.05.56-.45.54-1.22-.06S10.62,25.41,11,25.11Zm1.09-3.72a1.33,1.33,0,0,0,.51.45Zm2.69,6.42.06.19c.22.21.39.31.52.29s.08-.1-.13-.23Zm.51-1.35.51.38v-.06A1.28,1.28,0,0,0,15.26,26.46Zm.07-2.69a3.44,3.44,0,0,0,1,.8c.3.15.42.18.38.09s-.2-.41-.61-.61A2.86,2.86,0,0,0,15.33,23.77ZM16.22,29l.52.26.45.19A1.29,1.29,0,0,0,16.22,29Z"/><path class="cls-1" d="M33,34.6a2.42,2.42,0,0,1-.28.23l-.36.25a1.45,1.45,0,0,1-.38.2,1.52,1.52,0,0,1-.51.09v.13a2,2,0,0,0-.45-.19c-.22,0-.37-.3-.45-.77a19.93,19.93,0,0,1-.26-2.69.55.55,0,0,1,.16-.33.54.54,0,0,0,.16-.25c0-1.2.09-2,.13-2.31l-.19-.07a2.75,2.75,0,0,1,0,.29,1.78,1.78,0,0,0,0,.29,1.75,1.75,0,0,1,.2-1.79c.12-.13.08-.41-.13-.84a4.17,4.17,0,0,0-.13.42c0,.15-.1.31-.16.48a1.19,1.19,0,0,0-.1.45C30,28,30,27.93,30,27.93a3.55,3.55,0,0,0,.06-.67,8.55,8.55,0,0,0-.09-1,7,7,0,0,1-.1-1.05,2,2,0,0,1,.07-.65,4.48,4.48,0,0,0,.25-1.34,4.89,4.89,0,0,1,.13-1,2.32,2.32,0,0,1,.13-.54c.08-.28.14-.47.16-.58a.67.67,0,0,0-.1-.42,4.85,4.85,0,0,0-.12.77,2.89,2.89,0,0,0-.61-.35.78.78,0,0,1-.49-.74,4.49,4.49,0,0,0,.45.26.78.78,0,0,1,0-.26,1,1,0,0,0,0-.22v-.16a1.67,1.67,0,0,0,.7-1.67.85.85,0,0,1,0-.51,1.94,1.94,0,0,1,.16-.45V15.43a.55.55,0,0,0-.13.22.45.45,0,0,1-.19.23V11.52c0-.3-.09-.45-.13-.45a4.37,4.37,0,0,0-1.93-.26c-.34.17-.55.24-.64.19a.83.83,0,0,0-.48-.16,3.67,3.67,0,0,0-.45.16c-.19.09-.35.15-.48.2a1.12,1.12,0,0,1-.35-.07,1.49,1.49,0,0,0-.35-.06c-.22,0-1,.15-2.31.32a.56.56,0,0,0-.07-.19c.34-.43.62-.77.84-1a4.74,4.74,0,0,0-.71-.06,1.85,1.85,0,0,0-.06-.39,1.47,1.47,0,0,1-.07-.38c.64-.09,1.07-.15,1.29-.2A2.32,2.32,0,0,0,24.11,9a1.54,1.54,0,0,1-.35-.13l-.29-.19a.63.63,0,0,1-.26-.33,1.42,1.42,0,0,1-.06-.44c.13,0,.4-.17.83-.39l-.83-.06c.17-.13.39-.29.67-.48a3,3,0,0,1,.61-.36c-.3,0-.53-.08-.7-.12V6.26h.19L24,6.19h.32l.07-.06h.25l.07-.06h.25L25,6h.32l.06-.06h.32l.07-.07h.13c.08.35.35.48.8.42a2.21,2.21,0,0,1,.8,0l.26.32c.29,0,1.11,0,2.43-.13a6.67,6.67,0,0,1-.45-.51h.58a4.11,4.11,0,0,1,1.41.25,2.55,2.55,0,0,0,.84.13l.67,0a1.44,1.44,0,0,0,.54-.1c.47,0,1,0,1.67.07,0,0,.15.13.32.38h7a.3.3,0,0,0-.06.2c-.13.38-.32.59-.58.64.26,0,.58.1,1,.19l-.29.26a4,4,0,0,0-.35.32,1.16,1.16,0,0,0,.32.32l-.54.13a4.42,4.42,0,0,0-.55.12,3,3,0,0,1,.58.1,2.91,2.91,0,0,0,.58.1A3.06,3.06,0,0,1,43,10c0,.34-.19.49-.58.45a.38.38,0,0,0,.26.19.78.78,0,0,1-.58.2,5.64,5.64,0,0,1-.71-.1,5.17,5.17,0,0,0-.73-.1.88.88,0,0,0-.36.07,10.26,10.26,0,0,1-3.2.57h-.51l-.39-.64c.09.43-.15.71-.71.84H35.4V17.1h-.2a1.18,1.18,0,0,1-.06-.26.8.8,0,0,0-.26.58,2.33,2.33,0,0,0,.13.64,1.87,1.87,0,0,1,.13.58,7.11,7.11,0,0,1-.06.76,5.69,5.69,0,0,0-.07.71c0,.38,0,1,.07,1.73a1.57,1.57,0,0,0-.39-.38q0,.12-.06,1c-.05.58-.07,1-.07,1.32a7.09,7.09,0,0,0,.2,1.73c.08.08.09.34,0,.77a6.13,6.13,0,0,0-.1.89c0,.17.1.43.16.77a4.21,4.21,0,0,1,.1.77c.13,1.63.21,3.44.25,5.45a.59.59,0,0,1-.44.64s-.15.18-.32.52a.5.5,0,0,1-.23-.1L34,35.08a.34.34,0,0,0-.25,0,.57.57,0,0,0-.29.25A5.52,5.52,0,0,0,33,34.6Zm-7-28.12a.41.41,0,0,1-.16,0c-.05,0-.21,0-.48-.1a1.85,1.85,0,0,0-.65-.07.5.5,0,0,0-.35.29l2.12.2a.22.22,0,0,0,.06-.13.17.17,0,0,1,.07-.13,2.47,2.47,0,0,0-.45-.13Zm2,.8v.13h2.24V7.28ZM30,31.78c0,.09-.12.21-.22.39s-.19.3-.23.38a3.54,3.54,0,0,0,.1.67c.06.32.11.57.16.74a5.53,5.53,0,0,1-.45-1.54C29.37,32.08,29.58,31.87,30,31.78Zm.13-15.33a1.67,1.67,0,0,1-.39-1.15c0-.13,0-.36,0-.7s0-.6,0-.77a.65.65,0,0,1,.32-.13Z"/><path class="cls-1" d="M47.07,17.61c0,.73-.07,1.57-.07,2.53s0,1.64,0,2-.07,1.09-.16,2.12a20.28,20.28,0,0,0-.13,2v.38a8.47,8.47,0,0,0-.19,1.8,11.63,11.63,0,0,0,.71,3.85,6.94,6.94,0,0,1,.51,2.11c-.09.05-.22-.06-.39-.32a2.67,2.67,0,0,1-.38-1.86c-.22-.38-.32-.46-.32-.22a1.63,1.63,0,0,0,.19.74c-.47-.09-.72-.49-.74-1.22a3.12,3.12,0,0,0-.28-1.48,1.48,1.48,0,0,1-.2-1A11,11,0,0,1,45.66,28c.08-.9.13-1.65.13-2.25v-.64c0-.77.14-2.39.44-4.87a1.49,1.49,0,0,0,.55-1.32A2.39,2.39,0,0,1,47.07,17.61Zm6.67,20.9c-.05-.21-.19-.29-.42-.25a1.88,1.88,0,0,1-.67,0c0-.13-.28-.26-.71-.39-.17,0-.13-.1.13-.19a1.24,1.24,0,0,0-.55-.16,1.68,1.68,0,0,1-.51-.1q-.16-.06,0-.45c-.43,0-.67,0-.74-.16s0-.19.19-.25a1.07,1.07,0,0,1,.68,0c0-.13-.15-.21-.45-.26A3.67,3.67,0,0,1,48,34.41a5.46,5.46,0,0,1-.52-1.76c-.13-.79-.22-1.34-.29-1.64a3.28,3.28,0,0,1,.23-1.47,3.69,3.69,0,0,0,.19-1.73,4.27,4.27,0,0,0,.1-1.8,16.47,16.47,0,0,1-.07-1.83c0-.23,0-.81,0-1.73A5.08,5.08,0,0,1,48,20.37a5.21,5.21,0,0,1,.48-2c.32-.75.52-1.21.61-1.38.38-.43.4-.64.06-.64a2,2,0,0,0-1.41.64c-.13.51-.23.62-.29.32a1.43,1.43,0,0,0-.16-.51,1.25,1.25,0,0,1-1.09-1.42q-.51-.25,0-1.44a2.54,2.54,0,0,0,.29-1.63,2.73,2.73,0,0,1-.23-.74.71.71,0,0,1,.29-.58,2.25,2.25,0,0,1,.61-.41l.74-.36a6.18,6.18,0,0,0,1.09-.74,8.38,8.38,0,0,1,3-1c-.26-.6.15-.83,1.22-.71a3,3,0,0,0,1,0,1.37,1.37,0,0,1,.86.26,1.14,1.14,0,0,0,.93.19,2.72,2.72,0,0,1,1-.19,3.94,3.94,0,0,1,2.76,1.35,2.18,2.18,0,0,1,1.54,1,11.26,11.26,0,0,0,1.16,1.22q-.52-.7-.45-1c.55-.18,1,.06,1.31.7s.29,1-.1,1a.75.75,0,0,1-.57-.13,2.59,2.59,0,0,0,.77,1.06c.42.4.62.71.57.93a2.32,2.32,0,0,1,.39,1.73c0,.17-.15.19-.32.06q-.33.51-1-.45c0,.17.18.64.41,1.41a6.53,6.53,0,0,1,.36,1.8,13.38,13.38,0,0,1,.12,2v1c0,.47-.06.9-.06,1.28,0,.69,0,1.24.06,1.67a2,2,0,0,1,.13,1c-.13,1.12,0,1.63.52,1.54A2.85,2.85,0,0,0,64,28.38a2.39,2.39,0,0,1-.48,1.22q.2,0,.54-.93a2.32,2.32,0,0,1,.68-1.12,10,10,0,0,1-2.83,5.38c.3-.38.5-.38.58,0A1,1,0,0,1,62,34a10.43,10.43,0,0,0-1.32,1.13,6.88,6.88,0,0,1-2.43,1.66,7.38,7.38,0,0,1-2.31,1A11.72,11.72,0,0,0,53.74,38.51ZM48.35,25.56a11.28,11.28,0,0,0-.13,1.8,16.71,16.71,0,0,0,.13,2.05Zm14-1.22c.43,0,.58-.49.45-1.34a10.7,10.7,0,0,1-.13-2,4.76,4.76,0,0,0-.58-1.8,11.75,11.75,0,0,1-.77-1.73A1.52,1.52,0,0,0,60.37,16a2.83,2.83,0,0,1-1.18-1q-.45-.25-.48,0c0,.19-.14.25-.36.16a13.3,13.3,0,0,1-1.28-.67,2.89,2.89,0,0,0-1.6-.48,2.44,2.44,0,0,0-2.18,1.15c-.3.17-.44.22-.42.13s0-.21.07-.38,0-.26-.1-.26a1.77,1.77,0,0,1-1.6,1.15A8.49,8.49,0,0,0,49.7,20a3,3,0,0,1-.26,1.41c-.3.56-.36.88-.19,1A3.41,3.41,0,0,1,49,24a2.49,2.49,0,0,0-.1,1.86,6,6,0,0,0-.13.77c0,.39-.06.68-.06.9v.77a3.24,3.24,0,0,0,.39,1.6c.38.09.51.39.38.9,0,.26-.13.32-.26.19q0-1-.12-.54a1.71,1.71,0,0,0-.1.7c0,.19.26.49.7.9a1.77,1.77,0,0,1,.68,1.31l-.07.32v-.12c-.21-.47-.38-.56-.51-.26a4.07,4.07,0,0,1,.32.58c.3.64.64.89,1,.77a.61.61,0,0,0,1-.13c.28-.39.27-.58,0-.58a.56.56,0,0,1-.13.55.86.86,0,0,1-.7,0q-1.1-.39,0-.93A1.84,1.84,0,0,1,53,33.45a.83.83,0,0,0,.61.64,1.1,1.1,0,0,0,1-.26,1,1,0,0,1-.35-.06c-.11,0-.06-.09.13-.13a.47.47,0,0,1,.42.06A4.77,4.77,0,0,0,57.39,32a11.6,11.6,0,0,0,2.69-3.34,8.8,8.8,0,0,1,.71-1.12A4.56,4.56,0,0,0,61.56,26a1.4,1.4,0,0,0,.29-.71c.06-.34.12-.62.16-.83S62.16,24.21,62.33,24.34Zm-13.21-.06c.17.73.15,1.11-.06,1.15s-.23-.17-.16-.51A1.28,1.28,0,0,1,49.12,24.28ZM51.56,8.05a1.46,1.46,0,0,1-1.19.55c-.54,0-.8,0-.8,0q.2-.39,1-.48A3,3,0,0,1,51.56,8.05ZM50.47,37l.25.06c.13.17.14.28,0,.32s-.29,0-.57-.09-.33-.18-.16-.23A2,2,0,0,1,50.47,37Zm1-21.23c.26,0,.32.09.19.26s0,.14,0,.16.08,0,.16,0c.17.34.08.86-.29,1.57a6.82,6.82,0,0,0-.6,1.38,2.42,2.42,0,0,0-1,1.67A5.65,5.65,0,0,1,50,19.4,9.83,9.83,0,0,1,51.49,15.81Zm3.79-8h.19c.08,0,.1.08.06.13L55,7.86S55.06,7.8,55.28,7.8Zm3.39,23.72-.12.2-.52.51.52-.51A.87.87,0,0,1,58.67,31.52Zm1.54-3.71a2.4,2.4,0,0,0-.19.32c-.17.47-.3.55-.38.25S59.74,27.81,60.21,27.81Zm.71,2.24-.19.19q-.39.39-.39.51A2.62,2.62,0,0,0,60.92,30.05ZM63,25.75l-.06.32a.77.77,0,0,0-.19.45c0,.13.08.07.25-.19S63.21,25.88,63,25.75Zm1,.9.06-.13a1.12,1.12,0,0,1,.1-.48c.06-.15.13-.08.19.19s0,.43-.06.45A.46.46,0,0,1,64,26.65Zm.13-2.88h.25V25.3c0,.56-.13.51-.25-.16A2.34,2.34,0,0,1,64.13,23.77Zm.7-3.47.13.19a24.19,24.19,0,0,1,.19,4.3,4.44,4.44,0,0,0,0,1c.13.89-.09,1.45-.64,1.66,0-.68.06-1.83.06-3.46A20.4,20.4,0,0,1,64.83,20.3Zm.64,1.22c0,.13,0,.54.13,1.22a4,4,0,0,1,.13,1A5.28,5.28,0,0,1,65.6,25s.09.05.13.13c0,.43,0,.71-.13.84s-.2.15-.22.06a1.52,1.52,0,0,1,0-.58,12.55,12.55,0,0,0,0-1.79,6.2,6.2,0,0,1-.07-.9A5.36,5.36,0,0,1,65.47,21.52Z"/><path class="cls-1" d="M77.91,10.81a2.3,2.3,0,0,1,.16.71c0,.25,0,.39-.09.41s-.13-.13-.13-.48A2,2,0,0,1,77.91,10.81ZM78,16.07a.77.77,0,0,1,.38.51.42.42,0,0,1-.09.45c-.11.09-.2,0-.29-.29A.86.86,0,0,1,78,16.07Zm.64.77h.13c.26.3.62.78,1.09,1.44A17,17,0,0,0,81,19.72c.26.56.15.6-.32.13a1.77,1.77,0,0,1-.45-.45c-.21-.25-.21-.21,0,.13s.31.42.16.48-.29,0-.42-.25a2.13,2.13,0,0,0-.25-.42q-.58-.06-.93-1A2,2,0,0,1,78.68,16.84Zm11.54,5.64c-.85-.38-1.26-.68-1.21-.9a2.65,2.65,0,0,1-1.7-.54,3,3,0,0,0-1.51-.61c.43.3.28.58-.45.83a2,2,0,0,1-.64.13,7.1,7.1,0,0,1-3.91-2.24,7.84,7.84,0,0,1-1.93-3.53,8.8,8.8,0,0,1-.19-1.73,7.18,7.18,0,0,1,.39-2.31,5.93,5.93,0,0,0,.51-.77c.3-.51.49-.51.58,0-.09-.21.09-.65.54-1.31s.82-1,1.12-1.06a1.15,1.15,0,0,0-.22.61c0,.11.16-.06.42-.48a8.13,8.13,0,0,1,1.09-.8c.42-.28.64-.34.64-.16L83.43,8a9.15,9.15,0,0,1,1.28-.83c.47-.13.58-.07.32.19a2.79,2.79,0,0,1,1.7-.51l1.41-.1c.15,0,.22,0,.22.06s-.08.1-.25.1L90,7.09c.43-.21.65-.19.67.07s-.1.42-.38.51a.7.7,0,0,1-.61,0,11.37,11.37,0,0,0-2-.19,4,4,0,0,0-2,.45h-.38a3.54,3.54,0,0,0-2.5,1.34c-.35.3-.53.36-.55.16s.14-.41.48-.67c-.3,0-.92.86-1.86,2.44L82,10a3.26,3.26,0,0,1,.84-.58,8.27,8.27,0,0,1,4.42-1.21c.38,0,.81,0,1.28.06a7.77,7.77,0,0,0,.84.26l.7.19s-.06-.11-.19-.19c.26-.22.7-.24,1.35-.07a3.3,3.3,0,0,1,1.37.64q.42.39.33.45a1.69,1.69,0,0,1-.33.16c-.15.07-.2.16-.16.29a1,1,0,0,1-1,.42l-1.38-.26a3,3,0,0,0-1.25,0,3,3,0,0,1,1.25.22,2.65,2.65,0,0,0,1.13.23q.25-.06,1,.45a6.15,6.15,0,0,1,1,.8l.58.64.39.45.32.48a.93.93,0,0,1,.22.55,3,3,0,0,0,0,.51c0,.23,0,.36-.13.38a.36.36,0,0,1-.29-.06c-.11-.06-.2,0-.29.16a1.09,1.09,0,0,1-.16.45.15.15,0,0,1-.22.06.86.86,0,0,1-.26-.19L93,15a1.11,1.11,0,0,0-.32-.29c-1-1.67-2.2-2.5-3.53-2.5h-.19l-.93,0-1.18,0c-.82,0-1.27-.36-1.35-1.09a1.79,1.79,0,0,0-1.41.42l-.84.8a2.07,2.07,0,0,0-.38.45c-.26,0-.4.09-.42.13s0,.12.13.22a1,1,0,0,1,.23.42c-.3.21-.35.37-.13.48s.25.25.13.42c-.18-.13-.27-.14-.29,0a1.25,1.25,0,0,0,0,.49.59.59,0,0,1,0,.44q-.1.13-.42-.12c.13.42.32.53.58.32s.32-.39.19-.52a.51.51,0,0,0,.38.1,3,3,0,0,1,.45,0c.17.47.31.45.42-.07s.22-.79.35-.83.28,0,.45.26c.09-.26.26-.3.51-.13s.45.11.58-.19a4.24,4.24,0,0,0,2.05,3c.17.13.22.19.13.19h-.25l-.26.07s.11.1.19.19c-.13.21,0,.45.29.7s.39.41.22.45l-.44-.12a1.68,1.68,0,0,0,1.09.44,16.55,16.55,0,0,1,3,1.35c1,.56,1.63.92,2,1.09a5.41,5.41,0,0,1,.67.35,5.64,5.64,0,0,0,.58.36,3.56,3.56,0,0,1,.64.44,4,4,0,0,1,.9,1.48c.13-.38.28-.45.45-.19q0,.57.06.57s.13-.17.26-.51c.13,0,.24.08.35.35s.18.51.23.68a2.49,2.49,0,0,1,0,1.09c-.3,0-.48.25-.52.64s0,.58,0,.58.14-.07.23-.2c.13.13,0,.73-.26,1.8-.08.13-.34.46-.77,1a2.23,2.23,0,0,0-.61,1.35,1.21,1.21,0,0,1-.38,1,5.08,5.08,0,0,1-1.19.84,6.25,6.25,0,0,0-1.06.67,6.43,6.43,0,0,1-1.31.74,4.43,4.43,0,0,0-1.47,1,6.06,6.06,0,0,1-2.76.51c-.34,0-.73,0-1.16-.06a3.61,3.61,0,0,0-1.7-.32,6.77,6.77,0,0,1-1.76-.19A2.48,2.48,0,0,1,81.82,35c-.42-.32-.79-.59-1.09-.8a14.71,14.71,0,0,1-1.34-1.41q-.9-1.1,0-1l-.45-.9a.77.77,0,0,1,.13-.77c.38.13.64.06.77-.19s-.07-.45-.58-.45c0-.65.43-1,1.28-1a3.36,3.36,0,0,1,.58.07,3.81,3.81,0,0,0,1.22-.07A1,1,0,0,1,83.62,28a2.15,2.15,0,0,1,1.22,1.09,2.49,2.49,0,0,0,1.92.77,6.19,6.19,0,0,0,1.67-.26,2,2,0,0,1,1.67-.22,2.42,2.42,0,0,0,1.73-.16c.13-.17.66-.26,1.6-.26l-.06-.07c-.09-.38.21-.57.89-.57s.92-.3.71-.77h.13c.72-.17.85-.43.38-.77a1.09,1.09,0,0,1-.45,0c-.17,0-.25,0-.25,0s0,.16.06.42c-.21.13-.34.15-.38.06a1.33,1.33,0,0,1-.1-.51.84.84,0,0,0-.16-.51c0-.17,0-.26,0-.26s-.21.13-.26,0l-.86-.93A14.27,14.27,0,0,0,92,24c-.18.38-.43.4-.77.06,0,0-.06-.12,0-.22s-.1-.25-.38-.42L90,22.9c-.26-.15-.3-.29-.13-.42ZM81.31,9.59a1.41,1.41,0,0,0-.71,1.22Zm3.46,11.87.2.06a17.88,17.88,0,0,1,3.84,1.35c.47.25.58.38.32.38a3.09,3.09,0,0,1-1.28-.38c-.34.13-.59.14-.74,0s-.18-.17-.09-.19a.9.9,0,0,1,.38,0,11.29,11.29,0,0,0-1.15-.51A6.51,6.51,0,0,1,84.77,21.46ZM86,18.83H85.8l-.19.19a.58.58,0,0,1,.51.35.83.83,0,0,0,.38.42,4.7,4.7,0,0,0,2.18.64c.3-.17.65-.08,1,.26.77.55,1.21.79,1.32.7s0-.22-.2-.41-.37-.31-.41-.36a.88.88,0,0,1,.77.36c.25.27.49.38.7.32s.2-.16,0-.29-.56-.29-1-.48l-1-.48a9.5,9.5,0,0,0-1-.42c-.41-.15-.94-.31-1.6-.48S86.21,18.87,86,18.83Zm.26-6.61s.17.08.38.1a1.43,1.43,0,0,1,.45.09.62.62,0,0,1,.45.52c.39-.09.58,0,.58.19s-.28.21-.58.13a1.78,1.78,0,0,1-1.35-.35C85.71,12.58,85.73,12.35,86.25,12.22Zm.51,9.3H87l.64.32C86.74,21.76,86.46,21.65,86.76,21.52Zm.51-10a3.78,3.78,0,0,0,1.48.25,1.1,1.1,0,0,0-.48-.09A8.11,8.11,0,0,1,87.27,11.52ZM88.56,30l-.2.06c-.34,0-.53,0-.57.13h.51A.45.45,0,0,0,88.56,30Zm-.64-8.21c.89.13,1.3.32,1.21.57a.58.58,0,0,0-.48,0,.5.5,0,0,1-.41,0c.17-.08.18-.16,0-.22A.66.66,0,0,1,87.92,21.78Zm.7-14.11.26.06c.08,0,.07.1,0,.16s-.34,0-.68-.09C88,7.76,88.19,7.71,88.62,7.67Zm.19,10.77c2,.56,3.15,1.16,3.4,1.8A10,10,0,0,1,88.81,18.44Zm.26-7.88.19.12.45.07ZM91.7,7.67c-.47,0-.75,0-.83-.16s-.06-.17.09-.19a.62.62,0,0,1,.39.06,3.7,3.7,0,0,0,.48.23C92,7.69,92,7.71,91.7,7.67Zm2.76,4.62c.17-.6.39-.63.67-.1s.36.81.26.83-.26-.07-.45-.28-.3-.29-.32-.23.09.29.35.67c-.17.13-.38,0-.61-.32s-.46-.68-.67-1A.84.84,0,0,1,94.46,12.29ZM93.69,34a4.48,4.48,0,0,1,.38-.26h.19c0,.13,0,.24-.22.33S93.73,34.09,93.69,34Zm3.52-3.78-.12.25c-.22.43-.37.6-.45.52s-.1-.29.09-.48A.77.77,0,0,1,97.21,30.18Z"/><path class="cls-1" d="M101.89,33.06h-.12V36a1.94,1.94,0,0,1-.52-1.35,2.46,2.46,0,0,1,.07-.57,1.22,1.22,0,0,0-.07-.33,3.78,3.78,0,0,0-.16-.41,1,1,0,0,1-.09-.36,5.44,5.44,0,0,1-.2-1.47c.13.21.26.41.39.58a4,4,0,0,0,0-1.48,2.86,2.86,0,0,1-.26-1.28V27.93a3,3,0,0,1,.1-.77c.06-.25.14-.53.22-.83s.15-.53.19-.71a2.1,2.1,0,0,0,.2-.57.88.88,0,0,0-.07-.32.4.4,0,0,0-.32-.26s0-.26.07-.64c.21-1.88.34-3,.38-3.34a21.47,21.47,0,0,1,.55-2.18c.27-.94.46-1.62.54-2,0,.17.1.45.16.84s.12.68.16.89a4.53,4.53,0,0,1,.32-.64s0,.07.07.07a17.92,17.92,0,0,0-.36,2c-.15,1-.28,1.85-.41,2.4a16.41,16.41,0,0,0-.58,2.95c0,.43,0,1.1.13,2s.13,1.59.13,2a7.7,7.7,0,0,1-.07,1c-.08-.13-.15-.24-.19-.32l-.06.12c.12,1.29.19,2,.19,2.12a9.72,9.72,0,0,1-.45,1,.27.27,0,0,1,.19.06v-.45c.17.64.43,1.56.77,2.76,0,0,0-.06.07-.06H103a14.08,14.08,0,0,1-.44-2.57q0-1,.09-2.79c.07-1.22.12-2,.16-2.21a4.81,4.81,0,0,0-.06-.61,1.22,1.22,0,0,1,0-.61,31.13,31.13,0,0,1,.51-3.78,10,10,0,0,1,.58-1.16.83.83,0,0,0-.26-.13c0,.09-.09.2-.13.32a1.16,1.16,0,0,0-.06.33h-.13c0-.22.1-.55.16-1s.12-.79.16-1a5.42,5.42,0,0,1,.23-.84,2.35,2.35,0,0,1,.48-.86,4.49,4.49,0,0,0,.54-1.57,4.11,4.11,0,0,1,.61-1.64,13.78,13.78,0,0,0,.83-1.92l-1.53.12,1-2c-.43-.08-.52-.28-.26-.57l1.92-1.93.26-.26c0-.25.05-.4.16-.44a.43.43,0,0,1,.35,0,.18.18,0,0,0,.26-.13c.09-.26.35-.43.8-.52A1.94,1.94,0,0,0,110,7l-.19,0a.78.78,0,0,0-.26,0c.26-.08.56-.17.9-.25l-.16.35a1.14,1.14,0,0,0-.09.29,1.34,1.34,0,0,1,.44.13l.07-.2c1.24.13,2.12.22,2.63.26a1.77,1.77,0,0,0-.29.19l-.29.23-.26.22.26.07a3.43,3.43,0,0,1,1.48-.32,3.07,3.07,0,0,1,.57.06,2.07,2.07,0,0,0,.55-.1,2.29,2.29,0,0,1,.54-.09,2.74,2.74,0,0,1,1,.29,2.9,2.9,0,0,0,1,.28.7.7,0,0,1,.42.13,1.57,1.57,0,0,1,.29.36.64.64,0,0,0,.25.28,13.49,13.49,0,0,1,2.5,2.95h-.51a.88.88,0,0,0-.38.07,2.75,2.75,0,0,1,.35.51c.15.26.27.45.35.58a.94.94,0,0,1,.16-.23.29.29,0,0,1,.16-.09c.34.38.54.61.58.67s.12.17.22.32a1.12,1.12,0,0,1,.2.48,5.09,5.09,0,0,1,0,.58l-.77-.58s0,.2.06.45.08.51.1.77a5.26,5.26,0,0,0,.13.83c.06.3.11.55.16.74s.08.29.13.29V16.2a3,3,0,0,1,.7,1.15l-.19.07q.51.38.51.48v1.57l-.19,0a.38.38,0,0,1-.19-.1.56.56,0,0,1-.07.19,1.41,1.41,0,0,1-.13.32c-1.06.26-1.6.43-1.6.52-.08.94-.15,1.69-.19,2.24a.56.56,0,0,0,.1-.19.37.37,0,0,1,.09-.19h.13c-.09.6-.17,1.51-.26,2.75h.13a1.8,1.8,0,0,0,.13-.41,1.92,1.92,0,0,1,.13-.42h.13c-.13.68-.38,1.64-.74,2.85s-.57,1.92-.61,2.09a3.48,3.48,0,0,1-1.6,2.18H119a1.83,1.83,0,0,1-.1.32c-.07.17-.12.3-.16.38a2.75,2.75,0,0,1,0,.29.66.66,0,0,1-.1.29,4.46,4.46,0,0,0-.86,1.41,10.1,10.1,0,0,1-.68,1.35,5.13,5.13,0,0,1-.45.38q-.31.26-.45.39a1.89,1.89,0,0,0-.29.57,1.69,1.69,0,0,1-.35.65,10.63,10.63,0,0,1-1.86,1.34s-.89.56-2.56,1.54v-.64l.35-.13a.81.81,0,0,1,.22-.06,4.71,4.71,0,0,1-.57-.39q1.73-.83,1.92-1a.84.84,0,0,0,.29-.32,2.9,2.9,0,0,1,.22-.32c2.23-2.65,3.38-4,3.47-4.17a8.42,8.42,0,0,0,1.41-3.53,21.41,21.41,0,0,1,.64-2.5,7.18,7.18,0,0,0-.51,1c0,.12-.19.57-.42,1.34a10,10,0,0,1-.67,1.73c-.35.69-1,1.84-2.12,3.47a15.52,15.52,0,0,1-4.62,4,3.76,3.76,0,0,1-.57.22,6.08,6.08,0,0,1-.77.16,3.81,3.81,0,0,0-.64.13,2.56,2.56,0,0,1,.19.26l-1,.38a2.35,2.35,0,0,1,.26-.38l-.26-.16a1.17,1.17,0,0,0-.25-.16c-.13.21-.26.32-.39.32a4.18,4.18,0,0,1-1.09-.45s.17.19.38.45c-.42-.13-1.13-.32-2.11-.58v-.19c.34.08.77.17,1.28.25a22.35,22.35,0,0,1-2.11-2l-.2.2s.2.21.45.51a4.73,4.73,0,0,0,.64.64l-.13.13-1.47-1a.35.35,0,0,0,.19-.12C102.64,35.88,102.24,34.47,101.89,33.06Zm1.22-9-.19,2.69h.26a25.39,25.39,0,0,1,.19-2.69h-.26Zm11.29,8.78a4.13,4.13,0,0,0-1,.77l-.2-.13c.17-.3.59-.93,1.25-1.89a13.5,13.5,0,0,0,1.38-2.34,1.26,1.26,0,0,0,.07-1.28v-.13a.7.7,0,0,0,.25.13,4.89,4.89,0,0,0,.42-.52,2.21,2.21,0,0,0,.35-.57c.05-.13.15-.6.32-1.41l.07-.07V25.3a.83.83,0,0,1-.19-.25.29.29,0,0,1,0-.23,1.11,1.11,0,0,0,.07-.29,2,2,0,0,0,0-.32,3.52,3.52,0,0,0,.1-.41q0-.23.06-.48a3.61,3.61,0,0,0,0-.39,12,12,0,0,0-.25-1.22c-.09-.08-.12-.39-.1-.93s0-.86,0-1c.17-.34.09-.51-.25-.51a.52.52,0,0,1-.29-.39.66.66,0,0,1,.16-.64,2,2,0,0,0,.19.32,24.6,24.6,0,0,0-.77-2.63l-.51-.45-.07.13a1,1,0,0,1,.16.29.9.9,0,0,1,.1.35l-.19.07c-.13-.47-.24-.86-.32-1.16a1.09,1.09,0,0,0-.36-.13c-.19,0-.31-.09-.35-.16a.38.38,0,0,1-.06-.22c0-.34-.25-.6-.74-.77s-.74-.39-.74-.64a3.7,3.7,0,0,1-.86-.16,3.88,3.88,0,0,0-.93-.16,2.52,2.52,0,0,0-.58.06,4.13,4.13,0,0,0-1.92,2l-.2,0-.19,0a.19.19,0,0,1-.13-.06c-.6,1.32-1,2.16-1.09,2.5h-.06c-.17,0-.39.22-.64.67a2.44,2.44,0,0,0-.39,1.19c-.3.17-.45.27-.45.32a3.29,3.29,0,0,0-.09.7,5.77,5.77,0,0,1-.13.87,3.55,3.55,0,0,1-.23.61.74.74,0,0,0-.12.16l-.13.16q0,.25,0,1c0,.47-.06.83-.1,1.09a1.4,1.4,0,0,1-.1.42,1.61,1.61,0,0,0-.09.41,1.58,1.58,0,0,0,.09.42,1.34,1.34,0,0,1,.1.42c0,.42,0,1.08,0,1.95s0,1.55,0,2v1.29a3.78,3.78,0,0,0,.51,2.11l-.13.13.13.51-.45.2c.17.38.41,1,.7,1.92l.13-.07s0-.21-.06-.51a4.12,4.12,0,0,1,.9.58,3.11,3.11,0,0,0,2.5.9c.3,0,.74,0,1.31-.07l1.12-.06.26-.77a1.17,1.17,0,0,0,.55-.26,1.7,1.7,0,0,0,.38-.51,4.18,4.18,0,0,1,.29-.51l.29.12.29.13,1-1.6s0-.15,0-.32Zm-4.49-19.94-.35.16a1,1,0,0,0-.32.19c-.07.06-.15.14-.26.22a.71.71,0,0,0-.29.65l.13.12.54-.67C109.6,13.32,109.78,13.1,109.91,12.93Zm9.62,12a6.22,6.22,0,0,0-.45,2.18,3.06,3.06,0,0,0,.51-1.73A2,2,0,0,0,119.53,24.92Zm-.13-.13h.13V20.62h-.13Z"/><path class="cls-1" d="M127,21.26a1,1,0,0,0,.39-.89c0-.13,0-.31,0-.55s0-.39,0-.48q0-.51,0-1.41t0-1.41l-.32.13a2.23,2.23,0,0,1-.45-1.61v-.51a19,19,0,0,0-.13-2,3.72,3.72,0,0,1,.19-2c0-.08.17-.77.39-2.05,0,0,.15.15.45.32a10.22,10.22,0,0,1,.64-1.22l.57.51a1,1,0,0,1,.71-.25A.88.88,0,0,1,130,8c.13.13.39.1.77-.1s.62-.2.71,0a4.43,4.43,0,0,1,.44.84c.09-.26.18-.54.26-.84h.13a11.34,11.34,0,0,0,.58,2.57l.32.06a2.67,2.67,0,0,0-.39,1.41,5.26,5.26,0,0,0,.13,1,2.1,2.1,0,0,0,.32.54,4.63,4.63,0,0,0,.32.42c.13.26.84,1.52,2.12,3.78v.26c-.81-1.37-1.58-2.69-2.31-4a.76.76,0,0,0-.61.65c-.06.34,0,.57.1.7a2.17,2.17,0,0,1,.25,1.09q0,.13,0,.45t0,.45v.32A6,6,0,0,1,133,19a3.82,3.82,0,0,1-.25-.38v3.2a.53.53,0,0,1-.1.29,1,1,0,0,1-.16.22c-.13.13-.14.45,0,1a6.24,6.24,0,0,1,.16,1,19.38,19.38,0,0,1-.32,2.63,3,3,0,0,0,0,.86,3.11,3.11,0,0,1,0,.87,3.51,3.51,0,0,0,0,.9c0,.47,0,.77,0,.89s-.12.65-.23,1.29a10.7,10.7,0,0,0-.16,1.54.88.88,0,0,0,.07.38c0,.09.11.2.32.35s.3.27.26.36c-.05.25-.12.67-.23,1.25s-.2,1-.29,1.31a.53.53,0,0,0,.1.29.71.71,0,0,1,.1.22c-.26,1.67-.5,2.53-.71,2.57h-.06a1.11,1.11,0,0,0-.87.13,1,1,0,0,1-.8.13,3.25,3.25,0,0,1-.58-.65L129,40a2.85,2.85,0,0,1-.33-.13,2.52,2.52,0,0,0-.38.58l-2-.77a21.62,21.62,0,0,1-.19-3,19.24,19.24,0,0,1,.25-3.27,1.19,1.19,0,0,1,.19-.45,2.72,2.72,0,0,0,.26-.51l-.38.19a4.48,4.48,0,0,1-.26-1.6c0-.3,0-.77.1-1.42s.09-1.13.09-1.47a2.22,2.22,0,0,0-.06-.51l.25.13a.18.18,0,0,1,.13.06V24.79a2.59,2.59,0,0,1,.19.45H127Zm-.38-3.14c.21,0,.33,0,.35.1a1.13,1.13,0,0,1,0,.42,21.67,21.67,0,0,0-.16,2.75,18.16,18.16,0,0,1-.23,2.89c0-.09-.07-.18-.22-.29a.87.87,0,0,1-.29-.29c0-.08,0-.19.19-.32,0-1-.06-1.77-.06-2.24A8.78,8.78,0,0,1,126.65,18.12Zm.7-3.46h-.25q.06.39.12,1a7.94,7.94,0,0,1,.07.87l.13-1.54A.88.88,0,0,1,127.35,14.66Zm5.9-4.17a3,3,0,0,1-.09-.61,6.83,6.83,0,0,1,0-.74,2.37,2.37,0,0,0,.36.29.91.91,0,0,1,.28.29,1,1,0,0,0,.17-.26c.06-.12.11-.23.16-.32a5.21,5.21,0,0,0,.28.52c.11.17.22.35.32.54s.21.38.29.55a1.2,1.2,0,0,0-.38-.1,1.41,1.41,0,0,1-.39-.09c.09.29.26.81.52,1.53a.19.19,0,0,0-.13.07C134.34,11.82,133.89,11.26,133.25,10.49Zm16-1.67a.19.19,0,0,0,.13.07c0,.08-.08.19-.13.32a1.63,1.63,0,0,1-.13.32.18.18,0,0,1,.13.06c.34-.38.58-.66.71-.83a1.37,1.37,0,0,0,.38.19A1.74,1.74,0,0,0,152,8.76v1c.39-.47.66-.8.83-1,0,.39.11.9.2,1.54.68.05,1,.41.83,1.09a24.57,24.57,0,0,0-.26,2.82V15a2,2,0,0,1,0,.83,5.73,5.73,0,0,0-.09.64,20.65,20.65,0,0,1-.33,2.63c-.08-.08-.23-.25-.44-.51a11.8,11.8,0,0,0-.13,1.25c-.05.58-.09,1-.13,1.32h.13a3.49,3.49,0,0,0,.13-.39,1.91,1.91,0,0,1,.12-.38h.2c-.17.94-.28,1.64-.32,2.11h-.2a2.26,2.26,0,0,1,.07-.51h-.19c0,.43,0,1.05,0,1.86s0,1.43-.09,1.86h.13v-.58a.55.55,0,0,0,.19-.06,6.8,6.8,0,0,1,.06.9,24.93,24.93,0,0,1-.25,3,23.19,23.19,0,0,0-.26,2.92c0,.34,0,.85.1,1.54s.09,1.2.09,1.54v1.73c0,.08,0,.49.07,1.22l-.16-.16-.17-.16a2.14,2.14,0,0,1,0,.25,2.23,2.23,0,0,0,0,.26.73.73,0,0,1-.22-.06.66.66,0,0,0-.23-.07c0,.26,0,.39-.13.39a5,5,0,0,1-.25-.65c-.05.13-.15.43-.32.9a1.85,1.85,0,0,1-.29-.35,2,2,0,0,0-.23-.29,1.22,1.22,0,0,0-.13.19.87.87,0,0,1-.12.2,7.82,7.82,0,0,1-.26-.9h-.13V38.9a5,5,0,0,0-.45-.58,2.53,2.53,0,0,0-.32.51,1.49,1.49,0,0,0-.25-.51l-.45.26-.07-.13s-.08-.51-.25-1.41v-.19a2.41,2.41,0,0,0,.45-1.48c0-.17,0-.42,0-.77s0-.6,0-.77,0-.57.13-1.47a.4.4,0,0,1-.19-.07c-.09.18-.22.41-.39.71h-.13a10.76,10.76,0,0,1,.26-1.28l.51.25s.05-.1.13-.19a.71.71,0,0,0,.16-.19,1.88,1.88,0,0,1,.1-.19.48.48,0,0,0,0-.29.91.91,0,0,0-.1-.29s0-.47-.12-1.28c.21,0,.33-.05.35-.13a.62.62,0,0,0,0-.32.93.93,0,0,1-.07-.32.61.61,0,0,1-.13.32,4,4,0,0,0-.12-.64l-.52.38v1.6q-.45-.06-.45-.12a9,9,0,0,1,.26-2.5c.09-.39.23-.5.45-.33a2.46,2.46,0,0,0,.22-.25.38.38,0,0,0,.1-.19s0-.05-.06-.13-.13-.09-.13-.13a11.37,11.37,0,0,1-.26-2.57,14.59,14.59,0,0,1,.19-2.37v-.19c-.17-.17-.24-.31-.22-.42a1.66,1.66,0,0,1,.26-.48,1,1,0,0,0,.22-.51l-.13-.39a.56.56,0,0,0-.19.07.32.32,0,0,1,.06-.16.3.3,0,0,0,.07-.16.78.78,0,0,1,.19.12c0-.08,0-.23,0-.44s0-.39,0-.52a.79.79,0,0,1,.06-.32A1.64,1.64,0,0,0,149,18a2,2,0,0,0,0-.64q0-.42,0-.48c.08-.26.19-.68.32-1.28a6.37,6.37,0,0,0-1.41,3,.18.18,0,0,0-.13.06c-.6.43-.88.86-.84,1.28.05,0,0,.09-.06.13a1.11,1.11,0,0,0-.48.35,2.35,2.35,0,0,0-.29.65,4,4,0,0,1-.19.54l-.07.06c-.17.18-.12.26.13.26a2.11,2.11,0,0,0-.25.58.53.53,0,0,1-.13-.23,1,1,0,0,0-.13-.22l-.13.13a.78.78,0,0,1,.23.38.37.37,0,0,1,0,.29,2.19,2.19,0,0,1-.22.29l-.23.26q-.06.12-.57,1s0,.06.09.06h.16c.13.6.17.9.13.9a3.83,3.83,0,0,1-.7,1.15c-.13.09-.2.15-.2.2a2.13,2.13,0,0,1-.6,1.05,3.24,3.24,0,0,0-.68,1,.86.86,0,0,0,0,.45l.39.06a2.45,2.45,0,0,1-.71.77,3.31,3.31,0,0,1-1.09.19,1.09,1.09,0,0,0,.07-.32.87.87,0,0,1-.61.23c-.2,0-.31-.21-.36-.55a.83.83,0,0,1-.19.16.38.38,0,0,1-.19.1H140a2.63,2.63,0,0,0-.64-1.16l-.28.29a2.53,2.53,0,0,0-.36.42V27.42a12,12,0,0,1-1.28.32l-.06-.13,1-.51c-.34-.86-.26-1.3.25-1.35.05,0,.1,0,.16-.13s.14-.19.23-.32a1.9,1.9,0,0,1,.19-.25c.21-.22.17-.49-.13-.84a9,9,0,0,1-.64-.89l.13-.39c.13.26.22.44.29.55l.19.29a1.2,1.2,0,0,0,.23.22c.08.06.14.07.19,0a.89.89,0,0,0,.7-1,1.8,1.8,0,0,0-.25-.9q-.9-1.53-2.57-4.94c-.08-.12-.06-.29.07-.51,1.32,2.4,2.35,4.23,3.07,5.52.17-.22.39-.47.64-.77l-.06-.07-.06-.06s-.09.15-.26.32c-.17-.3-.38-.71-.64-1.22a.17.17,0,0,0,.1,0,.12.12,0,0,1,.09,0l.07.12c.42.73.81.88,1.15.45a2.84,2.84,0,0,1,.51-.64,5.75,5.75,0,0,0,.58-.64,14.26,14.26,0,0,0,1-1.54l-.13-.13a4.22,4.22,0,0,1-.44.39,2.32,2.32,0,0,0,.12-.35,1.59,1.59,0,0,0,.07-.36s-.07,0-.07-.06l-.16.16-.16.16c0-.13-.08-.26-.13-.39a3.56,3.56,0,0,1-.38.71,2.2,2.2,0,0,1,1.28-1.86.33.33,0,0,1,.07.23.32.32,0,0,0,.06.22,1.12,1.12,0,0,0,.58-1.41q-.19-.84,1-1.41a3.68,3.68,0,0,0-.25.58l.12.06C146.44,12.69,147.83,10.75,149.28,8.82Zm.39,1.93c-.3.13-.45.21-.45.25a6.38,6.38,0,0,0-.48.81,8,8,0,0,1-.42.73Q145,18,144.15,19.92a.39.39,0,0,0,.26-.2c.51-.93,1.37-2.39,2.56-4.36S149.07,11.86,149.67,10.75Zm-1.41.19-.52.87c-.3.49-.51.86-.64,1.12a.63.63,0,0,1,.2.13,5.65,5.65,0,0,1,.51-1.06c.25-.45.45-.78.58-1A.18.18,0,0,1,148.26,10.94ZM148,33.38c.43.77.3,1.31-.38,1.61A1,1,0,0,1,148,33.38Zm1.6-2.24v2.63a4.5,4.5,0,0,0,.26-1.41A3,3,0,0,0,149.6,31.14ZM150.37,9a3,3,0,0,1-.22.39c-.11.17-.19.32-.26.45a2,2,0,0,0-.16.44,2.37,2.37,0,0,0-.06.52.49.49,0,0,0,.19.06c.38,0,.58-.45.58-1.35A1.46,1.46,0,0,0,150.37,9Zm.07,6.22a6.93,6.93,0,0,0-.39,1,.25.25,0,0,0-.19-.06h-.06c0,.17.09.49.16,1s.11.81.16,1a3.52,3.52,0,0,0,.38-1.67C150.5,16.09,150.48,15.68,150.44,15.17Zm-.52,16.16c.09-1.71.13-2.82.13-3.33l-.13-.07Zm1.42-17.44c-.26,3.55-.48,6.28-.65,8.21a.55.55,0,0,1-.06.19.05.05,0,0,1-.06.06,18.7,18.7,0,0,0-.39,3.34c0,.43,0,.85.06,1.28.82-7.09,1.39-12.16,1.74-15.2l-.13-.06A3.56,3.56,0,0,0,151.34,13.89Zm.12,18.85a1.81,1.81,0,0,0-.25,1.09,2.91,2.91,0,0,0,.25,1.29Z"/><path class="cls-1" d="M168.12,9a1.92,1.92,0,0,1-.4.1l-.36.07c-.06,0-.12,0-.19-.1a.77.77,0,0,1-.14-.35,1.64,1.64,0,0,0-.52-.29l.09-.11.1-.12c.92-.45,1.72-.83,2.42-1.14.13.25.28.55.47.9a16.27,16.27,0,0,1,6.51-1.8l1.59,0c.77,0,1.38-.05,1.82-.05a11.28,11.28,0,0,1,2.85.29,1.18,1.18,0,0,0-.1-.31,2.43,2.43,0,0,0-.19-.45,1.51,1.51,0,0,1,.29.19,2.31,2.31,0,0,0,.28.19l.26.12a.59.59,0,0,0,.31,0A.6.6,0,0,0,183.5,6s.1.15.21.34.2.33.26.42a1,1,0,0,0,.19-.14.78.78,0,0,1-.19-.43l.33.1a1.79,1.79,0,0,0,.48,1.07,2.43,2.43,0,0,1,.52.83,2.34,2.34,0,0,0,.45.76,1.83,1.83,0,0,1,.41.66,5.28,5.28,0,0,1-.15,2,4.66,4.66,0,0,1-.66,1.76,3.34,3.34,0,0,0-.59,1.23,5,5,0,0,1-.46,1.14l-.45.64c-.2.3-.37.52-.49.67s-.29.33-.48.57a5.67,5.67,0,0,1-.57.61,2.73,2.73,0,0,1-.62.45c-.31.19-.64.42-1,.67l-1.09.85c-.4.32-.7.56-.92.71a1.93,1.93,0,0,1-.53.19.26.26,0,0,1-.09-.14l-.05.24a15.59,15.59,0,0,0-2.8,1.47l-.52.09c-.1.13-.32.4-.67.81.26.29.19.49-.19.62a1.28,1.28,0,0,0-.4.31,3,3,0,0,1-.4.35l-1.47.48-.24-.9-.19,0-.31.05-.26,0a.62.62,0,0,1,.19-.36c.13-.14.17-.25.14-.33s-.17-.16-.42-.26c.31-.25.56-.47.76-.66-.32,0-.8.09-1.43.19q-.66-1.05.33-1.62c-.25-.09-.39-.19-.42-.28q.38-.19.78-.36c.27-.11.57-.23.9-.38l.78-.35a.58.58,0,0,0-.09-.24c-.25.1-.49.17-.71.24a1.44,1.44,0,0,0,.09-.29q2.61-1.76,4-2.61A2.11,2.11,0,0,1,176,17a1.63,1.63,0,0,0,.48-.19c.57-.38,1.48-1,2.75-2l.31-.24.31-.23a2.51,2.51,0,0,1,.28-.24l.31-.26.24-.26a1.84,1.84,0,0,0,.23-.31c0-.08.12-.18.19-.31a1.69,1.69,0,0,0,.19-.38,1,1,0,0,0,.07-.38,2.82,2.82,0,0,1,.34-.76,7.16,7.16,0,0,0,.47-.81,5.52,5.52,0,0,1,.57-.9.25.25,0,0,1-.17,0h-.21c0-.16.06-.44.1-.85-.16.22-.31.34-.43.35a.51.51,0,0,1-.4-.16.62.62,0,0,0-.36-.19,1.07,1.07,0,0,1-.95-.91l1,.1a.3.3,0,0,0,.08-.17c0-.08,0-.13,0-.16a3.14,3.14,0,0,0-1.23-.24,8.42,8.42,0,0,0-1,.09,7.34,7.34,0,0,1-1,.1,1,1,0,0,1-.29-.05v.19a1.59,1.59,0,0,1,.24.17.43.43,0,0,0,.19.12l-.64,0c-.37,0-.66,0-.88.07a.89.89,0,0,0-.48.19,1,1,0,0,1-1.47.24,1.44,1.44,0,0,0-.61.09.48.48,0,0,1-.48,0,1,1,0,0,1-.14-.62l-1.16.4a2.22,2.22,0,0,0-.31.17.65.65,0,0,1-.33.12,2.25,2.25,0,0,1-.38-.17c-.1-.06-.34.09-.71.45s-.54.6-.48.69a3,3,0,0,0,.48.52,1.43,1.43,0,0,0,.28,0c.19,1.21.3,1.84.33,1.9,0,.29,0,.47-.14.55a2.12,2.12,0,0,1-.66.21l.3.48a2.89,2.89,0,0,0,.36.47l-.71.24-.57.19a.26.26,0,0,0,.05.14.41.41,0,0,0,.23-.05.49.49,0,0,1,.05.19l-.71.24.05-.47a7.15,7.15,0,0,1-1.19.28l-.33-.47c-.32-.07-.71-.13-1.19-.19-.06,0-.08-.09-.05-.27a1.06,1.06,0,0,0,0-.37c0-.08-.18,0-.5.11a5.43,5.43,0,0,0-.31-1,3.36,3.36,0,0,1-.26-1.07,1.29,1.29,0,0,1,.24-.76,6.74,6.74,0,0,0,.61-.4l.53-.35a.89.89,0,0,0,0,.19,1,1,0,0,1,0,.23Zm3.51,18.46a.66.66,0,0,0,.15.29,1.66,1.66,0,0,1,.14-.31c.06-.11.11-.17.14-.17a1.42,1.42,0,0,0,.57.1h.76a1.4,1.4,0,0,1,.85.24l.48.21c.25.11.47.21.66.31s.29.19.29.28a.87.87,0,0,0,.38.76,2.54,2.54,0,0,1,.47.48,3.65,3.65,0,0,1,.48,1.32,1.74,1.74,0,0,1-.19.76.8.8,0,0,0,.23-.09.91.91,0,0,0,.24-.1,2.78,2.78,0,0,0,.07.45,2.12,2.12,0,0,1,.07.46,1.48,1.48,0,0,1-.52.92,2.28,2.28,0,0,0-.62,1,.64.64,0,0,1-.26.31,3.92,3.92,0,0,1-.59.36,4.82,4.82,0,0,0-.52.28,4,4,0,0,0-.64.48,3.78,3.78,0,0,1-.81.54,1.85,1.85,0,0,1-.78.17h-.14a4.28,4.28,0,0,0-.6.05c-.2,0-.43.08-.68.14l-.57.14c-.16,0-.26,0-.29,0l-.59-.33a6.2,6.2,0,0,1-.74-.45,1.12,1.12,0,0,1-.38-.45,5,5,0,0,0-.52-.74,2,2,0,0,1-.47-1,6.59,6.59,0,0,0-.22-.76,5.65,5.65,0,0,1-.21-.71,1.65,1.65,0,0,1-.05-.38,2.23,2.23,0,0,1,.69-1.57,3.53,3.53,0,0,1,1.49-.95.72.72,0,0,0,.36-.23,3.89,3.89,0,0,0,.38-.55,3,3,0,0,1,.26-.4,2.61,2.61,0,0,0-.47-.07,1,1,0,0,1-.38-.08c0,.23,0,.34-.12.36a.7.7,0,0,1-.36-.07,1.32,1.32,0,0,0-.33-.1c.16-.09.4-.25.71-.47s.55-.38.71-.47a.14.14,0,0,1,.05.09.39.39,0,0,1-.05.14.42.42,0,0,1-.09.14.49.49,0,0,0,.09.15l.86-.52Zm4.56-10.15-1.66,1.26-1.61,1.21a8.68,8.68,0,0,0,2.27-1,2.12,2.12,0,0,0,.38-.36,5.26,5.26,0,0,0,.41-.52,4.84,4.84,0,0,1,.35-.45s-.05,0-.07-.07S176.22,17.27,176.19,17.27Zm4.56-.71c-.73.47-1.78,1.17-3.14,2.08l-2.94,2s.1,0,.19.14q1-.72,3.06-2c1.35-.89,2.33-1.55,3-2A1.86,1.86,0,0,0,180.75,16.56ZM175.48,4.65H178a1.62,1.62,0,0,0-.1.18h-2.37Zm3.63.71a2.05,2.05,0,0,0,1,.21,5.08,5.08,0,0,1,.81.07c-.6.07-.95.1-1,.1a1.7,1.7,0,0,1-1.32-.57,2.15,2.15,0,0,0-.62-.34,2.93,2.93,0,0,0,.43,0,3.21,3.21,0,0,1,.42,0A.78.78,0,0,0,179.11,5.36Zm-.36-.62.81,0,.76,0V5A2.13,2.13,0,0,1,178.75,4.74ZM183,16.84l-1.9,1.52.14.14c.09-.06.73-.57,1.9-1.52Zm1.37-2.09c-.35.38-.88,1-1.61,1.9C183.53,16.52,184.07,15.89,184.35,14.75Z"/></g></g></svg>