<svg xmlns="http://www.w3.org/2000/svg" viewBox="0 0 283.84 40.56"><defs><style>.cls-1{fill:#231f20;}</style></defs><title>4-1</title><g id="Layer_2" data-name="Layer 2"><g id="Layer_1-2" data-name="Layer 1"><path class="cls-1" d="M.72,18.93a10.46,10.46,0,0,0,0,1.46,10.3,10.3,0,0,1,0,1.45,11.4,11.4,0,0,0,.06,1.91A3.89,3.89,0,0,1,.6,25.61C.27,25.48.08,25,0,24.06s0-1.52,0-1.85,0-.64.06-.93,0-.51,0-.68A3.24,3.24,0,0,1,.17,20,2,2,0,0,1,.72,18.93ZM2.45,8.49a2.57,2.57,0,0,0,.31-.8c.25.12.3.61.15,1.45s-.27,1.72-.4,2.63a21.41,21.41,0,0,0-.37,3.46,5.34,5.34,0,0,0,.06.86c-.2.37-.2.56,0,.56A1.3,1.3,0,0,0,3,16a7.51,7.51,0,0,0,.18-1.85c0-.79,0-1.33,0-1.64s.09-.85.19-1.61a7.88,7.88,0,0,0,.09-1.7c-.12.33-.24.37-.34.13a.76.76,0,0,1,.09-.74.66.66,0,0,1,.16-.93c.31-.25.41-.38.31-.4A.87.87,0,0,1,3.32,7a.5.5,0,0,1-.13-.59c-.12-.2,0-.28.37-.24h.5S4,6,3.87,6l1.92-.62s.16.09.49.13.56.18.31.31q.06.56,1,.27c.64-.18,1.08-.15,1.33.1a7.15,7.15,0,0,0,.83.4,5.55,5.55,0,0,1,1,.52A2,2,0,0,1,11.9,8.49c.29.09.46.21.5.37.08.37-.06.42-.44.13a3.64,3.64,0,0,1,.62,2v.5c-.08.16-.24.56-.49,1.17A5.64,5.64,0,0,1,10.67,15c-.09.12-.11.22-.06.28s.22,0,.55-.16c.13-.08.18-.08.16,0a.63.63,0,0,1-.16.25,1.66,1.66,0,0,1-.86.93c-.5.29-.83.37-1,.25a.94.94,0,0,1-.43.83,4.5,4.5,0,0,1-.68.37L7.58,18,7,18.19c.29,0,.35.17.19.37s-.23.33-.19.37c0,.46-.47.91-1.29,1.36a6.6,6.6,0,0,0-1.49,1,4.9,4.9,0,0,0-.12,1.24c0,.53,0,1.19.12,2s.13,1.49.13,1.86,0,.43-.13.43-.08-.1-.12-.31l-.06-.55v1.17a4.26,4.26,0,0,1,.12,1.57,7.23,7.23,0,0,0,.06,1.7c-.16.58-.1.85.19.81a1.23,1.23,0,0,0,1-.62,2.14,2.14,0,0,0,.34-.74c0-.37.34-.64.92-.81.21-.08.32-.07.34,0s-.1.3-.37.59-.2.25.22-.12l1.23-1.11-.8.43c-.08-.08,0-.34.22-.77a9.06,9.06,0,0,0,.4-.84.73.73,0,0,0,.49-.12.71.71,0,0,0,.16-.37,1.16,1.16,0,0,1,.09-.37c0-.08.13-.27.28-.56l.34-.68A3.9,3.9,0,0,1,10.08,24c.27-.23.38-.4.34-.53-.12-.33,0-.49.25-.49a2.28,2.28,0,0,0,.68-.83A1.64,1.64,0,0,0,11.53,21a.63.63,0,0,0-.62-.55,3,3,0,0,0-1.17.21c-.45.17-.79.28-1,.34a.39.39,0,0,1-.49-.15.75.75,0,0,0-.34-.31,1,1,0,0,0-.53,0l-.55.16a4.6,4.6,0,0,0-.62.24c-.27.13-.49.22-.65.28s-.27.05-.31,0,.08-.29.5-.37c.08-.58,1.11-1.22,3.08-1.92a4.43,4.43,0,0,0,1-.49c-.33.08-.51.08-.55,0s.06-.19.31-.31a1.29,1.29,0,0,1,.74-.12c0-.37.25-.56.86-.56a1.89,1.89,0,0,1,1.49.31,6.25,6.25,0,0,0,1.17.62c.25-.13.39,0,.43.25s.17.45.37.49a1.6,1.6,0,0,1,.62,1.36c0,.49-.07.78-.09.86s-.09.48-.22,1.18c.13.29,0,.45-.21.49s-.32.19-.16.43a14.06,14.06,0,0,1-1,2.38c-.22.35-.42.67-.59,1l-.33.59-.34.52-.38.56a4.44,4.44,0,0,1-1,.86,1.92,1.92,0,0,1-.68,1.24c-.42.37-.64.58-.68.62a3.35,3.35,0,0,1-1.92,2c-.25.29-.39.31-.43.06s.12-.43.49-.55c.21-.21.3-.34.28-.4s-.4.26-1.14,1q-1.54,1.3-.93.9c.41-.27.64-.34.68-.22s-.1.31-.43.56a5.66,5.66,0,0,1-.62.43,1.22,1.22,0,0,1-.68.19,1.73,1.73,0,0,1-1.23-.68.55.55,0,0,1-.22-.77c.14-.35.2-.53.15-.53s-.14.08-.3.25H2.91s0-.06.13-.19a1.07,1.07,0,0,0,.21-.37,1.56,1.56,0,0,1-.4-.09.64.64,0,0,1-.34-.19c0-.06.06-.21.31-.46a1.24,1.24,0,0,1-.52-1.42,4.89,4.89,0,0,0,0-1.61,5.15,5.15,0,0,1-.06-.92c0-.37,0-.85.06-1.42q.12-1.43.12-2.1l-.06-2.1c0-.25.14-.17.31.24V21.47c-.37-.25-.46-.7-.25-1.36-.37.12-.53.47-.49,1.05s.06.93.06,1.05A7.79,7.79,0,0,1,2.14,24v1.54C2.06,27.36,2,28.45,2,28.82c-.17,0-.21,0-.12.25.28.82.4,1.28.33,1.39a1.68,1.68,0,0,0-.12.64A3.57,3.57,0,0,1,2,32c-.09.25-.23.35-.44.31-.37.41-.57.29-.61-.37v-.5L.84,31s-.07.13-.09.37a.84.84,0,0,1-.15.5c-.25.16-.41,0-.5-.5a3,3,0,0,1,.13-1.54c-.09-.45,0-.72.15-.8s.29-.08.31,0a1.31,1.31,0,0,1,0,.46c0,.45,0,.53.12.22A2.65,2.65,0,0,1,1.09,29a.78.78,0,0,0,.16-.55,5.38,5.38,0,0,0-.19-.8,2.6,2.6,0,0,1-.12-.9,12.57,12.57,0,0,0,0-1.42v-.8A19.4,19.4,0,0,1,1,22.15a3.34,3.34,0,0,1-.12-1,9.32,9.32,0,0,1,.06-1,5.62,5.62,0,0,0,.12-1.05A3.09,3.09,0,0,0,1,18.19c.08-1,.18-1.87.31-2.65,0-.41-.06-.85-.06-1.3a16.85,16.85,0,0,1,.37-3.46,14.78,14.78,0,0,0,.49-3.27c.08-.33.21-.5.37-.5s.19.33-.06,1Zm-1.73,8a3.94,3.94,0,0,0,.06,1.79c-.08,0-.18-.09-.31-.25C.06,17.29.14,16.77.72,16.53ZM.54,11.09a1,1,0,0,1,.43.49c0,.7-.06.86-.19.47A7.8,7.8,0,0,1,.54,11.09ZM2.45,9.73v0Zm.37,14.58h0Zm.68-1.24v0Zm.37-10.93c0,.49-.08,1.13-.12,1.91a13.67,13.67,0,0,1-.13,1.55,5.37,5.37,0,0,0,.25-1.92Zm1.61-1.79a.67.67,0,0,0-.74.18,2.15,2.15,0,0,0-.28,1.21q0,.88,0,1a6,6,0,0,1-.22.83,2.92,2.92,0,0,0-.15,1.14c0,.27.24.36.61.28a.92.92,0,0,1,.93-.4c.37.06.33.28-.12.65a6.79,6.79,0,0,0,1.91-1.67,3.75,3.75,0,0,0,1-1.54c0-.13-.08-.15-.24-.07s-.33.19-.25-.06a1.49,1.49,0,0,0,.18-.25,2.39,2.39,0,0,0-2.47-1.29Zm4.2,7.53-1.61.56C8,18.19,7.94,18,8,18a1.82,1.82,0,0,1,.59-.19,1.42,1.42,0,0,0,.49-.15A1,1,0,0,1,9.68,17.88Zm0,2a11.5,11.5,0,0,0-1.11.31A1.43,1.43,0,0,0,9.68,19.86Zm1.14,10.47a1,1,0,0,1,.59-.18c.16,0,.06.19-.31.52s-.57.39-.59.19A.55.55,0,0,1,10.82,30.33Zm.9-5c-.29.33-.41.49-.37.49l.31-.31A.24.24,0,0,0,11.72,25.3Zm.37-4a.83.83,0,0,0-.25.62c0,.25.05.4.16.46s.22-.07.37-.4A.45.45,0,0,0,12.09,21.28Z"/><path class="cls-1" d="M18,35.55v1.92h-.19V35.61A.25.25,0,0,1,18,35.55ZM27.22,8c0-.08-.2-.16-.61-.25V7.69l.61,0a4.18,4.18,0,0,0,.68-.09,7.3,7.3,0,0,0-.49-.74,3.47,3.47,0,0,1,.52.24l.47.25a5.69,5.69,0,0,1-.19-.62c.45.33.91.68,1.36,1V7.63a.49.49,0,0,0,.06-.19c.08.17.34.31.77.44a.77.77,0,0,1,.65.8,1.74,1.74,0,0,1,.19-.28,1.31,1.31,0,0,0,.18-.28,2.39,2.39,0,0,1,.1.44q0,.24,0,.3l.28,0a.62.62,0,0,1,.24.06l.13.15a.26.26,0,0,1,0,.31c-.05,0,0,.12.12.25s.18.2.18.24a16.36,16.36,0,0,1,.13,1.92,6.92,6.92,0,0,1-.43,2.47,10.27,10.27,0,0,0-.44,1.92l.37-.56h.44a.19.19,0,0,1-.07.12c-.53,1.4-.8,2.13-.8,2.17L31,19.18c-.29.54-.49.91-.62,1.11s-.13.3-.27.65a3.47,3.47,0,0,1-.41.77,3.23,3.23,0,0,1-.3.28.62.62,0,0,0-.25.47.74.74,0,0,0,.12.3.75.75,0,0,1,.43.47c.13.27.21.4.25.4a2.52,2.52,0,0,1,.4,1.05,1.75,1.75,0,0,0,.47,1,2.72,2.72,0,0,1,.34.74,2.48,2.48,0,0,0,.21.56,1.14,1.14,0,0,0,.25.15,1.46,1.46,0,0,1,.25.15c.08.13.22.37.43.75.33.57,1,1.68,1.91,3.33.21.37.46.43.75.19a3.32,3.32,0,0,0,.49.77.72.72,0,0,0,.49,0,2.12,2.12,0,0,0,.59.86,1.61,1.61,0,0,1,.53,1,.39.39,0,0,1-.13.19,4.27,4.27,0,0,1-.43.37.72.72,0,0,1-.25-.12v1.11a3.82,3.82,0,0,0-.68-.37l.19.8a5.8,5.8,0,0,1-.74-.25,1.09,1.09,0,0,1-.25.62c0-.08-.19-.39-.43-.93l-.13.13a5.08,5.08,0,0,1,.19.92c0,.21-.25.48-.74.81l-.37-.31a2.87,2.87,0,0,0-.25.43,13.51,13.51,0,0,1-1.67-1.73,1.14,1.14,0,0,0-.06-.25c0-.12-.09-.29-.15-.52L31,34.56a4.08,4.08,0,0,0-.18-.43,1.87,1.87,0,0,0-.28-.4,3.17,3.17,0,0,0-.34-.28,1.76,1.76,0,0,1-.8-1c0-.08-.09-.2-.25-.37a2,2,0,0,1-.34-.4.42.42,0,0,1,0-.4c-.37-.21-.56-.41-.56-.62a2.48,2.48,0,0,0-.15-.89,4.83,4.83,0,0,0-.59-1,3.7,3.7,0,0,1-.43-.68l.06-.74a13,13,0,0,0-1.23-1.24c-.83.58-1.26,1-1.3,1.36,0,0,0,.07-.13.09a.38.38,0,0,0-.18.09,3,3,0,0,1-.28.44c-.14.2-.28.38-.4.52a1.27,1.27,0,0,1-.43.34l-.62.06-.19-.37V32.9h.07c0-.13.08-.27.12-.44h.09s.05,0,.1.07A2.92,2.92,0,0,0,22.59,34a1.66,1.66,0,0,1,.12.92c0,.37-.16.58-.37.62a.67.67,0,0,0-.52.53.77.77,0,0,0,0,.58.68.68,0,0,1-.06.31.76.76,0,0,1-.1.16.44.44,0,0,1-.18.06.45.45,0,0,0-.22.09c-.08-.21-.14-.35-.18-.43-.17.29-.33.62-.5,1a1.24,1.24,0,0,0-.52-.59.69.69,0,0,1-.34-.77l-.68,1.36a6.23,6.23,0,0,1-.62-1.18,1.64,1.64,0,0,1-.06-.65v-.68c0-.06,0-.25-.06-.58a6.81,6.81,0,0,1-.06-.71,1.09,1.09,0,0,1,.12-.47c.29-.33.27-.59-.06-.8v-.25l.37.19v-3.4c-.13,0-.19.29-.19.87v1.05A1.12,1.12,0,0,1,18,31c.2-.12.29-.22.27-.31a2.93,2.93,0,0,0-.12-.34.56.56,0,0,1,0-.4,6.78,6.78,0,0,0,.12-1.36v-.18a.77.77,0,0,0,.44-.47,1.56,1.56,0,0,0,0-.67,2.67,2.67,0,0,1-.1-.53,3,3,0,0,1,.19-1.36.24.24,0,0,0,.06-.18.55.55,0,0,0,.06-.19,9.26,9.26,0,0,0,.62.74,3.55,3.55,0,0,1,.12-.68c0,.58,0,1.42-.06,2.53s-.06,1.94-.06,2.48a27.89,27.89,0,0,0,.37,4.94h.06c0-1-.06-2-.06-2.78a49.61,49.61,0,0,1,.31-5.81c.2.33.33.54.37.62v-.93H20.3a9.85,9.85,0,0,0,.31-2.84v-.86a7.63,7.63,0,0,1,.06-1.05,4.12,4.12,0,0,1,0-.53c0-.23,0-.4,0-.52a1.26,1.26,0,0,0-.07-.41.85.85,0,0,0-.18-.34c-.08,0-.12-.16-.12-.37a.56.56,0,0,1,.3-.49,1.29,1.29,0,0,0,.13-.56q.61-6,.86-8.09a3.61,3.61,0,0,1,.25.62c-.21,2.76-.31,4.26-.31,4.51v.68l.19.06L22,14.49c.08-.66.15-1.16.19-1.49h.06v4.88H22.1a1.28,1.28,0,0,1-.13-.37h-.18v2.66q0,.67,0,2t0,2a.7.7,0,0,0,.18.12q.2-.24,1-1.08A12.71,12.71,0,0,0,24.32,22q.18-.18.93-1.14a10,10,0,0,1,1.23-1.39,1,1,0,0,0-.09.31,1.84,1.84,0,0,0,0,.24l.12.07q1.11-2,1.11-2.1a3.54,3.54,0,0,0,.25-.9,3.54,3.54,0,0,1,.25-.9.7.7,0,0,1,.12.25c.08-.08.29-.35.62-.8a8.87,8.87,0,0,0,.93-1.67l-.28,0a2.15,2.15,0,0,0-.4.09,1.86,1.86,0,0,0,.21-.31.91.91,0,0,1,.28-.3c-.21-.29-.18-.87.06-1.73-.16,0-.41-.13-.74-.25q-.12.06-.12.12a1.29,1.29,0,0,0-.19-.8A1.57,1.57,0,0,0,28,10.1a1,1,0,0,0-.56-.19A3.7,3.7,0,0,0,27,10a3.26,3.26,0,0,1-.53.06h-.37l.19-.16.18-.15-2-.5c.62-.16,1.12-.3,1.49-.43a2.18,2.18,0,0,1-.31-.18h-.13C26.15,8.37,26.73,8.16,27.22,8Zm-6.67,3.09a3.41,3.41,0,0,1-.18,1.05,5.57,5.57,0,0,0-.07-.68h-.24q-.06,1.48-.06,3c0,.49,0,1.19-.07,2.1s-.06,1.5-.06,1.79c0,.53-.07,1.5-.09,2.9s-.05,2.49-.09,3.28l-.37.37c-.05-.58-.07-1-.07-1.24,0,.08-.09.18-.15.28a1.14,1.14,0,0,1-.16.22h-.12A5.52,5.52,0,0,1,19,22.83a2.57,2.57,0,0,0,0,.27,2.75,2.75,0,0,1,0,.34,2.59,2.59,0,0,0,0-.64,1.12,1.12,0,0,0-.34-.47.24.24,0,0,1-.06-.18V22q.18.14.21,0a.14.14,0,0,0,0-.15s-.06-.08-.18-.12a.18.18,0,0,1-.13-.25,4.64,4.64,0,0,1,.19-.56,1.77,1.77,0,0,0,.18-.8,5.92,5.92,0,0,0-.09-.87,5.68,5.68,0,0,1-.09-.86v-.31A16.74,16.74,0,0,0,19,16.06c0-.72.08-1.54.12-2.47s.08-1.64.12-2.13a2,2,0,0,1,.31-.59.53.53,0,0,0,.06-.65c.13-.28.25-.57.38-.86A2.79,2.79,0,0,1,20.55,11.09Zm-.37,9.45h.12v3.83h-.12Zm1.24-.25h-.13v2.54h.13Zm.43,8-.12.07a2,2,0,0,1,.12.74c0,.12,0,.33,0,.62s0,.51,0,.67a2.89,2.89,0,0,0,.06.56,2.71,2.71,0,0,1,.06.62,7,7,0,0,1-.12,1.08,6.25,6.25,0,0,0-.13.9h.13a4.38,4.38,0,0,0,.12-.53,3.28,3.28,0,0,0,.06-.52H22v3a.23.23,0,0,1,.16-.06h.15c0-.17,0-.44,0-.84s0-.66,0-.83v-.62a1.67,1.67,0,0,0-.09-.74c-.1-.41-.09-.68,0-.8a.63.63,0,0,0,.09-.43c0-.17,0-.38-.09-.65a4.54,4.54,0,0,1-.06-.53c0-.12,0-.36,0-.71s0-.61,0-.77Zm8.34-14.27c-.13.87-.19,1.31-.19,1.33a1.71,1.71,0,0,0,.44.16c-.21.37-.51.93-.9,1.7s-.67,1.3-.83,1.63a.27.27,0,0,1,.12,0A.53.53,0,0,1,29,19c.17-.37.45-1,.84-1.76l.89-1.83a.41.41,0,0,0,.13-.43,1,1,0,0,0-.13-.31s-.12-.13-.24-.28A1.35,1.35,0,0,1,30.19,14.05Z"/><path class="cls-1" d="M47.49.28A1.37,1.37,0,0,1,48.17,0a1.27,1.27,0,0,1,.55,0,4,4,0,0,1,.68.25L50,.46a3,3,0,0,0,.52.28,1.66,1.66,0,0,1,.5.31,3,3,0,0,0,.4.34,1.25,1.25,0,0,1,.31,1c-.17.62-.35.58-.56-.13Q51.07,2,51,2a3.15,3.15,0,0,1,.06.61,6.14,6.14,0,0,1-1.36,3.46,3.44,3.44,0,0,0-.93,1.33A10.52,10.52,0,0,0,48.38,9a6.75,6.75,0,0,1-.21,1,1.61,1.61,0,0,1-.47,1.42c-.43.53-.61.95-.52,1.23.41-.61.64-.63.68-.06a2,2,0,0,1-.13,1,11.83,11.83,0,0,1-.68,3.24c-.41,1.22-.66,1.95-.74,2.2a3.36,3.36,0,0,0,1.86-.25c1.07-.37,1.64-.58,1.73-.62-.17,0-.21-.1-.13-.18.25-.21.37-.21.37,0s.17.21.37.15.3-.06.28,0a.77.77,0,0,1-.28.28c-.16.12-.19.19-.09.19a1.4,1.4,0,0,0,.4-.07,3.33,3.33,0,0,0,.5-1.79,4.74,4.74,0,0,0-.07-.74,7.93,7.93,0,0,1-.18-1.61,4.71,4.71,0,0,1,.06-.74,1.64,1.64,0,0,1,.37,1.39,9.36,9.36,0,0,0,0,1.52l.19,1.66a1.6,1.6,0,0,1,.12-.64s.12.24.25.8a3.74,3.74,0,0,0,.31,1,1.38,1.38,0,0,0-.07.43,1,1,0,0,1-.37.74c.58-.16.85,0,.81.4s-.31.67-.81.71c.21.29.43.34.65.16a1.8,1.8,0,0,0,.5-.62c.1-.22.21-.19.34.09v2.72a12.4,12.4,0,0,0,.12,2.16,12.38,12.38,0,0,1,0,1.58,12.21,12.21,0,0,0,0,1.57c.13-.32.22-.32.28,0s.1.53.12.59.09.25.19.56.17.54.22.71a6.9,6.9,0,0,1,.12.68,1.2,1.2,0,0,1-.37,1.17.66.66,0,0,1-1,.16,1,1,0,0,1-.52-1.09l-.07-.55v.68c.21.62,0,1-.49,1.17s-.95-.1-1-.8c-.29.66-.39.45-.31-.62.17-.66.37-1.89.62-3.71-.17.13-.25.07-.25-.18a2.1,2.1,0,0,1,.25-1.24c.16-.2.26-.23.28-.09s.05.32.09.53c.12,0,.16-.1.12-.41s-.07-.55-.09-.74-.05-.38-.09-.58a2.69,2.69,0,0,1-.06-.44c-.09.42-.2.44-.34.07a1.38,1.38,0,0,1-.1-.93A2.15,2.15,0,0,0,51,23c-.21-.35-.6-.42-1.18-.21a.93.93,0,0,0-.55-.13,4.78,4.78,0,0,0-1.86.56,2.23,2.23,0,0,1-1.29.83,3.18,3.18,0,0,0-1.3.65.48.48,0,0,0-.62.22,2.75,2.75,0,0,0-.25,1,8.26,8.26,0,0,0-.52,2.31,4.87,4.87,0,0,1-.83,2.44,9.71,9.71,0,0,1,.18-1.57A10.68,10.68,0,0,0,43,27.77h-.13q-.12.87-.18,1.11c-.25-.12-.28-.61-.1-1.45a4.24,4.24,0,0,0,.16-1.7c-.12-.25-.25-.37-.37-.37s-.46.45-.62,1.36a3,3,0,0,0-.06.37c-.25-.08-.31-.31-.19-.68a2.89,2.89,0,0,0,.19-.93c0-.45-.19-.68-.56-.68a.53.53,0,0,0-.24.06q-.75.43-.87-.18a.84.84,0,0,1,.68-.87l.49-.3c-.61-.09-1-.21-1-.38-.45.21-.65.19-.61-.06s.24-.43.61-.55c-.28,0-.43-.1-.43-.19s.41-.43,1.24-.8l.49-.19c.41-.33.41-.49,0-.49l-1-.12A2.25,2.25,0,0,0,42,20a1.68,1.68,0,0,0,.49-1.36,2.11,2.11,0,0,1,.22-1.3,1.36,1.36,0,0,0,.24-.83c.29-1,.67-2.33,1.15-4.14s.8-3,1-3.53a3.24,3.24,0,0,0,.24-.92.76.76,0,0,0-.21-.31,1.15,1.15,0,0,1-.25-.31c-.25.49-.37.66-.37.49a22.61,22.61,0,0,1,1-4.94c.08-.12.22-.36.43-.71s.36-.59.46-.74.27-.34.5-.59A2.84,2.84,0,0,1,47.49.28Zm-7.23,30a.62.62,0,0,1,.12.65c-.08.27-.14.4-.18.4s-.21-.2-.13-.49A3.66,3.66,0,0,1,40.26,30.3ZM41.18,28c.21,0,.31,0,.31.18-.45,3.13-.76,4.7-.92,4.7-.37,0-.46-.31-.25-.93a13.86,13.86,0,0,0,.46-2.07A15,15,0,0,1,41.18,28Zm1,2.71a1.12,1.12,0,0,1,.07.65c0,.23-.11.34-.19.34s-.21-.15-.12-.46S42.15,30.78,42.23,30.73Zm.5.25a6,6,0,0,1,0,1c0,.31-.07.46-.15.46s-.21-.31-.13-.71A2.49,2.49,0,0,1,42.73,31ZM44.34,16.9l-.68,2.71V20c.16-.82.32-1.21.49-1.17-.12.37-.13.59,0,.65s.22-.05.34-.34a.86.86,0,0,0,.06-.93c.21-1.07.65-2.69,1.33-4.88a45.91,45.91,0,0,0,1.33-5l-1,3.3q-.75,2.33-1,3c-.15.47-.29,1-.43,1.48S44.46,16.9,44.34,16.9Zm0-8.59a3,3,0,0,1-.1,1.17c-.1.37-.19.56-.28.56s-.23-.27-.09-.81S44.17,8.39,44.34,8.31Zm.12,1.3a2.11,2.11,0,0,1-.22,1.29c-.22.54-.36.89-.4,1A8.88,8.88,0,0,1,44.46,9.61Zm1.79,7.53a3.5,3.5,0,0,0-.4,1.24,10.29,10.29,0,0,1-.22,1.05Zm2.78,4c-.41.25-.68.33-.8.25l.49-.19h.19ZM50.82,8.25a9.51,9.51,0,0,1,.25,2v.37c-.12-.08-.22-.41-.28-1A4.19,4.19,0,0,1,50.82,8.25ZM51,11c.2.13.26.5.18,1.12v.43a1.11,1.11,0,0,1-.27-.9A1.86,1.86,0,0,1,51,11Zm2,11.13a1.23,1.23,0,0,0-1,1,4.89,4.89,0,0,0-.07.93,10.1,10.1,0,0,0,.13,1.55c0,.57.06,1.09.06,1.54a7.83,7.83,0,0,1-.06,1.05,3.24,3.24,0,0,0,.18,1.73c.17.29.33.08.5-.62a.42.42,0,0,1,.09.19q0,.12,0,.06Q53,28.33,53,22.09Zm-.06-6.68a2,2,0,0,1,.25.81c0,.33,0,.47-.06.43s-.25-.18-.25-.53A2.76,2.76,0,0,1,52.92,15.41Zm.06,3a2.46,2.46,0,0,1,.31,1.24,3.94,3.94,0,0,1-.12.92c-.12.09-.21-.08-.25-.49A4.58,4.58,0,0,1,53,18.44Zm.68,9.14.13.13.06.12a1.6,1.6,0,0,1,0,.62c0,.16-.09.11-.16-.16A1.73,1.73,0,0,1,53.66,27.58Zm0-5.8a3.45,3.45,0,0,1,.19.61,18.63,18.63,0,0,1,.12,2,6.87,6.87,0,0,1-.31,2.29Zm1.05,9.39a2.88,2.88,0,0,1,.31.24c-.12.54-.21.68-.27.44A1.46,1.46,0,0,1,54.71,31.17Z"/><path class="cls-1" d="M57.68,27.64a.93.93,0,0,1,.15.56c0,.17-.1.11-.24-.15S57.47,27.64,57.68,27.64Zm.18-.74a3.18,3.18,0,0,1-.06.62q-.06.32-.21-.06C57.48,27.21,57.57,27,57.86,26.9Zm1.42,1.67-.12,3.65c0,.37,0,.57.06.61s.44-.41.68-1.48a14,14,0,0,0,.31-2.78v-.43c0-.74,0-1.5.06-2.29A8.86,8.86,0,0,0,60.33,24c.33.12.47.56.41,1.3s-.1,1.22-.1,1.45,0,.83-.06,1.82c0,.62-.06,1.16-.06,1.61v.68c.08,0,.14-.36.19-1.08a4.77,4.77,0,0,1,.18-1.33,10.12,10.12,0,0,1,.19,2.16V31q0,1.25.06,2c.16-.33.43-.21.8.37s.39.91.06,1h-.18a1,1,0,0,1-.06-.28v0c0,.37-.13.52-.25.43a2.37,2.37,0,0,0-.09-.37s-.08.16-.16.59-.27.69-.55.77c-.17-.2-.28-.25-.34-.15a3,3,0,0,1-.22.28,1.44,1.44,0,0,0-.77-.44,1.89,1.89,0,0,0-.81.31c-.35.21-.53.23-.55.06a3.4,3.4,0,0,0-.09-.46c0-.14-.13-.15-.25,0a13.14,13.14,0,0,1,.49-3.46,1,1,0,0,1,.13-.59q.12-.15.24,0a1.35,1.35,0,0,1,.19.56,11.27,11.27,0,0,1-.5-2.53c0-.33,0-1.32.13-3,.08-1.44.13-2.39.15-2.84a6,6,0,0,1,.13-1.11c.06-.29.17-.41.34-.37a1.47,1.47,0,0,1,.49,1,21.77,21.77,0,0,0-.19,3.27ZM60.83,16l-.06,5.56a2.15,2.15,0,0,0,0,.74c.08.91,0,1.34-.13,1.3a16.1,16.1,0,0,1-.37-3.4c0-.49,0-1,.06-1.42.13-1.65.19-2.61.19-2.9a3.09,3.09,0,0,0-.34-1.61l-.71-1.17a7.5,7.5,0,0,1-1-2.17v-.43a6.67,6.67,0,0,0-.25-1.6,6.61,6.61,0,0,1-.24-1.61v-1c0-.74.43-1.19,1.29-1.36.25.29.44.39.56.31.58-.53,1-.79,1.2-.77a1.14,1.14,0,0,1,.65.28c.17-.33.48-.23.93.31q.06.12.06,0a.54.54,0,0,0-.06-.25c.53,0,.78.43.74,1.17a3.51,3.51,0,0,0,.25,1.86,9.14,9.14,0,0,0,1.11,3.27,9.38,9.38,0,0,0,.77,1.58,9.82,9.82,0,0,1,.8,1.63,18.67,18.67,0,0,0,1,2.1,33,33,0,0,1,1.46,3.06,12.89,12.89,0,0,0,1.88,3.12c.21-.45.34-.45.4,0a3.15,3.15,0,0,0,.16.8,47,47,0,0,0,.68-4.94A4.31,4.31,0,0,1,72,19.92,13,13,0,0,0,72,21.53l.25-3.83c-.09-.08,0-.52.31-1.3q0-.12,0-.06a1,1,0,0,0-.1.25c-.2-.17-.31-.58-.31-1.24V14.18c0-.62.07-1.2.07-1.73a10.55,10.55,0,0,0-.31-2.72c.2.21.32.23.34.06a1.11,1.11,0,0,0-.16-.62c0-.28,0-.43.06-.43s.17.06.25.19c.33.37.43.33.31-.13,0-.33.12-.49.25-.49s.33.16.37.62c0-.21,0-.33.12-.37s.35.28.31,1v.62c0,.74,0,1.86.12,3.34.17,2,.25,3.4.25,4.26A6.38,6.38,0,0,0,74,19.18v1.3a14.52,14.52,0,0,1,.12,1.73,6.53,6.53,0,0,1-.06,1,2.39,2.39,0,0,0,0,1.54q.06.32.18.06a20.64,20.64,0,0,1-.12-2.22v-.31c0-.86,0-2,.12-3.52V17.33q0-2.1-.12-5.31a5,5,0,0,0,0-1.55,4.74,4.74,0,0,1-.12-1,1.72,1.72,0,0,1,.8-1.67,3.55,3.55,0,0,1,.43,2v.87A7.6,7.6,0,0,0,75.29,12a8.35,8.35,0,0,1,.15,1.42,2.45,2.45,0,0,0,.09.87s.08-.14.13-.43c.28.33.45.45.49.37a2,2,0,0,0,0-.74c.08,0,.21.16.37.61a2,2,0,0,1-.25,1.8c-.12-.54-.37-.46-.74.24a2,2,0,0,1-.12.31,3.14,3.14,0,0,1,.09,1.05c0,.46.07.74.28.87,0-.29.08-.41.12-.37s.08.26,0,.68v.06l.06.37a4,4,0,0,1,.31-.74,3.65,3.65,0,0,1,.19.77,1.88,1.88,0,0,1-.22.62c-.14.31-.26.56-.34.77-.29,0-.43.16-.43.37s.23.6.68,1a9.37,9.37,0,0,0,0,1.64,3.69,3.69,0,0,1-.09,1.57,1,1,0,0,1,.31,1.27c-.21.55-.4.69-.56.4,0,.16.1.49.19,1a8.88,8.88,0,0,1,.12,1.42v.49a2.29,2.29,0,0,0-.06,1.42,2.73,2.73,0,0,1,.18.93,1.06,1.06,0,0,1-1,1.17,2.28,2.28,0,0,0-1.23.28l-.93.47c-.16-.37-.37-.55-.62-.53l-.43,0c-.49-.2-1-1-1.54-2.47a1.19,1.19,0,0,0,.06-.37A2.23,2.23,0,0,0,70,29.19a7.88,7.88,0,0,1-1-1.27c-.1-.22-.18-.35-.24-.37s-.15,0-.25.16a.45.45,0,0,1-.34.18,12.94,12.94,0,0,1-.65-1.54,4.36,4.36,0,0,0-1-1.73v-.43a2.9,2.9,0,0,0-.86-2c-.33,0-.5-.08-.5-.37a3.86,3.86,0,0,1,.13-1,.71.71,0,0,0-.37-.83,5.22,5.22,0,0,1-.71-1.8,5.74,5.74,0,0,0-.59-1.63c-.21-.31-.31-.28-.31.09v.8c0,.29-.12.44-.25.44s-.53-.44-1-1.3c-.12-.21-.22-.39-.3-.56.12.83-.07,1-.56.44Zm-1.48-1.48a1.22,1.22,0,0,1,.15,1c-.1.28-.18.5-.25.65a1,1,0,0,0-.09.27c.12,1.12.19,2,.19,2.6v.68c-.09.62-.18,1-.28,1s-.18,0-.22-.16a1.48,1.48,0,0,1,0-.65c.06-.26,0-.31-.09-.12a2.44,2.44,0,0,1-.22.31s0-.11.1-.4a3,3,0,0,1-.25-1.36,9,9,0,0,1,.19-1.73,5.85,5.85,0,0,1,.3,2.22,4.35,4.35,0,0,0-.06-1.17V16.65A3.4,3.4,0,0,1,59.35,14.55Zm-.62-1.86a1.23,1.23,0,0,1,.31.68.9.9,0,0,1,0,.56c-.07.08-.14,0-.22-.25A.94.94,0,0,1,58.73,12.69Zm.12,9.89.06.49c0,.37,0,.56,0,.56Q59.29,22.64,58.85,22.58ZM61,16.71a6.59,6.59,0,0,1,.28,1.85,4.15,4.15,0,0,1-.09,1.73L61,19.68A12.59,12.59,0,0,0,61,18C61,17.26,61,16.83,61,16.71Zm2.78-3.21a10.67,10.67,0,0,0,.87,2.22c.37.7.76,1.48,1.17,2.35a8.78,8.78,0,0,0,1,1.73ZM65.65,20H65.4l.37.44Zm1.48,4a2,2,0,0,0,.56,1.11C67.44,24.62,67.25,24.25,67.13,24Zm.12-3.09a6.32,6.32,0,0,0,.93,2Q67.44,21.23,67.25,20.91Zm1.42,7,.31.25a.3.3,0,0,1,0,.4c-.1.11-.26,0-.46-.15S68.34,28.08,68.67,28ZM69,18.81a1,1,0,0,1,.37.77,1.18,1.18,0,0,0,.19.71c0,.42-.19.33-.43-.24S68.82,19.06,69,18.81Zm.87,1.79a1.07,1.07,0,0,1,.52.53.6.6,0,0,1,.07.52c-.07.13-.18,0-.34-.31A1.8,1.8,0,0,1,69.85,20.6Zm5.68-9.94c.17.49.2.82.09,1s-.19.11-.27-.18A.82.82,0,0,1,75.53,10.66Zm-.12-2.41c.45,0,.64.4.55,1.08s-.17,1-.27,1.05-.2,0-.28-.16a1.19,1.19,0,0,0,.09-1A2.68,2.68,0,0,1,75.41,8.25Zm.25,11.43v0Z"/><path class="cls-1" d="M80.54,7.88c-.05-.54.16-.79.61-.75l.93,1a1,1,0,0,0,.15-.27,4.11,4.11,0,0,1,.19-.37,1.6,1.6,0,0,1,.22-.31c.08-.1.16-.15.24-.13l.31.1,1,.92q.12.87.12,1h.19a4.56,4.56,0,0,1,.12-1.42,7.23,7.23,0,0,1,.25,1.39c0,.47.07,1,.09,1.51s0,1,0,1.3c.09-.9.13-1.54.13-1.91q.18.12.18,1.23a24,24,0,0,1-.24,3.15c-.09-.74-.15-1.34-.19-1.79h-.18c-.17,1-.25,1.58-.25,1.64s0,.61.12,1.64c-.29,0-.43.28-.43.86a4.19,4.19,0,0,0,.12,1,6.57,6.57,0,0,1,.13-1h.18c-.08,2.1-.23,4.12-.43,6.05-.17-.37-.31-.55-.43-.55q-.31,5.92-.37,7h.18a.78.78,0,0,0,.13-.22.74.74,0,0,0,.06-.27,3.7,3.7,0,0,1,.24,1.36,12,12,0,0,1-.09,1.29c-.06.54-.09.91-.09,1.12l-.43-.87a3.37,3.37,0,0,1-.19,1.17,3.6,3.6,0,0,1-.56-.55l-.24.74-.56-.68a2.52,2.52,0,0,0-.31.56q-.12-.43-.24-.75c0,.13-.1.29-.16.5s-.11.37-.15.49a.19.19,0,0,1-.13-.06,4.56,4.56,0,0,1-.24-.93c-.05,0-.09.25-.13.75l-.31-.56c-.08.45-.16.68-.24.68a10,10,0,0,0-.19-1.3c-.12-.66-.21-1.17-.25-1.54a.7.7,0,0,0-.24-1c.33-.08.52-.21.58-.37a2.41,2.41,0,0,0,0-1,4.19,4.19,0,0,0-.49.62c-.16-.58-.25-.89-.25-.93a1.86,1.86,0,0,0,.31-.83c0-.31.07-.65.1-1s0-.66,0-.87a6.7,6.7,0,0,0,.12-.74c0-.33.07-.59.09-.8a3.2,3.2,0,0,1,.16-.71,4.16,4.16,0,0,1,.24-.65c.13.58.19.89.19.93a2.48,2.48,0,0,1,.25,1.66l.24.19v-2.9a.27.27,0,0,0,.19.06,8.83,8.83,0,0,1,.25-1.24c.08.21.14.35.18.43a3.51,3.51,0,0,1,0-.37,1.33,1.33,0,0,1,.09-.37l-.27,0a.92.92,0,0,1-.22,0c.08-.42.14-.7.19-.87a7.55,7.55,0,0,1-.62.87,9.07,9.07,0,0,0-.16-1,8.39,8.39,0,0,1-.15-1.3,1,1,0,0,1,.06-.31q0-.12.09-1.08a14.15,14.15,0,0,0,.1-1.45V15.1c0-.16-.13-1-.37-2.47a.45.45,0,0,0-.19.06c0,.09,0,.23,0,.44s0,.33,0,.37h-.13a12.36,12.36,0,0,0,.13-2c0-.33,0-.84,0-1.54s0-1.23,0-1.58,0-.56.15-.62S80.29,7.75,80.54,7.88Zm-1.12,22.3c0,.33-.08.62-.12.86A1.29,1.29,0,0,1,79.42,30.18ZM83,25.61c0,.45-.09.78-.13,1l.25.07.18-2.1h-.18Q83,24.92,83,25.61Z"/><path class="cls-1" d="M101,28.39a3.92,3.92,0,0,0,.19-1.18h.31c.08.09.18.19.31.31a1.9,1.9,0,0,0,.31-1.23,4.57,4.57,0,0,0-.56.24.17.17,0,0,0,.12.06.38.38,0,0,1-.06.22.63.63,0,0,0-.09.22.82.82,0,0,0,0,.18,3.65,3.65,0,0,1,0-.89c0-.44,0-.73,0-.9s-.54-.86-1.48-1.73a1.5,1.5,0,0,0-.07.31c-.57-.41-.92-.66-1.05-.74a2.26,2.26,0,0,0,.37-.43,5.11,5.11,0,0,1,.5.37c0-.54-.27-.72-.68-.56a2.43,2.43,0,0,0-.37-.4,2.09,2.09,0,0,0-.47-.28l-.43-.18a2.85,2.85,0,0,0-.58-.13l-.56-.06-.65,0-.65,0q-.12,0-.12-.06A4,4,0,0,0,94,21.16c-.55-.08-.87-.13-1-.13s-.85-.32-2.17-.86a.27.27,0,0,1,0-.12.22.22,0,0,0,0-.13,5.53,5.53,0,0,0,.86.31c-.29-.25-.69-.57-1.2-1l-1.08-.86-.13.12-.12.13a11,11,0,0,1-1-1.67h.49c-.33-.58-.51-.91-.55-1A1.1,1.1,0,0,1,88,14.73a1.24,1.24,0,0,0-.25-.37,6.64,6.64,0,0,0,.44-.86h-.13c0-.13,0-.31,0-.56s0-.43,0-.55a1,1,0,0,1,.49-.59,2.13,2.13,0,0,0,.56-.46,6,6,0,0,1,1.11-1.24,6.3,6.3,0,0,1,1.36-.93,3.42,3.42,0,0,1-.37.34,1.75,1.75,0,0,1-.37.28.12.12,0,0,0,0,.09l.09.1a4.89,4.89,0,0,1,.62-.34c.29-.15.5-.26.62-.34a2.18,2.18,0,0,1-1.08.77,1.65,1.65,0,0,0-1,.83c.58-.33,1-.53,1.11-.61l.06.06-.52.55c-.27.29-.47.52-.59.68l.12.13c.54-.37.83-.58.87-.62,1.48-.62,2.57-1,3.27-1.24a6.43,6.43,0,0,1,1.12-.21,5.52,5.52,0,0,0,1.05-.22l.74-.56a.76.76,0,0,0-.53-.24,2.31,2.31,0,0,0-.71.15,2.12,2.12,0,0,1-.55.16,1.47,1.47,0,0,0,.12-.5l.31,0,.31,0V8.25a3.34,3.34,0,0,0-.74.06V8.12a16.36,16.36,0,0,1,2.9-.37,10.9,10.9,0,0,1,1.17.06L99.13,8l-.37.15c.66.25,1.13.44,1.42.56a2.61,2.61,0,0,1,0-.34,2.35,2.35,0,0,1,.09-.4l3.09,1.67a1.52,1.52,0,0,0,.34.18,1.21,1.21,0,0,1,.37.22.8.8,0,0,1,.19.28.62.62,0,0,1,0,.43,2,2,0,0,1-.31-.19c0,.13,0,.29,0,.5s0,.33,0,.37h-.43c0,.16,0,.35,0,.55a2.52,2.52,0,0,1-.09.5c-.37-.46-.6-.68-.68-.68l-.68.49.49.74h-.25v.37a.86.86,0,0,1-.37.68.74.74,0,0,1-.74.19,6.14,6.14,0,0,1-1-.31c-.44-.16-.84-.3-1.21-.4a7.59,7.59,0,0,0-1-.22c-.54,0-.8-.31-.8-.8,0-.21-.41-.31-1.24-.31a3.51,3.51,0,0,0-1.11.12,3.18,3.18,0,0,1-1.67-.06l.28-.12a1.69,1.69,0,0,1,.34-.09,1.13,1.13,0,0,0,.31-.1v-.12h-.43c-.75.37-1.59.84-2.54,1.42-.08,0-.12.17-.12.37a.47.47,0,0,0,.18.43l.25.13c0,.2.14.37.4.49a1.16,1.16,0,0,1,.47.31,1.32,1.32,0,0,0,.37.46,2.43,2.43,0,0,0,.4.31,5.18,5.18,0,0,0,.49.25l.47.22a3.12,3.12,0,0,1,.52.46,1.11,1.11,0,0,0,.71.4,2.26,2.26,0,0,1,.84.22l.71.28q.36.06,1,.12a4.91,4.91,0,0,1,.8.12.52.52,0,0,1,.21.09.52.52,0,0,0,.22.1,15.8,15.8,0,0,1,3.46,1.54,6,6,0,0,1,.46.4c.15.15.31.33.5.56a5.14,5.14,0,0,0,.4.46c1,1,1.48,1.63,1.61,1.79a2.45,2.45,0,0,1-.13.37.55.55,0,0,0-.06.19,2.4,2.4,0,0,0-.06.56,12.1,12.1,0,0,0,.31,1.91v.59a4.62,4.62,0,0,1-.06.62,3.35,3.35,0,0,0-.07.58v.31a.46.46,0,0,1-.18-.06.49.49,0,0,0-.19-.06c0,.12,0,.32,0,.59s0,.46-.06.58a1.17,1.17,0,0,1-.18.43,3,3,0,0,1-.41.5s-.08,0-.12.12a.86.86,0,0,1-.22.47,2,2,0,0,1-.4.3,2.9,2.9,0,0,0-.37.28l-.59.4a5.62,5.62,0,0,0-.64.53,1.11,1.11,0,0,0-.31.68c0,.21-.17.33-.5.37a1.62,1.62,0,0,0-1.05.62,3.08,3.08,0,0,1-2,.74,4.45,4.45,0,0,1,.56.18l-.49,0a3.28,3.28,0,0,1-.44,0v.12a4.74,4.74,0,0,1,.87.18l-.37.31a6.44,6.44,0,0,0-1.42-.12,9.47,9.47,0,0,1-1.3-.06,4.46,4.46,0,0,1-1.55-.5,1.26,1.26,0,0,1,.38-.06l-.84-.15a5.25,5.25,0,0,0-.71-.09s.06,0,.06-.07H90.61a1.35,1.35,0,0,0,.92.31l.53,0,.46,0h.37A1,1,0,0,1,92,35a2.2,2.2,0,0,1-.56-.1,2.6,2.6,0,0,0-.56-.09h-.06l-.18-.31-.74-.18a7.77,7.77,0,0,1-.87-.25c-.29-.08-.41-.53-.37-1.36a1.18,1.18,0,0,1-.31-.12A3.59,3.59,0,0,0,88,32.4l.46-.15a2.68,2.68,0,0,0,.4-.16,1.14,1.14,0,0,1-.31-.31l.44-.12a2.84,2.84,0,0,1-.25-.68c-.12-.41-.23-.72-.31-.93A.81.81,0,0,0,88.6,30a1.58,1.58,0,0,1,.31-.09l.27,0a.35.35,0,0,0-.06-.16.29.29,0,0,1-.06-.15l.93-.31-.43-.37v-.12a7.18,7.18,0,0,1,1,.09,7.19,7.19,0,0,0,.81.09v.13h-.07l-.21.09a.82.82,0,0,0-.19.09c-.06,0-.07.1,0,.19s.5.37,1.36.37a9.79,9.79,0,0,0,1.05-.06,13.17,13.17,0,0,0,1.42-.44l.19.62h-1a.84.84,0,0,0,.52.28,1.25,1.25,0,0,0,.59-.09,1.31,1.31,0,0,1,.5-.13,4,4,0,0,0,2.16-.49,3.88,3.88,0,0,1,2-.62s0,.1-.12.19l-.25.24c.79-.24,1.22-.37,1.3-.37a3.28,3.28,0,0,1,.31-.62Z"/><path class="cls-1" d="M113.65,27a4.81,4.81,0,0,1,.09,1c0,.61.09.92.22.92a.94.94,0,0,0,1-.37,4.77,4.77,0,0,0,.81-.43,1.94,1.94,0,0,1,1.54-.43c-.2.16-.27.25-.21.25a1.7,1.7,0,0,0,.31,0,.57.57,0,0,1,.27,0s0,.1-.06.22l-.37.19h.06q1.17-.32,1,.3a.18.18,0,0,1-.06.13c.33,0,.53,0,.62.12a1.37,1.37,0,0,1,.12.68c-.29.25-.36.38-.22.4a1.31,1.31,0,0,0,.53-.06c.21-.06.32-.05.34,0a.47.47,0,0,1-.06.31c-.06.12,0,.19,0,.19.25,0,.39,0,.43,0s0,.12-.22.24a3.14,3.14,0,0,1-.83.37,17.76,17.76,0,0,0-1.79.81,2.49,2.49,0,0,1-1.08.83,3.33,3.33,0,0,0-1.08.71,10.67,10.67,0,0,1-.87.9,7,7,0,0,0-.83.89,2.16,2.16,0,0,1-1,.62,2.53,2.53,0,0,0-1,.74,1,1,0,0,1-.83.44c-.35,0-.61-.23-.78-.68-.74,0-.88-.4-.43-1.18l-.43-.18c-.7-.25-1-.5-.74-.74a4.2,4.2,0,0,1,.12-.65c.08-.35,0-.53-.18-.53,0-.16.28-.49.86-1s.74-1,.5-1.48v-.8a3.81,3.81,0,0,0-.25-1.49,3.35,3.35,0,0,1-.13-.92,3.44,3.44,0,0,1,.19-1,3.33,3.33,0,0,0,.25-1.67c-.42-.21-.56-.4-.44-.59s.31-.21.56-.09a3.3,3.3,0,0,1,.25,1.27q.06,1,.06,1.2V24.06a5.23,5.23,0,0,1,.18-1.85,3.24,3.24,0,0,0-.18-1.55h-.06a1.68,1.68,0,0,0,.06.31,4.08,4.08,0,0,1,0,1c0,.52-.19.63-.43.34v-.68c0-.45,0-1-.06-1.67a19.64,19.64,0,0,1-.19-2.07c0-.34,0-.88.12-1.6a2.53,2.53,0,0,0-.06-1.39c.08-.29.17-.25.25.12a3,3,0,0,0,.49-2,9.79,9.79,0,0,0-.06-1.05,6.11,6.11,0,0,0-.06-1.39c-.08-.73,0-1.17.12-1.33.29,1.11.39,1.29.31.55-.16-.33-.21-.49-.15-.49s.18.08.37.25.29.63.31,1.42a13.07,13.07,0,0,0,.15,1.85,35.29,35.29,0,0,1,.19,3.77v1.42c0,1.69,0,3.42-.13,5.19,0,.49.11,1.75.31,3.77a6.3,6.3,0,0,0-.18,1.6,4.18,4.18,0,0,0,.06.68c0,.91.06,1.49.06,1.73L111.55,17a2.75,2.75,0,0,1,.18,1.42l.06,1.3c0-1.69.07-3.07.07-4.14,0-1.28,0-2.1-.07-2.47a9,9,0,0,1-.12-1.43,3.66,3.66,0,0,1,.06-.68,8,8,0,0,0,0-1.42c.29,0,.48.19.56.68s.06.89.06,1.18a13.26,13.26,0,0,1,0,1.85c0,.95.08,1.53.37,1.73l.13.49a1,1,0,0,0,0-.86,1.29,1.29,0,0,0-.34-.56,6,6,0,0,0,.13-1.29,7.9,7.9,0,0,0-.25-2c.12-.62.25-.64.37-.06a2.88,2.88,0,0,1,.13.74,10.43,10.43,0,0,0,.06,1,9.53,9.53,0,0,0,.31,2.35,3.24,3.24,0,0,0-.19,1.36q0,.5.06,1.11.06,1.55.06,2.22L113,21.16c0,.62,0,1.42.12,2.41.17,2.18.25,3.44.25,3.77v.37Zm-4.57-6.12.06.12c.08.38.1.58.06.62s-.1,0-.19-.21A.49.49,0,0,1,109.08,20.91Zm.74-5.44.06,1.8a4.74,4.74,0,0,1,0,1.11v.74a.62.62,0,0,0,.12-.19,6.38,6.38,0,0,1,.06-1.91,6.38,6.38,0,0,0,.13-1.24,1.88,1.88,0,0,0-.13-.74C109.94,15.54,109.86,15.68,109.82,15.47Zm1.6-3.52a2.32,2.32,0,0,1,.19,1.05,7.75,7.75,0,0,1-.06.93c-.13,0-.2-.31-.22-.8A4,4,0,0,1,111.42,12Zm1,3.65v2l.13-1A2.63,2.63,0,0,0,112.47,15.6Zm1.61,7.47v3a12,12,0,0,1-.25-2A1.48,1.48,0,0,1,114.08,23.07Zm.74,9.08h-.25l-.18.07-.37.24C114.14,32.55,114.41,32.44,114.82,32.15Zm1.67-1a2.65,2.65,0,0,0-.74.43l.68-.31Zm1,.86c-.11,0-.06-.08.12-.25a1.3,1.3,0,0,1,.65-.3,1.17,1.17,0,0,0,.43-.13c.17-.37.49-.48,1-.34s.46.34,0,.59a3.24,3.24,0,0,1-.43.25c-.91.41-1.36.43-1.36.06A.67.67,0,0,1,117.45,32Z"/><path class="cls-1" d="M138.42,31.85a8.49,8.49,0,0,1-1.36-1.3l.13-.13.43.31c0-.57-.09-1.4-.13-2.47h-.18c0,.41-.06.66-.06.74A9.14,9.14,0,0,1,137,28c-.29.13-1.09.45-2.41,1a11.63,11.63,0,0,0-2.9,1.51s-.06-.1-.16-.18a.68.68,0,0,1-.21-.25c0,.17-.11.4-.19.71a5.18,5.18,0,0,1-.22.71,3.5,3.5,0,0,1-.27.56,2.7,2.7,0,0,1-.37.49c-.29.25-.43.46-.41.62s.2.35.53.56.53.51.25.8l-.37.19a3.51,3.51,0,0,1-.07-.44,1.5,1.5,0,0,1,.07-.31l-.31-.15-.31-.15c.08.53.12.82.12.86,0,.21-.06.33-.18.37a2,2,0,0,0-.56,1.27,4.51,4.51,0,0,1-.31,1.2c-.08.17-.55.25-1.42.25l-.37-.37-.56-.12c0,.28-.23.37-.58.24a1.22,1.22,0,0,0-.65-.12,6.58,6.58,0,0,1-.5-.8,1.86,1.86,0,0,0,.16-.68,7.16,7.16,0,0,0,.09-.93c0-.33-.08-.54-.25-.62a3.51,3.51,0,0,0,0-.37,3.59,3.59,0,0,1,0-.43.5.5,0,0,1,.19-.37.21.21,0,0,0,.06-.16,1.8,1.8,0,0,0,0-.27,2.11,2.11,0,0,1,0-.31s0-.31.12-.81a2.68,2.68,0,0,1-.4.16l-.46.15a1.06,1.06,0,0,0,.09-.52c0-.15-.14-.24-.34-.28a2.57,2.57,0,0,0-.31-.87l.15-.18a1.17,1.17,0,0,0,.16-.25,5.12,5.12,0,0,1-.62.13c0-.13-.11-.49-.22-1.09a3.14,3.14,0,0,0-.46-1.32,1.16,1.16,0,0,1,.87-.68,11.86,11.86,0,0,0,2.41-1.05,5.35,5.35,0,0,1,.55-.81,1.78,1.78,0,0,0,.13.5.78.78,0,0,0,.09-.37.93.93,0,0,1,.15-.47,1.22,1.22,0,0,1,.37-.27c.13-.05.17-.17.13-.38a1.16,1.16,0,0,1-.07-.37,2,2,0,0,1,.1-.55,2.85,2.85,0,0,1,.31-.68c.14-.25.23-.41.27-.5a4.35,4.35,0,0,1,.5-.8l.18-.12a6.21,6.21,0,0,1,.13-1.24,5.36,5.36,0,0,1,.4-.92,3.72,3.72,0,0,0,.4-1.18,3.26,3.26,0,0,1-.62-.06c.5-1.36.78-2.14.87-2.35a17.13,17.13,0,0,1,.68-4.08,5.05,5.05,0,0,1,1.54-2.59l-.18-.19q.62-1.41,1.05-2.22a2.12,2.12,0,0,1,.62-.93,3.22,3.22,0,0,1,1.72-.68l.25.31V4.11l.56.55.62-.37.74-.43s0,.31.06.8a.52.52,0,0,1,.28-.09,1.28,1.28,0,0,0,.34-.09.47.47,0,0,0-.07-.31A3.57,3.57,0,0,1,139.1,5.9a11.29,11.29,0,0,1,.43,2.47l-.37-.31c.12,1.2.37,2.88.74,5.07l.25.49h.12a3.12,3.12,0,0,1,.13.93q0,.38-.06,1a.17.17,0,0,0,.12.06,1.7,1.7,0,0,0,.06-.5,1.09,1.09,0,0,1,.06-.43h.19c.08,1,.12,1.53.12,1.61a3,3,0,0,1-.09.68,2.53,2.53,0,0,0-.09.55.86.86,0,0,0,.31.62,2.52,2.52,0,0,0-.31,1.55,1,1,0,0,0,.09.34,2,2,0,0,1,.12.34.85.85,0,0,1,0,.37v.55l.19.06V20.17a1,1,0,0,1,.24-.06l.13.55a1.39,1.39,0,0,0,.09.87,1.83,1.83,0,0,0,.83.37,9.15,9.15,0,0,1-.68.74,4.24,4.24,0,0,1,.65-.09l.59,0v.12l-.4.22a5.17,5.17,0,0,0-.46.27c.24.05.51.11.8.19-.13.08-.31.2-.56.34a3.54,3.54,0,0,1-.55.28l1.2-.16q.78-.09,1.08-.15a.05.05,0,0,1,.06.06v.12a4.47,4.47,0,0,1-.55.16l-.56.15a4,4,0,0,1,.37.5l.56-.13a6.44,6.44,0,0,0-1.61,1.18c-.62.58-1,.9-1.05,1l-.12-.19-.06.25c-.25.08-.27.22-.06.43l.06.56h.06c0,.12,0,.32,0,.58s0,.47,0,.59a4.92,4.92,0,0,0,.06.8c.12.79.31,1.69.55,2.72a7.57,7.57,0,0,0,.31.93,7,7,0,0,1,.31.86q.56,2,1.05,4.14a3,3,0,0,1,.25.34.52.52,0,0,1,.06.53,1.41,1.41,0,0,0-.18.37c-.05,0-.12,0-.22-.16a1.13,1.13,0,0,0-.28-.21,3.18,3.18,0,0,0-.12.74l-.68-.68a2.11,2.11,0,0,1,0,.31,1.26,1.26,0,0,1-.09.31c0-.13-.17-.42-.38-.87,0,.21-.08.47-.12.77a2.44,2.44,0,0,1-.12.59c-.42-.29-.68-.23-.81.19,0-.09-.16-.42-.37-1a7.19,7.19,0,0,1-.31.86,2.3,2.3,0,0,1-1-1.67,4.41,4.41,0,0,0-.68-2.22,1.11,1.11,0,0,1-.28-.43c-.06-.17-.12-.37-.19-.62a2.69,2.69,0,0,0-.15-.49.52.52,0,0,1,.25-.13l.43.19a11.38,11.38,0,0,1,.8,2h.25a2.94,2.94,0,0,0-.74-2,1,1,0,0,1-.25-.74,4.48,4.48,0,0,1,.09-.74,4.85,4.85,0,0,0,.1-.75c0-.45-.13-.57-.38-.37l-.3-.06A.89.89,0,0,1,138.42,31.85Zm-13.78,2.34c-.12.58-.24,1.18-.37,1.79a.05.05,0,0,1-.06-.06V33.76c.13,0,.19.08.19.25S124.48,34.23,124.64,34.19Zm0-.06-.06.06ZM130.82,12a3.5,3.5,0,0,0-.55,1.79,5.14,5.14,0,0,0,.12,1.06c.12-.29.28-.69.46-1.21s.32-.9.4-1.14Zm4.7,2.41c-.41,1.86-.66,2.93-.75,3.22a6.78,6.78,0,0,1-.27.77,5.6,5.6,0,0,0-.28.77,11.8,11.8,0,0,0-.25,1.36c.21,0,.31,0,.31.12a1.79,1.79,0,0,1-.31.62,2.14,2.14,0,0,0,0-.25.46.46,0,0,0-.09-.24,14,14,0,0,0-.87,2.53c-.12.45,0,.53.5.25l.62-.31h.12a2.79,2.79,0,0,0,1.2-.37,5.38,5.38,0,0,1,1-.44,1.29,1.29,0,0,0,.81-.74,4.86,4.86,0,0,0,.06-1.17l-.22.34A.52.52,0,0,0,137,21h-.19c-.12-1-.26-2.47-.43-4.32l-.06.12a9.49,9.49,0,0,1-.43-1.29c-.21-.41-.27-.68-.19-.81v-.37h-.18Zm.74-2v2.85l.62-.25V13.56A10.51,10.51,0,0,1,136.26,12.32Zm.8,3.28h-.12c0,1,.08,1.81.12,2.35a1.63,1.63,0,0,0,.37-1A6.47,6.47,0,0,0,137.06,15.6Zm1.55-4.82h-.25c-.09,1-.13,1.44-.13,1.48,0,.25.13.72.25,1.42a9.61,9.61,0,0,1,.19,1.67,6.81,6.81,0,0,1,.06.93c0,.58,0,1.38-.06,2.41s-.06,1.69-.06,2V21a.36.36,0,0,0,.06.25h.24c.13-2.18.19-3.62.19-4.32a19.74,19.74,0,0,0-.19-2.91,3.35,3.35,0,0,1,.31.56,3.88,3.88,0,0,0-.06-.74l-.31-.25c0-.21,0-.64-.09-1.3S138.65,11.11,138.61,10.78Zm.49.74h-.25c.09.5.19,1.26.31,2.29a6.22,6.22,0,0,0,.12-1.18A3.23,3.23,0,0,0,139.1,11.52Zm0,18.1h-.19c0,.21.27,1,.68,2.41a.25.25,0,0,0,.19-.06c-.08-.29-.21-.71-.37-1.27S139.14,29.79,139.1,29.62Zm1.05,3.71H140l.81,3.09a.46.46,0,0,1,.18-.06C140.58,35,140.31,34,140.15,33.33Zm.06-22.06c0,.17.11.43.22.78a3.12,3.12,0,0,1,.15.77,1.21,1.21,0,0,1-.31.8h-.12c-.08-1.32-.12-2.1-.12-2.35h.18Zm.93,16.44.18.06c0,.29.15.82.31,1.6l-.18.07a4.46,4.46,0,0,1-.16-.75C141.23,28.28,141.18,28,141.14,27.71Z"/><path class="cls-1" d="M153.31,28.14c.12,0,.2-.1.25-.31a1,1,0,0,0,.06-.25c.24.42.43.74.55,1,.62-1,1-1.63,1.12-1.79a.57.57,0,0,0,.09.28,2.6,2.6,0,0,1,.15.28.57.57,0,0,1,.13-.25,2.12,2.12,0,0,1,.18-.25h.06a7.51,7.51,0,0,0-.3,1.18h.18a8.5,8.5,0,0,0,.49-1.49,3.13,3.13,0,0,0-.12-.71,3,3,0,0,1-.12-.65.64.64,0,0,1,.49-.61c-.12-.17-.06-.44.19-.81a7.35,7.35,0,0,0,.61-1.23.26.26,0,0,0,.07-.19c0-.2.16-.24.37-.12l.24-.56a3.18,3.18,0,0,1-.06-.62,4,4,0,0,1,.43-1.54c0,.08.11.19.19.31a13.23,13.23,0,0,1,.49-1.48s.1-.16.28-.34a6.3,6.3,0,0,0,.5-.56c.14-.18.19-.3.15-.34a.69.69,0,0,1-.12-.86,1,1,0,0,0,.12-.37,4,4,0,0,1,.37-1.18,2.69,2.69,0,0,1,.28-.59.38.38,0,0,1,.28-.09s.1-.08.18-.25a.41.41,0,0,0,.06-.37,2.7,2.7,0,0,1-.06-.4c0-.06.07-.16.22-.31s.21-.23.21-.27a7.83,7.83,0,0,0,.62-1,5.16,5.16,0,0,1-.18,1.26c-.13.48-.27.74-.44.78,0,.33,0,.78-.06,1.36h.06c.13-.33.34-1,.65-2s.55-1.8.71-2.38a.43.43,0,0,1-.12-.31,1.74,1.74,0,0,1,.31-.93,2.1,2.1,0,0,1,.74-.74c0,.13,0,.39.06.8l.22-.21a1,1,0,0,1,.28-.22c0,.41-.11.93-.19,1.55h.13a1.84,1.84,0,0,1,.06-.31,2.85,2.85,0,0,1,.12-.4,3.45,3.45,0,0,1,.16-.37.7.7,0,0,1,.21-.31.52.52,0,0,1,.31-.1c.62,0,.93.42.93,1.24,0,0-.06.11-.16.22s-.15.17-.15.21a1,1,0,0,0-.13.93,4.68,4.68,0,0,1,.25,1.61c0,.2-.27.55-.8,1a.52.52,0,0,0-.16.34,2.62,2.62,0,0,0,0,.37c0,.1,0,.24,0,.43s0,.32,0,.4a.81.81,0,0,0,.31-.19q-.06.31-.24.93c-.13.41-.23.73-.31,1a4.78,4.78,0,0,1-.4.77,2.78,2.78,0,0,1-.71.74,2.3,2.3,0,0,0-.07-.55.83.83,0,0,0-.46.46,2.08,2.08,0,0,0-.09.65c0,.25,0,.39-.06.43l.24.56a10.68,10.68,0,0,0-.37,2,1.08,1.08,0,0,1-.18.5,4.48,4.48,0,0,0-.25.43c-.08.25-.22.61-.4,1.08s-.32.84-.4,1.08a1.51,1.51,0,0,1-.22.31,2.42,2.42,0,0,1-.22.25c-.08.21-.35.86-.8,2l.19,0a.38.38,0,0,1,.18.09l-.12.06a1.14,1.14,0,0,0-.62,1.24.53.53,0,0,1-.06.24.5.5,0,0,1-.19.22l-.21.15a2,2,0,0,1-.53.19v-.43h-.12c-.08.37-.15.66-.19.86l-.55.19.12.18a.81.81,0,0,0,.22-.06.64.64,0,0,0,.21-.12q-.18,1-.18,1.05a1.11,1.11,0,0,0-.43,1.11.59.59,0,0,1,0,.37,2.92,2.92,0,0,0-.13.46,2.2,2.2,0,0,0-.06.41,1,1,0,0,1,.06.24.7.7,0,0,0-.09.34,1.47,1.47,0,0,1-.12.47,2.12,2.12,0,0,1-.28.37,5.15,5.15,0,0,0,.12,1.85l-.18.06a1.72,1.72,0,0,1-.13-.43.17.17,0,0,0-.12.06q.31.93.12.93a6.21,6.21,0,0,0-.58.24,3.56,3.56,0,0,1-.65.25,3,3,0,0,1-.59-.09,2.13,2.13,0,0,0-.68-.06.61.61,0,0,0-.46.4c-.09-.17-.25-.18-.5,0s-.41.09-.49-.16a2.27,2.27,0,0,0-.56-1.05l-.18.37c-.13-.41-.23-.78-.31-1.11-.17.08-.25.17-.25.25a2.74,2.74,0,0,0,.12.55c.13.38.25.75.38,1.12a5.37,5.37,0,0,1-.56-.19.49.49,0,0,0-.06.19l-.06-.07a.92.92,0,0,0,0-.55,2.25,2.25,0,0,0-.3-.53,1.52,1.52,0,0,1-.28-.46,3,3,0,0,1-.06-.68c0-.08,0-.25,0-.49s0-.44,0-.56a2.05,2.05,0,0,0-.06-.49,1.21,1.21,0,0,0-.07.24H151V34a1.19,1.19,0,0,1,.19-.37c.24.16.41.27.49.31.08-.46.14-.78.19-1s0-.28,0-.28a2,2,0,0,1-.53-.62,6.78,6.78,0,0,1-.43-.89c-.15-.35-.26-.61-.34-.78s-.17-.28-.37-.61c.16-.5.22-.76.18-.81v-.37a5,5,0,0,1,.07-.77,5.83,5.83,0,0,0,.06-.65,1.57,1.57,0,0,0-.13-.62,4.49,4.49,0,0,0-.12.87.45.45,0,0,0-.19-.06c0-.37,0-.58-.12-.62,0,.25-.1.37-.18.37s-.19-.46-.44-1a5.22,5.22,0,0,1-.43-1.33,4.7,4.7,0,0,1,.06-.52c0-.27,0-.42,0-.47-.12-.45-.33-1.14-.62-2.06s-.51-1.68-.68-2.26-.35-1.29-.55-2.13-.37-1.62-.5-2.32a2,2,0,0,1,0-.4,2.36,2.36,0,0,1,.15-.52,1.53,1.53,0,0,0,.12-.5c.09.21.19.43.31.68a1.2,1.2,0,0,1,.19-.43q.12,0,.12.06,1.17,3.41,1.73,5.62Q151,26.35,151,26.47a7.48,7.48,0,0,0,.37.93q-1.49-6.79-1.54-7c-.09-.38-.28-1.09-.59-2.14s-.54-1.94-.68-2.68a17,17,0,0,1-.28-2.23,1.93,1.93,0,0,0,.13.31c.08-.12.18-.27.31-.43l.12.25a.46.46,0,0,1,.06.18l.34-.31a1.83,1.83,0,0,1,.34-.24,5.12,5.12,0,0,1,.43,1,.56.56,0,0,0,.13.24.43.43,0,0,1,.09.31c0,.08-.11.15-.28.19a36.78,36.78,0,0,1,2.1,6.3v.4c0,.19,0,.3.06.34.13.29.31.68.56,1.17l.49,1L153,24l-.16,0a2.64,2.64,0,0,0,.44,1.79,1.08,1.08,0,0,1-.06.93,2,2,0,0,0-.07.43,2.14,2.14,0,0,0,.1.49A2.77,2.77,0,0,1,153.31,28.14ZM148.8,15.23a.55.55,0,0,0-.19.06c.21.74.35,1.32.44,1.73a.46.46,0,0,0,.18-.06C149.15,16.55,149,16,148.8,15.23Zm.62,14.52a.94.94,0,0,0,.18.24l.19.19a1.84,1.84,0,0,1,.06-.31q.06.43.12,1.05a.46.46,0,0,1-.18.06c-.21-.49-.37-.86-.5-1.11a.17.17,0,0,0,.1,0A.12.12,0,0,0,149.42,29.75Zm1.29,1.91c0,.12,0,.34,0,.65a4.32,4.32,0,0,0,.09.71h-.31a.74.74,0,0,1-.12-.31c0-.16-.08-.29-.1-.37a.47.47,0,0,1,.06-.31A1.27,1.27,0,0,1,150.71,31.66Zm.93-2.78a.46.46,0,0,0-.18.06q.12.31.3,1c.13.45.23.78.31,1a.17.17,0,0,0,.1,0,.12.12,0,0,1,.09,0c-.08-.21-.19-.54-.31-1S151.72,29.09,151.64,28.88Z"/><path class="cls-1" d="M177.9,11.71a2.34,2.34,0,0,1,.15.68c0,.24,0,.38-.09.4s-.13-.14-.13-.47A1.48,1.48,0,0,1,177.9,11.71Zm.12,5.06a.76.76,0,0,1,.37.5.42.42,0,0,1-.09.43c-.11.08-.2,0-.28-.28A.9.9,0,0,1,178,16.77Zm.62.74h.12c.25.29.6.76,1.05,1.39a17.09,17.09,0,0,0,1.05,1.39c.25.54.14.58-.31.13a1.91,1.91,0,0,1-.43-.44c-.21-.24-.21-.2,0,.13s.3.4.15.46-.27,0-.4-.25a1.88,1.88,0,0,0-.25-.4c-.37,0-.67-.36-.89-1A1.87,1.87,0,0,1,178.64,17.51ZM189.76,23c-.83-.37-1.22-.66-1.18-.86a2.68,2.68,0,0,1-1.64-.53,2.91,2.91,0,0,0-1.45-.59c.42.29.27.56-.43.81a2.08,2.08,0,0,1-.62.12,6.78,6.78,0,0,1-3.76-2.16,7.42,7.42,0,0,1-1.86-3.4,8.19,8.19,0,0,1-.18-1.67,6.89,6.89,0,0,1,.37-2.22,5.87,5.87,0,0,0,.49-.74c.29-.5.47-.5.56,0-.09-.21.09-.63.52-1.27s.79-1,1.08-1a1.13,1.13,0,0,0-.21.59c0,.1.15,0,.4-.47a12,12,0,0,1,1.05-.77c.41-.27.62-.32.62-.15l-.31.37a11,11,0,0,1,1.23-.81c.46-.12.56-.06.31.19a2.7,2.7,0,0,1,1.64-.49c.76,0,1.21-.08,1.36-.1s.21,0,.21.06-.08.1-.24.1l1.85.18c.41-.2.63-.18.65.06a.45.45,0,0,1-.37.5.73.73,0,0,1-.59,0,11.51,11.51,0,0,0-1.91-.19,3.87,3.87,0,0,0-2,.44H185a3.46,3.46,0,0,0-2.41,1.29c-.33.29-.5.34-.52.16s.13-.4.46-.65c-.29,0-.89.82-1.79,2.35l1-1.12a3.18,3.18,0,0,1,.8-.55,8,8,0,0,1,4.26-1.18c.37,0,.78,0,1.24.07a6.94,6.94,0,0,0,.8.24l.68.19s-.06-.1-.18-.19a1.49,1.49,0,0,1,1.29-.06,3.23,3.23,0,0,1,1.33.62c.27.25.37.39.31.43a1.67,1.67,0,0,1-.31.16q-.21.09-.15.27a1,1,0,0,1-.93.41l-1.33-.25a2.72,2.72,0,0,0-1.2,0,2.93,2.93,0,0,1,1.2.21,2.57,2.57,0,0,0,1.08.22c.17,0,.49.1,1,.43a6.11,6.11,0,0,1,1,.78l.55.61a3.69,3.69,0,0,1,.37.44c0,.06.15.21.31.46s.24.42.22.52a3,3,0,0,0,0,.5c0,.23,0,.35-.12.37a.37.37,0,0,1-.28-.06c-.1-.06-.2,0-.28.15a1.09,1.09,0,0,1-.15.43c-.07.09-.14.11-.22.07a1,1,0,0,1-.25-.19l-.31-.34a1.06,1.06,0,0,0-.31-.28c-1-1.6-2.12-2.41-3.39-2.41h-.19l-.9,0c-.43,0-.81,0-1.14,0A1.12,1.12,0,0,1,185.19,12a1.68,1.68,0,0,0-1.36.4c-.33.31-.6.56-.81.77a2.74,2.74,0,0,0-.37.43c-.25,0-.38.08-.4.12s0,.12.12.22a.79.79,0,0,1,.22.4c-.29.21-.33.36-.12.47s.24.23.12.4c-.16-.13-.26-.14-.28,0a1.31,1.31,0,0,0,0,.46.57.57,0,0,1,0,.43c-.06.09-.19,0-.4-.12.12.41.31.51.56.31s.3-.37.18-.5a.48.48,0,0,0,.37.1,2.81,2.81,0,0,1,.43,0c.17.45.3.43.41-.07s.21-.76.34-.8.26,0,.43.25c.08-.25.25-.29.49-.13s.44.11.56-.18a4.08,4.08,0,0,0,2,2.9c.16.13.2.19.12.19h-.25l-.25.06.19.18c-.12.21,0,.44.28.68s.38.4.21.44l-.43-.13a1.69,1.69,0,0,0,1.05.44A15.43,15.43,0,0,1,191.52,21c.92.54,1.56.89,1.91,1.05a5.92,5.92,0,0,1,.65.34,5.66,5.66,0,0,0,.56.34,3.7,3.7,0,0,1,.62.43,4,4,0,0,1,.86,1.43c.12-.37.27-.44.43-.19,0,.37,0,.56.06.56s.13-.17.25-.5c.12,0,.24.08.34.34s.17.49.22.65a2.31,2.31,0,0,1,0,1c-.29,0-.46.25-.5.62s0,.55,0,.55.14-.06.22-.18c.12.12,0,.7-.25,1.73-.08.12-.33.44-.74,1a2,2,0,0,0-.58,1.29,1.22,1.22,0,0,1-.38.93,4.59,4.59,0,0,1-1.14.8,6.87,6.87,0,0,0-1,.65,5.93,5.93,0,0,1-1.27.71,4.46,4.46,0,0,0-1.42,1,5.71,5.71,0,0,1-2.65.49q-.5,0-1.11-.06a3.53,3.53,0,0,0-1.64-.31,6.33,6.33,0,0,1-1.7-.18,2.36,2.36,0,0,1-1.61-.4c-.41-.31-.76-.57-1-.77a14.85,14.85,0,0,1-1.29-1.36q-.87-1,0-.93l-.44-.87a.78.78,0,0,1,.13-.74c.37.13.61.06.74-.18s-.06-.43-.56-.43c0-.62.41-.93,1.24-.93a2.88,2.88,0,0,1,.55.06,3.82,3.82,0,0,0,1.18-.06,1,1,0,0,1,1.23-.56,2.11,2.11,0,0,1,1.18,1,2.36,2.36,0,0,0,1.85.74,6,6,0,0,0,1.61-.24,1.91,1.91,0,0,1,1.6-.22,2.31,2.31,0,0,0,1.67-.15c.13-.17.64-.25,1.55-.25l-.07-.06c-.08-.37.21-.56.87-.56s.88-.29.68-.74h.12c.7-.16.82-.41.37-.74a1,1,0,0,1-.43,0c-.17,0-.25,0-.25,0s0,.15.06.4c-.2.12-.33.15-.37.06a1.55,1.55,0,0,1-.09-.49.87.87,0,0,0-.15-.5q.06-.24,0-.24c-.13.12-.21.12-.25,0s-.36-.38-.83-.9-.84-.87-1.08-1.08q-.26.55-.75.06a.23.23,0,0,1,0-.21c0-.11-.1-.24-.37-.41l-.77-.46c-.25-.14-.29-.28-.12-.4Zm-8.59-12.42a1.36,1.36,0,0,0-.68,1.18C180.65,11.42,180.88,11,181.17,10.53ZM184.51,22l.18.06a17.9,17.9,0,0,1,3.71,1.3c.45.25.55.37.31.37a2.87,2.87,0,0,1-1.24-.37c-.33.12-.57.13-.71,0s-.18-.16-.09-.18a.85.85,0,0,1,.37,0,9.31,9.31,0,0,0-1.11-.5A5.47,5.47,0,0,1,184.51,22Zm1.17-2.53h-.19l-.18.18a.56.56,0,0,1,.49.34.89.89,0,0,0,.37.41,4.47,4.47,0,0,0,2.1.61c.29-.16.62-.08,1,.25.74.54,1.17.76,1.27.68s0-.22-.19-.4l-.4-.34a.82.82,0,0,1,.74.34c.25.27.48.37.68.31s.2-.16,0-.28-.53-.28-.92-.46-.72-.34-1-.47-.57-.25-1-.4-.91-.3-1.55-.46S185.88,19.47,185.68,19.43Zm.25-6.36a.74.74,0,0,0,.37.09,1.41,1.41,0,0,1,.43.09.59.59,0,0,1,.43.49c.37-.08.56,0,.56.19s-.27.21-.56.12a1.67,1.67,0,0,1-1.3-.34C185.41,13.4,185.43,13.19,185.93,13.07Zm.49,9h.19l.61.31C186.4,22.25,186.13,22.15,186.42,22Zm.5-9.63a3.78,3.78,0,0,0,1.42.24,1.13,1.13,0,0,0-.47-.09A6.79,6.79,0,0,1,186.92,12.39Zm1.23,17.79-.19.06c-.33,0-.51,0-.55.12h.49A.38.38,0,0,0,188.15,30.18Zm-.62-7.91c.87.12,1.26.31,1.18.56a.5.5,0,0,0-.47,0,.56.56,0,0,1-.4,0c.17-.09.18-.16,0-.22A.66.66,0,0,1,187.53,22.27Zm.68-13.59.25.06c.08,0,.07.09,0,.16s-.32,0-.65-.1C187.66,8.76,187.8,8.72,188.21,8.68Zm.19,10.38c1.93.53,3,1.11,3.27,1.73A9.7,9.7,0,0,1,188.4,19.06Zm.24-7.6.19.12.43.06Zm2.54-2.78c-.46,0-.72,0-.81-.16s-.05-.16.1-.18a.57.57,0,0,1,.37.06,2.88,2.88,0,0,0,.46.22C191.51,8.7,191.46,8.72,191.18,8.68Zm2.65,4.45c.17-.58.38-.61.65-.1s.35.79.25.81-.25-.07-.43-.28-.29-.28-.31-.22.09.28.34.65c-.17.13-.36,0-.59-.31s-.44-.66-.65-1A.8.8,0,0,1,193.83,13.13ZM193.09,34a2.63,2.63,0,0,1,.37-.25h.19c0,.12,0,.23-.22.31S193.13,34.13,193.09,34Zm3.4-3.65-.12.25c-.21.41-.35.58-.43.49s-.1-.27.09-.46A.78.78,0,0,1,196.49,30.36Z"/><path class="cls-1" d="M209.46,34.63l-.27.21-.34.25a1.7,1.7,0,0,1-.38.18,1.23,1.23,0,0,1-.49.1v.12a2.09,2.09,0,0,0-.43-.18c-.21-.05-.35-.29-.44-.75a20.33,20.33,0,0,1-.24-2.59.54.54,0,0,1,.15-.31.66.66,0,0,0,.16-.25q.06-1.72.12-2.22l-.19-.06a2,2,0,0,1,0,.28,1.52,1.52,0,0,0,0,.27,1.71,1.71,0,0,1,.19-1.73c.12-.12.08-.39-.13-.8,0,.12-.08.26-.12.4s-.09.3-.15.47a1.23,1.23,0,0,0-.09.43c-.17-.17-.23-.25-.19-.25a3.34,3.34,0,0,0,.06-.65,8,8,0,0,0-.09-1,7.82,7.82,0,0,1-.09-1,2.19,2.19,0,0,1,.06-.61,4.64,4.64,0,0,0,.25-1.3,4.09,4.09,0,0,1,.12-1,2.35,2.35,0,0,1,.12-.52l.16-.56a.62.62,0,0,0-.1-.4,4.49,4.49,0,0,0-.12.74,2.32,2.32,0,0,0-.59-.34.72.72,0,0,1-.46-.71c.12.08.27.16.43.25a1,1,0,0,1,0-.25,1,1,0,0,0,0-.22v-.15a1.61,1.61,0,0,0,.68-1.61.79.79,0,0,1,0-.49,2.76,2.76,0,0,1,.15-.43v-1.8a1.27,1.27,0,0,0-.13.22.4.4,0,0,1-.18.22v-4.2c0-.29-.08-.44-.12-.44a4.38,4.38,0,0,0-1.86-.24c-.33.16-.53.22-.61.18a.79.79,0,0,0-.47-.15,2.23,2.23,0,0,0-.43.15l-.46.19a1.28,1.28,0,0,1-.34-.06,1.13,1.13,0,0,0-.34-.07c-.21,0-1,.15-2.23.31a.46.46,0,0,0-.06-.18l.8-1a4.18,4.18,0,0,0-.68-.06,1.62,1.62,0,0,0-.06-.37,1.8,1.8,0,0,1-.06-.37l1.24-.19a2.3,2.3,0,0,0-.37-.12,1.08,1.08,0,0,1-.34-.13l-.28-.18a.57.57,0,0,1-.25-.31,1.44,1.44,0,0,1-.06-.43c.12,0,.39-.17.8-.37l-.8-.07L200.6,8a2.29,2.29,0,0,1,.59-.34,6.9,6.9,0,0,1-.68-.12V7.32h.18l.06-.06h.31l.06-.06h.25l.06-.07h.25l.06-.06h.31l.06-.06h.31l.06-.06h.13c.08.33.33.46.77.4a2,2,0,0,1,.77,0l.25.31c.29,0,1.07,0,2.35-.12a6.42,6.42,0,0,1-.44-.5h.56a3.88,3.88,0,0,1,1.36.25,2.53,2.53,0,0,0,.8.12l.65,0a1.67,1.67,0,0,0,.52-.09c.46,0,1,0,1.61.06,0,0,.14.12.31.37h6.73a.25.25,0,0,0-.06.19c-.12.37-.31.57-.55.61l.92.19-.28.25-.34.3a1.09,1.09,0,0,0,.31.31,2.78,2.78,0,0,1-.52.13,4.38,4.38,0,0,0-.53.12,2.6,2.6,0,0,1,.56.09,2.2,2.2,0,0,0,.56.1,2.87,2.87,0,0,1,.18,1c0,.34-.18.48-.56.44a.44.44,0,0,0,.25.18.72.72,0,0,1-.55.19,4.49,4.49,0,0,1-.68-.09,3.84,3.84,0,0,0-.71-.1.77.77,0,0,0-.34.06,9.65,9.65,0,0,1-3.09.56h-.5l-.37-.62c.08.41-.14.68-.68.81h-.12v5.37h-.19a1,1,0,0,1-.06-.25.79.79,0,0,0-.24.56,1.85,1.85,0,0,0,.12.62,2,2,0,0,1,.12.55,6.47,6.47,0,0,1-.06.74c0,.33-.06.56-.06.68,0,.37,0,.93.06,1.67a1.84,1.84,0,0,0-.37-.37q0,.12-.06,1c0,.55-.06,1-.06,1.27a7,7,0,0,0,.18,1.66c.08.09.09.33,0,.74a7.35,7.35,0,0,0-.09.87c0,.16.09.41.15.74a3.87,3.87,0,0,1,.1.74q.18,2.36.24,5.25a.57.57,0,0,1-.43.62s-.14.17-.31.5a.6.6,0,0,1-.21-.1l-.25-.12a.39.39,0,0,0-.25,0,.64.64,0,0,0-.28.25A4.28,4.28,0,0,0,209.46,34.63Zm-6.7-27.09-.15,0a3,3,0,0,1-.47-.1,1.87,1.87,0,0,0-.62-.06.45.45,0,0,0-.33.28l2,.19a.16.16,0,0,0,.06-.13.19.19,0,0,1,.07-.12,3.14,3.14,0,0,0-.43-.12Zm2,.77v.12h2.16V8.31Zm1.85,23.6c0,.08-.12.2-.22.37s-.17.29-.21.37a4.09,4.09,0,0,0,.09.65c.06.31.11.54.15.71a5.7,5.7,0,0,1-.43-1.48C205.94,32.2,206.15,32,206.56,31.91Zm.12-14.77a1.67,1.67,0,0,1-.37-1.11c0-.12,0-.35,0-.68s0-.57,0-.74a.89.89,0,0,1,.31-.12Z"/><path class="cls-1" d="M224.6,32.53l.86-4.39v-.43a17.21,17.21,0,0,1,.13-1.92,15.3,15.3,0,0,0,.24-2.1,17.25,17.25,0,0,1,.28-2.32,11.14,11.14,0,0,0,.22-2.5c.2-.62.33-.69.37-.21a2.33,2.33,0,0,1-.13,1.14c.13.41.54.52,1.24.34s1.09-.11,1.17.22a.62.62,0,0,0,.44.18,3.92,3.92,0,0,0,2.1-1.17l.37-.37c.16-.5.39-.42.68.24a1.89,1.89,0,0,0,1-1c.2-.49.26-.73.18-.71a1.72,1.72,0,0,0-.49.43c-.25.27-.37.3-.37.1a1,1,0,0,1,.61-.81c.21-.28.39-.26.56.07L234,17a1.83,1.83,0,0,0,.74-1.17,4.75,4.75,0,0,1,.31-1,3.41,3.41,0,0,0,.37-1.49,5.14,5.14,0,0,0-.8-2.59c.16-.37.06-.61-.31-.71a4,4,0,0,0-1.3-.13,7.41,7.41,0,0,0-2.07.53,15.26,15.26,0,0,1-1.64.55c-.49,0-.39-.12.31-.37l.37-.18s-.12,0-.37,0-.4.05-.46,0,.08-.21.43-.37a.73.73,0,0,1,.83,0c.33,0,.27-.14-.18-.28s-.76-.07-.93.22a1.86,1.86,0,0,1-.37.52.14.14,0,0,1-.21,0,.58.58,0,0,1-.16-.28,2.87,2.87,0,0,0-.55-.61,8.53,8.53,0,0,0,1.11-.38,13.56,13.56,0,0,1,3.09-.8,1.87,1.87,0,0,0-1.67.19,6.25,6.25,0,0,0-.93.24c-.74.17-1,.13-.74-.12l.62-.18-.68.06c-.78.12-1.2.14-1.24.06s0-.19.25-.31c.37-.21.43-.33.19-.37-.13-.29,0-.49.27-.62a5.53,5.53,0,0,1,1.15-.28,1.56,1.56,0,0,0,.92-.34.75.75,0,0,0,1,.19,7,7,0,0,1,.83-.28A2,2,0,0,1,233,7a4.89,4.89,0,0,0-1.27.19c-.47.12-.71.2-.71.24a16.59,16.59,0,0,1,1.86-.12,5.75,5.75,0,0,1,2.78.56A5.4,5.4,0,0,1,239,12.63v.56a6.1,6.1,0,0,1-.24,1.61,11.94,11.94,0,0,0-.44,1.6,2,2,0,0,1-.37,1.36c-.25.29-.39.35-.43.19.2-.33.27-.51.18-.53s-.18.18-.3.59a1.87,1.87,0,0,1-.71,1.57,5.77,5.77,0,0,0-1,1.21q-.81.74.18,0,0,.43-1,1.26A7.55,7.55,0,0,1,233,23.26q.18.24,3.95,6.18a5.54,5.54,0,0,0-.68-1.58c-.37-.64-.57-1-.61-1a2.34,2.34,0,0,1,1.17,1.21,14.77,14.77,0,0,1,.65,1.39A6.41,6.41,0,0,0,238.59,31c.64.74,1,1.24,1.2,1.48,0-.08-.18-.37-.43-.86-.33-.66-.22-.89.31-.68l.5.71c.24.35.43.63.55.83s.21.58,0,.74l-.25-.37a1.68,1.68,0,0,1,.07,1c.12.25.08.43-.13.53s-.27.21-.18.34c-.25.41-.65.4-1.21,0a2.74,2.74,0,0,1-1-1.39,6.72,6.72,0,0,1-1.17-2.85q-2.22-3.95-2.66-4.54c-.29-.39-.5-.71-.65-.95a4.47,4.47,0,0,0-.4-.62l-.37-.5c-.33-.24-.7-.16-1.11.25a2.61,2.61,0,0,0,.49.56c.66.7,1,1.17,1,1.42a.24.24,0,0,1-.06.18,16.09,16.09,0,0,1,2.78,4.08,37.29,37.29,0,0,0,2.5,4.29c.52.68.63,1,.34,1,.13.37.1.6-.06.68s-.35-.06-.55-.43a17.52,17.52,0,0,1-2.38-3.46,26,26,0,0,1-1.36-2.69A15.09,15.09,0,0,0,233,27.37a15,15,0,0,1-1.52-2.69c0-.49-.23-.6-.71-.31s-.71.33-.71.12c0,0-.06,0-.3.07-.66.16-1.08.14-1.24-.07.16-.2.23-.31.19-.34a.36.36,0,0,0-.25,0c-.66.2-1.05.12-1.18-.25a1.92,1.92,0,0,1-.55,0c-.09,0-.16-.12-.22-.31a1,1,0,0,0-.15-.34q-1,7.91-1,8.9,0,.18,0,.18s0-.1.09-.31.15-.55.19-.68a5.31,5.31,0,0,1,.68,2.1,1,1,0,0,1-.19.62c.37-.57.58-.41.62.5a5.8,5.8,0,0,1-.06.92c-.17,0-.46.1-.87.4s-.61.26-.61-.15c-.09.37-.24.44-.47.22s-.38-.24-.46,0c-.17-.12-.29-.16-.37-.12a1.1,1.1,0,0,0-.31.5.57.57,0,0,0-.5-.16.55.55,0,0,1-.43-.09l-.12-.43c-.17.28-.33.45-.5.49a.8.8,0,0,1-.49-.86,4.4,4.4,0,0,1,.12-.87c.29-.95.44-1.46.44-1.54.12-.42.2-.46.24-.13a3.07,3.07,0,0,0,.19.93s.1,0,.18-.19c.09-1,.25-2.43.5-4.32.16.08.22.54.18,1.36a11.92,11.92,0,0,0,0,1.73,1.11,1.11,0,0,1,.19-.56c.08-.08.15,0,.22.22s.11.46.15.71c0,.49.11.48.22,0S224.43,32.07,224.6,32.53Zm.12-10.75.19,1a11.32,11.32,0,0,1-.62,3.9l.06,1.29a2,2,0,0,0-.06-.31c-.08.05-.15.4-.19,1.05-.12,1.24-.22,1.86-.31,1.86s-.32-.28-.34-.71,0-.78-.06-1.05a7.94,7.94,0,0,1,.34-1.82,7.5,7.5,0,0,0,.31-1.73,15.65,15.65,0,0,1,.06-1.8,3.1,3.1,0,0,0,.07-1.35l.3.12ZM225,15.6a7.31,7.31,0,0,1,.06,1,13.14,13.14,0,0,1-.18,2.1c-.09,0-.13-.25-.13-.62A17.84,17.84,0,0,1,225,15.6Zm.12,4.14a8.67,8.67,0,0,1,.07,1.05c0,.37-.06.56-.16.58s-.14-.21-.12-.71A1.57,1.57,0,0,1,225.15,19.74Zm.31-3.28a1.91,1.91,0,0,1,.13.68l-.13.5A2,2,0,0,1,225.46,16.46Zm.06-7.35.13.5-.13.43A.94.94,0,0,1,225.52,9.11Zm.87,16.81a2.4,2.4,0,0,1,0,.83c-.06.35-.14.5-.22.46s-.18-.24-.06-.62A2,2,0,0,1,226.39,25.92ZM232,20a.72.72,0,0,1-.37.19c-.62.21-.91.35-.87.43s.29.07.62-.15A4.74,4.74,0,0,0,232,20ZM232,24.8a1.33,1.33,0,0,0,.34.68c.19.21.28.27.28.19A4.43,4.43,0,0,0,232,24.8Zm.19,2.6a.36.36,0,0,1,.24.24c.29.29.33.47.13.53s-.34,0-.4-.25A.57.57,0,0,1,232.2,27.4Zm.55-9.21h.06l.07.25a.47.47,0,0,1-.53.22c-.18-.07-.19-.15,0-.25A2.2,2.2,0,0,1,232.75,18.19ZM233.19,29a11.5,11.5,0,0,1,2.28,3.65l.06.25a4.05,4.05,0,0,0-.31-.37,12.35,12.35,0,0,0-.8-1.05A4.63,4.63,0,0,1,233.19,29Zm1.05-19.95q-.19.12.18.18.87.13,1,0c.08-.1,0-.18-.25-.24A1.71,1.71,0,0,0,234.24,9.05Zm.49,16.37.18.12a1.23,1.23,0,0,1,.28.5q0,.18-.21-.09A.81.81,0,0,1,234.73,25.42Zm1.73,8.84c.25.2.37.37.37.49.2.29.22.43,0,.43s-.31-.11-.37-.34A1.17,1.17,0,0,1,236.46,34.26Z"/><path class="cls-1" d="M257.59,10.1c.24.29.47.31.68.06l.8.43a.62.62,0,0,0,.12.19c0-.25.08-.37.13-.37q.12.55.18.93l.25-.31c0,.08,0,.39-.09.92s0,.85.09.93a3,3,0,0,1,0,.86,1.48,1.48,0,0,0,.06.81,2.27,2.27,0,0,1,.19.86,7,7,0,0,1-.25,1.42.82.82,0,0,1-.13.37,2,2,0,0,0-.15.38.85.85,0,0,0,0,.37l-.25.24a.7.7,0,0,1-.12-.18l-.25,1.54h-.12a.46.46,0,0,0-.06-.18.9.9,0,0,0-.12-.19h-.07a2.05,2.05,0,0,0-.37,1.24c0,.16.11.86.31,2.1l.25,1.42c0-.13.12-.35.24-.68h.19c0,.33,0,.81.06,1.45s.06,1.1.06,1.39a6.42,6.42,0,0,1-.43,2.47c-.12-.41-.21-.7-.24-.86l-.25,0-.31,0v1h.06c.08-.37.14-.66.19-.87h.18c0,.17,0,.37,0,.62a1.55,1.55,0,0,1-.09.49,2.05,2.05,0,0,1-.34.1.66.66,0,0,0-.25.09l-.15.12a1.66,1.66,0,0,0-.19.22l-.18.22a.27.27,0,0,0,0,.12l.09.15a.43.43,0,0,1,.06.22l.16-.15a1.07,1.07,0,0,0,.15-.22v1a3.82,3.82,0,0,0,.62-.68V31a1.72,1.72,0,0,0-.43.13v.37a1.89,1.89,0,0,0-.38,1.36,1.5,1.5,0,0,0,.31,1.05c.37-1.16.62-2,.75-2.41v.31a9.88,9.88,0,0,1-.87,3,.24.24,0,0,1-.25.19,1.83,1.83,0,0,0-.46.18,1.5,1.5,0,0,0-.43.44c-.15.2-.24.33-.28.37a8.44,8.44,0,0,1-1.36.92,1.48,1.48,0,0,1-.43-.31,4.18,4.18,0,0,1-.34.31,1.37,1.37,0,0,1-.56.22l-.46.09a1.65,1.65,0,0,1-1,0,7.35,7.35,0,0,0-.9-.12h-.12a3.81,3.81,0,0,1-1-.22,4.13,4.13,0,0,0-1.08-.21,1.82,1.82,0,0,1-1.48-.68,1.67,1.67,0,0,0-.25-.34l-.28-.34a1.74,1.74,0,0,1-.18-.34,1.12,1.12,0,0,1-.1-.4,1.16,1.16,0,0,1,.07-.37l.06-.07a1.71,1.71,0,0,1-.59-1,2,2,0,0,0-.52-1h-.07A9.37,9.37,0,0,0,245,31l.19,0,.31.1-.43-.37a.68.68,0,0,0,.27-.34.73.73,0,0,0-.12-.44,1.07,1.07,0,0,1-.15-.34,7.63,7.63,0,0,1-.44-1.14c-.16-.51-.29-.92-.37-1.2a.27.27,0,0,0-.12,0,.27.27,0,0,1-.12,0l.18,2a2.42,2.42,0,0,1-.46-.87,3.72,3.72,0,0,1-.19-.8q0-.32,0-.93V26l.06-.25a1.44,1.44,0,0,1-.24-.8,5.3,5.3,0,0,1,.61-1.73,1.14,1.14,0,0,0,0-.8,2.37,2.37,0,0,0-.18-.68,2.23,2.23,0,0,1,.09-.53,2.17,2.17,0,0,0,.09-.46c0-.13-.1-.91-.18-2.35a1.34,1.34,0,0,1,.25-.65c.16-.27.32-.4.49-.4V16.15c-.21.29-.33.46-.37.5a6.83,6.83,0,0,1-.12-1.3,21.36,21.36,0,0,1,.74-3.95,3.11,3.11,0,0,1,.15.58c.06.31.11.57.16.78l.12-.4a1.83,1.83,0,0,1,.12-.34h.13c-.13,1.89-.19,3-.19,3.21s0,.5.06.89.07.69.07.9c0,.74,0,1.83-.07,3.27s-.06,2.52-.06,3.22c0,.2.08,1,.25,2.53h.18q-.18-1.92-.18-2c0-.82.06-2.45.18-4.88a1.1,1.1,0,0,1,.1-.43,1.26,1.26,0,0,0,.09-.37c.08-.5.18-1.41.31-2.75s.22-2.38.31-3.12l.24-.43c.09.49.17,1,.25,1.42a.92.92,0,0,0,.06-.37.48.48,0,0,1,.09-.34c.07-.07.22-.08.47,0V22h.12a1.82,1.82,0,0,0,.19-.86V19.8H248l.06.06q-.06,1-.06,2a25.39,25.39,0,0,0,.37,4.57,9.18,9.18,0,0,0,.56,2.1c.37.54.57.84.62.93s.1.44.18.83a4.77,4.77,0,0,0,.28.93,1.5,1.5,0,0,0,.46.58,4.2,4.2,0,0,0,.71.41c.31.14.53.23.65.27s0,.07.12.07c.33.2.54.12.62-.25h.31a3.35,3.35,0,0,0-.31-.56.22.22,0,0,0,.13-.06.3.3,0,0,0,.37.12.41.41,0,0,0,.31-.24c.12-.41.3-1.18.55-2.29q.06,0-.06-.06a.17.17,0,0,1-.06-.12q-.19-.2,0-.81a1.77,1.77,0,0,1,.4-.86.61.61,0,0,1,.06.28.6.6,0,0,0,.06.27,3.15,3.15,0,0,1,.16-.64q.15-.52.21-.84l-.55-.25V21.34a4.87,4.87,0,0,1,.18-.49.28.28,0,0,0,0-.25.93.93,0,0,1-.28-.28.7.7,0,0,1-.09-.37,1.58,1.58,0,0,1,0-.34c0-.08.05-.2.1-.37a1.68,1.68,0,0,0,.06-.31c.24-1.31.37-2,.37-2.16a2.85,2.85,0,0,0-.13-.86v-.06l-.06-.13a1.58,1.58,0,0,0,.43-1.17V13.19l.13-.06v1H255a3.41,3.41,0,0,0,.19-.75,7.9,7.9,0,0,0,.06-1.08V11.4s.06-.41.18-1.11l.56.43a2.78,2.78,0,0,1,.19-.56c.08,0,.21.11.4.19l.4.18a.17.17,0,0,1,.06-.12.38.38,0,0,1,.09.18.77.77,0,0,0,.1.25.57.57,0,0,1,.06.25,2,2,0,0,0,.12-.37A6.38,6.38,0,0,1,257.59,10.1ZM243.87,24.74,243.5,26c0,.12.09.34.16.65a4.35,4.35,0,0,1,.09.58,2.67,2.67,0,0,0,.18-1.05c0-.16,0-.4,0-.71S243.87,25,243.87,24.74Zm10.75-.31c0,.17-.09.39-.15.68s-.12.5-.16.62a2,2,0,0,0,.53-.68A1.22,1.22,0,0,0,254.62,24.43Zm0-.18a2,2,0,0,1,.09-.44c.06-.2.12-.4.16-.58a2.53,2.53,0,0,0,.06-.53c0-.2-.06-.33-.19-.37l-.12.06-.06.07v1.79Zm.19-13.35c0,.42,0,1,.06,1.86a.55.55,0,0,1-.19.06V10.9Zm4.38,0a2.22,2.22,0,0,0-.37,1.36c0,.46.08.72.25.81C259.11,12.53,259.15,11.81,259.19,10.9Z"/><path class="cls-1" d="M262.59,35.43a3.63,3.63,0,0,1,.18,1.23c0,.13,0,.35,0,.68s0,.58,0,.75a2,2,0,0,1-.31-1.24A6,6,0,0,1,262.59,35.43Zm2.16,1.23a17.25,17.25,0,0,0-.37,1.92h-.12a3,3,0,0,1-.06-.56,6.77,6.77,0,0,0-.44.68,2.39,2.39,0,0,1-.24-1.36,5.83,5.83,0,0,0,.09-1,2.58,2.58,0,0,1,.22-1.08,1.3,1.3,0,0,0,0-.84,4.09,4.09,0,0,1-.15-.77q0-.68.12-1.92a1.63,1.63,0,0,0,.19-.24,1.49,1.49,0,0,1,.18-.25,1.14,1.14,0,0,0,.07-.43A2.83,2.83,0,0,0,264,30a2.71,2.71,0,0,1-.18-.71,2.89,2.89,0,0,1,.06-1,14.54,14.54,0,0,0,.37-2c0-.13-.11-.21-.31-.25a.88.88,0,0,1,.18-.31,2,2,0,0,0,.28-.46,1.08,1.08,0,0,0,.1-.34c-.17-2.14-.25-3.24-.25-3.28s.12-1.21.37-3.52v-.4a.56.56,0,0,1,.06-.22,2.47,2.47,0,0,0,0,.34.52.52,0,0,0,.09.28,8.51,8.51,0,0,0,.19-2c0-.28,0-.72,0-1.29s0-1,0-1.24c0-.49,0-.95.06-1.36h.25c0,2.19-.06,4.57-.19,7.17a3.79,3.79,0,0,0,.06-.8h.19a2.34,2.34,0,0,0,.12.58c.08.27.15.49.19.65a.17.17,0,0,1,.12-.06q-.12-1.11-.12-1.17a1.46,1.46,0,0,0,.06-.59,1,1,0,0,1,.25-.77,2.62,2.62,0,0,0,1.11-2,2.05,2.05,0,0,0-.06-.49,2.09,2.09,0,0,1,.18-1.24v2.72l2.41-1.67,1.36-1.21c.58-.51.95-.83,1.11-1a2.47,2.47,0,0,0,.5-.19,1.07,1.07,0,0,0,.06.5l.25.18a1.28,1.28,0,0,1,.27-.31.93.93,0,0,0,.28-.31.75.75,0,0,0,0-.43l.19,0a.38.38,0,0,0,.18-.09.75.75,0,0,1,.43-.93,4.67,4.67,0,0,0,1-.74c.31-.29.81-.79,1.49-1.51s1.2-1.27,1.57-1.64c.08,0,.54-.39,1.36-1,.08.49.27.74.56.74l-2,2.22q-.32.32-1.08,1A15.25,15.25,0,0,0,275.93,11q-.36.36-1.05,1.14t-1.05,1.14c-.12.09-.37.29-.74.62a4.58,4.58,0,0,0-.8.87,16.74,16.74,0,0,0,2.65-2.23A30.83,30.83,0,0,1,277.79,10l-.43.55a.22.22,0,0,1,.06.13,7.66,7.66,0,0,0,2-1.73,11.17,11.17,0,0,1,1.76-1.73.7.7,0,0,0,.18.12,11.23,11.23,0,0,1-.93,1.27c-.33.39-.8.89-1.42,1.51s-1,1-1.11,1.11a.21.21,0,0,0-.06.25l3.09-2.84a.17.17,0,0,0,.12.06,2.49,2.49,0,0,1-.55.8q-.37.38-.84.78A4.71,4.71,0,0,0,279,11c-.25.24-.72.78-1.42,1.6s-1.26,1.44-1.67,1.86c-.16.16-1.23,1-3.21,2.65a1.57,1.57,0,0,0-.49.62c.53-.29.92-.51,1.17-.68l.06.06a15.15,15.15,0,0,0-1.61,1.61s0,.18.13.43a1.9,1.9,0,0,0,.31.5l-.19.37c0,.08.12.19.22.34s.17.21.21.21l.31-.06s.11.05.19.15a1.93,1.93,0,0,0,.18.22,7.25,7.25,0,0,1,.65.56,9.22,9.22,0,0,0,.81.65,5.78,5.78,0,0,0,.77.46,1.14,1.14,0,0,1-.06.25.76.76,0,0,0-.07.24l-.49-.18a2.73,2.73,0,0,0,.52.71c.11.06.34,0,.72-.09a.66.66,0,0,1,.3-.07,1.67,1.67,0,0,1,1.49.75,3.55,3.55,0,0,0,1.48.86.17.17,0,0,1,.12.06c.25,0,.31.11.19.31,0,0,.05.1.15.19a2.1,2.1,0,0,0,.28.18c2.23,1.48,3.38,2.27,3.46,2.35a2.41,2.41,0,0,1,.37.68l-.68-.25c.08.17.19.4.31.71s.21.53.25.65c-.5.25-.6.58-.31,1l-.49.25c-.25.12-.46.22-.62.31a.61.61,0,0,1,.24.27.42.42,0,0,1,0,.28c0,.08-.07.22-.13.4a1.86,1.86,0,0,0-.09.34l-.4-.06a3.56,3.56,0,0,0-.59-.06,1.14,1.14,0,0,1,.28.22q.15.15.21.15c-.12.25-.24.35-.37.31-2.38-1.2-3.72-1.85-4-2V31.1a.36.36,0,0,0-.19-.55,1.67,1.67,0,0,0-.43-.19h-.12a1.59,1.59,0,0,0-.9-1.17c-.56-.33-.9-.54-1-.62s-.08-.06-.24-.06h-.19a7.13,7.13,0,0,1-1.54-.56l-.13.13-.06-.13c-.17-.45-.29-.68-.37-.68a.47.47,0,0,1-.25.07,1,1,0,0,1-.55-.16,4.09,4.09,0,0,1-.53-.4c-.19-.16-.34-.29-.46-.37s-.58-.47-1.11-.93c0,0,0-.18-.07-.43a7,7,0,0,0-.71-.49c-.43-.29-.75-.5-.95-.62a.76.76,0,0,0-.16.31,4.58,4.58,0,0,0-.15.49,2,2,0,0,0-.07.43c0,.09.05.58.13,1.49a1,1,0,0,1-.5-.93,5.49,5.49,0,0,1,.1-.9,6.21,6.21,0,0,0,.09-.83,1.4,1.4,0,0,0-.06-.43h-.19a29.32,29.32,0,0,0-.18,3.27.59.59,0,0,1-.5.62c.09-2.1.17-3.73.25-4.88v-.19l-.56.19a6.19,6.19,0,0,0-.37-.93,2.48,2.48,0,0,0-.12.44c-.33.28-.37.78-.12,1.48a6.42,6.42,0,0,1,.06,1.36l.12-.07c-.16.91-.29,1.51-.37,1.8h-.12V23.81a2.94,2.94,0,0,0-.16.87,1,1,0,0,1-.27.74l.18.19.25.24a4.57,4.57,0,0,0-.43,1.24.75.75,0,0,0,.49.68c0,1.6-.12,4-.25,7.29h.13c.08-.5.26-1.5.55-3a1.43,1.43,0,0,0,.43-1.23c0-.09,0-.24,0-.47s0-.4,0-.52a1.15,1.15,0,0,1,.06-.37l.31-1.8a3.88,3.88,0,0,0,.5-.12,10.85,10.85,0,0,1-.1,1.27q-.09.83-.15,1.08l.12.06a6.22,6.22,0,0,0,.13-.74,4.14,4.14,0,0,1,.12-.68c.12.45.23.8.31,1a4.19,4.19,0,0,0-.31.59c-.12.27-.21.44-.25.52a1.18,1.18,0,0,0-.12-.31V31c.29,0,.46,0,.52.1a.89.89,0,0,1,0,.58v1.36a2.69,2.69,0,0,1-.31,1.55l-.13,3.27a3.81,3.81,0,0,1-.18.56l-.22-.19-.21-.18c-.09.2-.17.43-.25.67-.21-.32-.39-.59-.56-.8a2.88,2.88,0,0,1-.24.31c0-.2,0-.49,0-.86A4.34,4.34,0,0,0,264.75,36.66Zm.74-8.4h.25a7.14,7.14,0,0,0-.12.74,6.78,6.78,0,0,0-.06.75h-.19C265.41,29.09,265.45,28.59,265.49,28.26Zm-.06-8.34c0,.83.06,1.4.06,1.73a1.49,1.49,0,0,0,.22-1A1,1,0,0,0,265.43,19.92Zm0,13.35c0,.37,0,.64,0,.8h.25c0-.16,0-.43,0-.8a6.89,6.89,0,0,1,.09-.87h-.24A5.23,5.23,0,0,0,265.46,33.27Zm0-27.56h.13V7.57h-.13Zm1.18,25.64c-.25,1.24-.41,2.16-.5,2.78a.31.31,0,0,1,.13,0,.27.27,0,0,0,.12,0,12,12,0,0,1,.12-1.42c.09-.62.15-1.09.19-1.42ZM267.1,11h.18v2.16h-.18Zm5.13,3.77a.36.36,0,0,0-.25.06c-.08,0-.66.49-1.73,1.36a4.66,4.66,0,0,0,.49-.16,1.43,1.43,0,0,0,.47-.28,3.89,3.89,0,0,1,.34-.27,4.66,4.66,0,0,0,.37-.38Zm4,15.69,1.24.61v.25l-.56.06c-.16-.12-.45-.37-.86-.74a.47.47,0,0,0,.09-.12A.1.1,0,0,1,276.24,30.49Zm4.27-23-1,1c-.44.43-.75.77-1,1l-.12-.12Z"/></g></g></svg>