<svg xmlns="http://www.w3.org/2000/svg" viewBox="0 0 156.87 38.77"><defs><style>.cls-1{fill:#231f20;}</style></defs><title>4</title><g id="Layer_2" data-name="Layer 2"><g id="Layer_1-2" data-name="Layer 1"><path class="cls-1" d="M1,.37l.7-.21A5.65,5.65,0,0,1,2.26,0,1.3,1.3,0,0,1,2.81.1a2.24,2.24,0,0,0,1,0A5.59,5.59,0,0,1,5.43,2.78a3,3,0,0,0-.31,1c-.12.55-.22.82-.3.82a.35.35,0,0,1-.24-.12,5,5,0,0,1-.28,1.4,5.6,5.6,0,0,0-.27,1,1.47,1.47,0,0,1,.61,1.28,2.05,2.05,0,0,1-.06.49A1.43,1.43,0,0,1,3.42,10c-.13-.65-.25-.65-.37,0a3,3,0,0,0,0,.85c.41-.12.64-.15.7-.09s.07.32,0,.76a3.29,3.29,0,0,1-.09,1.41,3.48,3.48,0,0,0-.06,1.55,5.27,5.27,0,0,1,0,1.8,6.72,6.72,0,0,0,0,1.89,4.24,4.24,0,0,0-.43,1.65,1.46,1.46,0,0,0,.31,1c0,2.4,0,4.08.06,5.06v.55a11.05,11.05,0,0,1-.25,2.38c-.16.89-.16,1.4,0,1.52,0,.09,0,.45,0,1.1s-.08,1-.18,1-.19-.11-.27-.28a1.13,1.13,0,0,1-.06-.36c0-.53,0-1.3.12-2.32,0-.53.06-1,.06-1.4a5.19,5.19,0,0,0-.12-1.29,2.37,2.37,0,0,1-.25-1.21,5.47,5.47,0,0,1,.06-.74A4.49,4.49,0,0,0,2.68,24a3.07,3.07,0,0,0-.18-1.16,7,7,0,0,1-.12-1.46q0-.74.06-1.77.06-.8.06-1.47a9.67,9.67,0,0,0-.12-1.76,7.15,7.15,0,0,1-.06-1c0-.41,0-.89.06-1.46V11.32A13.57,13.57,0,0,1,2.5,9.74c0-.49.06-.9.06-1.22a4,4,0,0,0-.06-.74q0,.32-.18,1.65a20.63,20.63,0,0,0-.12,2.44,8.06,8.06,0,0,0,.06,1v.42a24,24,0,0,1-.43,4.27,25.41,25.41,0,0,0-.31,4.09c0,.65,0,1.34.07,2.08q.12,2.31.12,3.72v1.16a4.49,4.49,0,0,0-.22,1.58,2.55,2.55,0,0,1-.33,1.53Q1.1,31,1.1,30.11v-.55c0-.81.06-1.36.06-1.64-.08,0-.16.28-.24,1a5.64,5.64,0,0,1-.25,1.28q0-.6-.06-2V27.06a20.67,20.67,0,0,1,.18-3c.17,0,.25.09.25.4a8.4,8.4,0,0,1-.06,1,1.59,1.59,0,0,0,.12.89c0-.53.06-1.2.06-2,0-.6,0-1.3-.06-2.07V18.09c-.08,1.1-.14,2-.18,2.57C.83,21.84.71,22,.55,21q.06-1.21.06-2.19T.55,17.06A14,14,0,0,1,.4,15.13c0-.26,0-.71.09-1.34s.06-1.08.06-1.37C.47,11.32.43,10.47.43,9.86a3.62,3.62,0,0,1,.06-.79A11.83,11.83,0,0,0,.55,7.72V6.93A4,4,0,0,1,.73,5.1c-.32.16-.5.1-.52-.18a2.1,2.1,0,0,1,.09-.8A1.88,1.88,0,0,1,0,3.39c0-.2,0-.35,0-.46a4.06,4.06,0,0,1,0-.42,2.11,2.11,0,0,1,.06-.37c0-.06.06-.19.12-.4a3.33,3.33,0,0,1,.13-.39c0-.06.06-.2.12-.43A1.37,1.37,0,0,1,.61.52,1,1,0,0,1,1,.37ZM.67,22.18a1.31,1.31,0,0,1,.18.73c.13.33.15.51.07.55C.51,22.81.43,22.38.67,22.18Zm.49-10.92c0,.29-.08.7-.12,1.25S1,13.48,1,13.76L1,13.15c0-.28.06-.46.06-.52s0-.3.09-.73S1.24,11.26,1.16,11.26Zm.73.37a17.73,17.73,0,0,0-.24,2.74,7.24,7.24,0,0,0,.18,1.71V13.27A15.25,15.25,0,0,1,1.89,11.63Zm.86,17.51a8.86,8.86,0,0,0-.07,1.09,4.36,4.36,0,0,1,.07.67,3.47,3.47,0,0,1-.31,1.53V31A4.34,4.34,0,0,1,2.75,29.14Zm-.13-2.38a2,2,0,0,1,.19.85c0,.29,0,.43-.13.43s-.22-.29-.18-.61A4,4,0,0,1,2.62,26.76Zm1.22-5.37.19.3A1.48,1.48,0,0,1,4,22.3l-.13-.24A1.88,1.88,0,0,1,3.84,21.39ZM15,3.39l.24.06a4.05,4.05,0,0,0,1.89,1.16c.33,0,.57.47.73,1.28.09.33.23.35.43.06a1.14,1.14,0,0,1,0,.68,2,2,0,0,1-.46.51l-.48.46a1,1,0,0,1-.49,1c-.37.24-.55.32-.55.24a.73.73,0,0,1,.18-.36,2.16,2.16,0,0,0-.79.91v.06a1.44,1.44,0,0,0,.36-.36c.13.28,0,.74-.48,1.37a9.85,9.85,0,0,1-1.41,1.61A9.73,9.73,0,0,1,12,14.56a1.52,1.52,0,0,0-.61-.13,1.58,1.58,0,0,0-1.22.67c-.57.66-.9,1-1,1.1,0-.4-.1-.61-.3-.61s-.8.37-1.53,1.1c-.41.29-.54.5-.4.64a1.42,1.42,0,0,0,.37.28l.49.18L8.3,18c.2-.2.43-.16.7.12s.34.43.24.43a.93.93,0,0,1-.39-.12c0,.12.21.3.76.55a8.66,8.66,0,0,0,1.37.49l1.22,1a5.74,5.74,0,0,0,2.93,1.77,19.64,19.64,0,0,0,2.07,1.19,13.78,13.78,0,0,1,2.14,1.31c.36.17.4.3.12.4s-.33.23-.12.4c-.33,0-.41.12-.25.36s.21.39.13.43c-.25-.08-.39-.08-.43,0a.3.3,0,0,0,.06.3c.24.37.18.47-.18.31-.17.37-.49.49-1,.37.85.36.92.79.18,1.28q-.48.12-.42.42a1.24,1.24,0,0,1,.06.37A39.71,39.71,0,0,1,13.18,27c-.37-.12-.44-.22-.22-.31s.3-.18.22-.3c.44-.12.26-.49-.55-1.1a2.58,2.58,0,0,1-.67-.55A3,3,0,0,1,10.68,24a1.92,1.92,0,0,0-1.53-.61c.41.08.65.25.73.52s.06.39-.06.39a.88.88,0,0,1-.33-.06.65.65,0,0,1-.19-.09L9.21,24c-1-.57-1.46-1-1.46-1.34A.54.54,0,0,1,8,22.24a3.55,3.55,0,0,1-1.62-1.16,5.15,5.15,0,0,0-1.43-1.22.59.59,0,0,0-.15-.64,5,5,0,0,1-.37-.39c-.06-.09,0-.15,0-.19a1.31,1.31,0,0,1,.49-.06c.37.12.53.06.49-.18s0-.43.24-.43c-.28-.2-.35-.4-.21-.61s.36-.2.64,0Q6,17.42,6,17.3c-.08-.24,0-.4.15-.46a.32.32,0,0,1,.4.09c.12.09.4-.16.85-.73a12.71,12.71,0,0,1,.86-1c-.33.32-.5.37-.52.15s.13-.46.45-.7.3-.38.28-.4a2.27,2.27,0,0,0-.64.21c-.08-.32-.37-.22-.86.31a3.18,3.18,0,0,1-1,.85,1.67,1.67,0,0,1,.24-.42A3.19,3.19,0,0,0,7,13.64c-.17.08-.26.08-.28,0a1.17,1.17,0,0,1,.18-.55c.15-.28.21-.44.19-.46s-.09,0-.22,0c-.12-.4-.12-.68,0-.82a3,3,0,0,1,.86-.52q.48-.24.36.12l-.18.37s.1,0,.18-.12a.84.84,0,0,0,.43-.86A1.13,1.13,0,0,1,8.72,10,7.24,7.24,0,0,0,11.1,6.69a7.56,7.56,0,0,1,1.22-1.38,5.21,5.21,0,0,0,1.22-1.55q-.06.36,0,.33a2.6,2.6,0,0,0,.52-.45A.82.82,0,0,1,15,3.39ZM5.73,15.71v.19L5.67,16c-.24.37-.4.51-.48.43S5.21,16,5.73,15.71Zm1.71,4.21a2.29,2.29,0,0,1,.52.31,1.4,1.4,0,0,0,.4.24l-.49-.42A.91.91,0,0,0,7.44,19.92Zm2.63,2c.61.48,1.07.85,1.4,1.09A2.38,2.38,0,0,0,10.07,21.88Zm.36,2,1.77,1.34c0,.53-.43.51-1.16-.06S10.11,24.17,10.43,23.89Zm1-3.54a1.32,1.32,0,0,0,.49.43ZM14,26.45l.06.18c.2.21.37.3.49.28s.08-.09-.12-.22Zm.49-1.28.49.37v-.06A1.42,1.42,0,0,0,14.52,25.17Zm.06-2.56a3.26,3.26,0,0,0,.91.76c.29.14.41.17.37.09s-.19-.39-.58-.58A2.92,2.92,0,0,0,14.58,22.61Zm.85,5,.49.24.43.19A1.14,1.14,0,0,0,15.43,27.61Z"/><path class="cls-1" d="M23.06,31.45h-.12V34.2a1.85,1.85,0,0,1-.49-1.28,2.88,2.88,0,0,1,.06-.55,1.1,1.1,0,0,0-.06-.31q-.06-.18-.15-.39a1,1,0,0,1-.09-.34,5,5,0,0,1-.19-1.4,6.55,6.55,0,0,0,.37.55,3.62,3.62,0,0,0,0-1.41,2.73,2.73,0,0,1-.25-1.22V26.57a2.67,2.67,0,0,1,.1-.73c.06-.24.13-.51.21-.79s.14-.51.18-.67a2.09,2.09,0,0,0,.18-.55,1.1,1.1,0,0,0-.06-.31.38.38,0,0,0-.3-.24s0-.25.06-.61c.2-1.79.32-2.85.37-3.17a19.35,19.35,0,0,1,.51-2.08c.27-.89.44-1.54.52-2,0,.16.09.43.16.79s.11.65.15.86a4,4,0,0,1,.3-.61.05.05,0,0,0,.06.06,18.6,18.6,0,0,0-.33,1.92c-.14,1-.28,1.76-.4,2.29a16.71,16.71,0,0,0-.55,2.8c0,.41,0,1.05.12,1.93s.13,1.51.13,1.92a7,7,0,0,1-.06,1,2,2,0,0,1-.19-.3l-.06.12q.18,1.83.18,2a9.26,9.26,0,0,1-.42,1,.24.24,0,0,1,.18.06v-.43c.16.61.41,1.49.73,2.63a.05.05,0,0,1,.06-.06h.13A13.35,13.35,0,0,1,23.67,31c0-.61,0-1.5.09-2.66s.11-1.86.15-2.1a4.32,4.32,0,0,0-.06-.58,1.37,1.37,0,0,1,0-.58,28.62,28.62,0,0,1,.49-3.6,9.94,9.94,0,0,1,.55-1.1.62.62,0,0,0-.24-.12,1.42,1.42,0,0,0-.13.3,1.1,1.1,0,0,0-.06.31h-.12c0-.2.09-.52.15-.95s.11-.75.16-1a6,6,0,0,1,.21-.8,2.38,2.38,0,0,1,.46-.82,4.11,4.11,0,0,0,.51-1.49,4.14,4.14,0,0,1,.58-1.56,11.6,11.6,0,0,0,.8-1.83l-1.47.12.92-1.95c-.41-.08-.49-.26-.25-.55l1.83-1.83L28.49,8c0-.25.05-.39.15-.43a.49.49,0,0,1,.34,0,.17.17,0,0,0,.24-.12c.08-.25.34-.41.76-.49a2,2,0,0,0,.77-.24l-.19,0a1,1,0,0,0-.24,0,8.11,8.11,0,0,1,.85-.25c0,.08-.09.19-.15.34a1,1,0,0,0-.09.27,1.49,1.49,0,0,1,.43.12l.06-.18,2.5.24a1.74,1.74,0,0,0-.28.19l-.27.21-.25.21.25.06a3.39,3.39,0,0,1,1.4-.3,2.88,2.88,0,0,1,.55.06,2.16,2.16,0,0,0,.52-.09,2.16,2.16,0,0,1,.52-.09,2.75,2.75,0,0,1,.94.27,2.64,2.64,0,0,0,1,.28.65.65,0,0,1,.4.12,1.14,1.14,0,0,1,.27.33.63.63,0,0,0,.24.28,12.61,12.61,0,0,1,2.38,2.8h-.48a.83.83,0,0,0-.37.07,2.63,2.63,0,0,1,.33.48l.34.55a.8.8,0,0,1,.15-.21.24.24,0,0,1,.16-.09c.32.36.5.58.54.64l.22.3a1.05,1.05,0,0,1,.18.46,4.56,4.56,0,0,1,0,.55l-.73-.55s0,.18.06.43.07.49.09.73a6.34,6.34,0,0,0,.12.79c.06.29.11.52.16.71s.08.27.12.27V15.41a2.79,2.79,0,0,1,.67,1.1l-.18.06c.32.24.48.39.48.46v1.49l-.18,0a.38.38,0,0,1-.18-.09.46.46,0,0,1-.06.18,2.54,2.54,0,0,1-.12.31q-1.53.36-1.53.48c-.08.9-.14,1.61-.18,2.14a.38.38,0,0,0,.09-.18.42.42,0,0,1,.09-.19h.12c-.08.57-.16,1.45-.24,2.63h.12a2,2,0,0,0,.12-.4,2.2,2.2,0,0,1,.12-.4h.13c-.13.66-.36,1.56-.71,2.72s-.54,1.82-.58,2a3.28,3.28,0,0,1-1.52,2.08h.43a1.29,1.29,0,0,1-.09.3c-.07.16-.12.29-.16.37a2.57,2.57,0,0,1,0,.27A.56.56,0,0,1,39,31a4.31,4.31,0,0,0-.82,1.34,10.5,10.5,0,0,1-.64,1.28c-.08.08-.23.2-.43.36s-.35.29-.43.37a1.7,1.7,0,0,0-.27.55,1.69,1.69,0,0,1-.34.61,10,10,0,0,1-1.77,1.28s-.85.53-2.44,1.46v-.61l.34-.12a.69.69,0,0,1,.21-.06,6.4,6.4,0,0,1-.55-.36c1.1-.53,1.71-.84,1.83-.92a.82.82,0,0,0,.28-.3,1.86,1.86,0,0,1,.21-.31c2.12-2.52,3.21-3.84,3.3-4a8,8,0,0,0,1.34-3.36,20.54,20.54,0,0,1,.61-2.38,6.88,6.88,0,0,0-.49.92L38.52,28a8.09,8.09,0,0,1-.64,1.64,35.17,35.17,0,0,1-2,3.3,14.6,14.6,0,0,1-4.39,3.84,5.72,5.72,0,0,1-.55.22,5.48,5.48,0,0,1-.73.15,3.77,3.77,0,0,0-.61.12,1.79,1.79,0,0,1,.18.24l-1,.37a4,4,0,0,1,.25-.37,1.65,1.65,0,0,1-.25-.15l-.24-.15c-.12.2-.24.3-.37.3a4.06,4.06,0,0,1-1-.42l.36.42-2-.55v-.18c.32.08.73.16,1.22.25a21.49,21.49,0,0,1-2-1.9l-.19.19s.19.2.43.49a4.92,4.92,0,0,0,.61.61l-.12.12-1.4-1s.1,0,.18-.12C23.77,34.14,23.38,32.8,23.06,31.45Zm1.16-8.54L24,25.48h.24c0-1.14.1-2,.18-2.57h-.24ZM35,31.27A4.19,4.19,0,0,0,34,32a.7.7,0,0,0-.18-.12c.16-.28.56-.88,1.19-1.8a14.09,14.09,0,0,0,1.31-2.23,1.22,1.22,0,0,0,.06-1.22v-.12a.65.65,0,0,0,.24.12,4.83,4.83,0,0,0,.4-.48,3.17,3.17,0,0,0,.34-.55q.06-.18.3-1.35l.06-.06v-.12a.94.94,0,0,1-.18-.24.29.29,0,0,1,0-.22,1.91,1.91,0,0,0,.06-.27,1.89,1.89,0,0,0,0-.31,2.23,2.23,0,0,0,.09-.39c0-.14,0-.3.06-.46a3.18,3.18,0,0,0,0-.36,11.28,11.28,0,0,0-.24-1.16,1.7,1.7,0,0,1-.09-.89c0-.51,0-.82,0-.94.16-.33.08-.49-.25-.49-.12,0-.21-.16-.27-.37a.66.66,0,0,1,.15-.61c0,.08.1.18.18.31a20.5,20.5,0,0,0-.73-2.5s-.2-.19-.49-.43l-.06.12a1.23,1.23,0,0,1,.16.27,1,1,0,0,1,.09.34l-.19.06c-.12-.45-.22-.81-.3-1.1a.8.8,0,0,0-.34-.12.56.56,0,0,1-.33-.15.37.37,0,0,1-.06-.21c0-.33-.24-.57-.7-.74s-.71-.36-.71-.61a3.88,3.88,0,0,1-.82-.15A3.88,3.88,0,0,0,32,12.3a2.26,2.26,0,0,0-.55.06,3.86,3.86,0,0,0-1.83,2l-.19,0-.18,0a.17.17,0,0,1-.12-.06c-.57,1.26-.92,2-1,2.38H28c-.16,0-.37.21-.61.64A2.4,2.4,0,0,0,27,18.34q-.42.24-.42.3a3.13,3.13,0,0,0-.09.67,5.19,5.19,0,0,1-.13.83,3.54,3.54,0,0,1-.21.58,1,1,0,0,0-.12.15,1,1,0,0,1-.12.15c0,.16,0,.47,0,.92s-.06.79-.1,1a1.4,1.4,0,0,1-.09.4,1.48,1.48,0,0,0-.09.4,1.43,1.43,0,0,0,.09.39,1.56,1.56,0,0,1,.09.4q0,.61,0,1.86c0,.83,0,1.48,0,1.92v1.22a3.65,3.65,0,0,0,.49,2l-.12.12.12.49-.43.18c.17.36.39,1,.68,1.83l.12-.06s0-.21-.06-.49a4.43,4.43,0,0,1,.85.55,3,3,0,0,0,2.38.85c.28,0,.7,0,1.25-.06l1.07-.06.24-.73a1.06,1.06,0,0,0,.52-.25,1.69,1.69,0,0,0,.37-.48,4,4,0,0,1,.27-.49l.28.12.27.12c.57-.93.87-1.44.91-1.52s0-.14,0-.31Zm-4.27-19-.33.15a1.05,1.05,0,0,0-.31.18,2.85,2.85,0,0,1-.24.22.75.75,0,0,0-.21.24.89.89,0,0,0-.06.37l.12.12c.12-.16.29-.38.52-.64Zm9.15,11.41a6.19,6.19,0,0,0-.42,2.07,3,3,0,0,0,.49-1.65A1.41,1.41,0,0,0,39.83,23.71Zm-.12-.13h.12v-4h-.12Z"/><path class="cls-1" d="M50.27,34a6,6,0,0,0-.19,1.41H50c.16.12.25.2.25.24a1.18,1.18,0,0,1-.31.12s-.07-.08-.09-.24a.67.67,0,0,0-.09-.31c0,.49-.21.78-.49.86,0,0-.18,0-.55-.25a1.14,1.14,0,0,1-.3.25,2.53,2.53,0,0,0-.19-.43l-.12.37a.65.65,0,0,1-.12.24H46.73c-.17-.65-.25-1-.25-1a1.64,1.64,0,0,0-.06-.36c0-.16-.08-.31-.12-.43a.47.47,0,0,1,0-.33c0-.11.16-.18.37-.22l-.19-.91a.83.83,0,0,0,.28-.49,1.74,1.74,0,0,0-.06-.61,2.58,2.58,0,0,1-.09-.49V29.56a1.11,1.11,0,0,0-.19-.67.63.63,0,0,0-.12.25,2.27,2.27,0,0,1-.3-1.77.51.51,0,0,1,.18-.31.52.52,0,0,0,.18-.37c-.08-.65-.18-1.62-.3-2.92a3.62,3.62,0,0,1,.18-1.65c.12-.89.2-1.71.24-2.44.21.28.35.43.43.43v-1a14.83,14.83,0,0,0-.18-2.26v-.12c.08-.08.1-.33.06-.76s-.06-.66-.06-.7a6.33,6.33,0,0,1,.12-1,6.25,6.25,0,0,0,.12-1,1.82,1.82,0,0,0-.24-.91,4.17,4.17,0,0,1-.19-.92l-.24.12V8.94a3.51,3.51,0,0,0,.61-.36,3.92,3.92,0,0,1,.31.55h.12c0-.21.09-.48.15-.83a5,5,0,0,0,.09-.82,4.13,4.13,0,0,0,.34.3l.33.31a1.43,1.43,0,0,0-.06-.34,1.35,1.35,0,0,1-.06-.27l.12-.12c.08.12.25.36.49.73s.45.65.61.85c.2-.12.21-.36,0-.73a2.62,2.62,0,0,1-.27-.67.46.46,0,0,1,.21.12,1.31,1.31,0,0,0,.28.18c-.09-.28-.21-.65-.37-1.09a.7.7,0,0,1,.18-.12,5,5,0,0,0,.4.33,4.46,4.46,0,0,1,.4.34,5,5,0,0,1-.13-.67.19.19,0,0,1,.13-.07A39.48,39.48,0,0,1,53,10.71c.08.21.2.5.37.89s.28.66.36.82.42.71.76,1.28a14.25,14.25,0,0,1,.86,1.59,8.51,8.51,0,0,1,.52,1.46c-.08-.16-.21-.38-.37-.67s-.28-.51-.36-.67a.63.63,0,0,0-.25.12c.29.53.68,1.27,1.19,2.23s.84,1.57,1,1.86q0-.06.15-.15a.55.55,0,0,0,.21-.22,18.16,18.16,0,0,0,.74,1.83.69.69,0,0,0,.24.49l.3.31c1.31,2.48,2,3.76,2,3.84.16-1.55.24-2.4.24-2.56a2.92,2.92,0,0,0-.24-.55c-.17-.33-.21-.53-.12-.61a1.66,1.66,0,0,0,.18-1.53,3.08,3.08,0,0,1-.06-.61,9.22,9.22,0,0,1,.24-1.95c.12.12.27.24.43.37a10.43,10.43,0,0,1-.06-1.22,1.57,1.57,0,0,1-.18.27l-.19.21a1,1,0,0,0-.06-.24,1.55,1.55,0,0,1-.06.28,1.29,1.29,0,0,0-.06.33h-.25c0-.61-.06-1.52-.18-2.74s-.18-2.14-.18-2.75a12.32,12.32,0,0,1,.18-2.2,3.26,3.26,0,0,0,.31.43c.08-.2.18-.45.3-.73q0-.06-.12-.12a1.79,1.79,0,0,1-.24.18,1.16,1.16,0,0,1-.13-1,2.71,2.71,0,0,0,0-.88c-.06-.39-.09-.6-.09-.64A8.23,8.23,0,0,1,60.27,6l.55-.12q-.06,1.53-.06,1.83a2,2,0,0,0,0,.83c.06.14.23.25.52.33-.08-.69-.21-1.75-.37-3.17H61a4.75,4.75,0,0,0,.25.61c.24-.33.5-.67.79-1a2.5,2.5,0,0,1,.7,1.28,8.28,8.28,0,0,1,.15,1.65A9.94,9.94,0,0,0,63,9.61V7.05a.34.34,0,0,0,0-.24.36.36,0,0,1,0-.25l.06-.24a.38.38,0,0,1,.15-.21.49.49,0,0,1,.3-.1l.37-.79c.12.41.24.77.37,1.1a1.16,1.16,0,0,0,.15-.21,1.33,1.33,0,0,1,.15-.22A1.87,1.87,0,0,1,65,7.17v2.2h.24V8.21a.17.17,0,0,1,.12-.06.55.55,0,0,0,.07.21.81.81,0,0,1,.06.22v.36a7.17,7.17,0,0,1-.31,2.32A4.68,4.68,0,0,0,65,12c0,.27-.08.58-.12,1a8.47,8.47,0,0,0-.06.85H65c0-.12,0-.29,0-.52s0-.37,0-.45h.12a10,10,0,0,1,.12,1.22l-.06.06a1.49,1.49,0,0,1-.18-.25c-.12.7-.26,1.59-.43,2.69l.31-.28.24-.21V18.7a1.07,1.07,0,0,0,.22-.15.64.64,0,0,1,.15-.12.1.1,0,0,0,.06-.09c0,.69-.1,1.79-.18,3.29h-.13V20.9h-.09s0,0,0-.06a3.15,3.15,0,0,0-.06.61c0,.2,0,.5.06.88s.06.64.06.77a1,1,0,0,1-.21.42,1,1,0,0,0-.21.43c0,.33,0,.81.06,1.46s.06,1.14.06,1.47a8.35,8.35,0,0,1-.49,1.46c.41,0,.64.12.7.37a1.54,1.54,0,0,1,0,.67c-.08-.28-.14-.51-.18-.67a.75.75,0,0,0-.31.06.39.39,0,0,0-.18.18.49.49,0,0,0-.06.22v.51a10.26,10.26,0,0,0,.06,1.53l.37.24a.25.25,0,0,1-.19.06,23.14,23.14,0,0,1-.85,3.05,2.36,2.36,0,0,0-.43-.61l-.15.49c-.06.21-.11.37-.15.49l-.64-.67L62,33.77a3.77,3.77,0,0,1-.06.49c0,.24-.08.47-.12.67-.21-.28-.35-.47-.43-.55a2.14,2.14,0,0,1,0,.25,1.84,1.84,0,0,0,0,.24,1.86,1.86,0,0,1-.79-.43,1,1,0,0,1-.25-.73A.89.89,0,0,0,60,33a1,1,0,0,1-.37-.43V34.2l-.06.06c-.08-.37-.2-1.08-.37-2.14a1.85,1.85,0,0,1-.64,0,.87.87,0,0,1-.39-.3l-.37-.4a1.23,1.23,0,0,1-.33-.33,1.29,1.29,0,0,0-.34-.34,1.29,1.29,0,0,1-.37-1,3.06,3.06,0,0,0-.33-1.22l-.4-.86c0-.12-.11-.4-.21-.82a7.41,7.41,0,0,0-.28-1,1.55,1.55,0,0,1-.18-.46,2.35,2.35,0,0,0-.27-.61,1.07,1.07,0,0,0-.46-.33.78.78,0,0,1-.43-.37,2.09,2.09,0,0,1,0-.73c0-.24.08-.39.25-.43-.37-1.13-.59-1.81-.68-2s-.18-.14-.42-.18a1.52,1.52,0,0,1-.28-.8,1.22,1.22,0,0,0-.33-.79,3,3,0,0,1-.67-.73.88.88,0,0,1-.22-.4,1,1,0,0,0-.15-.33l-.67-1.22a1.1,1.1,0,0,0-.31.06v3.84h-.3V19h-.12c-.17.81-.27,1.26-.31,1.34a2,2,0,0,0,.12.55,1.73,1.73,0,0,1,.13.55v2.32q0,2.55-.13,6.89c.21,0,.31.1.31.3s0,.33-.12.37a1.35,1.35,0,0,0-.25.79,2.94,2.94,0,0,0,.09.64,2.62,2.62,0,0,1,.1.52q0-.12,0-.42c0-.21,0-.35,0-.43a2.14,2.14,0,0,1,.42,1.22,2.31,2.31,0,0,1-.3,1.1,1.24,1.24,0,0,1-.09-.37A1.33,1.33,0,0,0,50.27,34Zm-2.93-2.31a3.72,3.72,0,0,1-.25.61,3.56,3.56,0,0,1,.16.36,1,1,0,0,0,.15.31c0-.12.1-.33.18-.61,0-.12-.09-.26-.15-.4A1,1,0,0,1,47.34,31.64Zm-.06,2.68c.44-.2.65-.34.61-.43s-.25-.3-.61-.79Zm.91-20.19q-.06,3.6-.24,12h.24q.06-3.91.19-12ZM48.44,11h-.19a3.21,3.21,0,0,1-.09.52,2.05,2.05,0,0,0-.06.67,1.1,1.1,0,0,0,.21.52h.19Q48.44,11.56,48.44,11ZM50.51,22.3a1.26,1.26,0,0,1,.31.8,3,3,0,0,1-.16.79,2.76,2.76,0,0,0-.15.67Zm4.15,4.52a2,2,0,0,1,.49-.43.33.33,0,0,1,.24.15,1.43,1.43,0,0,1,.21.43c.07.18.12.35.16.49a2.87,2.87,0,0,1,.09.49,1.24,1.24,0,0,0,.09.39.12.12,0,0,0-.09,0,.12.12,0,0,1-.09,0C55.72,28.32,55.35,27.79,54.66,26.82Zm2.38,5a1,1,0,0,1,.82.55,4.7,4.7,0,0,0,.46.67,1.15,1.15,0,0,1-.79-.43A1.52,1.52,0,0,1,57,31.82Zm4-21c-.08.25-.16.51-.24.8a1.55,1.55,0,0,0-.06-.28,2,2,0,0,0-.12-.33.77.77,0,0,1-.07.27l-.09.21a.35.35,0,0,0,0,.13,5.32,5.32,0,0,1,.61.79Zm.13,7.75h-.07v1.47c.21-.21.33-.31.37-.31,0-.16-.09-.37-.15-.64A3,3,0,0,0,61.13,18.58Zm1.46-2.8c0,.61-.1,1.5-.18,2.68h.09s0,0,.09.06c0-.61.1-1.5.18-2.68A.46.46,0,0,0,62.59,15.78Zm.12-4.15v0Z"/><path class="cls-1" d="M77.66,21.08a2.05,2.05,0,0,0,.3-1.71,38.14,38.14,0,0,0,.22-4.05,36.5,36.5,0,0,1,.21-4.06c.24-.61.13-.94-.34-1a3.71,3.71,0,0,0-1,0,1,1,0,0,0-.46.19c-.25.2-.45.18-.61-.06-.37.12-.21.22.49.3l.61,0,.42,0a1.6,1.6,0,0,1-1.7.43c-.78-.16-1.29-.28-1.53-.34s-.24-.14,0-.24.37-.19.37-.27-.21-.07-.49.06a10.67,10.67,0,0,1-2.08.48q-.36-.24-.45-.18a4.37,4.37,0,0,0-.37.28.7.7,0,0,1-.58.15c0-.25-.33-.31-.88-.18a1.74,1.74,0,0,1-1.25-.07c0-.44.71-.85,2-1.22a6.65,6.65,0,0,0,1-.33,13.58,13.58,0,0,1,2.8-.46h-.36a7.75,7.75,0,0,0-2.08.25q-1,.3-1.77.48a2.73,2.73,0,0,1-1.58-.12c-.37-.12-.37-.32,0-.61-.33,0-.47,0-.43-.12s.58-.5,1.62-.89A13.48,13.48,0,0,1,73,7.05a3.16,3.16,0,0,0,1.52-.18A3.9,3.9,0,0,1,76,6.63a6.76,6.76,0,0,1,1.34-.13,6.67,6.67,0,0,1,.92.06c.77.09,1.3.13,1.58.13a.92.92,0,0,1,1.13-.31,1.77,1.77,0,0,0,1.19.06,2.61,2.61,0,0,1,1.49-.76A9.13,9.13,0,0,0,85,5.28l.18.06v.31a1.59,1.59,0,0,1,.73-.06,1.38,1.38,0,0,0,1,.52A6.67,6.67,0,0,0,88,5.86a2.45,2.45,0,0,1,1.22-.09c-.17.16-.14.31.09.43s.31.24.27.36c-.32.13-.34.26-.06.4s.29.27,0,.4v.42c0,.17-.18.23-.55.19a.74.74,0,0,1,.67.24c.45.45.45.81,0,1.1.13.36-.1.64-.67.82a2.44,2.44,0,0,1-1.43.12c-.39-.1-.58-.17-.58-.21h.92c-.58,0-1.08-.06-1.53-.06a9.06,9.06,0,0,0-2.07.18,3.46,3.46,0,0,0-2-.73,1.82,1.82,0,0,0-.91.24A1.41,1.41,0,0,0,80.77,11v.79A2.54,2.54,0,0,1,81,10.47c.14-.2.23-.22.28-.06a10.79,10.79,0,0,1,.12,2.13c0,1.18-.17,3.26-.49,6.22A10.84,10.84,0,0,1,81,19.92q0,.91-.06,1.77a17.19,17.19,0,0,0-.09,1.89,4.59,4.59,0,0,1-.18,1.25c-.15.59-.19.9-.13.92a.19.19,0,0,0,.19-.06,4.19,4.19,0,0,0,.18-1.22,6.8,6.8,0,0,1,.27-1.62,11.15,11.15,0,0,1-.06,1.92,10,10,0,0,0-.06,1.8,1.5,1.5,0,0,1,.58,1.19A11.21,11.21,0,0,1,81.47,29a6.21,6.21,0,0,0-.09.83,6.52,6.52,0,0,1,.06.91,10,10,0,0,1-.67,3.36.91.91,0,0,1-1,.91,2.75,2.75,0,0,1-.73-.12,1.23,1.23,0,0,0-1.1.18,5.26,5.26,0,0,0-.88-.18,2.24,2.24,0,0,1-1.1-.4.87.87,0,0,1-.34-.73V33.1a.92.92,0,0,1-.24.43,5,5,0,0,1,.21-1.62,6.78,6.78,0,0,0,.28-1.55,5.34,5.34,0,0,0,.61-1.62,5.75,5.75,0,0,1,.49-1.5.91.91,0,0,0,.7-.82,3.88,3.88,0,0,0-.22-1.37,1.86,1.86,0,0,1-.06-1.22,3.54,3.54,0,0,1,.09-1.1c.1-.57.12-.87,0-.91s-.18,0-.3.12q0-.18-.09-1.35a2.74,2.74,0,0,1,.09-1.4q.24-1.1.24-.12l.06,1.4C77.74,19.54,77.78,19.74,77.66,21.08ZM71.74,6.87q.42.06-.24.24c-.45.12-.7.19-.74.19h-.61A5,5,0,0,1,71.74,6.87Zm2.07,3.05q-.12,0-.09.15t-.09.15a1,1,0,0,1-.3-.06h.42Q73.93,10,73.81,9.92Zm3.54,12.63a6.73,6.73,0,0,1-.06.88,11.08,11.08,0,0,0,0,1.53c0,.71,0,1.06-.12,1.06a.23.23,0,0,1-.22-.18,1.53,1.53,0,0,1-.15-.52c-.06-.3-.1-.53-.12-.67s0-.34-.06-.61a1.64,1.64,0,0,1,0-.58A1.86,1.86,0,0,1,77.35,22.55Zm-.06-8,.06.18-.12.55C77.11,15.25,77.13,15,77.29,14.56ZM78,12.05l.12,3.12c-.28.12-.45.11-.52,0a1.33,1.33,0,0,1,0-.7,2,2,0,0,0,.07-.64,1.05,1.05,0,0,1,0-.45c0-.21.09-.44.15-.71S77.92,12.18,78,12.05Zm-.24,3.66c.24.13.3.37.18.74s-.2.28-.24-.25A1.68,1.68,0,0,1,77.72,15.71Zm2-5.42-.12.06-.12.12a17.06,17.06,0,0,0-.07,1.95c0,.77,0,2.24-.12,4.39l-.21,4c0,.39-.09,1.2-.21,2.44a18.42,18.42,0,0,0-.13,2.84,2.32,2.32,0,0,0,.22-1.16c0-.61.11-1.58.27-2.9s.35-4.53.55-9.61a1.48,1.48,0,0,0,0-1.13,1.19,1.19,0,0,1-.15-.67q.06-.15.33-.21c.19,0,.22-.07.1-.09Zm.55.48A2.86,2.86,0,0,0,80,12.12c0,.57,0,1.38-.06,2.44s-.06,1.74-.06,2.19a12.28,12.28,0,0,1-.06,1.77,10.14,10.14,0,0,0-.18,1.4c0,.25,0,.57-.06,1a10.68,10.68,0,0,0-.06,1.83,36.33,36.33,0,0,0,.42-5.37c.08-.85.15-2.07.19-3.66S80.18,11.14,80.22,10.77ZM80.58,18a9.2,9.2,0,0,1-.15,1.34,5.36,5.36,0,0,0-.09,1.41s0-.43.15-1.16A6.43,6.43,0,0,0,80.58,18Zm.13-2.5-.13,1.1v.55A3.75,3.75,0,0,0,80.71,15.53Z"/><path class="cls-1" d="M103.28,30.17a7.47,7.47,0,0,1-1.34-1.28l.12-.12a3.58,3.58,0,0,1,.43.3c0-.56-.09-1.38-.13-2.44h-.18c0,.41-.06.66-.06.74-.08-.29-.16-.63-.24-1-.29.12-1.08.44-2.38.94a11.22,11.22,0,0,0-2.87,1.5s0-.1-.15-.18a.71.71,0,0,1-.22-.25c0,.17-.1.4-.18.7s-.15.54-.21.71a3.52,3.52,0,0,1-.28.54,2.3,2.3,0,0,1-.36.49c-.29.25-.42.45-.4.61s.19.35.52.55.53.51.24.79l-.36.19c0-.25-.06-.39-.06-.43a1.8,1.8,0,0,1,.06-.3L94.92,32l-.3-.15c.08.53.12.81.12.85,0,.21-.06.33-.19.37A1.94,1.94,0,0,0,94,34.35a5,5,0,0,1-.31,1.19c-.08.16-.55.24-1.4.24l-.37-.36-.55-.12c0,.28-.23.36-.58.24a1.18,1.18,0,0,0-.64-.12,6.66,6.66,0,0,1-.49-.79,2.13,2.13,0,0,0,.16-.68,6.78,6.78,0,0,0,.09-.91c0-.33-.08-.53-.25-.61a3.51,3.51,0,0,0,0-.37,3.44,3.44,0,0,1,0-.42.5.5,0,0,1,.19-.37.2.2,0,0,0,.06-.15,2.05,2.05,0,0,0,0-.28,1.89,1.89,0,0,1,0-.3s0-.31.12-.79a3,3,0,0,1-.4.15l-.46.15a1,1,0,0,0,.1-.52c0-.14-.14-.23-.34-.27a2.66,2.66,0,0,0-.3-.86l.15-.18a1.58,1.58,0,0,0,.15-.24,4,4,0,0,1-.61.12c0-.12-.11-.48-.21-1.07a3.24,3.24,0,0,0-.46-1.31,1.14,1.14,0,0,1,.85-.67,10.86,10.86,0,0,0,2.38-1,6.45,6.45,0,0,1,.55-.79,2.11,2.11,0,0,0,.12.49.88.88,0,0,0,.1-.37.89.89,0,0,1,.15-.46,1.06,1.06,0,0,1,.36-.27c.13,0,.17-.16.13-.37a.92.92,0,0,1-.07-.36,2,2,0,0,1,.1-.55,3,3,0,0,1,.3-.67l.28-.49a3.77,3.77,0,0,1,.48-.8l.19-.12A5.65,5.65,0,0,1,93.58,18a5.38,5.38,0,0,1,.4-.91A3.84,3.84,0,0,0,94.37,16a3.15,3.15,0,0,1-.61-.06c.49-1.34.77-2.12.86-2.32a16.81,16.81,0,0,1,.67-4A5,5,0,0,1,96.81,7l-.18-.18c.41-.94.75-1.67,1-2.2s.44-.83.61-.91A3.14,3.14,0,0,1,100,3l.25.3V2.78c.12.12.3.31.55.55l.61-.37.73-.42s0,.3.06.79a.52.52,0,0,1,.28-.09,1.1,1.1,0,0,0,.33-.09.51.51,0,0,0-.06-.31A3.52,3.52,0,0,1,104,4.55,12.28,12.28,0,0,1,104.38,7l-.37-.3c.12,1.18.37,2.84.73,5l.25.49h.12a3.34,3.34,0,0,1,.12.91c0,.25,0,.57-.06,1a.17.17,0,0,0,.12.06,1.63,1.63,0,0,0,.06-.49,1.12,1.12,0,0,1,.06-.43h.19q.12,1.47.12,1.59a2.82,2.82,0,0,1-.09.67,2.53,2.53,0,0,0-.09.55.88.88,0,0,0,.3.61,2.5,2.5,0,0,0-.3,1.52.9.9,0,0,0,.09.34,2,2,0,0,1,.12.34.8.8,0,0,1,0,.36v.55l.18.06V18.64a.93.93,0,0,1,.25-.06l.12.55a1.33,1.33,0,0,0,.09.85,1.67,1.67,0,0,0,.82.37,8.89,8.89,0,0,1-.67.73,4.08,4.08,0,0,1,.64-.09l.58,0v.12l-.4.22-.45.27a7.26,7.26,0,0,1,.79.18,5.27,5.27,0,0,1-.55.34,3.28,3.28,0,0,1-.55.27l1.19-.15c.51-.06.87-.11,1.07-.15a.05.05,0,0,1,.06.06v.12l-.55.15-.55.16a3.41,3.41,0,0,1,.37.48l.55-.12a6.5,6.5,0,0,0-1.59,1.16l-1,1-.12-.19-.06.25c-.24.08-.26.22-.06.43l.06.55H106q0,.18,0,.57c0,.27,0,.46,0,.58a5,5,0,0,0,.06.8c.12.77.31,1.67.55,2.68a5.14,5.14,0,0,0,.31.92,7.75,7.75,0,0,1,.3.85c.37,1.34.71,2.71,1,4.09a2.88,2.88,0,0,1,.24.33.5.5,0,0,1,.06.52,1.57,1.57,0,0,0-.18.37s-.11,0-.21-.15a1.14,1.14,0,0,0-.28-.22,3.17,3.17,0,0,0-.12.73l-.67-.67a2,2,0,0,1,0,.31,1.07,1.07,0,0,1-.09.3c0-.12-.17-.4-.37-.85,0,.2-.08.46-.12.76a2.32,2.32,0,0,1-.12.58c-.41-.28-.67-.22-.8.18,0-.08-.16-.4-.36-1a7.48,7.48,0,0,1-.31.85,2.25,2.25,0,0,1-1-1.65,4.3,4.3,0,0,0-.67-2.19,1.11,1.11,0,0,1-.28-.43,5.24,5.24,0,0,1-.18-.61,3.37,3.37,0,0,0-.15-.49.62.62,0,0,1,.24-.12l.43.18a11.54,11.54,0,0,1,.79,2h.24a2.9,2.9,0,0,0-.73-2,1,1,0,0,1-.24-.73,4.51,4.51,0,0,1,.09-.73,4.39,4.39,0,0,0,.09-.73c0-.45-.12-.57-.36-.37l-.31-.06A.91.91,0,0,1,103.28,30.17ZM89.67,32.49q-.18.85-.36,1.77a.05.05,0,0,1-.06-.06V32.06c.12,0,.18.09.18.25S89.51,32.53,89.67,32.49Zm0-.06-.06.06Zm6.1-21.9a3.48,3.48,0,0,0-.54,1.77,5,5,0,0,0,.12,1c.12-.29.27-.69.46-1.19s.31-.89.39-1.13Zm4.64,2.38c-.41,1.83-.65,2.89-.73,3.17a5.15,5.15,0,0,1-.28.76,6.16,6.16,0,0,0-.27.77A10,10,0,0,0,98.89,19q.3,0,.3.12a2,2,0,0,1-.3.61,1.84,1.84,0,0,0,0-.24.55.55,0,0,0-.1-.25,14,14,0,0,0-.85,2.5c-.12.45,0,.53.49.25l.61-.31h.12a2.72,2.72,0,0,0,1.19-.36,4.2,4.2,0,0,1,1-.43,1.27,1.27,0,0,0,.79-.73,4.8,4.8,0,0,0,.06-1.16l-.21.33a.61.61,0,0,0-.09.22h-.19c-.12-1-.26-2.44-.42-4.27l-.07.12a9.86,9.86,0,0,1-.42-1.28c-.21-.41-.27-.67-.19-.8v-.36h-.18Zm.73-2v2.8c.13,0,.33-.12.61-.24V12.12S101.51,11.67,101.14,10.9Zm.8,3.23h-.13c0,1,.09,1.79.13,2.32a1.65,1.65,0,0,0,.36-1A6.83,6.83,0,0,0,101.94,14.13Zm1.52-4.76h-.24c-.08.94-.12,1.42-.12,1.46q.06.38.24,1.41a10.18,10.18,0,0,1,.18,1.64,6.67,6.67,0,0,1,.06.92c0,.57,0,1.36-.06,2.38s-.06,1.67-.06,1.95v.31a.35.35,0,0,0,.06.24h.25c.12-2.16.18-3.58.18-4.27a20.81,20.81,0,0,0-.18-2.87,4,4,0,0,1,.3.55,3.84,3.84,0,0,0-.06-.73l-.3-.24c0-.21,0-.64-.1-1.29S103.5,9.7,103.46,9.37Zm.49.73h-.24c.08.49.18,1.24.3,2.26a6,6,0,0,0,.12-1.16A3.17,3.17,0,0,0,104,10.1ZM104,28h-.18c0,.2.26,1,.67,2.38a.21.21,0,0,0,.18-.07c-.08-.28-.2-.7-.37-1.25S104,28.14,104,28Zm1,3.66h-.19c.25.93.51,2,.8,3a.46.46,0,0,1,.18-.06C105.41,33.28,105.15,32.29,105,31.64Zm.06-21.78c0,.16.11.42.21.76a3.15,3.15,0,0,1,.15.76,1.25,1.25,0,0,1-.3.8H105c-.09-1.3-.13-2.08-.13-2.32h.19ZM106,26.09l.19.06c0,.28.14.81.3,1.58l-.18.06a3.54,3.54,0,0,1-.15-.73C106.05,26.65,106,26.33,106,26.09Z"/><path class="cls-1" d="M111.51,33.71a3.33,3.33,0,0,1,.19,1.22c0,.12,0,.35,0,.67s0,.57,0,.73a1.86,1.86,0,0,1-.31-1.22A5.91,5.91,0,0,1,111.51,33.71Zm2.14,1.22a16.23,16.23,0,0,0-.37,1.89h-.12a2.8,2.8,0,0,1-.06-.55s-.18.27-.43.67a2.42,2.42,0,0,1-.24-1.34,5.8,5.8,0,0,0,.09-.94,2.75,2.75,0,0,1,.21-1.07,1.29,1.29,0,0,0,0-.82,4.09,4.09,0,0,1-.15-.77q0-.66.12-1.89a2.83,2.83,0,0,0,.19-.24,2.12,2.12,0,0,1,.18-.25,1.33,1.33,0,0,0,.06-.42,2.71,2.71,0,0,0-.18-.83,2.43,2.43,0,0,1-.19-.7,3.37,3.37,0,0,1,.06-1,12.28,12.28,0,0,0,.37-1.95q0-.18-.3-.24a1,1,0,0,1,.18-.31,2.23,2.23,0,0,0,.27-.45,1,1,0,0,0,.09-.34c-.16-2.11-.24-3.19-.24-3.23s.12-1.2.37-3.48v-.4a.48.48,0,0,1,.06-.21,2.75,2.75,0,0,0,0,.34.52.52,0,0,0,.09.27,9,9,0,0,0,.18-1.95c0-.29,0-.71,0-1.28s0-1,0-1.22q0-.73.06-1.35h.25q0,3.24-.19,7.08a3.68,3.68,0,0,0,.06-.79h.19a2.34,2.34,0,0,0,.12.58c.08.26.14.48.18.64a.18.18,0,0,1,.13-.06c-.09-.74-.13-1.12-.13-1.16a1.39,1.39,0,0,0,.06-.58,1,1,0,0,1,.25-.76,2.58,2.58,0,0,0,1.1-2,2,2,0,0,0-.07-.48,2.15,2.15,0,0,1,.19-1.22V14.8l2.38-1.65L119.75,12c.57-.51.93-.82,1.1-.94a2.31,2.31,0,0,0,.48-.19,1,1,0,0,0,.07.49l.24.18a1,1,0,0,1,.28-.3,1.11,1.11,0,0,0,.27-.3.76.76,0,0,0,0-.43l.18,0a.38.38,0,0,0,.18-.09.75.75,0,0,1,.43-.92,5.2,5.2,0,0,0,1-.73c.3-.28.79-.78,1.46-1.5S126.64,6,127,5.59c.08,0,.53-.39,1.34-1,.08.49.26.73.55.73-1.26,1.39-1.93,2.12-2,2.2s-.56.54-1.07,1a13.27,13.27,0,0,0-1.13,1.12c-.24.25-.59.62-1,1.13s-.79.89-1,1.13a8.77,8.77,0,0,0-.74.61,4.82,4.82,0,0,0-.79.86,16.35,16.35,0,0,0,2.62-2.2,30.06,30.06,0,0,1,2.81-2.5l-.43.55a.17.17,0,0,1,.06.12,7.34,7.34,0,0,0,2-1.71,11.88,11.88,0,0,1,1.74-1.71.7.7,0,0,0,.18.12,12,12,0,0,1-.92,1.26c-.32.38-.79.88-1.4,1.49l-1.1,1.1a.2.2,0,0,0-.06.24l3-2.8a.17.17,0,0,0,.12.06,2.41,2.41,0,0,1-.55.79c-.24.24-.51.5-.82.76a6.53,6.53,0,0,0-.7.7c-.24.25-.71.78-1.4,1.59S125,12.62,124.63,13c-.16.16-1.22,1-3.17,2.62a1.62,1.62,0,0,0-.49.61,13,13,0,0,0,1.16-.67l.06.06a14.74,14.74,0,0,0-1.59,1.59s0,.18.12.43a2.33,2.33,0,0,0,.31.48l-.18.37a3.63,3.63,0,0,0,.21.34q.15.21.21.21l.31-.06s.1,0,.18.15a1.44,1.44,0,0,0,.19.21l.64.55a5.69,5.69,0,0,0,.79.64,5.31,5.31,0,0,0,.76.46,1.14,1.14,0,0,1-.06.25,1,1,0,0,0-.06.24l-.49-.18a2.8,2.8,0,0,0,.52.7c.1.06.33,0,.7-.09a.68.68,0,0,1,.31-.06,1.64,1.64,0,0,1,1.46.73,3.48,3.48,0,0,0,1.46.85.19.19,0,0,1,.13.06c.24,0,.3.11.18.31q0,.06.15.18a1.31,1.31,0,0,0,.28.18c2.19,1.47,3.33,2.24,3.41,2.32a2.43,2.43,0,0,1,.37.67l-.67-.24c.08.16.18.4.3.7s.21.52.25.64c-.49.25-.59.57-.31,1l-.49.24-.61.31a.58.58,0,0,1,.25.27.46.46,0,0,1,0,.28q0,.12-.12.39a2.09,2.09,0,0,0-.1.34l-.39-.06a3.45,3.45,0,0,0-.58-.06,1.1,1.1,0,0,1,.27.21.45.45,0,0,0,.22.15c-.13.25-.25.35-.37.31-2.36-1.18-3.68-1.83-4-2v-.24a.36.36,0,0,0-.19-.55,1.9,1.9,0,0,0-.42-.18h-.13a1.55,1.55,0,0,0-.88-1.16l-1-.61s-.08-.06-.24-.06h-.18a7.29,7.29,0,0,1-1.53-.55l-.12.12-.06-.12c-.17-.45-.29-.67-.37-.67a.53.53,0,0,1-.24.06,1,1,0,0,1-.55-.15,3.46,3.46,0,0,1-.52-.4c-.18-.16-.34-.28-.46-.37s-.57-.46-1.1-.91c0,0,0-.18-.06-.43,0,0-.27-.2-.7-.49l-.94-.61a.84.84,0,0,0-.16.31,4,4,0,0,0-.15.49,1.76,1.76,0,0,0-.06.42c0,.09,0,.57.12,1.47a.94.94,0,0,1-.49-.92,5.29,5.29,0,0,1,.1-.88,6.21,6.21,0,0,0,.09-.83,1.33,1.33,0,0,0-.06-.42h-.19a28.61,28.61,0,0,0-.18,3.23.57.57,0,0,1-.49.61c.08-2.07.16-3.68.25-4.82v-.18l-.55.18a7.07,7.07,0,0,0-.37-.91,2.51,2.51,0,0,0-.12.42q-.49.43-.12,1.47a6.29,6.29,0,0,1,.06,1.34l.12-.06c-.16.89-.29,1.48-.37,1.77h-.12V22.24a2.9,2.9,0,0,0-.15.86.92.92,0,0,1-.28.73l.19.18.24.24a5,5,0,0,0-.43,1.23.77.77,0,0,0,.49.67q-.06,2.37-.24,7.19h.12c.08-.48.26-1.48.55-3a1.45,1.45,0,0,0,.43-1.22c0-.09,0-.24,0-.46s0-.4,0-.52a1.24,1.24,0,0,1,.06-.37l.3-1.77.49-.12a12.41,12.41,0,0,1-.09,1.25,10.51,10.51,0,0,1-.15,1.07l.12.06a6.43,6.43,0,0,0,.12-.73,4,4,0,0,1,.12-.67c.12.45.22.79.31,1a3.38,3.38,0,0,0-.31.57c-.12.27-.2.44-.24.52a1.05,1.05,0,0,0-.12-.3v.67q.42-.06.51.09a.92.92,0,0,1,0,.58v1.34a2.63,2.63,0,0,1-.3,1.53l-.12,3.23a3.35,3.35,0,0,1-.19.55l-.21-.18a2.44,2.44,0,0,1-.21-.19c-.08.21-.17.43-.25.67a8,8,0,0,0-.55-.79c-.12.16-.2.27-.24.31,0-.21,0-.49,0-.86A3.46,3.46,0,0,0,113.65,34.93Zm.73-8.3h.25a4.9,4.9,0,0,0-.13.74,6.5,6.5,0,0,0-.06.73h-.18Q114.32,27.13,114.38,26.63Zm-.06-8.23q.06,1.22.06,1.71a1.56,1.56,0,0,0,.21-.95A1,1,0,0,0,114.32,18.4Zm0,13.18c0,.36,0,.63,0,.79h.24c0-.16,0-.43,0-.79a5.09,5.09,0,0,1,.1-.86h-.25A6.7,6.7,0,0,0,114.35,31.58Zm0-27.21h.12V6.2h-.12Zm1.16,25.31c-.24,1.22-.41,2.14-.49,2.75a.27.27,0,0,1,.12,0,.28.28,0,0,0,.13,0,11.69,11.69,0,0,1,.12-1.4q.12-.91.18-1.41ZM116,9.61h.18v2.14H116ZM121,13.34a.35.35,0,0,0-.24.06c-.09,0-.66.48-1.71,1.34l.49-.15a1.78,1.78,0,0,0,.45-.28l.34-.27a3.23,3.23,0,0,0,.36-.37Zm4,15.49,1.22.61v.24l-.55.07c-.17-.13-.45-.37-.86-.74a.47.47,0,0,0,.09-.12A.1.1,0,0,1,125,28.83Zm4.2-22.75-.94.94c-.43.43-.74.76-.95,1l-.12-.12Z"/><path class="cls-1" d="M144.52,21.08a2.05,2.05,0,0,0,.3-1.71,38.14,38.14,0,0,0,.22-4.05,34.18,34.18,0,0,1,.21-4.06c.24-.61.13-.94-.34-1a3.71,3.71,0,0,0-1,0,1,1,0,0,0-.46.19c-.25.2-.45.18-.61-.06-.37.12-.21.22.49.3l.61,0,.42,0a1.6,1.6,0,0,1-1.7.43c-.78-.16-1.29-.28-1.53-.34s-.24-.14,0-.24.37-.19.37-.27-.21-.07-.49.06a10.67,10.67,0,0,1-2.08.48q-.36-.24-.45-.18a4.37,4.37,0,0,0-.37.28.7.7,0,0,1-.58.15c0-.25-.33-.31-.88-.18a1.74,1.74,0,0,1-1.25-.07c0-.44.71-.85,2-1.22a6.65,6.65,0,0,0,1-.33,13.58,13.58,0,0,1,2.8-.46h-.37a7.73,7.73,0,0,0-2.07.25q-1,.3-1.77.48a2.72,2.72,0,0,1-1.58-.12c-.37-.12-.37-.32,0-.61-.33,0-.47,0-.43-.12s.58-.5,1.62-.89a13.48,13.48,0,0,1,3.26-.76,3.16,3.16,0,0,0,1.52-.18,3.9,3.9,0,0,1,1.47-.24,7,7,0,0,1,2.26-.07c.77.09,1.3.13,1.58.13a.92.92,0,0,1,1.13-.31,1.77,1.77,0,0,0,1.19.06,2.61,2.61,0,0,1,1.49-.76,9.13,9.13,0,0,0,1.38-.4l.18.06v.31a1.59,1.59,0,0,1,.73-.06,1.38,1.38,0,0,0,.95.52,6.67,6.67,0,0,0,1.19-.25,2.45,2.45,0,0,1,1.22-.09c-.17.16-.14.31.09.43s.31.24.27.36c-.32.13-.34.26-.06.4s.29.27,0,.4v.42c0,.17-.18.23-.55.19a.74.74,0,0,1,.67.24c.45.45.45.81,0,1.1.13.36-.1.64-.67.82a2.44,2.44,0,0,1-1.43.12c-.39-.1-.58-.17-.58-.21h.91c-.56,0-1.07-.06-1.52-.06a9.06,9.06,0,0,0-2.07.18,3.46,3.46,0,0,0-2-.73,1.82,1.82,0,0,0-.91.24,1.41,1.41,0,0,0-.67,1.29v.79a2.54,2.54,0,0,1,.21-1.28c.14-.2.23-.22.28-.06a10.79,10.79,0,0,1,.12,2.13c0,1.18-.17,3.26-.49,6.22a10.84,10.84,0,0,1,.06,1.16q0,.91-.06,1.77a17.19,17.19,0,0,0-.09,1.89,4.59,4.59,0,0,1-.18,1.25c-.15.59-.19.9-.13.92a.19.19,0,0,0,.19-.06,4.19,4.19,0,0,0,.18-1.22,6.8,6.8,0,0,1,.27-1.62,11.15,11.15,0,0,1-.06,1.92,10,10,0,0,0-.06,1.8,1.5,1.5,0,0,1,.58,1.19,11.21,11.21,0,0,1-.12,1.22,6.21,6.21,0,0,0-.09.83,6.52,6.52,0,0,1,.06.91,10,10,0,0,1-.67,3.36.91.91,0,0,1-1,.91,2.75,2.75,0,0,1-.73-.12,1.23,1.23,0,0,0-1.1.18,5,5,0,0,0-.88-.18,2.24,2.24,0,0,1-1.1-.4.9.9,0,0,1-.34-.73V33.1a.92.92,0,0,1-.24.43,5,5,0,0,1,.21-1.62,6.78,6.78,0,0,0,.28-1.55,5.34,5.34,0,0,0,.61-1.62,5.75,5.75,0,0,1,.49-1.5.91.91,0,0,0,.7-.82,3.88,3.88,0,0,0-.22-1.37,1.86,1.86,0,0,1-.06-1.22,3.54,3.54,0,0,1,.09-1.1c.1-.57.12-.87,0-.91s-.18,0-.3.12q0-.18-.09-1.35a2.74,2.74,0,0,1,.09-1.4q.24-1.1.24-.12l.06,1.4C144.6,19.54,144.64,19.74,144.52,21.08ZM138.6,6.87q.42.06-.24.24c-.45.12-.7.19-.74.19H137A5,5,0,0,1,138.6,6.87Zm2.07,3.05q-.12,0-.09.15t-.09.15a1,1,0,0,1-.3-.06h.42Q140.79,10,140.67,9.92Zm3.54,12.63a6.73,6.73,0,0,1-.06.88,11.08,11.08,0,0,0,0,1.53c0,.71,0,1.06-.12,1.06a.23.23,0,0,1-.22-.18,1.53,1.53,0,0,1-.15-.52c-.06-.3-.1-.53-.12-.67s0-.34-.06-.61a1.64,1.64,0,0,1,0-.58A1.86,1.86,0,0,1,144.21,22.55Zm-.06-8,.06.18-.12.55C144,15.25,144,15,144.15,14.56Zm.67-2.51.12,3.12c-.28.12-.45.11-.52,0a1.33,1.33,0,0,1,0-.7,2,2,0,0,0,.07-.64,1.05,1.05,0,0,1,0-.45c0-.21.09-.44.15-.71S144.78,12.18,144.82,12.05Zm-.24,3.66c.24.13.3.37.18.74s-.2.28-.24-.25A1.68,1.68,0,0,1,144.58,15.71Zm1.95-5.42-.12.06-.12.12a17.06,17.06,0,0,0-.07,1.95c0,.77,0,2.24-.12,4.39l-.21,4c0,.39-.09,1.2-.21,2.44a18.42,18.42,0,0,0-.13,2.84,2.32,2.32,0,0,0,.22-1.16c0-.61.11-1.58.27-2.9s.35-4.53.55-9.61a1.48,1.48,0,0,0,0-1.13,1.19,1.19,0,0,1-.15-.67q.06-.15.33-.21c.19,0,.22-.07.1-.09Zm.55.48a2.86,2.86,0,0,0-.25,1.35c0,.57,0,1.38-.06,2.44s-.06,1.74-.06,2.19a12.28,12.28,0,0,1-.06,1.77,10.14,10.14,0,0,0-.18,1.4c0,.25,0,.57-.06,1a10.68,10.68,0,0,0-.06,1.83,36.33,36.33,0,0,0,.42-5.37c.08-.85.15-2.07.19-3.66S147,11.14,147.08,10.77Zm.36,7.26a9.2,9.2,0,0,1-.15,1.34,5.36,5.36,0,0,0-.09,1.41s.05-.43.15-1.16A7,7,0,0,0,147.44,18Zm.13-2.5-.13,1.1v.55A3.75,3.75,0,0,0,147.57,15.53Z"/></g></g></svg>