<?xml version="1.0" encoding="utf-8"?>
<!-- Generator: Adobe Illustrator 22.0.1, SVG Export Plug-In . SVG Version: 6.00 Build 0)  -->
<svg version="1.1" id="Layer_1" xmlns="http://www.w3.org/2000/svg" xmlns:xlink="http://www.w3.org/1999/xlink" x="0px" y="0px"
	 viewBox="0 0 767.5 766" style="enable-background:new 0 0 767.5 766;" xml:space="preserve">
<style type="text/css">
	.st0{fill:#ADADAD;}
</style>
<title>Asset 5</title>
<g id="Layer_2_1_">
	<g id="Layer_1-2">
		<path class="st0" d="M767.5,379.9c-0.8,13.7-5.8,22.5-12.4,30.1c-7.2,8.3-14.9,16.1-22.7,23.9C669.9,496.5,607.5,559,545,621.4
			c-18.2,18.3-36.1,37-54.2,55.3c-21,21.1-41.9,42.3-63.3,63c-8.7,8.4-17.3,17.1-28.7,22.4c-12.6,5.9-24.3,4.9-35.4-2.6
			c-6.9-4.6-13.3-9.9-19.1-15.7c-97.3-97.1-194.6-194.3-291.7-291.5c-12.7-12.7-25.3-25.4-37.3-38.7C7.4,405.1,0,395.5,0,383.3
			c0-6.7,2.6-13.9,5.9-19.9c3.8-6.8,9.2-12.9,14.7-18.4c55.2-55.4,110.5-110.8,165.9-166c44.1-44,88.4-87.9,132.7-131.6
			c12.2-12,24.6-23.8,37.5-35.1c7-6.1,15-11.4,24.7-12.2c7.3-0.6,14.2,2.2,19.9,6.3c8.5,6.1,17,12.5,24.4,19.8
			c34.7,34.2,69,68.9,103.5,103.3c8.1,8.1,16.7,15.7,24.8,23.8c60.3,60.3,120.6,120.6,180.8,180.9c9.3,9.2,17.9,19.1,25.8,29.5
			C764.7,368.9,766,376.1,767.5,379.9z M383.6,20.5c-10.1-0.9-17,5-23.3,11c-16.4,15.9-32.4,32.1-48.5,48.4
			c-9.8,9.9-19.2,20.1-29,30c-50.7,51.1-101.4,102.3-152.2,153.3c-17.7,17.8-35.4,35.6-53.2,53.3c-15.1,15.1-30.3,30-45.2,45.3
			c-5.3,5.5-10.2,11.3-10.3,19.9c-0.1,9,4.8,15.3,10.5,21c32.2,32.1,64.6,63.9,96.9,95.9c21,20.8,41.9,41.8,62.8,62.8l117.1,117.1
			c18.2,18.2,36,36.8,54.6,54.4c12.3,11.6,21.8,14.8,37.3,1.1c6.9-6.1,13-13,19.6-19.5c14.6-14.3,29.5-28.5,44-43
			c12.8-12.8,25-26,37.8-38.7c9-9.1,18.6-17.6,27.7-26.6c68.9-68.7,137.6-137.6,206.4-206.5c2.7-2.8,4.8-6.1,6.2-9.8
			c4.3-11.5-1.2-20.4-8.9-28.2c-20.8-20.9-41.7-41.6-62.5-62.6c-15.6-15.7-30.8-31.8-46.4-47.5C573,199.1,520.8,146.5,468.4,93.9
			c-11.2-11.2-22.9-21.9-34-33c-9.7-9.7-18.7-19.9-28.5-29.4C399.7,25.5,393.1,19.5,383.6,20.5z"/>
		<path class="st0" d="M711.1,382c-1.2,9.4-5.4,16.7-10.8,23.2c-6.8,8.1-14.5,15.4-21.7,23.1c-2,2.2-3.7,4.8-5.8,6.9
			C586.9,521.1,501,607,415.1,692.8c-7.5,7.5-16,14.6-27.1,15.7c-5.6,0.5-12.2-0.2-17.1-2.8c-8.2-4.2-15.7-9.5-22.3-15.8
			c-29.8-29.1-59.1-58.8-88.6-88.3c-7.9-7.9-15.3-16.2-23.1-24.2c-15.6-15.8-31.3-31.4-47-47c-39-39-78.2-77.9-116.9-117.1
			c-7.3-7.4-13.4-15.8-15.8-26.6c-1.3-5.9-0.1-12.1,3.3-17.1c6-9.4,12.8-18.2,20.4-26.4c20.3-21.1,41.3-41.6,62.1-62.3
			c55.7-55.3,111.4-110.7,167.1-166c10.8-10.7,21.3-21.7,32.3-32.2c6.9-6.6,14.5-12.6,21.9-18.6c11.7-9.4,24.3-10.2,38,0
			c7.4,5.4,14.5,11.3,21.1,17.7c53.7,53.4,107.3,107,160.8,160.6c33.7,33.5,67.7,66.7,101.2,100.4c7.4,7.4,13.8,15.9,19.8,24.4
			C708.1,371.5,709.2,377.1,711.1,382z M142.6,382.1c2.8,5,4.3,10.1,7.6,13.4c72.9,73.3,146,146.4,219.1,219.4
			c8.3,8.3,19.3,8.5,27.4,0.5c29.2-29.1,58.2-58.3,87.4-87.3c14.3-14.2,28.9-28,43.2-42.2c29.8-29.7,59.6-59.4,89.2-89.3
			c5.6-5.6,8.5-12.6,5.3-20.4c-2-4.4-4.9-8.4-8.4-11.8c-71.8-72-143.6-143.9-215.4-215.8c-9.5-9.5-21.5-8.1-29.5,0.1
			c-45.1,45.7-90.2,91.3-135.5,136.8c-12.5,12.6-25.1,25.1-37.7,37.7c-15.1,15.1-30.3,30-45.1,45.4
			C146.9,372.1,145.4,377.1,142.6,382.1L142.6,382.1z"/>
		<path class="st0" d="M524.9,348.7c-0.1,7.5-4.6,15.7-11.1,22.6c-10.9,11.6-22.5,22.5-33.6,33.9c-6.6,6.7-12.8,13.7-19.4,20.4
			c-7.2,7.4-14.6,14.5-21.9,21.8c-11.1,11.1-22.1,22.3-33.2,33.4c-8.2,8.2-16.1,16.7-24.7,24.5s-17.2,15.5-29.1,18.2
			c-8,1.9-14.8-0.4-20.9-4.9c-9.8-7.1-17-16-16.3-29.1c0.4-8,4.5-14.5,9.3-20.5c4.2-5.1,8.7-10,13.4-14.6
			c39.7-39.8,79.4-79.5,119.2-119.1c6.2-6.2,13.5-11.4,20.5-16.5c10.4-7.6,21.5-6.7,31.6,0.1C518.2,325.2,525,333.9,524.9,348.7z"/>
		<path class="st0" d="M419.8,241c13-1.7,28.5,13.8,30.9,26.3c2.7,13.7-4,24-12.4,33.1c-10.3,11.4-21.7,21.9-32.6,32.8
			c-13.5,13.5-27.1,27-40.5,40.5c-17.9,18.1-35.3,36.6-53.5,54.3c-7.4,7.1-15.6,13.4-24.4,18.8c-20.3,12.4-40.5-6.1-44.7-21.2
			c-3.8-13.7,3.2-24,11.5-33.2c11.9-13.3,24.6-25.9,37.2-38.5c13.1-13.1,26.7-25.9,39.8-39c10.7-10.7,20.9-21.9,31.8-32.4
			c12.7-12.2,25.6-24.3,39.1-35.6c4.6-3.8,11.3-5,17-7.4L419.8,241z"/>
	</g>
</g>
</svg>
