<svg xmlns="http://www.w3.org/2000/svg" viewBox="0 0 243.71 243.59"><title>Asset 1</title><g id="Layer_2" data-name="Layer 2"><g id="Layer_1-2" data-name="Layer 1"><path d="M121.47,243.2c-19,0-38,.68-56.95-.15-30.58-1.35-58.39-27-63.22-57.21a89.83,89.83,0,0,1-1.1-13.9C.11,138.63.63,105.3,0,72A71.37,71.37,0,0,1,61.58.44,68.08,68.08,0,0,1,71.06.05c33.81,0,67.63-.1,101.44,0,35.68.1,64.47,24.56,70.42,59.79a75,75,0,0,1,.73,12.46q.09,49.22,0,98.44c-.07,36.81-22.81,64.61-58.82,71.76a75,75,0,0,1-13.91,1c-16.49.11-33,0-49.47,0ZM19,121.39h-.2c0,16.82-.14,33.64,0,50.46.29,29.89,22.35,52.82,51.52,53.06q51.72.44,103.44,0A51.52,51.52,0,0,0,225,174.07c.47-34.8.41-69.62,0-104.43C224.71,42.54,204,20,176.93,19.16q-54.66-1.62-109.4-.07c-27.07.76-47,21.24-48.4,48.35C18.19,85.38,19,103.41,19,121.39Z"/><path d="M187.34,121.65A65.54,65.54,0,1,1,122,56.15,65.25,65.25,0,0,1,187.34,121.65ZM122,168.6a46.7,46.7,0,0,0,46.75-47.1C168.5,95.25,147.86,74.92,121.51,75c-26.18.09-46.54,20.81-46.38,47.2A46.45,46.45,0,0,0,122,168.6Z"/><path d="M206.21,46.75a9.39,9.39,0,0,1-9.09,9.35,9.62,9.62,0,0,1-9.71-9.33,9.89,9.89,0,0,1,9.7-9.45A9.62,9.62,0,0,1,206.21,46.75Z"/></g></g></svg>