<?xml version="1.0" encoding="utf-8"?>
<!-- Generator: Adobe Illustrator 22.0.1, SVG Export Plug-In . SVG Version: 6.00 Build 0)  -->
<svg version="1.1" id="Layer_1" xmlns="http://www.w3.org/2000/svg" xmlns:xlink="http://www.w3.org/1999/xlink" x="0px" y="0px"
	 viewBox="0 0 207.4 42.9" style="enable-background:new 0 0 207.4 42.9;" xml:space="preserve">
<style type="text/css">
	.st0{opacity:0.5;}
	.st1{fill:#231F20;}
</style>
<title>Asset 1</title>
<g id="Layer_2_1_" class="st0">
	<g id="Layer_1-2">
		<path class="st1" d="M0,35.6v-35h12.7c3.9,0,6.9,0.7,9,2.1c2,1.3,3.2,3.6,3.2,6.1c0,1.9-0.7,3.6-1.9,5c-1.3,1.4-3,2.5-4.9,2.9v0.1
			c2.3,0.2,4.4,1.2,6,2.8c1.5,1.5,2.3,3.5,2.2,5.6c0.1,2.9-1.2,5.8-3.4,7.6c-2.3,1.9-5.4,2.8-9.4,2.8L0,35.6z M7.9,6.4v8.3h3.5
			c1.4,0.1,2.8-0.3,3.9-1.2c0.9-0.8,1.5-2,1.4-3.3c0-2.6-1.9-3.9-5.8-3.8H7.9z M7.9,20.6v9.2h4.3c1.5,0.1,3-0.4,4.3-1.3
			c1-0.8,1.6-2.1,1.6-3.5c0.1-1.3-0.5-2.5-1.5-3.3c-1.2-0.9-2.7-1.3-4.3-1.2H7.9z"/>
		<path class="st1" d="M60.6,20.4c0,10.5-4.9,15.8-14.7,15.8c-9.5,0-14.3-5.1-14.3-15.4V0.6h7.9v20.3c0,5.7,2.2,8.5,6.6,8.5
			s6.6-2.7,6.5-8.2V0.6h7.9V20.4z"/>
		<path class="st1" d="M66.6,34.2v-7.8c1.4,1.2,2.9,2.1,4.6,2.7c1.6,0.6,3.3,0.9,5,0.9c0.9,0,1.7-0.1,2.6-0.3
			c0.7-0.1,1.3-0.4,1.9-0.7c0.5-0.3,0.8-0.7,1.1-1.1c0.2-0.4,0.4-0.9,0.4-1.4c0-0.7-0.2-1.3-0.6-1.8c-0.4-0.6-1-1.1-1.6-1.5
			c-0.8-0.5-1.6-0.9-2.4-1.3c-0.9-0.4-1.9-0.9-3-1.3c-2.3-0.9-4.4-2.3-6.1-4.2c-1.4-1.7-2.1-3.8-2-6c0-1.6,0.3-3.3,1.1-4.7
			c0.7-1.3,1.8-2.4,3-3.2c1.3-0.9,2.8-1.5,4.4-1.8C76.7,0.2,78.4,0,80.2,0c1.6,0,3.2,0.1,4.8,0.3c1.3,0.2,2.6,0.5,3.9,1v7.3
			c-0.6-0.4-1.3-0.8-1.9-1.1c-0.7-0.3-1.4-0.6-2.1-0.8c-0.7-0.2-1.5-0.3-2.2-0.4c-0.7-0.1-1.4-0.1-2.1-0.2c-0.8,0-1.6,0.1-2.4,0.3
			c-0.7,0.1-1.3,0.4-1.9,0.7c-0.5,0.3-0.9,0.7-1.2,1.1c-0.3,0.4-0.4,0.9-0.4,1.4c0,0.6,0.2,1.1,0.5,1.6c0.4,0.5,0.8,1,1.3,1.3
			c0.7,0.5,1.3,0.9,2.1,1.2c0.8,0.4,1.7,0.8,2.8,1.2c1.3,0.5,2.6,1.2,3.8,1.9c1,0.6,2,1.3,2.9,2.2c0.8,0.8,1.4,1.8,1.8,2.8
			c0.4,1.2,0.7,2.5,0.6,3.7c0.1,1.7-0.3,3.4-1.1,4.9c-0.7,1.3-1.8,2.4-3,3.2c-1.4,0.9-2.9,1.5-4.4,1.8c-1.8,0.4-3.5,0.5-5.3,0.5
			c-1.8,0-3.7-0.2-5.5-0.5C69.6,35.4,68,34.9,66.6,34.2z"/>
		<path class="st1" d="M120.8,7h-10v28.6h-7.9V7H93V0.6h27.8L120.8,7z"/>
		<path class="st1" d="M135.5,36.1H131v-2l0,0c-1,1.5-2.7,2.4-4.5,2.3c-1.7,0.1-3.3-0.6-4.3-1.9c-1.2-1.5-1.8-3.4-1.7-5.3
			c-0.1-2.1,0.5-4.1,1.8-5.7c1.2-1.4,2.9-2.2,4.8-2.1c1.6-0.2,3.1,0.6,3.9,2l0,0v-8.6h4.4L135.5,36.1z M131.1,29.1V28
			c0-0.9-0.3-1.7-0.8-2.3c-1.1-1.2-2.9-1.2-4.1-0.2c-0.1,0.1-0.3,0.3-0.4,0.4c-0.6,1-0.9,2.1-0.8,3.2c-0.1,1,0.2,2.1,0.8,2.9
			c1,1.2,2.8,1.4,4,0.4c0.2-0.1,0.3-0.3,0.4-0.4C130.9,31.1,131.2,30.1,131.1,29.1L131.1,29.1z"/>
		<path class="st1" d="M152.2,30.2h-9.4c0.2,2.1,1.5,3.1,4,3.1c1.5,0,2.9-0.4,4.2-1.1v3.2c-1.6,0.8-3.4,1.1-5.2,1.1
			c-2,0.1-3.9-0.6-5.4-1.9c-1.4-1.5-2.1-3.4-1.9-5.4c-0.1-2.1,0.6-4.2,2.1-5.7c1.3-1.4,3.2-2.1,5.1-2.1c1.8-0.1,3.6,0.6,4.9,1.9
			c1.2,1.4,1.8,3.2,1.7,5.1L152.2,30.2z M148,27.4c0-2.1-0.8-3.1-2.5-3.1c-0.7,0-1.4,0.3-1.9,0.9c-0.5,0.6-0.9,1.4-1,2.2H148z"/>
		<path class="st1" d="M153.9,35.7v-3.6c0.7,0.4,1.4,0.8,2.2,1c0.7,0.2,1.4,0.3,2.1,0.3c0.6,0,1.3-0.1,1.9-0.4
			c0.4-0.1,0.7-0.5,0.7-1c0-0.3-0.1-0.5-0.3-0.7c-0.2-0.2-0.5-0.4-0.8-0.5c-0.3-0.1-0.7-0.3-1.1-0.4c-0.4-0.1-0.7-0.2-1.1-0.4
			c-0.5-0.2-1-0.4-1.5-0.7c-0.4-0.2-0.8-0.5-1.1-0.9c-0.3-0.3-0.5-0.7-0.7-1.1c-0.2-0.5-0.2-1-0.2-1.5c0-0.7,0.2-1.5,0.5-2.1
			c0.3-0.6,0.8-1.1,1.4-1.4c0.6-0.4,1.3-0.7,2-0.8c0.8-0.2,1.6-0.3,2.4-0.3c0.7,0,1.3,0,2,0.1c0.7,0.1,1.3,0.2,1.9,0.4v3.4
			c-0.6-0.3-1.2-0.6-1.8-0.7c-0.6-0.2-1.3-0.2-1.9-0.3c-0.3,0-0.6,0-0.8,0.1c-0.2,0-0.5,0.1-0.7,0.2c-0.2,0.1-0.3,0.2-0.5,0.4
			c-0.1,0.2-0.2,0.3-0.2,0.5c0,0.2,0.1,0.5,0.3,0.7c0.2,0.2,0.4,0.4,0.7,0.5c0.3,0.1,0.6,0.3,0.9,0.4l1,0.3c0.6,0.2,1.1,0.4,1.6,0.7
			c0.4,0.2,0.9,0.5,1.2,0.9c0.3,0.3,0.6,0.7,0.8,1.2c0.2,0.5,0.3,1,0.3,1.6c0,0.8-0.2,1.5-0.6,2.2c-0.4,0.6-0.9,1.1-1.5,1.5
			c-0.7,0.4-1.4,0.7-2.1,0.8c-0.8,0.2-1.7,0.3-2.5,0.3C156.8,36.5,155.3,36.2,153.9,35.7z"/>
		<path class="st1" d="M169.8,19.4c-0.7,0-1.3-0.2-1.9-0.7c-0.5-0.4-0.7-1-0.7-1.6c0-0.6,0.2-1.2,0.7-1.6c1.1-0.9,2.6-0.9,3.7,0
			c0.5,0.4,0.7,1,0.7,1.6c0,0.6-0.2,1.2-0.7,1.7C171.1,19.2,170.4,19.4,169.8,19.4z M171.9,36.1h-4.4V21.7h4.4V36.1z"/>
		<path class="st1" d="M189.8,34.4c0.1,2.3-0.7,4.6-2.3,6.2c-1.5,1.5-3.8,2.2-6.7,2.2c-1.6,0.1-3.2-0.2-4.6-0.8v-3.7
			c1.4,0.8,2.9,1.3,4.5,1.3c1.3,0.1,2.5-0.3,3.5-1.2c0.9-0.9,1.3-2,1.2-3.2V34h-0.1c-0.9,1.6-2.7,2.5-4.5,2.4
			c-1.7,0.1-3.3-0.6-4.4-1.9c-1.1-1.5-1.7-3.3-1.6-5.2c-0.1-2.1,0.5-4.1,1.8-5.8c1.2-1.4,2.9-2.2,4.7-2.1c1.6-0.1,3.1,0.7,3.9,2h0.1
			v-1.6h4.4L189.8,34.4z M185.4,29.2V28c0-0.8-0.3-1.7-0.8-2.3c-0.5-0.6-1.3-1-2.1-1c-0.9,0-1.8,0.4-2.3,1.2c-0.6,1-0.9,2.1-0.8,3.3
			c-0.1,1,0.2,2,0.8,2.9c0.5,0.7,1.3,1,2.2,1c0.8,0.1,1.7-0.3,2.2-0.9C185.2,31.2,185.5,30.2,185.4,29.2L185.4,29.2z"/>
		<path class="st1" d="M207.4,36.1H203v-8c0-2.2-0.8-3.4-2.4-3.4c-0.7,0-1.4,0.3-1.9,0.9c-0.5,0.6-0.8,1.4-0.8,2.3v8.2h-4.4V21.7
			h4.5V24l0,0c0.9-1.7,2.7-2.7,4.6-2.6c3.2,0,4.8,2,4.8,5.9L207.4,36.1z"/>
	</g>
</g>
</svg>
