<?xml version="1.0" encoding="utf-8"?>
<!-- Generator: Adobe Illustrator 22.0.1, SVG Export Plug-In . SVG Version: 6.00 Build 0)  -->
<svg version="1.1" id="Layer_1" xmlns="http://www.w3.org/2000/svg" xmlns:xlink="http://www.w3.org/1999/xlink" x="0px" y="0px"
	 viewBox="0 0 57.4 88.1" style="enable-background:new 0 0 57.4 88.1;" xml:space="preserve">
<style type="text/css">
	.st0{opacity:0.5;}
	.st1{fill:none;stroke:#231F20;stroke-width:5;stroke-linecap:round;stroke-linejoin:bevel;}
	.st2{fill:#231F20;}
</style>
<title>scroll</title>
<g id="Layer_2_1_">
	<g id="Layer_1-2">
		<g class="st0">
			<line class="st1" x1="28.6" y1="85.8" x2="54.5" y2="59.9"/>
			<line class="st1" x1="2.7" y1="59.9" x2="28.6" y2="85.8"/>
			<line class="st1" x1="28.6" y1="2.7" x2="28.6" y2="85.7"/>
		</g>
		<g class="st0">
			<path class="st2" d="M-52.2,37L-52.2,37v5.2H-55V29.1h2.8v1.4l0,0c0.6-1,1.7-1.6,2.9-1.6c1-0.1,2.1,0.4,2.7,1.2
				c0.7,0.9,1,2.1,1,3.3c0.1,1.3-0.3,2.6-1.1,3.6c-0.7,0.9-1.8,1.4-3,1.4C-50.7,38.3-51.7,37.8-52.2,37z M-52.3,33.3V34
				c0,0.6,0.2,1.1,0.5,1.5s0.8,0.6,1.3,0.6c0.6,0,1.1-0.2,1.5-0.7c0.4-0.6,0.6-1.3,0.5-2.1c0-1.6-0.6-2.4-1.8-2.4
				c-0.5,0-1.1,0.2-1.4,0.6C-52.1,32-52.3,32.7-52.3,33.3z"/>
			<path class="st2" d="M-39.5,38.2c-1.3,0.1-2.6-0.4-3.5-1.3c-0.9-0.9-1.3-2.2-1.3-3.4c-0.1-1.3,0.4-2.6,1.4-3.5s2.3-1.3,3.6-1.3
				c1.3-0.1,2.5,0.4,3.5,1.3c0.9,0.9,1.3,2.1,1.3,3.3c0.1,1.3-0.4,2.6-1.3,3.5C-36.9,37.8-38.2,38.3-39.5,38.2z M-39.5,30.9
				c-0.6,0-1.2,0.2-1.5,0.7c-0.4,0.6-0.6,1.2-0.5,1.9c0,1.7,0.7,2.6,2.1,2.6s2-0.9,2-2.7S-38.1,30.9-39.5,30.9z"/>
			<path class="st2" d="M-33.4,37.8v-2.3c0.4,0.3,0.9,0.5,1.4,0.6c0.4,0.1,0.9,0.2,1.3,0.2s0.8-0.1,1.2-0.2c0.3-0.1,0.4-0.3,0.4-0.6
				c0-0.2-0.1-0.3-0.2-0.4c-0.1-0.1-0.3-0.2-0.5-0.3s-0.4-0.2-0.7-0.2s-0.5-0.2-0.7-0.2c-0.3-0.1-0.6-0.3-0.9-0.4
				c-0.3-0.1-0.5-0.3-0.7-0.5s-0.3-0.4-0.4-0.7c-0.1-0.3-0.2-0.7-0.1-1c0-0.5,0.1-0.9,0.3-1.3s0.5-0.7,0.9-0.9
				c0.4-0.2,0.8-0.4,1.2-0.5c0.5-0.1,1-0.2,1.5-0.2c0.8,0,1.6,0.1,2.4,0.4v2.1c-0.4-0.2-0.7-0.4-1.1-0.5s-0.8-0.1-1.2-0.1
				c-0.2,0-0.3,0-0.5,0c-0.1,0-0.3,0.1-0.4,0.1c-0.1,0.1-0.2,0.1-0.3,0.2c-0.1,0.1-0.1,0.2-0.1,0.3c0,0.2,0.1,0.3,0.2,0.4
				s0.3,0.2,0.4,0.3c0.2,0.1,0.4,0.2,0.6,0.2l0.6,0.2c0.3,0.1,0.7,0.3,1,0.4c0.3,0.1,0.5,0.3,0.8,0.5c0.2,0.2,0.4,0.4,0.5,0.7
				s0.2,0.7,0.2,1c0,0.5-0.1,0.9-0.4,1.4c-0.2,0.4-0.5,0.7-0.9,0.9s-0.9,0.4-1.3,0.5c-0.5,0.1-1,0.2-1.6,0.2
				C-31.6,38.2-32.5,38.1-33.4,37.8z"/>
			<path class="st2" d="M-16.4,38.1h-2.8v-1.4l0,0c-0.6,1-1.6,1.6-2.8,1.6c-2.1,0-3.1-1.3-3.1-3.8v-5.4h2.8v5.2
				c0,1.3,0.5,1.9,1.5,1.9c0.5,0,0.9-0.2,1.2-0.5c0.3-0.4,0.5-0.9,0.5-1.4v-5.2h2.8L-16.4,38.1z"/>
			<path class="st2" d="M-5.3,38.1h-2.8v-5c0-1.4-0.5-2.1-1.5-2.1c-0.5,0-0.9,0.2-1.2,0.6s-0.5,0.9-0.5,1.4v5.1H-14v-9h2.8v1.4l0,0
				c0.6-1,1.7-1.7,2.9-1.6c2,0,3,1.2,3,3.7C-5.3,32.6-5.3,38.1-5.3,38.1z M-6.4,24.7l-2.1,2.9h-2.2l-2.1-2.9h1.8l1.4,1.6l1.4-1.6
				H-6.4z"/>
			<path class="st2" d="M158.5,36.4h-2.8v-5c0-1.4-0.5-2.1-1.5-2.1c-0.5,0-0.9,0.2-1.2,0.6s-0.5,0.9-0.5,1.4v5.1h-2.8v-9h2.8v1.4
				l0,0c0.6-1,1.7-1.7,2.9-1.6c2,0,3,1.2,3,3.7L158.5,36.4z"/>
			<path class="st2" d="M168.2,36.4h-2.6v-1.3l0,0c-0.5,1-1.6,1.5-2.7,1.5c-0.8,0-1.5-0.2-2.1-0.8c-0.5-0.5-0.8-1.3-0.8-2
				c0-1.7,1-2.7,3.1-3l2.4-0.3c0-1-0.5-1.5-1.6-1.5s-2.1,0.4-3,1v-2c0.5-0.2,1-0.4,1.6-0.5s1.2-0.2,1.8-0.2c2.6,0,3.9,1.3,3.9,3.8
				L168.2,36.4z M165.6,32.8v-0.6l-1.6,0.2c-0.9,0.1-1.3,0.5-1.3,1.2c0,0.3,0.1,0.6,0.3,0.8s0.6,0.3,0.9,0.3c0.5,0,0.9-0.2,1.3-0.5
				C165.4,33.8,165.6,33.3,165.6,32.8L165.6,32.8z"/>
			<path class="st2" d="M179.2,36.4h-2.8v-1.3l0,0c-0.6,1-1.7,1.5-2.8,1.5c-1,0-2.1-0.4-2.8-1.2c-0.7-1-1.1-2.1-1-3.3
				c-0.1-1.3,0.3-2.6,1.1-3.6c0.7-0.9,1.8-1.4,3-1.3c1-0.1,1.9,0.4,2.4,1.3l0,0v-5.4h2.8L179.2,36.4z M176.5,32.1v-0.7
				c0-0.5-0.2-1.1-0.5-1.5s-0.8-0.6-1.3-0.6c-0.6,0-1.1,0.3-1.4,0.7c-0.4,0.6-0.6,1.3-0.5,2c0,0.6,0.1,1.3,0.5,1.8
				c0.3,0.4,0.8,0.7,1.4,0.6c0.5,0,1.1-0.2,1.4-0.7C176.3,33.3,176.5,32.7,176.5,32.1L176.5,32.1z"/>
			<path class="st2" d="M185.8,36.6c-1.3,0.1-2.6-0.4-3.6-1.3c-0.9-0.9-1.4-2.2-1.3-3.4c-0.1-1.3,0.4-2.6,1.4-3.5s2.3-1.3,3.6-1.3
				c1.3-0.1,2.6,0.4,3.5,1.3s1.3,2.1,1.3,3.3c0.1,1.3-0.4,2.6-1.3,3.5C188.5,36.2,187.2,36.7,185.8,36.6z M185.9,29.3
				c-0.6,0-1.2,0.2-1.5,0.7c-0.4,0.6-0.6,1.2-0.6,1.9c0,1.7,0.7,2.6,2.1,2.6s2-0.9,2-2.7S187.3,29.3,185.9,29.3L185.9,29.3z"/>
			<path class="st2" d="M195.3,36.4h-2.8V23.1h2.8V36.4z"/>
		</g>
	</g>
</g>
</svg>
